%TF.GenerationSoftware,KiCad,Pcbnew,(6.0.8)*%
%TF.CreationDate,2023-02-12T14:01:58-05:00*%
%TF.ProjectId,PBoard PCB,50426f61-7264-4205-9043-422e6b696361,rev?*%
%TF.SameCoordinates,Original*%
%TF.FileFunction,Soldermask,Top*%
%TF.FilePolarity,Negative*%
%FSLAX46Y46*%
G04 Gerber Fmt 4.6, Leading zero omitted, Abs format (unit mm)*
G04 Created by KiCad (PCBNEW (6.0.8)) date 2023-02-12 14:01:58*
%MOMM*%
%LPD*%
G01*
G04 APERTURE LIST*
G04 Aperture macros list*
%AMRoundRect*
0 Rectangle with rounded corners*
0 $1 Rounding radius*
0 $2 $3 $4 $5 $6 $7 $8 $9 X,Y pos of 4 corners*
0 Add a 4 corners polygon primitive as box body*
4,1,4,$2,$3,$4,$5,$6,$7,$8,$9,$2,$3,0*
0 Add four circle primitives for the rounded corners*
1,1,$1+$1,$2,$3*
1,1,$1+$1,$4,$5*
1,1,$1+$1,$6,$7*
1,1,$1+$1,$8,$9*
0 Add four rect primitives between the rounded corners*
20,1,$1+$1,$2,$3,$4,$5,0*
20,1,$1+$1,$4,$5,$6,$7,0*
20,1,$1+$1,$6,$7,$8,$9,0*
20,1,$1+$1,$8,$9,$2,$3,0*%
G04 Aperture macros list end*
%ADD10RoundRect,0.150000X-0.825000X-0.150000X0.825000X-0.150000X0.825000X0.150000X-0.825000X0.150000X0*%
%ADD11R,0.700000X0.650000*%
%ADD12R,0.650000X0.700000*%
%ADD13C,1.100000*%
%ADD14C,1.600000*%
%ADD15C,3.200000*%
%ADD16O,1.700000X1.700000*%
%ADD17R,1.700000X1.700000*%
G04 APERTURE END LIST*
D10*
%TO.C,REF\u002A\u002A*%
X82935000Y-110099000D03*
X82935000Y-111369000D03*
X82935000Y-112639000D03*
X82935000Y-113909000D03*
X82935000Y-115179000D03*
X82935000Y-116449000D03*
X82935000Y-117719000D03*
X82935000Y-118989000D03*
X87885000Y-118989000D03*
X87885000Y-117719000D03*
X87885000Y-116449000D03*
X87885000Y-115179000D03*
X87885000Y-113909000D03*
X87885000Y-112639000D03*
X87885000Y-111369000D03*
X87885000Y-110099000D03*
%TD*%
D11*
%TO.C,S4*%
X98462000Y-85022000D03*
X97192000Y-85022000D03*
X95972000Y-85022000D03*
D12*
X95142000Y-85852000D03*
X95142000Y-87122000D03*
X95142000Y-88392000D03*
D11*
X95972000Y-89222000D03*
X97192000Y-89222000D03*
X98462000Y-89222000D03*
D12*
X99342000Y-88392000D03*
X99342000Y-87122000D03*
X99342000Y-85852000D03*
%TD*%
D13*
%TO.C,REF\u002A\u002A*%
X97172000Y-87902000D03*
%TD*%
%TO.C,Kevin Lie-Atjam*%
X77032000Y-114028000D03*
%TD*%
D11*
%TO.C,S2*%
X77978000Y-65464000D03*
X79248000Y-65464000D03*
X80518000Y-65464000D03*
D12*
X81348000Y-66344000D03*
X81348000Y-67614000D03*
X81348000Y-68834000D03*
D11*
X80518000Y-69664000D03*
X79248000Y-69664000D03*
X77978000Y-69664000D03*
D12*
X77148000Y-68834000D03*
X77148000Y-67614000D03*
X77148000Y-66344000D03*
%TD*%
D13*
%TO.C,REF\u002A\u002A*%
X96918000Y-102634000D03*
%TD*%
D14*
%TO.C,C6*%
X99996000Y-92202000D03*
X94996000Y-92202000D03*
%TD*%
%TO.C,C13*%
X94702000Y-121822000D03*
X99702000Y-121822000D03*
%TD*%
%TO.C,C14*%
X100330000Y-111506000D03*
X95330000Y-111506000D03*
%TD*%
D13*
%TO.C,Courtesy of*%
X79774000Y-76270000D03*
%TD*%
D15*
%TO.C,M3*%
X103632000Y-53508000D03*
%TD*%
D12*
%TO.C,S0*%
X77402000Y-83616000D03*
X77402000Y-84886000D03*
X77402000Y-86106000D03*
D11*
X78232000Y-86936000D03*
X79502000Y-86936000D03*
X80772000Y-86936000D03*
D12*
X81602000Y-86106000D03*
X81602000Y-84886000D03*
X81602000Y-83616000D03*
D11*
X80772000Y-82736000D03*
X79502000Y-82736000D03*
X78232000Y-82736000D03*
%TD*%
%TO.C,S7*%
X75742000Y-116908000D03*
X77012000Y-116908000D03*
X78232000Y-116908000D03*
D12*
X79062000Y-116078000D03*
X79062000Y-114808000D03*
X79062000Y-113538000D03*
D11*
X78232000Y-112708000D03*
X77012000Y-112708000D03*
X75742000Y-112708000D03*
D12*
X74862000Y-113538000D03*
X74862000Y-114808000D03*
X74862000Y-116078000D03*
%TD*%
D14*
%TO.C,C3*%
X84328000Y-70064000D03*
X84328000Y-65064000D03*
%TD*%
D15*
%TO.C,M3*%
X72696000Y-130508000D03*
%TD*%
D14*
%TO.C,C2*%
X74422000Y-82082000D03*
X74422000Y-87082000D03*
%TD*%
%TO.C,C4*%
X73914000Y-73446000D03*
X73914000Y-78446000D03*
%TD*%
%TO.C,C12*%
X99770000Y-96676000D03*
X94770000Y-96676000D03*
%TD*%
%TO.C,C15*%
X74168000Y-109474000D03*
X79168000Y-109474000D03*
%TD*%
%TO.C,C5*%
X99692000Y-77216000D03*
X94692000Y-77216000D03*
%TD*%
%TO.C,C10*%
X99742000Y-82042000D03*
X94742000Y-82042000D03*
%TD*%
D13*
%TO.C,REF\u002A\u002A*%
X96918000Y-117366000D03*
%TD*%
D14*
%TO.C,C16*%
X74512000Y-119956000D03*
X79512000Y-119956000D03*
%TD*%
%TO.C,C6*%
X74168000Y-65064000D03*
X74168000Y-70064000D03*
%TD*%
%TO.C,C8*%
X99692000Y-67056000D03*
X94692000Y-67056000D03*
%TD*%
D11*
%TO.C,S5*%
X98208000Y-99754000D03*
X96938000Y-99754000D03*
X95718000Y-99754000D03*
D12*
X94888000Y-100584000D03*
X94888000Y-101854000D03*
X94888000Y-103124000D03*
D11*
X95718000Y-103954000D03*
X96938000Y-103954000D03*
X98208000Y-103954000D03*
D12*
X99088000Y-103124000D03*
X99088000Y-101854000D03*
X99088000Y-100584000D03*
%TD*%
D13*
%TO.C,REF\u002A\u002A*%
X80028000Y-67634000D03*
%TD*%
D11*
%TO.C,S3*%
X98208000Y-70104000D03*
X96938000Y-70104000D03*
X95718000Y-70104000D03*
D12*
X94888000Y-70934000D03*
X94888000Y-72204000D03*
X94888000Y-73474000D03*
D11*
X95718000Y-74304000D03*
X96938000Y-74304000D03*
X98208000Y-74304000D03*
D12*
X99088000Y-73474000D03*
X99088000Y-72204000D03*
X99088000Y-70934000D03*
%TD*%
D11*
%TO.C,S1*%
X77724000Y-74100000D03*
X78994000Y-74100000D03*
X80264000Y-74100000D03*
D12*
X81094000Y-74980000D03*
X81094000Y-76250000D03*
X81094000Y-77470000D03*
D11*
X80264000Y-78300000D03*
X78994000Y-78300000D03*
X77724000Y-78300000D03*
D12*
X76894000Y-77470000D03*
X76894000Y-76250000D03*
X76894000Y-74980000D03*
%TD*%
D15*
%TO.C,M3*%
X103632000Y-130508000D03*
%TD*%
D16*
%TO.C,GPIO*%
X94463000Y-60706000D03*
X91923000Y-60706000D03*
X89383000Y-60706000D03*
X86843000Y-60706000D03*
X84303000Y-60706000D03*
X81763000Y-60706000D03*
X79223000Y-60706000D03*
D17*
X76683000Y-60706000D03*
%TD*%
D14*
%TO.C,C11*%
X99742000Y-106836000D03*
X94742000Y-106836000D03*
%TD*%
D13*
%TO.C,REF\u002A\u002A*%
X96918000Y-72984000D03*
%TD*%
D15*
%TO.C,M3*%
X72696000Y-53508000D03*
%TD*%
D14*
%TO.C,C2*%
X84074000Y-79168000D03*
X84074000Y-74168000D03*
%TD*%
%TO.C,C1*%
X84582000Y-82082000D03*
X84582000Y-87082000D03*
%TD*%
D13*
%TO.C,MARKUP v1.0*%
X80282000Y-84906000D03*
%TD*%
D11*
%TO.C,S6*%
X98208000Y-114486000D03*
X96938000Y-114486000D03*
X95718000Y-114486000D03*
D12*
X94888000Y-115316000D03*
X94888000Y-116586000D03*
X94888000Y-117856000D03*
D11*
X95718000Y-118686000D03*
X96938000Y-118686000D03*
X98208000Y-118686000D03*
D12*
X99088000Y-117856000D03*
X99088000Y-116586000D03*
X99088000Y-115316000D03*
%TD*%
M02*
