M48
; DRILL file {KiCad (6.0.8)} date Sun Feb 12 14:01:52 2023
; FORMAT={-:-/ absolute / inch / decimal}
; #@! TF.CreationDate,2023-02-12T14:01:52-05:00
; #@! TF.GenerationSoftware,Kicad,Pcbnew,(6.0.8)
; #@! TF.FileFunction,MixedPlating,1,2
FMAT,2
INCH
; #@! TA.AperFunction,Plated,PTH,ViaDrill
T1C0.0157
; #@! TA.AperFunction,Plated,PTH,ComponentDrill
T2C0.0315
; #@! TA.AperFunction,Plated,PTH,ComponentDrill
T3C0.0394
; #@! TA.AperFunction,NonPlated,NPTH,ComponentDrill
T4C0.0433
; #@! TA.AperFunction,NonPlated,NPTH,ComponentDrill
T5C0.1260
%
G90
G05
T1
X2.8685Y-3.47
X2.87Y-3.17
X2.9Y-2.81
X2.9126Y-2.9896
X2.9178Y-2.4822
X2.9326Y-2.6596
X2.9326Y-3.3396
X2.98Y-2.5
X3.0326Y-4.6796
X3.09Y-2.5
X3.15Y-3.19
X3.2126Y-4.4696
X3.2126Y-4.7296
X3.4515Y-3.79
X3.47Y-3.07
X3.47Y-3.41
X3.47Y-3.59
X3.48Y-3.71
X3.5173Y-3.1073
X3.519Y-3.39
X3.55Y-2.92
X3.5938Y-3.17
X3.5938Y-3.63
X3.62Y-2.94
X3.6292Y-4.33
X3.63Y-3.87
X3.64Y-3.14
X3.64Y-3.47
X3.6494Y-4.3994
X3.65Y-3.75
X3.6685Y-4.44
X3.67Y-3.84
X3.67Y-4.27
X3.68Y-3.59
X3.72Y-2.72
X3.72Y-3.91
X3.7471Y-3.3029
X3.8026Y-3.8596
X3.8093Y-4.4611
X3.8226Y-2.6796
X3.8367Y-3.2737
X3.9Y-2.72
X3.9321Y-3.9021
X3.9629Y-3.3029
X4.0Y-2.6
X4.08Y-2.52
T2
X2.91Y-2.8916
X2.91Y-3.0884
X2.92Y-2.5616
X2.92Y-2.7584
X2.92Y-4.31
X2.93Y-3.2316
X2.93Y-3.4284
X2.9335Y-4.7227
X3.1169Y-4.31
X3.1304Y-4.7227
X3.31Y-2.92
X3.31Y-3.1169
X3.32Y-2.5616
X3.32Y-2.7584
X3.33Y-3.2316
X3.33Y-3.4284
X3.728Y-2.64
X3.728Y-3.04
X3.7284Y-4.7961
X3.73Y-3.23
X3.73Y-4.2061
X3.7311Y-3.8061
X3.74Y-3.63
X3.7531Y-4.39
X3.9249Y-2.64
X3.9249Y-3.04
X3.9253Y-4.7961
X3.9269Y-3.23
X3.9269Y-4.2061
X3.928Y-3.8061
X3.9369Y-3.63
X3.95Y-4.39
T3
X3.019Y-2.39
X3.119Y-2.39
X3.219Y-2.39
X3.319Y-2.39
X3.419Y-2.39
X3.519Y-2.39
X3.619Y-2.39
X3.719Y-2.39
T4
X3.0328Y-4.4893
X3.1407Y-3.0028
X3.1507Y-2.6628
X3.1607Y-3.3428
X3.8157Y-2.8734
X3.8157Y-4.0407
X3.8157Y-4.6207
X3.8257Y-3.4607
T5
X2.862Y-2.1066
X2.862Y-5.1381
X4.08Y-2.1066
X4.08Y-5.1381
T0
M30
