%TF.GenerationSoftware,KiCad,Pcbnew,(6.0.8)*%
%TF.CreationDate,2023-02-12T14:01:58-05:00*%
%TF.ProjectId,PBoard PCB,50426f61-7264-4205-9043-422e6b696361,rev?*%
%TF.SameCoordinates,Original*%
%TF.FileFunction,Copper,L2,Bot*%
%TF.FilePolarity,Positive*%
%FSLAX46Y46*%
G04 Gerber Fmt 4.6, Leading zero omitted, Abs format (unit mm)*
G04 Created by KiCad (PCBNEW (6.0.8)) date 2023-02-12 14:01:58*
%MOMM*%
%LPD*%
G01*
G04 APERTURE LIST*
%TA.AperFunction,ComponentPad*%
%ADD10C,1.600000*%
%TD*%
%TA.AperFunction,ComponentPad*%
%ADD11O,1.700000X1.700000*%
%TD*%
%TA.AperFunction,ComponentPad*%
%ADD12R,1.700000X1.700000*%
%TD*%
%TA.AperFunction,ViaPad*%
%ADD13C,0.800000*%
%TD*%
%TA.AperFunction,Conductor*%
%ADD14C,0.250000*%
%TD*%
G04 APERTURE END LIST*
D10*
%TO.P,C6,1*%
%TO.N,Net-(C7-Pad1)*%
X99996000Y-92202000D03*
%TO.P,C6,2*%
%TO.N,Net-(C7-Pad2)*%
X94996000Y-92202000D03*
%TD*%
%TO.P,C13,2*%
%TO.N,Net-(C11-Pad2)*%
X94702000Y-121822000D03*
%TO.P,C13,1*%
%TO.N,Net-(C11-Pad1)*%
X99702000Y-121822000D03*
%TD*%
%TO.P,C14,1*%
%TO.N,+3V3*%
X100330000Y-111506000D03*
%TO.P,C14,2*%
%TO.N,GND*%
X95330000Y-111506000D03*
%TD*%
%TO.P,C3,2*%
%TO.N,Net-(C3-Pad2)*%
X84328000Y-70064000D03*
%TO.P,C3,1*%
%TO.N,Net-(C3-Pad1)*%
X84328000Y-65064000D03*
%TD*%
%TO.P,C2,1*%
%TO.N,+3V3*%
X74422000Y-82082000D03*
%TO.P,C2,2*%
%TO.N,GND*%
X74422000Y-87082000D03*
%TD*%
%TO.P,C4,1*%
%TO.N,+3V3*%
X73914000Y-73446000D03*
%TO.P,C4,2*%
%TO.N,GND*%
X73914000Y-78446000D03*
%TD*%
%TO.P,C12,1*%
%TO.N,+3V3*%
X99770000Y-96676000D03*
%TO.P,C12,2*%
%TO.N,GND*%
X94770000Y-96676000D03*
%TD*%
%TO.P,C15,1*%
%TO.N,Net-(C13-Pad1)*%
X74168000Y-109474000D03*
%TO.P,C15,2*%
%TO.N,Net-(C13-Pad2)*%
X79168000Y-109474000D03*
%TD*%
%TO.P,C5,1*%
%TO.N,Net-(C5-Pad1)*%
X99692000Y-77216000D03*
%TO.P,C5,2*%
%TO.N,Net-(C5-Pad2)*%
X94692000Y-77216000D03*
%TD*%
%TO.P,C10,1*%
%TO.N,+3V3*%
X99742000Y-82042000D03*
%TO.P,C10,2*%
%TO.N,GND*%
X94742000Y-82042000D03*
%TD*%
%TO.P,C16,1*%
%TO.N,+3V3*%
X74512000Y-119956000D03*
%TO.P,C16,2*%
%TO.N,GND*%
X79512000Y-119956000D03*
%TD*%
%TO.P,C6,1*%
%TO.N,+3V3*%
X74168000Y-65064000D03*
%TO.P,C6,2*%
%TO.N,GND*%
X74168000Y-70064000D03*
%TD*%
%TO.P,C8,1*%
%TO.N,+3V3*%
X99692000Y-67056000D03*
%TO.P,C8,2*%
%TO.N,GND*%
X94692000Y-67056000D03*
%TD*%
D11*
%TO.P,GPIO,8,Pin_8*%
%TO.N,GND*%
X94463000Y-60706000D03*
%TO.P,GPIO,7,Pin_7*%
%TO.N,+3V3*%
X91923000Y-60706000D03*
%TO.P,GPIO,6,Pin_6*%
%TO.N,Net-(IC1-Pad3)*%
X89383000Y-60706000D03*
%TO.P,GPIO,5,Pin_5*%
%TO.N,Net-(IC1-Pad2)*%
X86843000Y-60706000D03*
%TO.P,GPIO,4,Pin_4*%
%TO.N,Net-(IC1-Pad1)*%
X84303000Y-60706000D03*
%TO.P,GPIO,3,Pin_3*%
%TO.N,/CLK*%
X81763000Y-60706000D03*
%TO.P,GPIO,2,Pin_2*%
%TO.N,/MOSI*%
X79223000Y-60706000D03*
D12*
%TO.P,GPIO,1,Pin_1*%
%TO.N,/MISO*%
X76683000Y-60706000D03*
%TD*%
D10*
%TO.P,C11,1*%
%TO.N,Net-(C9-Pad1)*%
X99742000Y-106836000D03*
%TO.P,C11,2*%
%TO.N,Net-(C9-Pad2)*%
X94742000Y-106836000D03*
%TD*%
%TO.P,C2,2*%
%TO.N,Net-(C1-Pad2)*%
X84074000Y-79168000D03*
%TO.P,C2,1*%
%TO.N,Net-(C1-Pad1)*%
X84074000Y-74168000D03*
%TD*%
%TO.P,C1,1*%
%TO.N,Net-(C15-Pad1)*%
X84582000Y-82082000D03*
%TO.P,C1,2*%
%TO.N,Net-(C15-Pad2)*%
X84582000Y-87082000D03*
%TD*%
D13*
%TO.N,GND*%
X81600000Y-113528000D03*
X81600000Y-120132000D03*
X74488000Y-67554000D03*
X73980000Y-75936000D03*
X74488000Y-84826000D03*
X77028000Y-118862000D03*
X97094000Y-68062000D03*
X97451299Y-83151299D03*
X96586000Y-98034000D03*
X96755213Y-113311385D03*
%TO.N,+3V3*%
X103632000Y-64008000D03*
X101600000Y-66040000D03*
%TO.N,/CLK*%
X88392000Y-94234000D03*
X91948000Y-74676000D03*
X93472000Y-91186000D03*
X75692000Y-63500000D03*
X92456000Y-79756000D03*
X89383500Y-86106000D03*
X93218000Y-97536000D03*
X93180500Y-112776000D03*
X78486000Y-63500000D03*
X93218000Y-108458000D03*
%TO.N,/MOSI*%
X92182500Y-109982000D03*
X92202000Y-98298000D03*
X91282500Y-80518000D03*
X87667500Y-96266000D03*
X92710000Y-95250000D03*
X90170000Y-74168000D03*
X88138000Y-77978000D03*
X92694299Y-111744299D03*
X89339299Y-78925299D03*
X91282500Y-92202000D03*
%TO.N,/MISO*%
X88138000Y-86614000D03*
X99060000Y-69088000D03*
X92456000Y-88138000D03*
X80010000Y-81026000D03*
X94488000Y-69088000D03*
X95176802Y-83893198D03*
X94488000Y-99314000D03*
X100657198Y-83893198D03*
X88138000Y-91186000D03*
X99874300Y-99112300D03*
%TO.N,Net-(IC1-Pad13)*%
X74111247Y-63048753D03*
X73660000Y-71374000D03*
%TO.N,Net-(IC1-Pad15)*%
X72898000Y-80518000D03*
X72860500Y-88138000D03*
%TD*%
D14*
%TO.N,+3V3*%
X101600000Y-66040000D02*
X103632000Y-64008000D01*
%TO.N,/CLK*%
X93472000Y-91186000D02*
X93472000Y-97282000D01*
X90424000Y-94234000D02*
X88392000Y-94234000D01*
X89383500Y-86106000D02*
X91449305Y-86106000D01*
X93472000Y-97282000D02*
X93218000Y-97536000D01*
X92456000Y-80772000D02*
X92456000Y-79756000D01*
X78486000Y-63500000D02*
X75692000Y-63500000D01*
X91694000Y-81534000D02*
X92456000Y-80772000D01*
X93419299Y-108659299D02*
X93218000Y-108458000D01*
X89383500Y-86106000D02*
X91694000Y-83795500D01*
X93180500Y-112776000D02*
X93419299Y-112537201D01*
X91948000Y-79248000D02*
X92456000Y-79756000D01*
X93472000Y-88128695D02*
X93472000Y-91186000D01*
X93472000Y-91186000D02*
X90424000Y-94234000D01*
X91449305Y-86106000D02*
X93472000Y-88128695D01*
X91694000Y-83795500D02*
X91694000Y-81534000D01*
X91948000Y-74676000D02*
X91948000Y-79248000D01*
X93419299Y-112537201D02*
X93419299Y-108659299D01*
%TO.N,/MOSI*%
X91282500Y-80518000D02*
X90932000Y-80518000D01*
X90932000Y-80518000D02*
X89339299Y-78925299D01*
X92456000Y-98044000D02*
X92202000Y-98298000D01*
X92182500Y-109982000D02*
X92182500Y-111232500D01*
X87667500Y-93933195D02*
X87667500Y-96266000D01*
X92182500Y-111232500D02*
X92694299Y-111744299D01*
X89398695Y-92202000D02*
X87667500Y-93933195D01*
X87667500Y-96266000D02*
X90170000Y-96266000D01*
X89085299Y-78925299D02*
X88138000Y-77978000D01*
X91282500Y-92202000D02*
X89398695Y-92202000D01*
X92710000Y-95250000D02*
X92456000Y-95504000D01*
X90170000Y-96266000D02*
X92202000Y-98298000D01*
X88138000Y-76200000D02*
X88138000Y-77978000D01*
X90170000Y-74168000D02*
X88138000Y-76200000D01*
X89339299Y-78925299D02*
X89085299Y-78925299D01*
X92456000Y-95504000D02*
X92456000Y-98044000D01*
%TO.N,/MISO*%
X89662000Y-88138000D02*
X92456000Y-88138000D01*
X88138000Y-91186000D02*
X88138000Y-86614000D01*
X94689700Y-99112300D02*
X94488000Y-99314000D01*
X99874300Y-99112300D02*
X94689700Y-99112300D01*
X95176802Y-83893198D02*
X100657198Y-83893198D01*
X80010000Y-81026000D02*
X80116991Y-81026000D01*
X88138000Y-86614000D02*
X89662000Y-88138000D01*
X85704991Y-86614000D02*
X88138000Y-86614000D01*
X80116991Y-81026000D02*
X85704991Y-86614000D01*
X99060000Y-69088000D02*
X94488000Y-69088000D01*
%TO.N,Net-(IC1-Pad13)*%
X73043000Y-64117000D02*
X73043000Y-70757000D01*
X73043000Y-70757000D02*
X73660000Y-71374000D01*
X74111247Y-63048753D02*
X73043000Y-64117000D01*
%TO.N,Net-(IC1-Pad15)*%
X72898000Y-80518000D02*
X72898000Y-88100500D01*
X72898000Y-88100500D02*
X72860500Y-88138000D01*
%TD*%
%TA.AperFunction,Conductor*%
%TO.N,GND*%
G36*
X103602018Y-48938000D02*
G01*
X103616851Y-48940310D01*
X103616855Y-48940310D01*
X103625724Y-48941691D01*
X103646183Y-48939016D01*
X103668008Y-48938072D01*
X104024937Y-48953656D01*
X104035886Y-48954614D01*
X104420379Y-49005233D01*
X104431205Y-49007142D01*
X104809822Y-49091080D01*
X104820439Y-49093925D01*
X104990702Y-49147608D01*
X105190302Y-49210542D01*
X105200615Y-49214295D01*
X105558932Y-49362715D01*
X105568876Y-49367353D01*
X105912867Y-49546423D01*
X105922387Y-49551919D01*
X106249468Y-49760292D01*
X106258472Y-49766597D01*
X106566138Y-50002678D01*
X106574558Y-50009743D01*
X106860483Y-50271744D01*
X106868256Y-50279517D01*
X107130257Y-50565442D01*
X107137322Y-50573862D01*
X107373403Y-50881528D01*
X107379708Y-50890532D01*
X107588081Y-51217613D01*
X107593576Y-51227132D01*
X107725193Y-51479964D01*
X107772643Y-51571115D01*
X107777285Y-51581068D01*
X107899895Y-51877074D01*
X107925702Y-51939377D01*
X107929458Y-51949698D01*
X107965680Y-52064579D01*
X108046075Y-52319561D01*
X108048920Y-52330178D01*
X108132858Y-52708795D01*
X108134767Y-52719621D01*
X108185386Y-53104114D01*
X108186344Y-53115063D01*
X108197521Y-53371049D01*
X108201603Y-53464552D01*
X108200223Y-53489429D01*
X108198309Y-53501724D01*
X108199473Y-53510626D01*
X108199473Y-53510628D01*
X108202436Y-53533283D01*
X108203500Y-53549621D01*
X108203500Y-130458633D01*
X108202000Y-130478018D01*
X108199690Y-130492851D01*
X108199690Y-130492855D01*
X108198309Y-130501724D01*
X108200984Y-130522183D01*
X108201928Y-130544008D01*
X108186344Y-130900936D01*
X108185386Y-130911886D01*
X108134767Y-131296379D01*
X108132858Y-131307205D01*
X108048920Y-131685822D01*
X108046075Y-131696439D01*
X107992392Y-131866702D01*
X107963713Y-131957661D01*
X107929461Y-132066294D01*
X107925705Y-132076615D01*
X107830610Y-132306196D01*
X107777289Y-132434923D01*
X107772647Y-132444876D01*
X107666764Y-132648276D01*
X107593577Y-132788867D01*
X107588081Y-132798387D01*
X107379708Y-133125468D01*
X107373403Y-133134472D01*
X107137322Y-133442138D01*
X107130257Y-133450558D01*
X106868256Y-133736483D01*
X106860483Y-133744256D01*
X106574558Y-134006257D01*
X106566138Y-134013322D01*
X106258472Y-134249403D01*
X106249468Y-134255708D01*
X105922387Y-134464081D01*
X105912868Y-134469576D01*
X105568876Y-134648647D01*
X105558932Y-134653285D01*
X105200615Y-134801705D01*
X105190302Y-134805458D01*
X104990702Y-134868392D01*
X104820439Y-134922075D01*
X104809822Y-134924920D01*
X104431205Y-135008858D01*
X104420379Y-135010767D01*
X104035886Y-135061386D01*
X104024937Y-135062344D01*
X103675446Y-135077603D01*
X103650571Y-135076223D01*
X103638276Y-135074309D01*
X103629374Y-135075473D01*
X103629372Y-135075473D01*
X103614323Y-135077441D01*
X103606714Y-135078436D01*
X103590379Y-135079500D01*
X72745367Y-135079500D01*
X72725982Y-135078000D01*
X72711149Y-135075690D01*
X72711145Y-135075690D01*
X72702276Y-135074309D01*
X72681817Y-135076984D01*
X72659992Y-135077928D01*
X72303063Y-135062344D01*
X72292114Y-135061386D01*
X71907621Y-135010767D01*
X71896795Y-135008858D01*
X71518178Y-134924920D01*
X71507561Y-134922075D01*
X71337298Y-134868392D01*
X71137698Y-134805458D01*
X71127385Y-134801705D01*
X70769068Y-134653285D01*
X70759124Y-134648647D01*
X70415132Y-134469576D01*
X70405613Y-134464081D01*
X70078532Y-134255708D01*
X70069528Y-134249403D01*
X69761862Y-134013322D01*
X69753442Y-134006257D01*
X69467517Y-133744256D01*
X69459744Y-133736483D01*
X69197743Y-133450558D01*
X69190678Y-133442138D01*
X68954597Y-133134472D01*
X68948292Y-133125468D01*
X68739919Y-132798387D01*
X68734423Y-132788867D01*
X68661236Y-132648276D01*
X68555353Y-132444876D01*
X68550711Y-132434923D01*
X68497391Y-132306196D01*
X68402295Y-132076615D01*
X68398539Y-132066294D01*
X68364288Y-131957661D01*
X68335608Y-131866702D01*
X68281925Y-131696439D01*
X68279080Y-131685822D01*
X68195142Y-131307205D01*
X68193233Y-131296379D01*
X68142614Y-130911886D01*
X68141656Y-130900936D01*
X68130294Y-130640703D01*
X70586743Y-130640703D01*
X70624268Y-130925734D01*
X70700129Y-131203036D01*
X70812923Y-131467476D01*
X70824693Y-131487142D01*
X70949955Y-131696439D01*
X70960561Y-131714161D01*
X71140313Y-131938528D01*
X71348851Y-132136423D01*
X71582317Y-132304186D01*
X71586112Y-132306195D01*
X71586113Y-132306196D01*
X71607869Y-132317715D01*
X71836392Y-132438712D01*
X72106373Y-132537511D01*
X72387264Y-132598755D01*
X72415841Y-132601004D01*
X72610282Y-132616307D01*
X72610291Y-132616307D01*
X72612739Y-132616500D01*
X72768271Y-132616500D01*
X72770407Y-132616354D01*
X72770418Y-132616354D01*
X72978548Y-132602165D01*
X72978554Y-132602164D01*
X72982825Y-132601873D01*
X72987020Y-132601004D01*
X72987022Y-132601004D01*
X73123584Y-132572723D01*
X73264342Y-132543574D01*
X73535343Y-132447607D01*
X73790812Y-132315750D01*
X73794313Y-132313289D01*
X73794317Y-132313287D01*
X73908417Y-132233096D01*
X74026023Y-132150441D01*
X74236622Y-131954740D01*
X74418713Y-131732268D01*
X74568927Y-131487142D01*
X74684483Y-131223898D01*
X74763244Y-130947406D01*
X74803751Y-130662784D01*
X74803845Y-130644951D01*
X74803867Y-130640703D01*
X101522743Y-130640703D01*
X101560268Y-130925734D01*
X101636129Y-131203036D01*
X101748923Y-131467476D01*
X101760693Y-131487142D01*
X101885955Y-131696439D01*
X101896561Y-131714161D01*
X102076313Y-131938528D01*
X102284851Y-132136423D01*
X102518317Y-132304186D01*
X102522112Y-132306195D01*
X102522113Y-132306196D01*
X102543869Y-132317715D01*
X102772392Y-132438712D01*
X103042373Y-132537511D01*
X103323264Y-132598755D01*
X103351841Y-132601004D01*
X103546282Y-132616307D01*
X103546291Y-132616307D01*
X103548739Y-132616500D01*
X103704271Y-132616500D01*
X103706407Y-132616354D01*
X103706418Y-132616354D01*
X103914548Y-132602165D01*
X103914554Y-132602164D01*
X103918825Y-132601873D01*
X103923020Y-132601004D01*
X103923022Y-132601004D01*
X104059584Y-132572723D01*
X104200342Y-132543574D01*
X104471343Y-132447607D01*
X104726812Y-132315750D01*
X104730313Y-132313289D01*
X104730317Y-132313287D01*
X104844417Y-132233096D01*
X104962023Y-132150441D01*
X105172622Y-131954740D01*
X105354713Y-131732268D01*
X105504927Y-131487142D01*
X105620483Y-131223898D01*
X105699244Y-130947406D01*
X105739751Y-130662784D01*
X105739845Y-130644951D01*
X105741235Y-130379583D01*
X105741235Y-130379576D01*
X105741257Y-130375297D01*
X105703732Y-130090266D01*
X105627871Y-129812964D01*
X105515077Y-129548524D01*
X105367439Y-129301839D01*
X105187687Y-129077472D01*
X104979149Y-128879577D01*
X104745683Y-128711814D01*
X104723843Y-128700250D01*
X104700654Y-128687972D01*
X104491608Y-128577288D01*
X104221627Y-128478489D01*
X103940736Y-128417245D01*
X103909685Y-128414801D01*
X103717718Y-128399693D01*
X103717709Y-128399693D01*
X103715261Y-128399500D01*
X103559729Y-128399500D01*
X103557593Y-128399646D01*
X103557582Y-128399646D01*
X103349452Y-128413835D01*
X103349446Y-128413836D01*
X103345175Y-128414127D01*
X103340980Y-128414996D01*
X103340978Y-128414996D01*
X103204417Y-128443276D01*
X103063658Y-128472426D01*
X102792657Y-128568393D01*
X102537188Y-128700250D01*
X102533687Y-128702711D01*
X102533683Y-128702713D01*
X102523594Y-128709804D01*
X102301977Y-128865559D01*
X102091378Y-129061260D01*
X101909287Y-129283732D01*
X101759073Y-129528858D01*
X101643517Y-129792102D01*
X101564756Y-130068594D01*
X101524249Y-130353216D01*
X101524227Y-130357505D01*
X101524226Y-130357512D01*
X101522765Y-130636417D01*
X101522743Y-130640703D01*
X74803867Y-130640703D01*
X74805235Y-130379583D01*
X74805235Y-130379576D01*
X74805257Y-130375297D01*
X74767732Y-130090266D01*
X74691871Y-129812964D01*
X74579077Y-129548524D01*
X74431439Y-129301839D01*
X74251687Y-129077472D01*
X74043149Y-128879577D01*
X73809683Y-128711814D01*
X73787843Y-128700250D01*
X73764654Y-128687972D01*
X73555608Y-128577288D01*
X73285627Y-128478489D01*
X73004736Y-128417245D01*
X72973685Y-128414801D01*
X72781718Y-128399693D01*
X72781709Y-128399693D01*
X72779261Y-128399500D01*
X72623729Y-128399500D01*
X72621593Y-128399646D01*
X72621582Y-128399646D01*
X72413452Y-128413835D01*
X72413446Y-128413836D01*
X72409175Y-128414127D01*
X72404980Y-128414996D01*
X72404978Y-128414996D01*
X72268417Y-128443276D01*
X72127658Y-128472426D01*
X71856657Y-128568393D01*
X71601188Y-128700250D01*
X71597687Y-128702711D01*
X71597683Y-128702713D01*
X71587594Y-128709804D01*
X71365977Y-128865559D01*
X71155378Y-129061260D01*
X70973287Y-129283732D01*
X70823073Y-129528858D01*
X70707517Y-129792102D01*
X70628756Y-130068594D01*
X70588249Y-130353216D01*
X70588227Y-130357505D01*
X70588226Y-130357512D01*
X70586765Y-130636417D01*
X70586743Y-130640703D01*
X68130294Y-130640703D01*
X68126561Y-130555208D01*
X68128188Y-130528805D01*
X68128769Y-130525352D01*
X68128770Y-130525345D01*
X68129576Y-130520552D01*
X68129729Y-130508000D01*
X68125773Y-130480376D01*
X68124500Y-130462514D01*
X68124500Y-121822000D01*
X93388502Y-121822000D01*
X93408457Y-122050087D01*
X93467716Y-122271243D01*
X93470039Y-122276224D01*
X93470039Y-122276225D01*
X93562151Y-122473762D01*
X93562154Y-122473767D01*
X93564477Y-122478749D01*
X93695802Y-122666300D01*
X93857700Y-122828198D01*
X93862208Y-122831355D01*
X93862211Y-122831357D01*
X93940389Y-122886098D01*
X94045251Y-122959523D01*
X94050233Y-122961846D01*
X94050238Y-122961849D01*
X94247775Y-123053961D01*
X94252757Y-123056284D01*
X94258065Y-123057706D01*
X94258067Y-123057707D01*
X94468598Y-123114119D01*
X94468600Y-123114119D01*
X94473913Y-123115543D01*
X94702000Y-123135498D01*
X94930087Y-123115543D01*
X94935400Y-123114119D01*
X94935402Y-123114119D01*
X95145933Y-123057707D01*
X95145935Y-123057706D01*
X95151243Y-123056284D01*
X95156225Y-123053961D01*
X95353762Y-122961849D01*
X95353767Y-122961846D01*
X95358749Y-122959523D01*
X95463611Y-122886098D01*
X95541789Y-122831357D01*
X95541792Y-122831355D01*
X95546300Y-122828198D01*
X95708198Y-122666300D01*
X95839523Y-122478749D01*
X95841846Y-122473767D01*
X95841849Y-122473762D01*
X95933961Y-122276225D01*
X95933961Y-122276224D01*
X95936284Y-122271243D01*
X95995543Y-122050087D01*
X96015498Y-121822000D01*
X98388502Y-121822000D01*
X98408457Y-122050087D01*
X98467716Y-122271243D01*
X98470039Y-122276224D01*
X98470039Y-122276225D01*
X98562151Y-122473762D01*
X98562154Y-122473767D01*
X98564477Y-122478749D01*
X98695802Y-122666300D01*
X98857700Y-122828198D01*
X98862208Y-122831355D01*
X98862211Y-122831357D01*
X98940389Y-122886098D01*
X99045251Y-122959523D01*
X99050233Y-122961846D01*
X99050238Y-122961849D01*
X99247775Y-123053961D01*
X99252757Y-123056284D01*
X99258065Y-123057706D01*
X99258067Y-123057707D01*
X99468598Y-123114119D01*
X99468600Y-123114119D01*
X99473913Y-123115543D01*
X99702000Y-123135498D01*
X99930087Y-123115543D01*
X99935400Y-123114119D01*
X99935402Y-123114119D01*
X100145933Y-123057707D01*
X100145935Y-123057706D01*
X100151243Y-123056284D01*
X100156225Y-123053961D01*
X100353762Y-122961849D01*
X100353767Y-122961846D01*
X100358749Y-122959523D01*
X100463611Y-122886098D01*
X100541789Y-122831357D01*
X100541792Y-122831355D01*
X100546300Y-122828198D01*
X100708198Y-122666300D01*
X100839523Y-122478749D01*
X100841846Y-122473767D01*
X100841849Y-122473762D01*
X100933961Y-122276225D01*
X100933961Y-122276224D01*
X100936284Y-122271243D01*
X100995543Y-122050087D01*
X101015498Y-121822000D01*
X100995543Y-121593913D01*
X100936284Y-121372757D01*
X100888134Y-121269498D01*
X100841849Y-121170238D01*
X100841846Y-121170233D01*
X100839523Y-121165251D01*
X100708198Y-120977700D01*
X100546300Y-120815802D01*
X100541792Y-120812645D01*
X100541789Y-120812643D01*
X100463611Y-120757902D01*
X100358749Y-120684477D01*
X100353767Y-120682154D01*
X100353762Y-120682151D01*
X100156225Y-120590039D01*
X100156224Y-120590039D01*
X100151243Y-120587716D01*
X100145935Y-120586294D01*
X100145933Y-120586293D01*
X99935402Y-120529881D01*
X99935400Y-120529881D01*
X99930087Y-120528457D01*
X99702000Y-120508502D01*
X99473913Y-120528457D01*
X99468600Y-120529881D01*
X99468598Y-120529881D01*
X99258067Y-120586293D01*
X99258065Y-120586294D01*
X99252757Y-120587716D01*
X99247776Y-120590039D01*
X99247775Y-120590039D01*
X99050238Y-120682151D01*
X99050233Y-120682154D01*
X99045251Y-120684477D01*
X98940389Y-120757902D01*
X98862211Y-120812643D01*
X98862208Y-120812645D01*
X98857700Y-120815802D01*
X98695802Y-120977700D01*
X98564477Y-121165251D01*
X98562154Y-121170233D01*
X98562151Y-121170238D01*
X98515866Y-121269498D01*
X98467716Y-121372757D01*
X98408457Y-121593913D01*
X98388502Y-121822000D01*
X96015498Y-121822000D01*
X95995543Y-121593913D01*
X95936284Y-121372757D01*
X95888134Y-121269498D01*
X95841849Y-121170238D01*
X95841846Y-121170233D01*
X95839523Y-121165251D01*
X95708198Y-120977700D01*
X95546300Y-120815802D01*
X95541792Y-120812645D01*
X95541789Y-120812643D01*
X95463611Y-120757902D01*
X95358749Y-120684477D01*
X95353767Y-120682154D01*
X95353762Y-120682151D01*
X95156225Y-120590039D01*
X95156224Y-120590039D01*
X95151243Y-120587716D01*
X95145935Y-120586294D01*
X95145933Y-120586293D01*
X94935402Y-120529881D01*
X94935400Y-120529881D01*
X94930087Y-120528457D01*
X94702000Y-120508502D01*
X94473913Y-120528457D01*
X94468600Y-120529881D01*
X94468598Y-120529881D01*
X94258067Y-120586293D01*
X94258065Y-120586294D01*
X94252757Y-120587716D01*
X94247776Y-120590039D01*
X94247775Y-120590039D01*
X94050238Y-120682151D01*
X94050233Y-120682154D01*
X94045251Y-120684477D01*
X93940389Y-120757902D01*
X93862211Y-120812643D01*
X93862208Y-120812645D01*
X93857700Y-120815802D01*
X93695802Y-120977700D01*
X93564477Y-121165251D01*
X93562154Y-121170233D01*
X93562151Y-121170238D01*
X93515866Y-121269498D01*
X93467716Y-121372757D01*
X93408457Y-121593913D01*
X93388502Y-121822000D01*
X68124500Y-121822000D01*
X68124500Y-119956000D01*
X73198502Y-119956000D01*
X73218457Y-120184087D01*
X73219881Y-120189400D01*
X73219881Y-120189402D01*
X73257025Y-120328022D01*
X73277716Y-120405243D01*
X73280039Y-120410224D01*
X73280039Y-120410225D01*
X73372151Y-120607762D01*
X73372154Y-120607767D01*
X73374477Y-120612749D01*
X73505802Y-120800300D01*
X73667700Y-120962198D01*
X73672208Y-120965355D01*
X73672211Y-120965357D01*
X73689839Y-120977700D01*
X73855251Y-121093523D01*
X73860233Y-121095846D01*
X73860238Y-121095849D01*
X74056765Y-121187490D01*
X74062757Y-121190284D01*
X74068065Y-121191706D01*
X74068067Y-121191707D01*
X74278598Y-121248119D01*
X74278600Y-121248119D01*
X74283913Y-121249543D01*
X74512000Y-121269498D01*
X74740087Y-121249543D01*
X74745400Y-121248119D01*
X74745402Y-121248119D01*
X74955933Y-121191707D01*
X74955935Y-121191706D01*
X74961243Y-121190284D01*
X74967235Y-121187490D01*
X75163762Y-121095849D01*
X75163767Y-121095846D01*
X75168749Y-121093523D01*
X75242243Y-121042062D01*
X78790493Y-121042062D01*
X78799789Y-121054077D01*
X78850994Y-121089931D01*
X78860489Y-121095414D01*
X79057947Y-121187490D01*
X79068239Y-121191236D01*
X79278688Y-121247625D01*
X79289481Y-121249528D01*
X79506525Y-121268517D01*
X79517475Y-121268517D01*
X79734519Y-121249528D01*
X79745312Y-121247625D01*
X79955761Y-121191236D01*
X79966053Y-121187490D01*
X80163511Y-121095414D01*
X80173006Y-121089931D01*
X80225048Y-121053491D01*
X80233424Y-121043012D01*
X80226356Y-121029566D01*
X79524812Y-120328022D01*
X79510868Y-120320408D01*
X79509035Y-120320539D01*
X79502420Y-120324790D01*
X78796923Y-121030287D01*
X78790493Y-121042062D01*
X75242243Y-121042062D01*
X75334161Y-120977700D01*
X75351789Y-120965357D01*
X75351792Y-120965355D01*
X75356300Y-120962198D01*
X75518198Y-120800300D01*
X75649523Y-120612749D01*
X75651846Y-120607767D01*
X75651849Y-120607762D01*
X75743961Y-120410225D01*
X75743961Y-120410224D01*
X75746284Y-120405243D01*
X75766976Y-120328022D01*
X75804119Y-120189402D01*
X75804119Y-120189400D01*
X75805543Y-120184087D01*
X75825019Y-119961475D01*
X78199483Y-119961475D01*
X78218472Y-120178519D01*
X78220375Y-120189312D01*
X78276764Y-120399761D01*
X78280510Y-120410053D01*
X78372586Y-120607511D01*
X78378069Y-120617006D01*
X78414509Y-120669048D01*
X78424988Y-120677424D01*
X78438434Y-120670356D01*
X79139978Y-119968812D01*
X79146356Y-119957132D01*
X79876408Y-119957132D01*
X79876539Y-119958965D01*
X79880790Y-119965580D01*
X80586287Y-120671077D01*
X80598062Y-120677507D01*
X80610077Y-120668211D01*
X80645931Y-120617006D01*
X80651414Y-120607511D01*
X80743490Y-120410053D01*
X80747236Y-120399761D01*
X80803625Y-120189312D01*
X80805528Y-120178519D01*
X80824517Y-119961475D01*
X80824517Y-119950525D01*
X80805528Y-119733481D01*
X80803625Y-119722688D01*
X80747236Y-119512239D01*
X80743490Y-119501947D01*
X80651414Y-119304489D01*
X80645931Y-119294994D01*
X80609491Y-119242952D01*
X80599012Y-119234576D01*
X80585566Y-119241644D01*
X79884022Y-119943188D01*
X79876408Y-119957132D01*
X79146356Y-119957132D01*
X79147592Y-119954868D01*
X79147461Y-119953035D01*
X79143210Y-119946420D01*
X78437713Y-119240923D01*
X78425938Y-119234493D01*
X78413923Y-119243789D01*
X78378069Y-119294994D01*
X78372586Y-119304489D01*
X78280510Y-119501947D01*
X78276764Y-119512239D01*
X78220375Y-119722688D01*
X78218472Y-119733481D01*
X78199483Y-119950525D01*
X78199483Y-119961475D01*
X75825019Y-119961475D01*
X75825498Y-119956000D01*
X75805543Y-119727913D01*
X75768981Y-119591461D01*
X75747707Y-119512067D01*
X75747706Y-119512065D01*
X75746284Y-119506757D01*
X75651966Y-119304489D01*
X75651849Y-119304238D01*
X75651846Y-119304233D01*
X75649523Y-119299251D01*
X75518198Y-119111700D01*
X75356300Y-118949802D01*
X75351792Y-118946645D01*
X75351789Y-118946643D01*
X75240886Y-118868988D01*
X78790576Y-118868988D01*
X78797644Y-118882434D01*
X79499188Y-119583978D01*
X79513132Y-119591592D01*
X79514965Y-119591461D01*
X79521580Y-119587210D01*
X80227077Y-118881713D01*
X80233507Y-118869938D01*
X80224211Y-118857923D01*
X80173006Y-118822069D01*
X80163511Y-118816586D01*
X79966053Y-118724510D01*
X79955761Y-118720764D01*
X79745312Y-118664375D01*
X79734519Y-118662472D01*
X79517475Y-118643483D01*
X79506525Y-118643483D01*
X79289481Y-118662472D01*
X79278688Y-118664375D01*
X79068239Y-118720764D01*
X79057947Y-118724510D01*
X78860489Y-118816586D01*
X78850994Y-118822069D01*
X78798952Y-118858509D01*
X78790576Y-118868988D01*
X75240886Y-118868988D01*
X75225920Y-118858509D01*
X75168749Y-118818477D01*
X75163767Y-118816154D01*
X75163762Y-118816151D01*
X74966225Y-118724039D01*
X74966224Y-118724039D01*
X74961243Y-118721716D01*
X74955935Y-118720294D01*
X74955933Y-118720293D01*
X74745402Y-118663881D01*
X74745400Y-118663881D01*
X74740087Y-118662457D01*
X74512000Y-118642502D01*
X74283913Y-118662457D01*
X74278600Y-118663881D01*
X74278598Y-118663881D01*
X74068067Y-118720293D01*
X74068065Y-118720294D01*
X74062757Y-118721716D01*
X74057776Y-118724039D01*
X74057775Y-118724039D01*
X73860238Y-118816151D01*
X73860233Y-118816154D01*
X73855251Y-118818477D01*
X73798080Y-118858509D01*
X73672211Y-118946643D01*
X73672208Y-118946645D01*
X73667700Y-118949802D01*
X73505802Y-119111700D01*
X73374477Y-119299251D01*
X73372154Y-119304233D01*
X73372151Y-119304238D01*
X73372034Y-119304489D01*
X73277716Y-119506757D01*
X73276294Y-119512065D01*
X73276293Y-119512067D01*
X73255019Y-119591461D01*
X73218457Y-119727913D01*
X73198502Y-119956000D01*
X68124500Y-119956000D01*
X68124500Y-117358575D01*
X95854404Y-117358575D01*
X95873218Y-117565303D01*
X95874956Y-117571209D01*
X95874957Y-117571213D01*
X95918473Y-117719068D01*
X95931827Y-117764440D01*
X96027999Y-117948400D01*
X96158071Y-118110177D01*
X96162788Y-118114135D01*
X96162790Y-118114137D01*
X96266681Y-118201312D01*
X96317089Y-118243609D01*
X96322481Y-118246573D01*
X96322485Y-118246576D01*
X96493598Y-118340646D01*
X96498995Y-118343613D01*
X96696861Y-118406379D01*
X96702978Y-118407065D01*
X96702982Y-118407066D01*
X96779598Y-118415659D01*
X96858413Y-118424500D01*
X96970237Y-118424500D01*
X96973293Y-118424200D01*
X96973300Y-118424200D01*
X97118466Y-118409966D01*
X97118469Y-118409965D01*
X97124592Y-118409365D01*
X97256546Y-118369526D01*
X97317407Y-118351152D01*
X97317410Y-118351151D01*
X97323315Y-118349368D01*
X97330635Y-118345476D01*
X97501153Y-118254809D01*
X97501155Y-118254808D01*
X97506599Y-118251913D01*
X97566471Y-118203083D01*
X97662689Y-118124610D01*
X97662692Y-118124607D01*
X97667464Y-118120715D01*
X97799783Y-117960770D01*
X97803876Y-117953201D01*
X97895584Y-117783590D01*
X97895586Y-117783585D01*
X97898514Y-117778170D01*
X97959898Y-117579871D01*
X97961429Y-117565303D01*
X97980952Y-117379554D01*
X97980952Y-117379552D01*
X97981596Y-117373425D01*
X97962782Y-117166697D01*
X97960298Y-117158255D01*
X97905912Y-116973469D01*
X97904173Y-116967560D01*
X97808001Y-116783600D01*
X97677929Y-116621823D01*
X97665371Y-116611285D01*
X97523629Y-116492350D01*
X97518911Y-116488391D01*
X97513519Y-116485427D01*
X97513515Y-116485424D01*
X97342402Y-116391354D01*
X97337005Y-116388387D01*
X97139139Y-116325621D01*
X97133022Y-116324935D01*
X97133018Y-116324934D01*
X97056402Y-116316341D01*
X96977587Y-116307500D01*
X96865763Y-116307500D01*
X96862707Y-116307800D01*
X96862700Y-116307800D01*
X96717534Y-116322034D01*
X96717531Y-116322035D01*
X96711408Y-116322635D01*
X96579454Y-116362474D01*
X96518593Y-116380848D01*
X96518590Y-116380849D01*
X96512685Y-116382632D01*
X96507240Y-116385527D01*
X96507238Y-116385528D01*
X96334847Y-116477191D01*
X96334845Y-116477192D01*
X96329401Y-116480087D01*
X96314365Y-116492350D01*
X96173311Y-116607390D01*
X96173308Y-116607393D01*
X96168536Y-116611285D01*
X96036217Y-116771230D01*
X96033288Y-116776647D01*
X96033286Y-116776650D01*
X95940416Y-116948410D01*
X95940414Y-116948415D01*
X95937486Y-116953830D01*
X95876102Y-117152129D01*
X95875458Y-117158254D01*
X95875458Y-117158255D01*
X95873926Y-117172836D01*
X95854404Y-117358575D01*
X68124500Y-117358575D01*
X68124500Y-114020575D01*
X75968404Y-114020575D01*
X75987218Y-114227303D01*
X75988956Y-114233209D01*
X75988957Y-114233213D01*
X76032473Y-114381068D01*
X76045827Y-114426440D01*
X76141999Y-114610400D01*
X76272071Y-114772177D01*
X76276788Y-114776135D01*
X76276790Y-114776137D01*
X76380681Y-114863312D01*
X76431089Y-114905609D01*
X76436481Y-114908573D01*
X76436485Y-114908576D01*
X76607598Y-115002646D01*
X76612995Y-115005613D01*
X76810861Y-115068379D01*
X76816978Y-115069065D01*
X76816982Y-115069066D01*
X76893598Y-115077659D01*
X76972413Y-115086500D01*
X77084237Y-115086500D01*
X77087293Y-115086200D01*
X77087300Y-115086200D01*
X77232466Y-115071966D01*
X77232469Y-115071965D01*
X77238592Y-115071365D01*
X77370546Y-115031526D01*
X77431407Y-115013152D01*
X77431410Y-115013151D01*
X77437315Y-115011368D01*
X77444635Y-115007476D01*
X77615153Y-114916809D01*
X77615155Y-114916808D01*
X77620599Y-114913913D01*
X77680471Y-114865083D01*
X77776689Y-114786610D01*
X77776692Y-114786607D01*
X77781464Y-114782715D01*
X77913783Y-114622770D01*
X77917876Y-114615201D01*
X78009584Y-114445590D01*
X78009586Y-114445585D01*
X78012514Y-114440170D01*
X78073898Y-114241871D01*
X78075429Y-114227303D01*
X78094952Y-114041554D01*
X78094952Y-114041552D01*
X78095596Y-114035425D01*
X78076782Y-113828697D01*
X78074298Y-113820255D01*
X78019912Y-113635469D01*
X78018173Y-113629560D01*
X77922001Y-113445600D01*
X77791929Y-113283823D01*
X77779371Y-113273285D01*
X77637629Y-113154350D01*
X77632911Y-113150391D01*
X77627519Y-113147427D01*
X77627515Y-113147424D01*
X77456402Y-113053354D01*
X77451005Y-113050387D01*
X77253139Y-112987621D01*
X77247022Y-112986935D01*
X77247018Y-112986934D01*
X77170402Y-112978341D01*
X77091587Y-112969500D01*
X76979763Y-112969500D01*
X76976707Y-112969800D01*
X76976700Y-112969800D01*
X76831534Y-112984034D01*
X76831531Y-112984035D01*
X76825408Y-112984635D01*
X76693454Y-113024474D01*
X76632593Y-113042848D01*
X76632590Y-113042849D01*
X76626685Y-113044632D01*
X76621240Y-113047527D01*
X76621238Y-113047528D01*
X76448847Y-113139191D01*
X76448845Y-113139192D01*
X76443401Y-113142087D01*
X76428365Y-113154350D01*
X76287311Y-113269390D01*
X76287308Y-113269393D01*
X76282536Y-113273285D01*
X76150217Y-113433230D01*
X76147288Y-113438647D01*
X76147286Y-113438650D01*
X76054416Y-113610410D01*
X76054414Y-113610415D01*
X76051486Y-113615830D01*
X75990102Y-113814129D01*
X75989458Y-113820254D01*
X75989458Y-113820255D01*
X75987926Y-113834836D01*
X75968404Y-114020575D01*
X68124500Y-114020575D01*
X68124500Y-109474000D01*
X72854502Y-109474000D01*
X72874457Y-109702087D01*
X72875881Y-109707400D01*
X72875881Y-109707402D01*
X72898569Y-109792072D01*
X72933716Y-109923243D01*
X72936039Y-109928224D01*
X72936039Y-109928225D01*
X73028151Y-110125762D01*
X73028154Y-110125767D01*
X73030477Y-110130749D01*
X73161802Y-110318300D01*
X73323700Y-110480198D01*
X73328208Y-110483355D01*
X73328211Y-110483357D01*
X73370869Y-110513226D01*
X73511251Y-110611523D01*
X73516233Y-110613846D01*
X73516238Y-110613849D01*
X73667803Y-110684524D01*
X73718757Y-110708284D01*
X73724065Y-110709706D01*
X73724067Y-110709707D01*
X73934598Y-110766119D01*
X73934600Y-110766119D01*
X73939913Y-110767543D01*
X74168000Y-110787498D01*
X74396087Y-110767543D01*
X74401400Y-110766119D01*
X74401402Y-110766119D01*
X74611933Y-110709707D01*
X74611935Y-110709706D01*
X74617243Y-110708284D01*
X74668197Y-110684524D01*
X74819762Y-110613849D01*
X74819767Y-110613846D01*
X74824749Y-110611523D01*
X74965131Y-110513226D01*
X75007789Y-110483357D01*
X75007792Y-110483355D01*
X75012300Y-110480198D01*
X75174198Y-110318300D01*
X75305523Y-110130749D01*
X75307846Y-110125767D01*
X75307849Y-110125762D01*
X75399961Y-109928225D01*
X75399961Y-109928224D01*
X75402284Y-109923243D01*
X75437432Y-109792072D01*
X75460119Y-109707402D01*
X75460119Y-109707400D01*
X75461543Y-109702087D01*
X75481498Y-109474000D01*
X77854502Y-109474000D01*
X77874457Y-109702087D01*
X77875881Y-109707400D01*
X77875881Y-109707402D01*
X77898569Y-109792072D01*
X77933716Y-109923243D01*
X77936039Y-109928224D01*
X77936039Y-109928225D01*
X78028151Y-110125762D01*
X78028154Y-110125767D01*
X78030477Y-110130749D01*
X78161802Y-110318300D01*
X78323700Y-110480198D01*
X78328208Y-110483355D01*
X78328211Y-110483357D01*
X78370869Y-110513226D01*
X78511251Y-110611523D01*
X78516233Y-110613846D01*
X78516238Y-110613849D01*
X78667803Y-110684524D01*
X78718757Y-110708284D01*
X78724065Y-110709706D01*
X78724067Y-110709707D01*
X78934598Y-110766119D01*
X78934600Y-110766119D01*
X78939913Y-110767543D01*
X79168000Y-110787498D01*
X79396087Y-110767543D01*
X79401400Y-110766119D01*
X79401402Y-110766119D01*
X79611933Y-110709707D01*
X79611935Y-110709706D01*
X79617243Y-110708284D01*
X79668197Y-110684524D01*
X79819762Y-110613849D01*
X79819767Y-110613846D01*
X79824749Y-110611523D01*
X79965131Y-110513226D01*
X80007789Y-110483357D01*
X80007792Y-110483355D01*
X80012300Y-110480198D01*
X80174198Y-110318300D01*
X80305523Y-110130749D01*
X80307846Y-110125767D01*
X80307849Y-110125762D01*
X80374886Y-109982000D01*
X91268996Y-109982000D01*
X91288958Y-110171928D01*
X91347973Y-110353556D01*
X91351276Y-110359278D01*
X91351277Y-110359279D01*
X91379362Y-110407923D01*
X91443460Y-110518944D01*
X91516637Y-110600215D01*
X91547353Y-110664221D01*
X91549000Y-110684524D01*
X91549000Y-111153733D01*
X91548473Y-111164916D01*
X91546798Y-111172409D01*
X91547047Y-111180335D01*
X91547047Y-111180336D01*
X91548938Y-111240486D01*
X91549000Y-111244445D01*
X91549000Y-111272356D01*
X91549497Y-111276290D01*
X91549497Y-111276291D01*
X91549505Y-111276356D01*
X91550438Y-111288193D01*
X91551827Y-111332389D01*
X91557478Y-111351839D01*
X91561487Y-111371200D01*
X91564026Y-111391297D01*
X91566945Y-111398668D01*
X91566945Y-111398670D01*
X91580304Y-111432412D01*
X91584149Y-111443642D01*
X91596482Y-111486093D01*
X91600515Y-111492912D01*
X91600517Y-111492917D01*
X91606793Y-111503528D01*
X91615488Y-111521276D01*
X91622948Y-111540117D01*
X91627610Y-111546533D01*
X91627610Y-111546534D01*
X91648936Y-111575887D01*
X91655452Y-111585807D01*
X91677958Y-111623862D01*
X91692279Y-111638183D01*
X91705119Y-111653216D01*
X91717028Y-111669607D01*
X91723137Y-111674661D01*
X91723139Y-111674663D01*
X91738651Y-111687496D01*
X91778388Y-111746330D01*
X91783644Y-111771408D01*
X91794850Y-111878022D01*
X91800757Y-111934227D01*
X91859772Y-112115855D01*
X91955259Y-112281243D01*
X92083046Y-112423165D01*
X92189813Y-112500736D01*
X92229546Y-112529604D01*
X92272900Y-112585827D01*
X92280795Y-112644710D01*
X92266996Y-112776000D01*
X92286958Y-112965928D01*
X92345973Y-113147556D01*
X92349276Y-113153278D01*
X92349277Y-113153279D01*
X92383186Y-113212010D01*
X92441460Y-113312944D01*
X92569247Y-113454866D01*
X92723748Y-113567118D01*
X92729776Y-113569802D01*
X92729778Y-113569803D01*
X92892181Y-113642109D01*
X92898212Y-113644794D01*
X92991612Y-113664647D01*
X93078556Y-113683128D01*
X93078561Y-113683128D01*
X93085013Y-113684500D01*
X93275987Y-113684500D01*
X93282439Y-113683128D01*
X93282444Y-113683128D01*
X93369387Y-113664647D01*
X93462788Y-113644794D01*
X93468819Y-113642109D01*
X93631222Y-113569803D01*
X93631224Y-113569802D01*
X93637252Y-113567118D01*
X93791753Y-113454866D01*
X93919540Y-113312944D01*
X93977814Y-113212010D01*
X94011723Y-113153279D01*
X94011724Y-113153278D01*
X94015027Y-113147556D01*
X94074042Y-112965928D01*
X94094004Y-112776000D01*
X94090006Y-112737961D01*
X94074733Y-112592642D01*
X94074732Y-112592638D01*
X94074671Y-112592062D01*
X94608493Y-112592062D01*
X94617789Y-112604077D01*
X94668994Y-112639931D01*
X94678489Y-112645414D01*
X94875947Y-112737490D01*
X94886239Y-112741236D01*
X95096688Y-112797625D01*
X95107481Y-112799528D01*
X95324525Y-112818517D01*
X95335475Y-112818517D01*
X95552519Y-112799528D01*
X95563312Y-112797625D01*
X95773761Y-112741236D01*
X95784053Y-112737490D01*
X95981511Y-112645414D01*
X95991006Y-112639931D01*
X96043048Y-112603491D01*
X96051424Y-112593012D01*
X96044356Y-112579566D01*
X95342812Y-111878022D01*
X95328868Y-111870408D01*
X95327035Y-111870539D01*
X95320420Y-111874790D01*
X94614923Y-112580287D01*
X94608493Y-112592062D01*
X94074671Y-112592062D01*
X94074042Y-112586072D01*
X94072000Y-112579786D01*
X94058966Y-112539672D01*
X94052799Y-112500736D01*
X94052799Y-112337422D01*
X94072801Y-112269301D01*
X94126457Y-112222808D01*
X94196731Y-112212704D01*
X94230957Y-112227521D01*
X94240854Y-112228545D01*
X94256434Y-112220356D01*
X94957978Y-111518812D01*
X94964356Y-111507132D01*
X95694408Y-111507132D01*
X95694539Y-111508965D01*
X95698790Y-111515580D01*
X96404287Y-112221077D01*
X96416062Y-112227507D01*
X96428077Y-112218211D01*
X96463931Y-112167006D01*
X96469414Y-112157511D01*
X96561490Y-111960053D01*
X96565236Y-111949761D01*
X96621625Y-111739312D01*
X96623528Y-111728519D01*
X96642517Y-111511475D01*
X96642517Y-111506000D01*
X99016502Y-111506000D01*
X99036457Y-111734087D01*
X99037881Y-111739400D01*
X99037881Y-111739402D01*
X99075025Y-111878022D01*
X99095716Y-111955243D01*
X99098039Y-111960224D01*
X99098039Y-111960225D01*
X99190151Y-112157762D01*
X99190154Y-112157767D01*
X99192477Y-112162749D01*
X99195634Y-112167257D01*
X99314785Y-112337422D01*
X99323802Y-112350300D01*
X99485700Y-112512198D01*
X99490208Y-112515355D01*
X99490211Y-112515357D01*
X99568389Y-112570098D01*
X99673251Y-112643523D01*
X99678233Y-112645846D01*
X99678238Y-112645849D01*
X99874765Y-112737490D01*
X99880757Y-112740284D01*
X99886065Y-112741706D01*
X99886067Y-112741707D01*
X100096598Y-112798119D01*
X100096600Y-112798119D01*
X100101913Y-112799543D01*
X100330000Y-112819498D01*
X100558087Y-112799543D01*
X100563400Y-112798119D01*
X100563402Y-112798119D01*
X100773933Y-112741707D01*
X100773935Y-112741706D01*
X100779243Y-112740284D01*
X100785235Y-112737490D01*
X100981762Y-112645849D01*
X100981767Y-112645846D01*
X100986749Y-112643523D01*
X101091611Y-112570098D01*
X101169789Y-112515357D01*
X101169792Y-112515355D01*
X101174300Y-112512198D01*
X101336198Y-112350300D01*
X101345216Y-112337422D01*
X101464366Y-112167257D01*
X101467523Y-112162749D01*
X101469846Y-112157767D01*
X101469849Y-112157762D01*
X101561961Y-111960225D01*
X101561961Y-111960224D01*
X101564284Y-111955243D01*
X101584976Y-111878022D01*
X101622119Y-111739402D01*
X101622119Y-111739400D01*
X101623543Y-111734087D01*
X101643498Y-111506000D01*
X101623543Y-111277913D01*
X101614043Y-111242458D01*
X101565707Y-111062067D01*
X101565706Y-111062065D01*
X101564284Y-111056757D01*
X101469966Y-110854489D01*
X101469849Y-110854238D01*
X101469846Y-110854233D01*
X101467523Y-110849251D01*
X101352180Y-110684524D01*
X101339357Y-110666211D01*
X101339355Y-110666208D01*
X101336198Y-110661700D01*
X101174300Y-110499802D01*
X101169792Y-110496645D01*
X101169789Y-110496643D01*
X101043920Y-110408509D01*
X100986749Y-110368477D01*
X100981767Y-110366154D01*
X100981762Y-110366151D01*
X100784225Y-110274039D01*
X100784224Y-110274039D01*
X100779243Y-110271716D01*
X100773935Y-110270294D01*
X100773933Y-110270293D01*
X100563402Y-110213881D01*
X100563400Y-110213881D01*
X100558087Y-110212457D01*
X100330000Y-110192502D01*
X100101913Y-110212457D01*
X100096600Y-110213881D01*
X100096598Y-110213881D01*
X99886067Y-110270293D01*
X99886065Y-110270294D01*
X99880757Y-110271716D01*
X99875776Y-110274039D01*
X99875775Y-110274039D01*
X99678238Y-110366151D01*
X99678233Y-110366154D01*
X99673251Y-110368477D01*
X99616080Y-110408509D01*
X99490211Y-110496643D01*
X99490208Y-110496645D01*
X99485700Y-110499802D01*
X99323802Y-110661700D01*
X99320645Y-110666208D01*
X99320643Y-110666211D01*
X99307820Y-110684524D01*
X99192477Y-110849251D01*
X99190154Y-110854233D01*
X99190151Y-110854238D01*
X99190034Y-110854489D01*
X99095716Y-111056757D01*
X99094294Y-111062065D01*
X99094293Y-111062067D01*
X99045957Y-111242458D01*
X99036457Y-111277913D01*
X99016502Y-111506000D01*
X96642517Y-111506000D01*
X96642517Y-111500525D01*
X96623528Y-111283481D01*
X96621625Y-111272688D01*
X96565236Y-111062239D01*
X96561490Y-111051947D01*
X96469414Y-110854489D01*
X96463931Y-110844994D01*
X96427491Y-110792952D01*
X96417012Y-110784576D01*
X96403566Y-110791644D01*
X95702022Y-111493188D01*
X95694408Y-111507132D01*
X94964356Y-111507132D01*
X94965592Y-111504868D01*
X94965461Y-111503035D01*
X94961210Y-111496420D01*
X94255713Y-110790923D01*
X94241769Y-110783309D01*
X94233817Y-110783877D01*
X94189780Y-110801103D01*
X94120175Y-110787113D01*
X94069183Y-110737714D01*
X94052799Y-110675582D01*
X94052799Y-110418988D01*
X94608576Y-110418988D01*
X94615644Y-110432434D01*
X95317188Y-111133978D01*
X95331132Y-111141592D01*
X95332965Y-111141461D01*
X95339580Y-111137210D01*
X96045077Y-110431713D01*
X96051507Y-110419938D01*
X96042211Y-110407923D01*
X95991006Y-110372069D01*
X95981511Y-110366586D01*
X95784053Y-110274510D01*
X95773761Y-110270764D01*
X95563312Y-110214375D01*
X95552519Y-110212472D01*
X95335475Y-110193483D01*
X95324525Y-110193483D01*
X95107481Y-110212472D01*
X95096688Y-110214375D01*
X94886239Y-110270764D01*
X94875947Y-110274510D01*
X94678489Y-110366586D01*
X94668994Y-110372069D01*
X94616952Y-110408509D01*
X94608576Y-110418988D01*
X94052799Y-110418988D01*
X94052799Y-108848675D01*
X94058966Y-108809739D01*
X94109502Y-108654206D01*
X94111542Y-108647928D01*
X94113868Y-108625803D01*
X94130814Y-108464565D01*
X94131504Y-108458000D01*
X94130814Y-108451435D01*
X94112232Y-108274635D01*
X94112232Y-108274633D01*
X94111542Y-108268072D01*
X94092989Y-108210972D01*
X94090961Y-108140005D01*
X94127624Y-108079207D01*
X94191336Y-108047881D01*
X94266070Y-108057841D01*
X94287765Y-108067957D01*
X94287773Y-108067960D01*
X94292757Y-108070284D01*
X94298065Y-108071706D01*
X94298067Y-108071707D01*
X94508598Y-108128119D01*
X94508600Y-108128119D01*
X94513913Y-108129543D01*
X94742000Y-108149498D01*
X94970087Y-108129543D01*
X94975400Y-108128119D01*
X94975402Y-108128119D01*
X95185933Y-108071707D01*
X95185935Y-108071706D01*
X95191243Y-108070284D01*
X95196225Y-108067961D01*
X95393762Y-107975849D01*
X95393767Y-107975846D01*
X95398749Y-107973523D01*
X95503611Y-107900098D01*
X95581789Y-107845357D01*
X95581792Y-107845355D01*
X95586300Y-107842198D01*
X95748198Y-107680300D01*
X95757594Y-107666882D01*
X95876366Y-107497257D01*
X95879523Y-107492749D01*
X95881846Y-107487767D01*
X95881849Y-107487762D01*
X95973961Y-107290225D01*
X95973961Y-107290224D01*
X95976284Y-107285243D01*
X96035543Y-107064087D01*
X96055498Y-106836000D01*
X98428502Y-106836000D01*
X98448457Y-107064087D01*
X98507716Y-107285243D01*
X98510039Y-107290224D01*
X98510039Y-107290225D01*
X98602151Y-107487762D01*
X98602154Y-107487767D01*
X98604477Y-107492749D01*
X98607634Y-107497257D01*
X98726407Y-107666882D01*
X98735802Y-107680300D01*
X98897700Y-107842198D01*
X98902208Y-107845355D01*
X98902211Y-107845357D01*
X98980389Y-107900098D01*
X99085251Y-107973523D01*
X99090233Y-107975846D01*
X99090238Y-107975849D01*
X99287775Y-108067961D01*
X99292757Y-108070284D01*
X99298065Y-108071706D01*
X99298067Y-108071707D01*
X99508598Y-108128119D01*
X99508600Y-108128119D01*
X99513913Y-108129543D01*
X99742000Y-108149498D01*
X99970087Y-108129543D01*
X99975400Y-108128119D01*
X99975402Y-108128119D01*
X100185933Y-108071707D01*
X100185935Y-108071706D01*
X100191243Y-108070284D01*
X100196225Y-108067961D01*
X100393762Y-107975849D01*
X100393767Y-107975846D01*
X100398749Y-107973523D01*
X100503611Y-107900098D01*
X100581789Y-107845357D01*
X100581792Y-107845355D01*
X100586300Y-107842198D01*
X100748198Y-107680300D01*
X100757594Y-107666882D01*
X100876366Y-107497257D01*
X100879523Y-107492749D01*
X100881846Y-107487767D01*
X100881849Y-107487762D01*
X100973961Y-107290225D01*
X100973961Y-107290224D01*
X100976284Y-107285243D01*
X101035543Y-107064087D01*
X101055498Y-106836000D01*
X101035543Y-106607913D01*
X100976284Y-106386757D01*
X100973961Y-106381775D01*
X100881849Y-106184238D01*
X100881846Y-106184233D01*
X100879523Y-106179251D01*
X100748198Y-105991700D01*
X100586300Y-105829802D01*
X100581792Y-105826645D01*
X100581789Y-105826643D01*
X100503611Y-105771902D01*
X100398749Y-105698477D01*
X100393767Y-105696154D01*
X100393762Y-105696151D01*
X100196225Y-105604039D01*
X100196224Y-105604039D01*
X100191243Y-105601716D01*
X100185935Y-105600294D01*
X100185933Y-105600293D01*
X99975402Y-105543881D01*
X99975400Y-105543881D01*
X99970087Y-105542457D01*
X99742000Y-105522502D01*
X99513913Y-105542457D01*
X99508600Y-105543881D01*
X99508598Y-105543881D01*
X99298067Y-105600293D01*
X99298065Y-105600294D01*
X99292757Y-105601716D01*
X99287776Y-105604039D01*
X99287775Y-105604039D01*
X99090238Y-105696151D01*
X99090233Y-105696154D01*
X99085251Y-105698477D01*
X98980389Y-105771902D01*
X98902211Y-105826643D01*
X98902208Y-105826645D01*
X98897700Y-105829802D01*
X98735802Y-105991700D01*
X98604477Y-106179251D01*
X98602154Y-106184233D01*
X98602151Y-106184238D01*
X98510039Y-106381775D01*
X98507716Y-106386757D01*
X98448457Y-106607913D01*
X98428502Y-106836000D01*
X96055498Y-106836000D01*
X96035543Y-106607913D01*
X95976284Y-106386757D01*
X95973961Y-106381775D01*
X95881849Y-106184238D01*
X95881846Y-106184233D01*
X95879523Y-106179251D01*
X95748198Y-105991700D01*
X95586300Y-105829802D01*
X95581792Y-105826645D01*
X95581789Y-105826643D01*
X95503611Y-105771902D01*
X95398749Y-105698477D01*
X95393767Y-105696154D01*
X95393762Y-105696151D01*
X95196225Y-105604039D01*
X95196224Y-105604039D01*
X95191243Y-105601716D01*
X95185935Y-105600294D01*
X95185933Y-105600293D01*
X94975402Y-105543881D01*
X94975400Y-105543881D01*
X94970087Y-105542457D01*
X94742000Y-105522502D01*
X94513913Y-105542457D01*
X94508600Y-105543881D01*
X94508598Y-105543881D01*
X94298067Y-105600293D01*
X94298065Y-105600294D01*
X94292757Y-105601716D01*
X94287776Y-105604039D01*
X94287775Y-105604039D01*
X94090238Y-105696151D01*
X94090233Y-105696154D01*
X94085251Y-105698477D01*
X93980389Y-105771902D01*
X93902211Y-105826643D01*
X93902208Y-105826645D01*
X93897700Y-105829802D01*
X93735802Y-105991700D01*
X93604477Y-106179251D01*
X93602154Y-106184233D01*
X93602151Y-106184238D01*
X93510039Y-106381775D01*
X93507716Y-106386757D01*
X93448457Y-106607913D01*
X93428502Y-106836000D01*
X93448457Y-107064087D01*
X93507716Y-107285243D01*
X93510039Y-107290224D01*
X93510039Y-107290225D01*
X93559065Y-107395361D01*
X93569726Y-107465553D01*
X93540746Y-107530365D01*
X93481326Y-107569222D01*
X93418673Y-107571858D01*
X93319944Y-107550872D01*
X93319939Y-107550872D01*
X93313487Y-107549500D01*
X93122513Y-107549500D01*
X93116061Y-107550872D01*
X93116056Y-107550872D01*
X93029729Y-107569222D01*
X92935712Y-107589206D01*
X92929682Y-107591891D01*
X92929681Y-107591891D01*
X92767278Y-107664197D01*
X92767276Y-107664198D01*
X92761248Y-107666882D01*
X92755907Y-107670762D01*
X92755906Y-107670763D01*
X92742780Y-107680300D01*
X92606747Y-107779134D01*
X92602326Y-107784044D01*
X92602325Y-107784045D01*
X92547120Y-107845357D01*
X92478960Y-107921056D01*
X92383473Y-108086444D01*
X92324458Y-108268072D01*
X92323768Y-108274633D01*
X92323768Y-108274635D01*
X92305186Y-108451435D01*
X92304496Y-108458000D01*
X92305186Y-108464565D01*
X92322133Y-108625803D01*
X92324458Y-108647928D01*
X92383473Y-108829556D01*
X92406321Y-108869130D01*
X92417272Y-108888098D01*
X92434009Y-108957093D01*
X92410788Y-109024185D01*
X92354980Y-109068072D01*
X92291227Y-109073543D01*
X92291015Y-109075563D01*
X92284444Y-109074872D01*
X92277987Y-109073500D01*
X92087013Y-109073500D01*
X92080561Y-109074872D01*
X92080556Y-109074872D01*
X91993613Y-109093353D01*
X91900212Y-109113206D01*
X91894182Y-109115891D01*
X91894181Y-109115891D01*
X91731778Y-109188197D01*
X91731776Y-109188198D01*
X91725748Y-109190882D01*
X91571247Y-109303134D01*
X91443460Y-109445056D01*
X91347973Y-109610444D01*
X91288958Y-109792072D01*
X91288268Y-109798633D01*
X91288268Y-109798635D01*
X91274648Y-109928225D01*
X91268996Y-109982000D01*
X80374886Y-109982000D01*
X80399961Y-109928225D01*
X80399961Y-109928224D01*
X80402284Y-109923243D01*
X80437432Y-109792072D01*
X80460119Y-109707402D01*
X80460119Y-109707400D01*
X80461543Y-109702087D01*
X80481498Y-109474000D01*
X80461543Y-109245913D01*
X80447837Y-109194763D01*
X80403707Y-109030067D01*
X80403706Y-109030065D01*
X80402284Y-109024757D01*
X80370732Y-108957093D01*
X80307849Y-108822238D01*
X80307846Y-108822233D01*
X80305523Y-108817251D01*
X80232098Y-108712389D01*
X80177357Y-108634211D01*
X80177355Y-108634208D01*
X80174198Y-108629700D01*
X80012300Y-108467802D01*
X80007792Y-108464645D01*
X80007789Y-108464643D01*
X79929611Y-108409902D01*
X79824749Y-108336477D01*
X79819767Y-108334154D01*
X79819762Y-108334151D01*
X79622225Y-108242039D01*
X79622224Y-108242039D01*
X79617243Y-108239716D01*
X79611935Y-108238294D01*
X79611933Y-108238293D01*
X79401402Y-108181881D01*
X79401400Y-108181881D01*
X79396087Y-108180457D01*
X79168000Y-108160502D01*
X78939913Y-108180457D01*
X78934600Y-108181881D01*
X78934598Y-108181881D01*
X78724067Y-108238293D01*
X78724065Y-108238294D01*
X78718757Y-108239716D01*
X78713776Y-108242039D01*
X78713775Y-108242039D01*
X78516238Y-108334151D01*
X78516233Y-108334154D01*
X78511251Y-108336477D01*
X78406389Y-108409902D01*
X78328211Y-108464643D01*
X78328208Y-108464645D01*
X78323700Y-108467802D01*
X78161802Y-108629700D01*
X78158645Y-108634208D01*
X78158643Y-108634211D01*
X78103902Y-108712389D01*
X78030477Y-108817251D01*
X78028154Y-108822233D01*
X78028151Y-108822238D01*
X77965268Y-108957093D01*
X77933716Y-109024757D01*
X77932294Y-109030065D01*
X77932293Y-109030067D01*
X77888163Y-109194763D01*
X77874457Y-109245913D01*
X77854502Y-109474000D01*
X75481498Y-109474000D01*
X75461543Y-109245913D01*
X75447837Y-109194763D01*
X75403707Y-109030067D01*
X75403706Y-109030065D01*
X75402284Y-109024757D01*
X75370732Y-108957093D01*
X75307849Y-108822238D01*
X75307846Y-108822233D01*
X75305523Y-108817251D01*
X75232098Y-108712389D01*
X75177357Y-108634211D01*
X75177355Y-108634208D01*
X75174198Y-108629700D01*
X75012300Y-108467802D01*
X75007792Y-108464645D01*
X75007789Y-108464643D01*
X74929611Y-108409902D01*
X74824749Y-108336477D01*
X74819767Y-108334154D01*
X74819762Y-108334151D01*
X74622225Y-108242039D01*
X74622224Y-108242039D01*
X74617243Y-108239716D01*
X74611935Y-108238294D01*
X74611933Y-108238293D01*
X74401402Y-108181881D01*
X74401400Y-108181881D01*
X74396087Y-108180457D01*
X74168000Y-108160502D01*
X73939913Y-108180457D01*
X73934600Y-108181881D01*
X73934598Y-108181881D01*
X73724067Y-108238293D01*
X73724065Y-108238294D01*
X73718757Y-108239716D01*
X73713776Y-108242039D01*
X73713775Y-108242039D01*
X73516238Y-108334151D01*
X73516233Y-108334154D01*
X73511251Y-108336477D01*
X73406389Y-108409902D01*
X73328211Y-108464643D01*
X73328208Y-108464645D01*
X73323700Y-108467802D01*
X73161802Y-108629700D01*
X73158645Y-108634208D01*
X73158643Y-108634211D01*
X73103902Y-108712389D01*
X73030477Y-108817251D01*
X73028154Y-108822233D01*
X73028151Y-108822238D01*
X72965268Y-108957093D01*
X72933716Y-109024757D01*
X72932294Y-109030065D01*
X72932293Y-109030067D01*
X72888163Y-109194763D01*
X72874457Y-109245913D01*
X72854502Y-109474000D01*
X68124500Y-109474000D01*
X68124500Y-102626575D01*
X95854404Y-102626575D01*
X95873218Y-102833303D01*
X95874956Y-102839209D01*
X95874957Y-102839213D01*
X95918473Y-102987068D01*
X95931827Y-103032440D01*
X96027999Y-103216400D01*
X96158071Y-103378177D01*
X96162788Y-103382135D01*
X96162790Y-103382137D01*
X96266681Y-103469312D01*
X96317089Y-103511609D01*
X96322481Y-103514573D01*
X96322485Y-103514576D01*
X96493598Y-103608646D01*
X96498995Y-103611613D01*
X96696861Y-103674379D01*
X96702978Y-103675065D01*
X96702982Y-103675066D01*
X96779598Y-103683659D01*
X96858413Y-103692500D01*
X96970237Y-103692500D01*
X96973293Y-103692200D01*
X96973300Y-103692200D01*
X97118466Y-103677966D01*
X97118469Y-103677965D01*
X97124592Y-103677365D01*
X97256546Y-103637526D01*
X97317407Y-103619152D01*
X97317410Y-103619151D01*
X97323315Y-103617368D01*
X97330635Y-103613476D01*
X97501153Y-103522809D01*
X97501155Y-103522808D01*
X97506599Y-103519913D01*
X97566471Y-103471083D01*
X97662689Y-103392610D01*
X97662692Y-103392607D01*
X97667464Y-103388715D01*
X97799783Y-103228770D01*
X97803876Y-103221201D01*
X97895584Y-103051590D01*
X97895586Y-103051585D01*
X97898514Y-103046170D01*
X97959898Y-102847871D01*
X97961429Y-102833303D01*
X97980952Y-102647554D01*
X97980952Y-102647552D01*
X97981596Y-102641425D01*
X97962782Y-102434697D01*
X97960298Y-102426255D01*
X97905912Y-102241469D01*
X97904173Y-102235560D01*
X97808001Y-102051600D01*
X97677929Y-101889823D01*
X97665371Y-101879285D01*
X97523629Y-101760350D01*
X97518911Y-101756391D01*
X97513519Y-101753427D01*
X97513515Y-101753424D01*
X97342402Y-101659354D01*
X97337005Y-101656387D01*
X97139139Y-101593621D01*
X97133022Y-101592935D01*
X97133018Y-101592934D01*
X97056402Y-101584341D01*
X96977587Y-101575500D01*
X96865763Y-101575500D01*
X96862707Y-101575800D01*
X96862700Y-101575800D01*
X96717534Y-101590034D01*
X96717531Y-101590035D01*
X96711408Y-101590635D01*
X96579454Y-101630474D01*
X96518593Y-101648848D01*
X96518590Y-101648849D01*
X96512685Y-101650632D01*
X96507240Y-101653527D01*
X96507238Y-101653528D01*
X96334847Y-101745191D01*
X96334845Y-101745192D01*
X96329401Y-101748087D01*
X96314365Y-101760350D01*
X96173311Y-101875390D01*
X96173308Y-101875393D01*
X96168536Y-101879285D01*
X96036217Y-102039230D01*
X96033288Y-102044647D01*
X96033286Y-102044650D01*
X95940416Y-102216410D01*
X95940414Y-102216415D01*
X95937486Y-102221830D01*
X95876102Y-102420129D01*
X95875458Y-102426254D01*
X95875458Y-102426255D01*
X95873926Y-102440836D01*
X95854404Y-102626575D01*
X68124500Y-102626575D01*
X68124500Y-99314000D01*
X93574496Y-99314000D01*
X93594458Y-99503928D01*
X93653473Y-99685556D01*
X93748960Y-99850944D01*
X93876747Y-99992866D01*
X94031248Y-100105118D01*
X94037276Y-100107802D01*
X94037278Y-100107803D01*
X94199681Y-100180109D01*
X94205712Y-100182794D01*
X94299112Y-100202647D01*
X94386056Y-100221128D01*
X94386061Y-100221128D01*
X94392513Y-100222500D01*
X94583487Y-100222500D01*
X94589939Y-100221128D01*
X94589944Y-100221128D01*
X94676887Y-100202647D01*
X94770288Y-100182794D01*
X94776319Y-100180109D01*
X94938722Y-100107803D01*
X94938724Y-100107802D01*
X94944752Y-100105118D01*
X95099253Y-99992866D01*
X95227040Y-99850944D01*
X95251372Y-99808800D01*
X95302755Y-99759807D01*
X95360491Y-99745800D01*
X99166100Y-99745800D01*
X99234221Y-99765802D01*
X99253447Y-99782143D01*
X99253720Y-99781840D01*
X99258632Y-99786263D01*
X99263047Y-99791166D01*
X99417548Y-99903418D01*
X99423576Y-99906102D01*
X99423578Y-99906103D01*
X99585981Y-99978409D01*
X99592012Y-99981094D01*
X99665663Y-99996749D01*
X99772356Y-100019428D01*
X99772361Y-100019428D01*
X99778813Y-100020800D01*
X99969787Y-100020800D01*
X99976239Y-100019428D01*
X99976244Y-100019428D01*
X100082937Y-99996749D01*
X100156588Y-99981094D01*
X100162619Y-99978409D01*
X100325022Y-99906103D01*
X100325024Y-99906102D01*
X100331052Y-99903418D01*
X100485553Y-99791166D01*
X100613340Y-99649244D01*
X100693614Y-99510206D01*
X100705523Y-99489579D01*
X100705524Y-99489578D01*
X100708827Y-99483856D01*
X100767842Y-99302228D01*
X100778048Y-99205128D01*
X100787114Y-99118865D01*
X100787804Y-99112300D01*
X100773978Y-98980749D01*
X100768532Y-98928935D01*
X100768532Y-98928933D01*
X100767842Y-98922372D01*
X100708827Y-98740744D01*
X100613340Y-98575356D01*
X100485553Y-98433434D01*
X100331052Y-98321182D01*
X100325024Y-98318498D01*
X100325022Y-98318497D01*
X100162619Y-98246191D01*
X100162618Y-98246191D01*
X100156588Y-98243506D01*
X100011406Y-98212646D01*
X99948934Y-98178919D01*
X99914612Y-98116769D01*
X99919340Y-98045930D01*
X99961616Y-97988892D01*
X100004992Y-97967693D01*
X100213936Y-97911706D01*
X100219243Y-97910284D01*
X100224225Y-97907961D01*
X100421762Y-97815849D01*
X100421767Y-97815846D01*
X100426749Y-97813523D01*
X100551847Y-97725928D01*
X100609789Y-97685357D01*
X100609792Y-97685355D01*
X100614300Y-97682198D01*
X100776198Y-97520300D01*
X100907523Y-97332749D01*
X100909846Y-97327767D01*
X100909849Y-97327762D01*
X101001961Y-97130225D01*
X101001961Y-97130224D01*
X101004284Y-97125243D01*
X101031789Y-97022596D01*
X101062119Y-96909402D01*
X101062119Y-96909400D01*
X101063543Y-96904087D01*
X101083498Y-96676000D01*
X101063543Y-96447913D01*
X101004284Y-96226757D01*
X101001961Y-96221775D01*
X100909849Y-96024238D01*
X100909846Y-96024233D01*
X100907523Y-96019251D01*
X100795301Y-95858982D01*
X100779357Y-95836211D01*
X100779355Y-95836208D01*
X100776198Y-95831700D01*
X100614300Y-95669802D01*
X100609792Y-95666645D01*
X100609789Y-95666643D01*
X100500243Y-95589938D01*
X100426749Y-95538477D01*
X100421767Y-95536154D01*
X100421762Y-95536151D01*
X100224225Y-95444039D01*
X100224224Y-95444039D01*
X100219243Y-95441716D01*
X100213935Y-95440294D01*
X100213933Y-95440293D01*
X100003402Y-95383881D01*
X100003400Y-95383881D01*
X99998087Y-95382457D01*
X99770000Y-95362502D01*
X99541913Y-95382457D01*
X99536600Y-95383881D01*
X99536598Y-95383881D01*
X99326067Y-95440293D01*
X99326065Y-95440294D01*
X99320757Y-95441716D01*
X99315776Y-95444039D01*
X99315775Y-95444039D01*
X99118238Y-95536151D01*
X99118233Y-95536154D01*
X99113251Y-95538477D01*
X99039757Y-95589938D01*
X98930211Y-95666643D01*
X98930208Y-95666645D01*
X98925700Y-95669802D01*
X98763802Y-95831700D01*
X98760645Y-95836208D01*
X98760643Y-95836211D01*
X98744699Y-95858982D01*
X98632477Y-96019251D01*
X98630154Y-96024233D01*
X98630151Y-96024238D01*
X98538039Y-96221775D01*
X98535716Y-96226757D01*
X98476457Y-96447913D01*
X98456502Y-96676000D01*
X98476457Y-96904087D01*
X98477881Y-96909400D01*
X98477881Y-96909402D01*
X98508212Y-97022596D01*
X98535716Y-97125243D01*
X98538039Y-97130224D01*
X98538039Y-97130225D01*
X98630151Y-97327762D01*
X98630154Y-97327767D01*
X98632477Y-97332749D01*
X98763802Y-97520300D01*
X98925700Y-97682198D01*
X98930208Y-97685355D01*
X98930211Y-97685357D01*
X98988153Y-97725928D01*
X99113251Y-97813523D01*
X99118233Y-97815846D01*
X99118238Y-97815849D01*
X99315775Y-97907961D01*
X99320757Y-97910284D01*
X99326065Y-97911706D01*
X99326067Y-97911707D01*
X99536598Y-97968119D01*
X99536600Y-97968119D01*
X99541913Y-97969543D01*
X99547389Y-97970022D01*
X99547394Y-97970023D01*
X99601566Y-97974762D01*
X99650596Y-97979052D01*
X99716713Y-98004914D01*
X99758353Y-98062418D01*
X99762294Y-98133305D01*
X99727285Y-98195069D01*
X99665812Y-98227818D01*
X99598476Y-98242131D01*
X99598467Y-98242134D01*
X99592012Y-98243506D01*
X99585982Y-98246191D01*
X99585981Y-98246191D01*
X99423578Y-98318497D01*
X99423576Y-98318498D01*
X99417548Y-98321182D01*
X99263047Y-98433434D01*
X99258632Y-98438337D01*
X99253720Y-98442760D01*
X99252595Y-98441511D01*
X99199286Y-98474351D01*
X99166100Y-98478800D01*
X94872524Y-98478800D01*
X94821276Y-98467907D01*
X94776324Y-98447893D01*
X94776321Y-98447892D01*
X94770288Y-98445206D01*
X94728660Y-98436358D01*
X94589944Y-98406872D01*
X94589939Y-98406872D01*
X94583487Y-98405500D01*
X94392513Y-98405500D01*
X94386061Y-98406872D01*
X94386056Y-98406872D01*
X94299113Y-98425353D01*
X94205712Y-98445206D01*
X94199682Y-98447891D01*
X94199681Y-98447891D01*
X94037278Y-98520197D01*
X94037276Y-98520198D01*
X94031248Y-98522882D01*
X94025907Y-98526762D01*
X94025906Y-98526763D01*
X93975843Y-98563136D01*
X93876747Y-98635134D01*
X93748960Y-98777056D01*
X93745659Y-98782774D01*
X93665062Y-98922372D01*
X93653473Y-98942444D01*
X93594458Y-99124072D01*
X93593768Y-99130633D01*
X93593768Y-99130635D01*
X93576423Y-99295665D01*
X93574496Y-99314000D01*
X68124500Y-99314000D01*
X68124500Y-88138000D01*
X71946996Y-88138000D01*
X71947686Y-88144565D01*
X71966082Y-88319590D01*
X71966958Y-88327928D01*
X72025973Y-88509556D01*
X72029276Y-88515278D01*
X72029277Y-88515279D01*
X72046447Y-88545018D01*
X72121460Y-88674944D01*
X72125878Y-88679851D01*
X72125879Y-88679852D01*
X72225785Y-88790809D01*
X72249247Y-88816866D01*
X72403748Y-88929118D01*
X72409776Y-88931802D01*
X72409778Y-88931803D01*
X72474233Y-88960500D01*
X72578212Y-89006794D01*
X72671613Y-89026647D01*
X72758556Y-89045128D01*
X72758561Y-89045128D01*
X72765013Y-89046500D01*
X72955987Y-89046500D01*
X72962439Y-89045128D01*
X72962444Y-89045128D01*
X73049387Y-89026647D01*
X73142788Y-89006794D01*
X73246767Y-88960500D01*
X73311222Y-88931803D01*
X73311224Y-88931802D01*
X73317252Y-88929118D01*
X73471753Y-88816866D01*
X73495215Y-88790809D01*
X73595121Y-88679852D01*
X73595122Y-88679851D01*
X73599540Y-88674944D01*
X73674553Y-88545018D01*
X73691723Y-88515279D01*
X73691724Y-88515278D01*
X73695027Y-88509556D01*
X73742252Y-88364213D01*
X73782324Y-88305609D01*
X73847721Y-88277972D01*
X73915334Y-88288956D01*
X73967947Y-88313490D01*
X73978239Y-88317236D01*
X74188688Y-88373625D01*
X74199481Y-88375528D01*
X74416525Y-88394517D01*
X74427475Y-88394517D01*
X74644519Y-88375528D01*
X74655312Y-88373625D01*
X74865761Y-88317236D01*
X74876053Y-88313490D01*
X75073511Y-88221414D01*
X75083006Y-88215931D01*
X75135048Y-88179491D01*
X75143424Y-88169012D01*
X75136356Y-88155566D01*
X74151885Y-87171095D01*
X74117859Y-87108783D01*
X74119694Y-87083132D01*
X74786408Y-87083132D01*
X74786539Y-87084965D01*
X74790790Y-87091580D01*
X75496287Y-87797077D01*
X75508062Y-87803507D01*
X75520077Y-87794211D01*
X75555931Y-87743006D01*
X75561414Y-87733511D01*
X75653490Y-87536053D01*
X75657236Y-87525761D01*
X75713625Y-87315312D01*
X75715528Y-87304519D01*
X75734517Y-87087475D01*
X75734517Y-87076525D01*
X75715528Y-86859481D01*
X75713625Y-86848688D01*
X75657236Y-86638239D01*
X75653490Y-86627947D01*
X75561414Y-86430489D01*
X75555931Y-86420994D01*
X75519491Y-86368952D01*
X75509012Y-86360576D01*
X75495566Y-86367644D01*
X74794022Y-87069188D01*
X74786408Y-87083132D01*
X74119694Y-87083132D01*
X74122924Y-87037968D01*
X74151885Y-86992905D01*
X75137077Y-86007713D01*
X75143507Y-85995938D01*
X75134211Y-85983923D01*
X75083006Y-85948069D01*
X75073511Y-85942586D01*
X74876053Y-85850510D01*
X74865761Y-85846764D01*
X74655312Y-85790375D01*
X74644519Y-85788472D01*
X74427475Y-85769483D01*
X74416525Y-85769483D01*
X74199481Y-85788472D01*
X74188688Y-85790375D01*
X73978239Y-85846764D01*
X73967947Y-85850510D01*
X73770489Y-85942586D01*
X73760988Y-85948072D01*
X73729770Y-85969931D01*
X73662496Y-85992619D01*
X73593636Y-85975334D01*
X73545052Y-85923564D01*
X73531500Y-85866718D01*
X73531500Y-84898575D01*
X79218404Y-84898575D01*
X79237218Y-85105303D01*
X79238956Y-85111209D01*
X79238957Y-85111213D01*
X79264353Y-85197500D01*
X79295827Y-85304440D01*
X79391999Y-85488400D01*
X79395859Y-85493200D01*
X79395859Y-85493201D01*
X79405186Y-85504801D01*
X79522071Y-85650177D01*
X79526788Y-85654135D01*
X79526790Y-85654137D01*
X79587368Y-85704968D01*
X79681089Y-85783609D01*
X79686481Y-85786573D01*
X79686485Y-85786576D01*
X79857598Y-85880646D01*
X79862995Y-85883613D01*
X80060861Y-85946379D01*
X80066978Y-85947065D01*
X80066982Y-85947066D01*
X80143598Y-85955659D01*
X80222413Y-85964500D01*
X80334237Y-85964500D01*
X80337293Y-85964200D01*
X80337300Y-85964200D01*
X80482466Y-85949966D01*
X80482469Y-85949965D01*
X80488592Y-85949365D01*
X80620546Y-85909526D01*
X80681407Y-85891152D01*
X80681410Y-85891151D01*
X80687315Y-85889368D01*
X80694635Y-85885476D01*
X80865153Y-85794809D01*
X80865155Y-85794808D01*
X80870599Y-85791913D01*
X80966440Y-85713747D01*
X81026689Y-85664610D01*
X81026692Y-85664607D01*
X81031464Y-85660715D01*
X81038379Y-85652357D01*
X81159855Y-85505518D01*
X81163783Y-85500770D01*
X81167876Y-85493201D01*
X81259584Y-85323590D01*
X81259586Y-85323585D01*
X81262514Y-85318170D01*
X81323898Y-85119871D01*
X81325429Y-85105303D01*
X81344952Y-84919554D01*
X81344952Y-84919552D01*
X81345596Y-84913425D01*
X81326782Y-84706697D01*
X81324298Y-84698255D01*
X81269912Y-84513469D01*
X81268173Y-84507560D01*
X81172001Y-84323600D01*
X81041929Y-84161823D01*
X81031496Y-84153068D01*
X80887629Y-84032350D01*
X80882911Y-84028391D01*
X80877519Y-84025427D01*
X80877515Y-84025424D01*
X80706402Y-83931354D01*
X80701005Y-83928387D01*
X80503139Y-83865621D01*
X80497022Y-83864935D01*
X80497018Y-83864934D01*
X80410849Y-83855269D01*
X80341587Y-83847500D01*
X80229763Y-83847500D01*
X80226707Y-83847800D01*
X80226700Y-83847800D01*
X80081534Y-83862034D01*
X80081531Y-83862035D01*
X80075408Y-83862635D01*
X79974177Y-83893198D01*
X79882593Y-83920848D01*
X79882590Y-83920849D01*
X79876685Y-83922632D01*
X79871240Y-83925527D01*
X79871238Y-83925528D01*
X79698847Y-84017191D01*
X79698845Y-84017192D01*
X79693401Y-84020087D01*
X79633529Y-84068917D01*
X79537311Y-84147390D01*
X79537308Y-84147393D01*
X79532536Y-84151285D01*
X79528608Y-84156033D01*
X79528607Y-84156034D01*
X79463288Y-84234991D01*
X79400217Y-84311230D01*
X79397288Y-84316647D01*
X79397286Y-84316650D01*
X79304416Y-84488410D01*
X79304414Y-84488415D01*
X79301486Y-84493830D01*
X79240102Y-84692129D01*
X79239458Y-84698254D01*
X79239458Y-84698255D01*
X79237926Y-84712836D01*
X79218404Y-84898575D01*
X73531500Y-84898575D01*
X73531500Y-83297893D01*
X73551502Y-83229772D01*
X73605158Y-83183279D01*
X73675432Y-83173175D01*
X73729770Y-83194679D01*
X73765251Y-83219523D01*
X73770233Y-83221846D01*
X73770238Y-83221849D01*
X73894248Y-83279675D01*
X73972757Y-83316284D01*
X73978065Y-83317706D01*
X73978067Y-83317707D01*
X74188598Y-83374119D01*
X74188600Y-83374119D01*
X74193913Y-83375543D01*
X74422000Y-83395498D01*
X74650087Y-83375543D01*
X74655400Y-83374119D01*
X74655402Y-83374119D01*
X74865933Y-83317707D01*
X74865935Y-83317706D01*
X74871243Y-83316284D01*
X74949752Y-83279675D01*
X75073762Y-83221849D01*
X75073767Y-83221846D01*
X75078749Y-83219523D01*
X75192209Y-83140077D01*
X75261789Y-83091357D01*
X75261792Y-83091355D01*
X75266300Y-83088198D01*
X75428198Y-82926300D01*
X75436235Y-82914823D01*
X75542245Y-82763424D01*
X75559523Y-82738749D01*
X75561846Y-82733767D01*
X75561849Y-82733762D01*
X75653961Y-82536225D01*
X75653961Y-82536224D01*
X75656284Y-82531243D01*
X75687694Y-82414022D01*
X75714119Y-82315402D01*
X75714119Y-82315400D01*
X75715543Y-82310087D01*
X75735498Y-82082000D01*
X75715543Y-81853913D01*
X75668298Y-81677592D01*
X75657707Y-81638067D01*
X75657706Y-81638065D01*
X75656284Y-81632757D01*
X75623730Y-81562944D01*
X75561849Y-81430238D01*
X75561846Y-81430233D01*
X75559523Y-81425251D01*
X75428198Y-81237700D01*
X75266300Y-81075802D01*
X75261792Y-81072645D01*
X75261789Y-81072643D01*
X75195175Y-81026000D01*
X79096496Y-81026000D01*
X79097186Y-81032565D01*
X79114863Y-81200749D01*
X79116458Y-81215928D01*
X79175473Y-81397556D01*
X79270960Y-81562944D01*
X79398747Y-81704866D01*
X79553248Y-81817118D01*
X79559276Y-81819802D01*
X79559278Y-81819803D01*
X79721681Y-81892109D01*
X79727712Y-81894794D01*
X79821112Y-81914647D01*
X79908056Y-81933128D01*
X79908061Y-81933128D01*
X79914513Y-81934500D01*
X80077397Y-81934500D01*
X80145518Y-81954502D01*
X80166492Y-81971405D01*
X83945360Y-85750273D01*
X83979386Y-85812585D01*
X83974321Y-85883400D01*
X83931774Y-85940236D01*
X83925566Y-85944330D01*
X83925251Y-85944477D01*
X83923758Y-85945522D01*
X83923748Y-85945529D01*
X83742211Y-86072643D01*
X83742208Y-86072645D01*
X83737700Y-86075802D01*
X83575802Y-86237700D01*
X83444477Y-86425251D01*
X83442154Y-86430233D01*
X83442151Y-86430238D01*
X83442034Y-86430489D01*
X83347716Y-86632757D01*
X83346294Y-86638065D01*
X83346293Y-86638067D01*
X83309457Y-86775540D01*
X83288457Y-86853913D01*
X83268502Y-87082000D01*
X83288457Y-87310087D01*
X83289881Y-87315400D01*
X83289881Y-87315402D01*
X83341882Y-87509469D01*
X83347716Y-87531243D01*
X83350039Y-87536224D01*
X83350039Y-87536225D01*
X83442151Y-87733762D01*
X83442154Y-87733767D01*
X83444477Y-87738749D01*
X83517902Y-87843611D01*
X83568278Y-87915554D01*
X83575802Y-87926300D01*
X83737700Y-88088198D01*
X83742208Y-88091355D01*
X83742211Y-88091357D01*
X83799449Y-88131435D01*
X83925251Y-88219523D01*
X83930233Y-88221846D01*
X83930238Y-88221849D01*
X84126765Y-88313490D01*
X84132757Y-88316284D01*
X84138065Y-88317706D01*
X84138067Y-88317707D01*
X84348598Y-88374119D01*
X84348600Y-88374119D01*
X84353913Y-88375543D01*
X84582000Y-88395498D01*
X84810087Y-88375543D01*
X84815400Y-88374119D01*
X84815402Y-88374119D01*
X85025933Y-88317707D01*
X85025935Y-88317706D01*
X85031243Y-88316284D01*
X85037235Y-88313490D01*
X85233762Y-88221849D01*
X85233767Y-88221846D01*
X85238749Y-88219523D01*
X85364551Y-88131435D01*
X85421789Y-88091357D01*
X85421792Y-88091355D01*
X85426300Y-88088198D01*
X85588198Y-87926300D01*
X85595723Y-87915554D01*
X85646098Y-87843611D01*
X85719523Y-87738749D01*
X85721846Y-87733767D01*
X85721849Y-87733762D01*
X85813961Y-87536225D01*
X85813961Y-87536224D01*
X85816284Y-87531243D01*
X85853105Y-87393828D01*
X85867290Y-87340888D01*
X85904242Y-87280266D01*
X85968103Y-87249244D01*
X85988997Y-87247500D01*
X87378500Y-87247500D01*
X87446621Y-87267502D01*
X87493114Y-87321158D01*
X87504500Y-87373500D01*
X87504500Y-90483476D01*
X87484498Y-90551597D01*
X87472142Y-90567779D01*
X87398960Y-90649056D01*
X87303473Y-90814444D01*
X87244458Y-90996072D01*
X87243768Y-91002633D01*
X87243768Y-91002635D01*
X87227093Y-91161293D01*
X87224496Y-91186000D01*
X87225186Y-91192565D01*
X87242133Y-91353803D01*
X87244458Y-91375928D01*
X87303473Y-91557556D01*
X87306776Y-91563278D01*
X87306777Y-91563279D01*
X87327863Y-91599801D01*
X87398960Y-91722944D01*
X87526747Y-91864866D01*
X87681248Y-91977118D01*
X87687276Y-91979802D01*
X87687278Y-91979803D01*
X87849681Y-92052109D01*
X87855712Y-92054794D01*
X87949113Y-92074647D01*
X88036056Y-92093128D01*
X88036061Y-92093128D01*
X88042513Y-92094500D01*
X88233487Y-92094500D01*
X88248022Y-92091411D01*
X88295929Y-92081228D01*
X88366719Y-92086630D01*
X88423352Y-92129447D01*
X88447845Y-92196085D01*
X88432424Y-92265386D01*
X88411220Y-92293570D01*
X87275247Y-93429543D01*
X87266961Y-93437083D01*
X87260482Y-93441195D01*
X87255057Y-93446972D01*
X87213857Y-93490846D01*
X87211102Y-93493688D01*
X87191365Y-93513425D01*
X87188885Y-93516622D01*
X87181182Y-93525642D01*
X87150914Y-93557874D01*
X87147095Y-93564820D01*
X87147093Y-93564823D01*
X87141152Y-93575629D01*
X87130301Y-93592148D01*
X87117886Y-93608154D01*
X87114741Y-93615423D01*
X87114738Y-93615427D01*
X87100326Y-93648732D01*
X87095109Y-93659382D01*
X87073805Y-93698135D01*
X87071834Y-93705810D01*
X87071834Y-93705811D01*
X87068767Y-93717757D01*
X87062363Y-93736461D01*
X87054319Y-93755050D01*
X87053080Y-93762873D01*
X87053077Y-93762883D01*
X87047401Y-93798719D01*
X87044995Y-93810339D01*
X87034000Y-93853165D01*
X87034000Y-93873419D01*
X87032449Y-93893129D01*
X87029280Y-93913138D01*
X87030026Y-93921030D01*
X87033441Y-93957156D01*
X87034000Y-93969014D01*
X87034000Y-95563476D01*
X87013998Y-95631597D01*
X87001642Y-95647779D01*
X86928460Y-95729056D01*
X86832973Y-95894444D01*
X86773958Y-96076072D01*
X86753996Y-96266000D01*
X86754686Y-96272565D01*
X86773116Y-96447913D01*
X86773958Y-96455928D01*
X86832973Y-96637556D01*
X86836276Y-96643278D01*
X86836277Y-96643279D01*
X86858330Y-96681475D01*
X86928460Y-96802944D01*
X86932878Y-96807851D01*
X86932879Y-96807852D01*
X86964638Y-96843124D01*
X87056247Y-96944866D01*
X87210748Y-97057118D01*
X87216776Y-97059802D01*
X87216778Y-97059803D01*
X87379181Y-97132109D01*
X87385212Y-97134794D01*
X87478613Y-97154647D01*
X87565556Y-97173128D01*
X87565561Y-97173128D01*
X87572013Y-97174500D01*
X87762987Y-97174500D01*
X87769439Y-97173128D01*
X87769444Y-97173128D01*
X87856387Y-97154647D01*
X87949788Y-97134794D01*
X87955819Y-97132109D01*
X88118222Y-97059803D01*
X88118224Y-97059802D01*
X88124252Y-97057118D01*
X88278753Y-96944866D01*
X88283168Y-96939963D01*
X88288080Y-96935540D01*
X88289205Y-96936789D01*
X88342514Y-96903949D01*
X88375700Y-96899500D01*
X89855406Y-96899500D01*
X89923527Y-96919502D01*
X89944501Y-96936405D01*
X91254878Y-98246783D01*
X91288904Y-98309095D01*
X91291093Y-98322706D01*
X91291556Y-98327118D01*
X91307499Y-98478800D01*
X91308458Y-98487928D01*
X91367473Y-98669556D01*
X91462960Y-98834944D01*
X91590747Y-98976866D01*
X91745248Y-99089118D01*
X91751276Y-99091802D01*
X91751278Y-99091803D01*
X91812061Y-99118865D01*
X91919712Y-99166794D01*
X92013113Y-99186647D01*
X92100056Y-99205128D01*
X92100061Y-99205128D01*
X92106513Y-99206500D01*
X92297487Y-99206500D01*
X92303939Y-99205128D01*
X92303944Y-99205128D01*
X92390887Y-99186647D01*
X92484288Y-99166794D01*
X92591939Y-99118865D01*
X92652722Y-99091803D01*
X92652724Y-99091802D01*
X92658752Y-99089118D01*
X92813253Y-98976866D01*
X92941040Y-98834944D01*
X93036527Y-98669556D01*
X93081364Y-98531563D01*
X93121438Y-98472958D01*
X93186835Y-98445321D01*
X93201197Y-98444500D01*
X93313487Y-98444500D01*
X93319939Y-98443128D01*
X93319944Y-98443128D01*
X93406888Y-98424647D01*
X93500288Y-98404794D01*
X93506319Y-98402109D01*
X93668722Y-98329803D01*
X93668724Y-98329802D01*
X93674752Y-98327118D01*
X93699559Y-98309095D01*
X93786138Y-98246191D01*
X93829253Y-98214866D01*
X93957040Y-98072944D01*
X94017846Y-97967625D01*
X94050704Y-97910714D01*
X94102087Y-97861721D01*
X94171800Y-97848285D01*
X94213073Y-97859519D01*
X94315947Y-97907490D01*
X94326239Y-97911236D01*
X94536688Y-97967625D01*
X94547481Y-97969528D01*
X94764525Y-97988517D01*
X94775475Y-97988517D01*
X94992519Y-97969528D01*
X95003312Y-97967625D01*
X95213761Y-97911236D01*
X95224053Y-97907490D01*
X95421511Y-97815414D01*
X95431006Y-97809931D01*
X95483048Y-97773491D01*
X95491424Y-97763012D01*
X95484356Y-97749566D01*
X94499885Y-96765095D01*
X94465859Y-96702783D01*
X94467694Y-96677132D01*
X95134408Y-96677132D01*
X95134539Y-96678965D01*
X95138790Y-96685580D01*
X95844287Y-97391077D01*
X95856062Y-97397507D01*
X95868077Y-97388211D01*
X95903931Y-97337006D01*
X95909414Y-97327511D01*
X96001490Y-97130053D01*
X96005236Y-97119761D01*
X96061625Y-96909312D01*
X96063528Y-96898519D01*
X96082517Y-96681475D01*
X96082517Y-96670525D01*
X96063528Y-96453481D01*
X96061625Y-96442688D01*
X96005236Y-96232239D01*
X96001490Y-96221947D01*
X95909414Y-96024489D01*
X95903931Y-96014994D01*
X95867491Y-95962952D01*
X95857012Y-95954576D01*
X95843566Y-95961644D01*
X95142022Y-96663188D01*
X95134408Y-96677132D01*
X94467694Y-96677132D01*
X94470924Y-96631968D01*
X94499885Y-96586905D01*
X95485077Y-95601713D01*
X95491507Y-95589938D01*
X95482211Y-95577923D01*
X95431006Y-95542069D01*
X95421511Y-95536586D01*
X95224053Y-95444510D01*
X95213761Y-95440764D01*
X95003312Y-95384375D01*
X94992519Y-95382472D01*
X94775475Y-95363483D01*
X94764525Y-95363483D01*
X94547481Y-95382472D01*
X94536688Y-95384375D01*
X94326239Y-95440764D01*
X94315942Y-95444512D01*
X94284751Y-95459057D01*
X94214560Y-95469719D01*
X94149747Y-95440740D01*
X94110890Y-95381321D01*
X94105500Y-95344863D01*
X94105500Y-93417893D01*
X94125502Y-93349772D01*
X94179158Y-93303279D01*
X94249432Y-93293175D01*
X94303770Y-93314679D01*
X94339251Y-93339523D01*
X94344233Y-93341846D01*
X94344238Y-93341849D01*
X94541775Y-93433961D01*
X94546757Y-93436284D01*
X94552065Y-93437706D01*
X94552067Y-93437707D01*
X94762598Y-93494119D01*
X94762600Y-93494119D01*
X94767913Y-93495543D01*
X94996000Y-93515498D01*
X95224087Y-93495543D01*
X95229400Y-93494119D01*
X95229402Y-93494119D01*
X95439933Y-93437707D01*
X95439935Y-93437706D01*
X95445243Y-93436284D01*
X95450225Y-93433961D01*
X95647762Y-93341849D01*
X95647767Y-93341846D01*
X95652749Y-93339523D01*
X95757611Y-93266098D01*
X95835789Y-93211357D01*
X95835792Y-93211355D01*
X95840300Y-93208198D01*
X96002198Y-93046300D01*
X96133523Y-92858749D01*
X96135846Y-92853767D01*
X96135849Y-92853762D01*
X96227961Y-92656225D01*
X96227961Y-92656224D01*
X96230284Y-92651243D01*
X96289543Y-92430087D01*
X96309498Y-92202000D01*
X98682502Y-92202000D01*
X98702457Y-92430087D01*
X98761716Y-92651243D01*
X98764039Y-92656224D01*
X98764039Y-92656225D01*
X98856151Y-92853762D01*
X98856154Y-92853767D01*
X98858477Y-92858749D01*
X98989802Y-93046300D01*
X99151700Y-93208198D01*
X99156208Y-93211355D01*
X99156211Y-93211357D01*
X99234389Y-93266098D01*
X99339251Y-93339523D01*
X99344233Y-93341846D01*
X99344238Y-93341849D01*
X99541775Y-93433961D01*
X99546757Y-93436284D01*
X99552065Y-93437706D01*
X99552067Y-93437707D01*
X99762598Y-93494119D01*
X99762600Y-93494119D01*
X99767913Y-93495543D01*
X99996000Y-93515498D01*
X100224087Y-93495543D01*
X100229400Y-93494119D01*
X100229402Y-93494119D01*
X100439933Y-93437707D01*
X100439935Y-93437706D01*
X100445243Y-93436284D01*
X100450225Y-93433961D01*
X100647762Y-93341849D01*
X100647767Y-93341846D01*
X100652749Y-93339523D01*
X100757611Y-93266098D01*
X100835789Y-93211357D01*
X100835792Y-93211355D01*
X100840300Y-93208198D01*
X101002198Y-93046300D01*
X101133523Y-92858749D01*
X101135846Y-92853767D01*
X101135849Y-92853762D01*
X101227961Y-92656225D01*
X101227961Y-92656224D01*
X101230284Y-92651243D01*
X101289543Y-92430087D01*
X101309498Y-92202000D01*
X101289543Y-91973913D01*
X101230284Y-91752757D01*
X101180001Y-91644924D01*
X101135849Y-91550238D01*
X101135846Y-91550233D01*
X101133523Y-91545251D01*
X101039437Y-91410882D01*
X101005357Y-91362211D01*
X101005355Y-91362208D01*
X101002198Y-91357700D01*
X100840300Y-91195802D01*
X100835792Y-91192645D01*
X100835789Y-91192643D01*
X100757611Y-91137902D01*
X100652749Y-91064477D01*
X100647767Y-91062154D01*
X100647762Y-91062151D01*
X100450225Y-90970039D01*
X100450224Y-90970039D01*
X100445243Y-90967716D01*
X100439935Y-90966294D01*
X100439933Y-90966293D01*
X100229402Y-90909881D01*
X100229400Y-90909881D01*
X100224087Y-90908457D01*
X99996000Y-90888502D01*
X99767913Y-90908457D01*
X99762600Y-90909881D01*
X99762598Y-90909881D01*
X99552067Y-90966293D01*
X99552065Y-90966294D01*
X99546757Y-90967716D01*
X99541776Y-90970039D01*
X99541775Y-90970039D01*
X99344238Y-91062151D01*
X99344233Y-91062154D01*
X99339251Y-91064477D01*
X99234389Y-91137902D01*
X99156211Y-91192643D01*
X99156208Y-91192645D01*
X99151700Y-91195802D01*
X98989802Y-91357700D01*
X98986645Y-91362208D01*
X98986643Y-91362211D01*
X98952563Y-91410882D01*
X98858477Y-91545251D01*
X98856154Y-91550233D01*
X98856151Y-91550238D01*
X98811999Y-91644924D01*
X98761716Y-91752757D01*
X98702457Y-91973913D01*
X98682502Y-92202000D01*
X96309498Y-92202000D01*
X96289543Y-91973913D01*
X96230284Y-91752757D01*
X96180001Y-91644924D01*
X96135849Y-91550238D01*
X96135846Y-91550233D01*
X96133523Y-91545251D01*
X96039437Y-91410882D01*
X96005357Y-91362211D01*
X96005355Y-91362208D01*
X96002198Y-91357700D01*
X95840300Y-91195802D01*
X95835792Y-91192645D01*
X95835789Y-91192643D01*
X95757611Y-91137902D01*
X95652749Y-91064477D01*
X95647767Y-91062154D01*
X95647762Y-91062151D01*
X95450225Y-90970039D01*
X95450224Y-90970039D01*
X95445243Y-90967716D01*
X95439935Y-90966294D01*
X95439933Y-90966293D01*
X95229402Y-90909881D01*
X95229400Y-90909881D01*
X95224087Y-90908457D01*
X94996000Y-90888502D01*
X94767913Y-90908457D01*
X94762600Y-90909881D01*
X94762598Y-90909881D01*
X94657335Y-90938086D01*
X94546757Y-90967716D01*
X94510456Y-90984643D01*
X94440266Y-90995304D01*
X94375454Y-90966324D01*
X94337375Y-90909384D01*
X94308569Y-90820729D01*
X94306527Y-90814444D01*
X94211040Y-90649056D01*
X94137863Y-90567785D01*
X94107147Y-90503779D01*
X94105500Y-90483476D01*
X94105500Y-88207463D01*
X94106027Y-88196280D01*
X94107702Y-88188787D01*
X94107081Y-88169012D01*
X94105562Y-88120697D01*
X94105500Y-88116739D01*
X94105500Y-88088839D01*
X94104996Y-88084848D01*
X94104063Y-88073006D01*
X94102923Y-88036731D01*
X94102674Y-88028806D01*
X94100462Y-88021192D01*
X94100461Y-88021187D01*
X94097023Y-88009354D01*
X94093012Y-87989990D01*
X94091467Y-87977759D01*
X94090474Y-87969898D01*
X94087557Y-87962531D01*
X94087556Y-87962526D01*
X94074198Y-87928787D01*
X94070354Y-87917560D01*
X94065460Y-87900715D01*
X94063676Y-87894575D01*
X96108404Y-87894575D01*
X96110313Y-87915554D01*
X96126445Y-88092805D01*
X96127218Y-88101303D01*
X96128956Y-88107209D01*
X96128957Y-88107213D01*
X96143188Y-88155566D01*
X96185827Y-88300440D01*
X96281999Y-88484400D01*
X96412071Y-88646177D01*
X96416788Y-88650135D01*
X96416790Y-88650137D01*
X96461452Y-88687613D01*
X96571089Y-88779609D01*
X96576481Y-88782573D01*
X96576485Y-88782576D01*
X96645922Y-88820749D01*
X96752995Y-88879613D01*
X96758868Y-88881476D01*
X96909057Y-88929118D01*
X96950861Y-88942379D01*
X96956978Y-88943065D01*
X96956982Y-88943066D01*
X97033598Y-88951659D01*
X97112413Y-88960500D01*
X97224237Y-88960500D01*
X97227293Y-88960200D01*
X97227300Y-88960200D01*
X97372466Y-88945966D01*
X97372469Y-88945965D01*
X97378592Y-88945365D01*
X97510546Y-88905526D01*
X97571407Y-88887152D01*
X97571410Y-88887151D01*
X97577315Y-88885368D01*
X97584635Y-88881476D01*
X97755153Y-88790809D01*
X97755155Y-88790808D01*
X97760599Y-88787913D01*
X97862055Y-88705168D01*
X97916689Y-88660610D01*
X97916692Y-88660607D01*
X97921464Y-88656715D01*
X97948266Y-88624318D01*
X98049855Y-88501518D01*
X98053783Y-88496770D01*
X98057876Y-88489201D01*
X98149584Y-88319590D01*
X98149586Y-88319585D01*
X98152514Y-88314170D01*
X98213898Y-88115871D01*
X98215429Y-88101303D01*
X98234952Y-87915554D01*
X98234952Y-87915552D01*
X98235596Y-87909425D01*
X98223863Y-87780503D01*
X98217341Y-87708836D01*
X98217340Y-87708833D01*
X98216782Y-87702697D01*
X98214298Y-87694255D01*
X98167736Y-87536053D01*
X98158173Y-87503560D01*
X98062001Y-87319600D01*
X97931929Y-87157823D01*
X97919371Y-87147285D01*
X97777629Y-87028350D01*
X97772911Y-87024391D01*
X97767519Y-87021427D01*
X97767515Y-87021424D01*
X97596402Y-86927354D01*
X97591005Y-86924387D01*
X97393139Y-86861621D01*
X97387022Y-86860935D01*
X97387018Y-86860934D01*
X97310402Y-86852341D01*
X97231587Y-86843500D01*
X97119763Y-86843500D01*
X97116707Y-86843800D01*
X97116700Y-86843800D01*
X96971534Y-86858034D01*
X96971531Y-86858035D01*
X96965408Y-86858635D01*
X96850799Y-86893237D01*
X96772593Y-86916848D01*
X96772590Y-86916849D01*
X96766685Y-86918632D01*
X96761240Y-86921527D01*
X96761238Y-86921528D01*
X96588847Y-87013191D01*
X96588845Y-87013192D01*
X96583401Y-87016087D01*
X96568365Y-87028350D01*
X96427311Y-87143390D01*
X96427308Y-87143393D01*
X96422536Y-87147285D01*
X96418608Y-87152033D01*
X96418607Y-87152034D01*
X96390410Y-87186118D01*
X96290217Y-87307230D01*
X96287288Y-87312647D01*
X96287286Y-87312650D01*
X96194416Y-87484410D01*
X96194414Y-87484415D01*
X96191486Y-87489830D01*
X96130102Y-87688129D01*
X96129458Y-87694254D01*
X96129458Y-87694255D01*
X96110451Y-87875102D01*
X96108404Y-87894575D01*
X94063676Y-87894575D01*
X94058018Y-87875102D01*
X94047707Y-87857667D01*
X94039012Y-87839919D01*
X94031552Y-87821078D01*
X94005564Y-87785308D01*
X93999048Y-87775388D01*
X93980580Y-87744160D01*
X93980578Y-87744157D01*
X93976542Y-87737333D01*
X93962221Y-87723012D01*
X93949380Y-87707978D01*
X93942131Y-87698001D01*
X93937472Y-87691588D01*
X93903395Y-87663397D01*
X93894616Y-87655407D01*
X91952957Y-85713747D01*
X91945417Y-85705461D01*
X91941305Y-85698982D01*
X91891653Y-85652356D01*
X91888812Y-85649602D01*
X91869075Y-85629865D01*
X91865878Y-85627385D01*
X91856856Y-85619680D01*
X91830405Y-85594841D01*
X91824626Y-85589414D01*
X91817680Y-85585595D01*
X91817677Y-85585593D01*
X91806871Y-85579652D01*
X91790352Y-85568801D01*
X91784353Y-85564148D01*
X91774346Y-85556386D01*
X91767077Y-85553241D01*
X91767073Y-85553238D01*
X91733768Y-85538826D01*
X91723118Y-85533609D01*
X91684365Y-85512305D01*
X91664742Y-85507267D01*
X91646039Y-85500863D01*
X91634725Y-85495967D01*
X91634724Y-85495967D01*
X91627450Y-85492819D01*
X91619627Y-85491580D01*
X91619617Y-85491577D01*
X91583781Y-85485901D01*
X91572161Y-85483495D01*
X91537016Y-85474472D01*
X91537015Y-85474472D01*
X91529335Y-85472500D01*
X91509081Y-85472500D01*
X91489370Y-85470949D01*
X91477191Y-85469020D01*
X91469362Y-85467780D01*
X91461470Y-85468526D01*
X91425344Y-85471941D01*
X91413486Y-85472500D01*
X91217094Y-85472500D01*
X91148973Y-85452498D01*
X91102480Y-85398842D01*
X91092376Y-85328568D01*
X91121870Y-85263988D01*
X91127999Y-85257405D01*
X92086247Y-84299157D01*
X92094537Y-84291613D01*
X92101018Y-84287500D01*
X92147659Y-84237832D01*
X92150413Y-84234991D01*
X92170134Y-84215270D01*
X92172612Y-84212075D01*
X92180318Y-84203053D01*
X92205158Y-84176601D01*
X92210586Y-84170821D01*
X92220346Y-84153068D01*
X92231199Y-84136545D01*
X92238753Y-84126806D01*
X92243613Y-84120541D01*
X92261176Y-84079957D01*
X92266383Y-84069327D01*
X92287695Y-84030560D01*
X92289666Y-84022883D01*
X92289668Y-84022878D01*
X92292732Y-84010942D01*
X92299138Y-83992230D01*
X92304034Y-83980917D01*
X92307181Y-83973645D01*
X92313880Y-83931354D01*
X92314097Y-83929981D01*
X92316504Y-83918360D01*
X92325528Y-83883211D01*
X92325528Y-83883210D01*
X92327500Y-83875530D01*
X92327500Y-83855269D01*
X92329051Y-83835558D01*
X92330979Y-83823385D01*
X92332219Y-83815557D01*
X92328059Y-83771546D01*
X92327500Y-83759689D01*
X92327500Y-83128062D01*
X94020493Y-83128062D01*
X94029789Y-83140077D01*
X94080994Y-83175931D01*
X94090489Y-83181414D01*
X94287947Y-83273490D01*
X94298242Y-83277237D01*
X94299970Y-83277700D01*
X94300645Y-83278112D01*
X94303413Y-83279119D01*
X94303211Y-83279675D01*
X94360592Y-83314653D01*
X94391612Y-83378514D01*
X94383182Y-83449009D01*
X94376475Y-83462406D01*
X94342275Y-83521642D01*
X94283260Y-83703270D01*
X94282570Y-83709831D01*
X94282570Y-83709833D01*
X94269356Y-83835558D01*
X94263298Y-83893198D01*
X94263988Y-83899763D01*
X94273707Y-83992230D01*
X94283260Y-84083126D01*
X94342275Y-84264754D01*
X94437762Y-84430142D01*
X94442180Y-84435049D01*
X94442181Y-84435050D01*
X94502554Y-84502101D01*
X94565549Y-84572064D01*
X94720050Y-84684316D01*
X94726078Y-84687000D01*
X94726080Y-84687001D01*
X94784107Y-84712836D01*
X94894514Y-84761992D01*
X94987914Y-84781845D01*
X95074858Y-84800326D01*
X95074863Y-84800326D01*
X95081315Y-84801698D01*
X95272289Y-84801698D01*
X95278741Y-84800326D01*
X95278746Y-84800326D01*
X95365690Y-84781845D01*
X95459090Y-84761992D01*
X95569497Y-84712836D01*
X95627524Y-84687001D01*
X95627526Y-84687000D01*
X95633554Y-84684316D01*
X95788055Y-84572064D01*
X95792470Y-84567161D01*
X95797382Y-84562738D01*
X95798507Y-84563987D01*
X95851816Y-84531147D01*
X95885002Y-84526698D01*
X99948998Y-84526698D01*
X100017119Y-84546700D01*
X100036345Y-84563041D01*
X100036618Y-84562738D01*
X100041530Y-84567161D01*
X100045945Y-84572064D01*
X100200446Y-84684316D01*
X100206474Y-84687000D01*
X100206476Y-84687001D01*
X100264503Y-84712836D01*
X100374910Y-84761992D01*
X100468310Y-84781845D01*
X100555254Y-84800326D01*
X100555259Y-84800326D01*
X100561711Y-84801698D01*
X100752685Y-84801698D01*
X100759137Y-84800326D01*
X100759142Y-84800326D01*
X100846086Y-84781845D01*
X100939486Y-84761992D01*
X101049893Y-84712836D01*
X101107920Y-84687001D01*
X101107922Y-84687000D01*
X101113950Y-84684316D01*
X101268451Y-84572064D01*
X101331446Y-84502101D01*
X101391819Y-84435050D01*
X101391820Y-84435049D01*
X101396238Y-84430142D01*
X101491725Y-84264754D01*
X101550740Y-84083126D01*
X101560294Y-83992230D01*
X101570012Y-83899763D01*
X101570702Y-83893198D01*
X101564644Y-83835558D01*
X101551430Y-83709833D01*
X101551430Y-83709831D01*
X101550740Y-83703270D01*
X101491725Y-83521642D01*
X101468206Y-83480905D01*
X101449790Y-83449009D01*
X101396238Y-83356254D01*
X101326786Y-83279119D01*
X101272873Y-83219243D01*
X101272872Y-83219242D01*
X101268451Y-83214332D01*
X101113950Y-83102080D01*
X101107922Y-83099396D01*
X101107920Y-83099395D01*
X100945517Y-83027089D01*
X100945516Y-83027089D01*
X100939486Y-83024404D01*
X100933031Y-83023032D01*
X100933028Y-83023031D01*
X100900443Y-83016105D01*
X100875012Y-83010700D01*
X100812539Y-82976972D01*
X100778218Y-82914823D01*
X100782945Y-82843984D01*
X100797996Y-82815183D01*
X100876363Y-82703263D01*
X100876367Y-82703257D01*
X100879523Y-82698749D01*
X100881846Y-82693767D01*
X100881849Y-82693762D01*
X100973961Y-82496225D01*
X100973961Y-82496224D01*
X100976284Y-82491243D01*
X100996976Y-82414022D01*
X101034119Y-82275402D01*
X101034119Y-82275400D01*
X101035543Y-82270087D01*
X101055498Y-82042000D01*
X101035543Y-81813913D01*
X101034119Y-81808598D01*
X100977707Y-81598067D01*
X100977706Y-81598065D01*
X100976284Y-81592757D01*
X100962382Y-81562944D01*
X100881849Y-81390238D01*
X100881846Y-81390233D01*
X100879523Y-81385251D01*
X100779365Y-81242211D01*
X100751357Y-81202211D01*
X100751355Y-81202208D01*
X100748198Y-81197700D01*
X100586300Y-81035802D01*
X100581792Y-81032645D01*
X100581789Y-81032643D01*
X100455920Y-80944509D01*
X100398749Y-80904477D01*
X100393767Y-80902154D01*
X100393762Y-80902151D01*
X100196225Y-80810039D01*
X100196224Y-80810039D01*
X100191243Y-80807716D01*
X100185935Y-80806294D01*
X100185933Y-80806293D01*
X99975402Y-80749881D01*
X99975400Y-80749881D01*
X99970087Y-80748457D01*
X99742000Y-80728502D01*
X99513913Y-80748457D01*
X99508600Y-80749881D01*
X99508598Y-80749881D01*
X99298067Y-80806293D01*
X99298065Y-80806294D01*
X99292757Y-80807716D01*
X99287776Y-80810039D01*
X99287775Y-80810039D01*
X99090238Y-80902151D01*
X99090233Y-80902154D01*
X99085251Y-80904477D01*
X99028080Y-80944509D01*
X98902211Y-81032643D01*
X98902208Y-81032645D01*
X98897700Y-81035802D01*
X98735802Y-81197700D01*
X98732645Y-81202208D01*
X98732643Y-81202211D01*
X98704635Y-81242211D01*
X98604477Y-81385251D01*
X98602154Y-81390233D01*
X98602151Y-81390238D01*
X98521618Y-81562944D01*
X98507716Y-81592757D01*
X98506294Y-81598065D01*
X98506293Y-81598067D01*
X98449881Y-81808598D01*
X98448457Y-81813913D01*
X98428502Y-82042000D01*
X98448457Y-82270087D01*
X98449881Y-82275400D01*
X98449881Y-82275402D01*
X98487025Y-82414022D01*
X98507716Y-82491243D01*
X98510039Y-82496224D01*
X98510039Y-82496225D01*
X98602151Y-82693762D01*
X98602154Y-82693767D01*
X98604477Y-82698749D01*
X98735802Y-82886300D01*
X98894105Y-83044603D01*
X98928131Y-83106915D01*
X98923066Y-83177730D01*
X98880519Y-83234566D01*
X98813999Y-83259377D01*
X98805010Y-83259698D01*
X95885002Y-83259698D01*
X95816881Y-83239696D01*
X95797655Y-83223355D01*
X95797382Y-83223658D01*
X95792470Y-83219235D01*
X95788055Y-83214332D01*
X95735201Y-83175931D01*
X95638896Y-83105961D01*
X95638895Y-83105960D01*
X95633554Y-83102080D01*
X95627526Y-83099396D01*
X95627524Y-83099395D01*
X95465121Y-83027089D01*
X95465120Y-83027089D01*
X95459090Y-83024404D01*
X95376353Y-83006818D01*
X95313456Y-82972666D01*
X94754812Y-82414022D01*
X94740868Y-82406408D01*
X94739035Y-82406539D01*
X94732420Y-82410790D01*
X94026923Y-83116287D01*
X94020493Y-83128062D01*
X92327500Y-83128062D01*
X92327500Y-82047475D01*
X93429483Y-82047475D01*
X93448472Y-82264519D01*
X93450375Y-82275312D01*
X93506764Y-82485761D01*
X93510510Y-82496053D01*
X93602586Y-82693511D01*
X93608069Y-82703006D01*
X93644509Y-82755048D01*
X93654988Y-82763424D01*
X93668434Y-82756356D01*
X94369978Y-82054812D01*
X94376356Y-82043132D01*
X95106408Y-82043132D01*
X95106539Y-82044965D01*
X95110790Y-82051580D01*
X95816287Y-82757077D01*
X95828062Y-82763507D01*
X95840077Y-82754211D01*
X95875931Y-82703006D01*
X95881414Y-82693511D01*
X95973490Y-82496053D01*
X95977236Y-82485761D01*
X96033625Y-82275312D01*
X96035528Y-82264519D01*
X96054517Y-82047475D01*
X96054517Y-82036525D01*
X96035528Y-81819481D01*
X96033625Y-81808688D01*
X95977236Y-81598239D01*
X95973490Y-81587947D01*
X95881414Y-81390489D01*
X95875931Y-81380994D01*
X95839491Y-81328952D01*
X95829012Y-81320576D01*
X95815566Y-81327644D01*
X95114022Y-82029188D01*
X95106408Y-82043132D01*
X94376356Y-82043132D01*
X94377592Y-82040868D01*
X94377461Y-82039035D01*
X94373210Y-82032420D01*
X93667713Y-81326923D01*
X93655938Y-81320493D01*
X93643923Y-81329789D01*
X93608069Y-81380994D01*
X93602586Y-81390489D01*
X93510510Y-81587947D01*
X93506764Y-81598239D01*
X93450375Y-81808688D01*
X93448472Y-81819481D01*
X93429483Y-82036525D01*
X93429483Y-82047475D01*
X92327500Y-82047475D01*
X92327500Y-81848595D01*
X92347502Y-81780474D01*
X92364405Y-81759499D01*
X92602070Y-81521835D01*
X92848258Y-81275647D01*
X92856537Y-81268113D01*
X92863018Y-81264000D01*
X92909644Y-81214348D01*
X92912398Y-81211507D01*
X92932135Y-81191770D01*
X92934615Y-81188573D01*
X92942320Y-81179551D01*
X92972586Y-81147321D01*
X92976405Y-81140375D01*
X92976407Y-81140372D01*
X92982348Y-81129566D01*
X92993199Y-81113047D01*
X93000758Y-81103301D01*
X93005614Y-81097041D01*
X93008759Y-81089772D01*
X93008762Y-81089768D01*
X93023174Y-81056463D01*
X93028391Y-81045813D01*
X93049695Y-81007060D01*
X93054733Y-80987437D01*
X93061137Y-80968734D01*
X93066033Y-80957420D01*
X93066033Y-80957419D01*
X93067085Y-80954988D01*
X94020576Y-80954988D01*
X94027644Y-80968434D01*
X94729188Y-81669978D01*
X94743132Y-81677592D01*
X94744965Y-81677461D01*
X94751580Y-81673210D01*
X95457077Y-80967713D01*
X95463507Y-80955938D01*
X95454211Y-80943923D01*
X95403006Y-80908069D01*
X95393511Y-80902586D01*
X95196053Y-80810510D01*
X95185761Y-80806764D01*
X94975312Y-80750375D01*
X94964519Y-80748472D01*
X94747475Y-80729483D01*
X94736525Y-80729483D01*
X94519481Y-80748472D01*
X94508688Y-80750375D01*
X94298239Y-80806764D01*
X94287947Y-80810510D01*
X94090489Y-80902586D01*
X94080994Y-80908069D01*
X94028952Y-80944509D01*
X94020576Y-80954988D01*
X93067085Y-80954988D01*
X93069181Y-80950145D01*
X93070420Y-80942322D01*
X93070423Y-80942312D01*
X93076099Y-80906476D01*
X93078505Y-80894856D01*
X93087528Y-80859711D01*
X93087528Y-80859710D01*
X93089500Y-80852030D01*
X93089500Y-80831776D01*
X93091051Y-80812065D01*
X93092980Y-80799886D01*
X93094220Y-80792057D01*
X93090059Y-80748038D01*
X93089500Y-80736181D01*
X93089500Y-80458524D01*
X93109502Y-80390403D01*
X93121858Y-80374221D01*
X93195040Y-80292944D01*
X93290527Y-80127556D01*
X93349542Y-79945928D01*
X93361175Y-79835251D01*
X93368814Y-79762565D01*
X93369504Y-79756000D01*
X93361252Y-79677490D01*
X93350232Y-79572635D01*
X93350232Y-79572633D01*
X93349542Y-79566072D01*
X93290527Y-79384444D01*
X93280652Y-79367339D01*
X93243909Y-79303699D01*
X93195040Y-79219056D01*
X93148551Y-79167424D01*
X93071675Y-79082045D01*
X93071674Y-79082044D01*
X93067253Y-79077134D01*
X92912752Y-78964882D01*
X92906724Y-78962198D01*
X92906722Y-78962197D01*
X92744316Y-78889890D01*
X92744317Y-78889890D01*
X92738288Y-78887206D01*
X92681302Y-78875093D01*
X92618829Y-78841365D01*
X92584508Y-78779215D01*
X92581500Y-78751847D01*
X92581500Y-77216000D01*
X93378502Y-77216000D01*
X93398457Y-77444087D01*
X93457716Y-77665243D01*
X93460039Y-77670224D01*
X93460039Y-77670225D01*
X93552151Y-77867762D01*
X93552154Y-77867767D01*
X93554477Y-77872749D01*
X93557634Y-77877257D01*
X93664920Y-78030477D01*
X93685802Y-78060300D01*
X93847700Y-78222198D01*
X93852208Y-78225355D01*
X93852211Y-78225357D01*
X93930389Y-78280098D01*
X94035251Y-78353523D01*
X94040233Y-78355846D01*
X94040238Y-78355849D01*
X94227211Y-78443035D01*
X94242757Y-78450284D01*
X94248065Y-78451706D01*
X94248067Y-78451707D01*
X94458598Y-78508119D01*
X94458600Y-78508119D01*
X94463913Y-78509543D01*
X94692000Y-78529498D01*
X94920087Y-78509543D01*
X94925400Y-78508119D01*
X94925402Y-78508119D01*
X95135933Y-78451707D01*
X95135935Y-78451706D01*
X95141243Y-78450284D01*
X95156789Y-78443035D01*
X95343762Y-78355849D01*
X95343767Y-78355846D01*
X95348749Y-78353523D01*
X95453611Y-78280098D01*
X95531789Y-78225357D01*
X95531792Y-78225355D01*
X95536300Y-78222198D01*
X95698198Y-78060300D01*
X95719081Y-78030477D01*
X95826366Y-77877257D01*
X95829523Y-77872749D01*
X95831846Y-77867767D01*
X95831849Y-77867762D01*
X95923961Y-77670225D01*
X95923961Y-77670224D01*
X95926284Y-77665243D01*
X95985543Y-77444087D01*
X96005498Y-77216000D01*
X98378502Y-77216000D01*
X98398457Y-77444087D01*
X98457716Y-77665243D01*
X98460039Y-77670224D01*
X98460039Y-77670225D01*
X98552151Y-77867762D01*
X98552154Y-77867767D01*
X98554477Y-77872749D01*
X98557634Y-77877257D01*
X98664920Y-78030477D01*
X98685802Y-78060300D01*
X98847700Y-78222198D01*
X98852208Y-78225355D01*
X98852211Y-78225357D01*
X98930389Y-78280098D01*
X99035251Y-78353523D01*
X99040233Y-78355846D01*
X99040238Y-78355849D01*
X99227211Y-78443035D01*
X99242757Y-78450284D01*
X99248065Y-78451706D01*
X99248067Y-78451707D01*
X99458598Y-78508119D01*
X99458600Y-78508119D01*
X99463913Y-78509543D01*
X99692000Y-78529498D01*
X99920087Y-78509543D01*
X99925400Y-78508119D01*
X99925402Y-78508119D01*
X100135933Y-78451707D01*
X100135935Y-78451706D01*
X100141243Y-78450284D01*
X100156789Y-78443035D01*
X100343762Y-78355849D01*
X100343767Y-78355846D01*
X100348749Y-78353523D01*
X100453611Y-78280098D01*
X100531789Y-78225357D01*
X100531792Y-78225355D01*
X100536300Y-78222198D01*
X100698198Y-78060300D01*
X100719081Y-78030477D01*
X100826366Y-77877257D01*
X100829523Y-77872749D01*
X100831846Y-77867767D01*
X100831849Y-77867762D01*
X100923961Y-77670225D01*
X100923961Y-77670224D01*
X100926284Y-77665243D01*
X100985543Y-77444087D01*
X101005498Y-77216000D01*
X100985543Y-76987913D01*
X100952547Y-76864770D01*
X100927707Y-76772067D01*
X100927706Y-76772065D01*
X100926284Y-76766757D01*
X100882984Y-76673899D01*
X100831849Y-76564238D01*
X100831846Y-76564233D01*
X100829523Y-76559251D01*
X100698198Y-76371700D01*
X100536300Y-76209802D01*
X100531792Y-76206645D01*
X100531789Y-76206643D01*
X100451097Y-76150142D01*
X100348749Y-76078477D01*
X100343767Y-76076154D01*
X100343762Y-76076151D01*
X100146225Y-75984039D01*
X100146224Y-75984039D01*
X100141243Y-75981716D01*
X100135935Y-75980294D01*
X100135933Y-75980293D01*
X99925402Y-75923881D01*
X99925400Y-75923881D01*
X99920087Y-75922457D01*
X99692000Y-75902502D01*
X99463913Y-75922457D01*
X99458600Y-75923881D01*
X99458598Y-75923881D01*
X99248067Y-75980293D01*
X99248065Y-75980294D01*
X99242757Y-75981716D01*
X99237776Y-75984039D01*
X99237775Y-75984039D01*
X99040238Y-76076151D01*
X99040233Y-76076154D01*
X99035251Y-76078477D01*
X98932903Y-76150142D01*
X98852211Y-76206643D01*
X98852208Y-76206645D01*
X98847700Y-76209802D01*
X98685802Y-76371700D01*
X98554477Y-76559251D01*
X98552154Y-76564233D01*
X98552151Y-76564238D01*
X98501016Y-76673899D01*
X98457716Y-76766757D01*
X98456294Y-76772065D01*
X98456293Y-76772067D01*
X98431453Y-76864770D01*
X98398457Y-76987913D01*
X98378502Y-77216000D01*
X96005498Y-77216000D01*
X95985543Y-76987913D01*
X95952547Y-76864770D01*
X95927707Y-76772067D01*
X95927706Y-76772065D01*
X95926284Y-76766757D01*
X95882984Y-76673899D01*
X95831849Y-76564238D01*
X95831846Y-76564233D01*
X95829523Y-76559251D01*
X95698198Y-76371700D01*
X95536300Y-76209802D01*
X95531792Y-76206645D01*
X95531789Y-76206643D01*
X95451097Y-76150142D01*
X95348749Y-76078477D01*
X95343767Y-76076154D01*
X95343762Y-76076151D01*
X95146225Y-75984039D01*
X95146224Y-75984039D01*
X95141243Y-75981716D01*
X95135935Y-75980294D01*
X95135933Y-75980293D01*
X94925402Y-75923881D01*
X94925400Y-75923881D01*
X94920087Y-75922457D01*
X94692000Y-75902502D01*
X94463913Y-75922457D01*
X94458600Y-75923881D01*
X94458598Y-75923881D01*
X94248067Y-75980293D01*
X94248065Y-75980294D01*
X94242757Y-75981716D01*
X94237776Y-75984039D01*
X94237775Y-75984039D01*
X94040238Y-76076151D01*
X94040233Y-76076154D01*
X94035251Y-76078477D01*
X93932903Y-76150142D01*
X93852211Y-76206643D01*
X93852208Y-76206645D01*
X93847700Y-76209802D01*
X93685802Y-76371700D01*
X93554477Y-76559251D01*
X93552154Y-76564233D01*
X93552151Y-76564238D01*
X93501016Y-76673899D01*
X93457716Y-76766757D01*
X93456294Y-76772065D01*
X93456293Y-76772067D01*
X93431453Y-76864770D01*
X93398457Y-76987913D01*
X93378502Y-77216000D01*
X92581500Y-77216000D01*
X92581500Y-75378524D01*
X92601502Y-75310403D01*
X92613858Y-75294221D01*
X92687040Y-75212944D01*
X92782527Y-75047556D01*
X92841542Y-74865928D01*
X92842889Y-74853118D01*
X92860814Y-74682565D01*
X92861504Y-74676000D01*
X92855852Y-74622225D01*
X92842232Y-74492635D01*
X92842232Y-74492633D01*
X92841542Y-74486072D01*
X92782527Y-74304444D01*
X92687040Y-74139056D01*
X92646273Y-74093779D01*
X92563675Y-74002045D01*
X92563671Y-74002041D01*
X92559253Y-73997134D01*
X92404752Y-73884882D01*
X92398724Y-73882198D01*
X92398722Y-73882197D01*
X92236319Y-73809891D01*
X92236318Y-73809891D01*
X92230288Y-73807206D01*
X92136887Y-73787353D01*
X92049944Y-73768872D01*
X92049939Y-73768872D01*
X92043487Y-73767500D01*
X91852513Y-73767500D01*
X91846061Y-73768872D01*
X91846056Y-73768872D01*
X91759113Y-73787353D01*
X91665712Y-73807206D01*
X91659682Y-73809891D01*
X91659681Y-73809891D01*
X91497278Y-73882197D01*
X91497276Y-73882198D01*
X91491248Y-73884882D01*
X91336747Y-73997134D01*
X91283258Y-74056540D01*
X91222812Y-74093779D01*
X91151828Y-74092427D01*
X91092844Y-74052913D01*
X91066630Y-73990882D01*
X91065606Y-73991100D01*
X91064477Y-73985788D01*
X91064312Y-73985398D01*
X91064232Y-73984636D01*
X91064232Y-73984635D01*
X91063542Y-73978072D01*
X91004527Y-73796444D01*
X90909040Y-73631056D01*
X90855147Y-73571201D01*
X90785675Y-73494045D01*
X90785674Y-73494044D01*
X90781253Y-73489134D01*
X90626752Y-73376882D01*
X90620724Y-73374198D01*
X90620722Y-73374197D01*
X90458319Y-73301891D01*
X90458318Y-73301891D01*
X90452288Y-73299206D01*
X90358887Y-73279353D01*
X90271944Y-73260872D01*
X90271939Y-73260872D01*
X90265487Y-73259500D01*
X90074513Y-73259500D01*
X90068061Y-73260872D01*
X90068056Y-73260872D01*
X89981113Y-73279353D01*
X89887712Y-73299206D01*
X89881682Y-73301891D01*
X89881681Y-73301891D01*
X89719278Y-73374197D01*
X89719276Y-73374198D01*
X89713248Y-73376882D01*
X89558747Y-73489134D01*
X89554326Y-73494044D01*
X89554325Y-73494045D01*
X89484854Y-73571201D01*
X89430960Y-73631056D01*
X89335473Y-73796444D01*
X89276458Y-73978072D01*
X89275768Y-73984633D01*
X89275768Y-73984635D01*
X89259093Y-74143293D01*
X89232080Y-74208950D01*
X89222878Y-74219218D01*
X88482977Y-74959118D01*
X87745747Y-75696348D01*
X87737461Y-75703888D01*
X87730982Y-75708000D01*
X87725557Y-75713777D01*
X87684357Y-75757651D01*
X87681602Y-75760493D01*
X87661865Y-75780230D01*
X87659385Y-75783427D01*
X87651682Y-75792447D01*
X87621414Y-75824679D01*
X87617595Y-75831625D01*
X87617593Y-75831628D01*
X87611652Y-75842434D01*
X87600801Y-75858953D01*
X87588386Y-75874959D01*
X87585241Y-75882228D01*
X87585238Y-75882232D01*
X87570826Y-75915537D01*
X87565609Y-75926187D01*
X87544305Y-75964940D01*
X87542334Y-75972615D01*
X87542334Y-75972616D01*
X87539267Y-75984562D01*
X87532863Y-76003266D01*
X87524819Y-76021855D01*
X87523580Y-76029678D01*
X87523577Y-76029688D01*
X87517901Y-76065524D01*
X87515495Y-76077144D01*
X87506472Y-76112289D01*
X87504500Y-76119970D01*
X87504500Y-76140224D01*
X87502949Y-76159934D01*
X87499780Y-76179943D01*
X87500526Y-76187835D01*
X87503941Y-76223961D01*
X87504500Y-76235819D01*
X87504500Y-77275476D01*
X87484498Y-77343597D01*
X87472142Y-77359779D01*
X87398960Y-77441056D01*
X87303473Y-77606444D01*
X87244458Y-77788072D01*
X87224496Y-77978000D01*
X87225186Y-77984565D01*
X87234584Y-78073978D01*
X87244458Y-78167928D01*
X87303473Y-78349556D01*
X87398960Y-78514944D01*
X87526747Y-78656866D01*
X87605075Y-78713775D01*
X87657477Y-78751847D01*
X87681248Y-78769118D01*
X87687276Y-78771802D01*
X87687278Y-78771803D01*
X87843518Y-78841365D01*
X87855712Y-78846794D01*
X87949113Y-78866647D01*
X88036056Y-78885128D01*
X88036061Y-78885128D01*
X88042513Y-78886500D01*
X88098405Y-78886500D01*
X88166526Y-78906502D01*
X88187500Y-78923405D01*
X88456343Y-79192248D01*
X88487080Y-79242406D01*
X88504772Y-79296855D01*
X88508075Y-79302577D01*
X88508076Y-79302578D01*
X88534237Y-79347889D01*
X88600259Y-79462243D01*
X88604677Y-79467150D01*
X88604678Y-79467151D01*
X88720867Y-79596192D01*
X88728046Y-79604165D01*
X88882547Y-79716417D01*
X88888575Y-79719101D01*
X88888577Y-79719102D01*
X89050980Y-79791408D01*
X89057011Y-79794093D01*
X89150412Y-79813946D01*
X89237355Y-79832427D01*
X89237360Y-79832427D01*
X89243812Y-79833799D01*
X89299705Y-79833799D01*
X89367826Y-79853801D01*
X89388800Y-79870704D01*
X90428343Y-80910247D01*
X90435887Y-80918537D01*
X90440000Y-80925018D01*
X90445777Y-80930443D01*
X90488571Y-80970629D01*
X90511437Y-80999479D01*
X90540158Y-81049226D01*
X90540161Y-81049231D01*
X90543460Y-81054944D01*
X90547875Y-81059847D01*
X90547879Y-81059852D01*
X90666825Y-81191955D01*
X90671247Y-81196866D01*
X90825748Y-81309118D01*
X90831776Y-81311802D01*
X90831778Y-81311803D01*
X90982607Y-81378956D01*
X91036703Y-81424936D01*
X91057352Y-81492863D01*
X91056956Y-81498179D01*
X91057269Y-81498189D01*
X91057020Y-81506114D01*
X91055780Y-81513943D01*
X91059872Y-81557226D01*
X91059941Y-81557961D01*
X91060500Y-81569819D01*
X91060500Y-83480905D01*
X91040498Y-83549026D01*
X91023595Y-83570000D01*
X89433000Y-85160595D01*
X89370688Y-85194621D01*
X89343905Y-85197500D01*
X89288013Y-85197500D01*
X89281561Y-85198872D01*
X89281556Y-85198872D01*
X89194612Y-85217353D01*
X89101212Y-85237206D01*
X89095182Y-85239891D01*
X89095181Y-85239891D01*
X88932778Y-85312197D01*
X88932776Y-85312198D01*
X88926748Y-85314882D01*
X88921407Y-85318762D01*
X88921406Y-85318763D01*
X88907911Y-85328568D01*
X88772247Y-85427134D01*
X88767826Y-85432044D01*
X88767825Y-85432045D01*
X88658703Y-85553238D01*
X88644460Y-85569056D01*
X88574077Y-85690963D01*
X88522696Y-85739955D01*
X88452982Y-85753391D01*
X88426171Y-85747825D01*
X88420288Y-85745206D01*
X88369657Y-85734444D01*
X88239944Y-85706872D01*
X88239939Y-85706872D01*
X88233487Y-85705500D01*
X88042513Y-85705500D01*
X88036061Y-85706872D01*
X88036056Y-85706872D01*
X87949112Y-85725353D01*
X87855712Y-85745206D01*
X87849682Y-85747891D01*
X87849681Y-85747891D01*
X87687278Y-85820197D01*
X87687276Y-85820198D01*
X87681248Y-85822882D01*
X87526747Y-85935134D01*
X87522332Y-85940037D01*
X87517420Y-85944460D01*
X87516295Y-85943211D01*
X87462986Y-85976051D01*
X87429800Y-85980500D01*
X86019586Y-85980500D01*
X85951465Y-85960498D01*
X85930491Y-85943595D01*
X82068896Y-82082000D01*
X83268502Y-82082000D01*
X83288457Y-82310087D01*
X83289881Y-82315400D01*
X83289881Y-82315402D01*
X83316307Y-82414022D01*
X83347716Y-82531243D01*
X83350039Y-82536224D01*
X83350039Y-82536225D01*
X83442151Y-82733762D01*
X83442154Y-82733767D01*
X83444477Y-82738749D01*
X83461755Y-82763424D01*
X83567766Y-82914823D01*
X83575802Y-82926300D01*
X83737700Y-83088198D01*
X83742208Y-83091355D01*
X83742211Y-83091357D01*
X83811791Y-83140077D01*
X83925251Y-83219523D01*
X83930233Y-83221846D01*
X83930238Y-83221849D01*
X84054248Y-83279675D01*
X84132757Y-83316284D01*
X84138065Y-83317706D01*
X84138067Y-83317707D01*
X84348598Y-83374119D01*
X84348600Y-83374119D01*
X84353913Y-83375543D01*
X84582000Y-83395498D01*
X84810087Y-83375543D01*
X84815400Y-83374119D01*
X84815402Y-83374119D01*
X85025933Y-83317707D01*
X85025935Y-83317706D01*
X85031243Y-83316284D01*
X85109752Y-83279675D01*
X85233762Y-83221849D01*
X85233767Y-83221846D01*
X85238749Y-83219523D01*
X85352209Y-83140077D01*
X85421789Y-83091357D01*
X85421792Y-83091355D01*
X85426300Y-83088198D01*
X85588198Y-82926300D01*
X85596235Y-82914823D01*
X85702245Y-82763424D01*
X85719523Y-82738749D01*
X85721846Y-82733767D01*
X85721849Y-82733762D01*
X85813961Y-82536225D01*
X85813961Y-82536224D01*
X85816284Y-82531243D01*
X85847694Y-82414022D01*
X85874119Y-82315402D01*
X85874119Y-82315400D01*
X85875543Y-82310087D01*
X85895498Y-82082000D01*
X85875543Y-81853913D01*
X85828298Y-81677592D01*
X85817707Y-81638067D01*
X85817706Y-81638065D01*
X85816284Y-81632757D01*
X85783730Y-81562944D01*
X85721849Y-81430238D01*
X85721846Y-81430233D01*
X85719523Y-81425251D01*
X85588198Y-81237700D01*
X85426300Y-81075802D01*
X85421792Y-81072645D01*
X85421789Y-81072643D01*
X85338039Y-81014001D01*
X85238749Y-80944477D01*
X85233767Y-80942154D01*
X85233762Y-80942151D01*
X85036225Y-80850039D01*
X85036224Y-80850039D01*
X85031243Y-80847716D01*
X85025935Y-80846294D01*
X85025933Y-80846293D01*
X84815402Y-80789881D01*
X84815400Y-80789881D01*
X84810087Y-80788457D01*
X84582000Y-80768502D01*
X84353913Y-80788457D01*
X84348600Y-80789881D01*
X84348598Y-80789881D01*
X84138067Y-80846293D01*
X84138065Y-80846294D01*
X84132757Y-80847716D01*
X84127776Y-80850039D01*
X84127775Y-80850039D01*
X83930238Y-80942151D01*
X83930233Y-80942154D01*
X83925251Y-80944477D01*
X83825961Y-81014001D01*
X83742211Y-81072643D01*
X83742208Y-81072645D01*
X83737700Y-81075802D01*
X83575802Y-81237700D01*
X83444477Y-81425251D01*
X83442154Y-81430233D01*
X83442151Y-81430238D01*
X83380270Y-81562944D01*
X83347716Y-81632757D01*
X83346294Y-81638065D01*
X83346293Y-81638067D01*
X83335702Y-81677592D01*
X83288457Y-81853913D01*
X83268502Y-82082000D01*
X82068896Y-82082000D01*
X80944556Y-80957660D01*
X80910530Y-80895348D01*
X80908341Y-80881735D01*
X80904232Y-80842635D01*
X80904232Y-80842633D01*
X80903542Y-80836072D01*
X80844527Y-80654444D01*
X80749040Y-80489056D01*
X80741804Y-80481019D01*
X80625675Y-80352045D01*
X80625674Y-80352044D01*
X80621253Y-80347134D01*
X80466752Y-80234882D01*
X80460724Y-80232198D01*
X80460722Y-80232197D01*
X80298319Y-80159891D01*
X80298318Y-80159891D01*
X80292288Y-80157206D01*
X80179721Y-80133279D01*
X80111944Y-80118872D01*
X80111939Y-80118872D01*
X80105487Y-80117500D01*
X79914513Y-80117500D01*
X79908061Y-80118872D01*
X79908056Y-80118872D01*
X79840279Y-80133279D01*
X79727712Y-80157206D01*
X79721682Y-80159891D01*
X79721681Y-80159891D01*
X79559278Y-80232197D01*
X79559276Y-80232198D01*
X79553248Y-80234882D01*
X79398747Y-80347134D01*
X79394326Y-80352044D01*
X79394325Y-80352045D01*
X79278197Y-80481019D01*
X79270960Y-80489056D01*
X79175473Y-80654444D01*
X79116458Y-80836072D01*
X79115768Y-80842633D01*
X79115768Y-80842635D01*
X79103860Y-80955938D01*
X79096496Y-81026000D01*
X75195175Y-81026000D01*
X75178039Y-81014001D01*
X75078749Y-80944477D01*
X75073767Y-80942154D01*
X75073762Y-80942151D01*
X74876225Y-80850039D01*
X74876224Y-80850039D01*
X74871243Y-80847716D01*
X74865935Y-80846294D01*
X74865933Y-80846293D01*
X74655402Y-80789881D01*
X74655400Y-80789881D01*
X74650087Y-80788457D01*
X74422000Y-80768502D01*
X74193913Y-80788457D01*
X74188600Y-80789881D01*
X74188598Y-80789881D01*
X73978067Y-80846293D01*
X73978065Y-80846294D01*
X73972757Y-80847716D01*
X73967775Y-80850039D01*
X73967770Y-80850041D01*
X73966880Y-80850456D01*
X73966451Y-80850521D01*
X73962602Y-80851922D01*
X73962320Y-80851149D01*
X73896688Y-80861118D01*
X73831875Y-80832139D01*
X73793019Y-80772719D01*
X73790435Y-80711334D01*
X73791542Y-80707928D01*
X73811504Y-80518000D01*
X73805253Y-80458524D01*
X73792232Y-80334635D01*
X73792232Y-80334633D01*
X73791542Y-80328072D01*
X73732527Y-80146444D01*
X73637040Y-79981056D01*
X73610349Y-79951412D01*
X73579633Y-79887407D01*
X73588396Y-79816954D01*
X73633859Y-79762422D01*
X73701587Y-79741127D01*
X73714968Y-79741583D01*
X73908526Y-79758517D01*
X73919475Y-79758517D01*
X74136519Y-79739528D01*
X74147312Y-79737625D01*
X74357761Y-79681236D01*
X74368053Y-79677490D01*
X74565511Y-79585414D01*
X74575006Y-79579931D01*
X74627048Y-79543491D01*
X74635424Y-79533012D01*
X74628356Y-79519566D01*
X74276790Y-79168000D01*
X82760502Y-79168000D01*
X82780457Y-79396087D01*
X82781881Y-79401400D01*
X82781881Y-79401402D01*
X82837019Y-79607176D01*
X82839716Y-79617243D01*
X82842039Y-79622224D01*
X82842039Y-79622225D01*
X82934151Y-79819762D01*
X82934154Y-79819767D01*
X82936477Y-79824749D01*
X82968655Y-79870704D01*
X83045925Y-79981056D01*
X83067802Y-80012300D01*
X83229700Y-80174198D01*
X83234208Y-80177355D01*
X83234211Y-80177357D01*
X83312389Y-80232098D01*
X83417251Y-80305523D01*
X83422233Y-80307846D01*
X83422238Y-80307849D01*
X83517018Y-80352045D01*
X83624757Y-80402284D01*
X83630065Y-80403706D01*
X83630067Y-80403707D01*
X83840598Y-80460119D01*
X83840600Y-80460119D01*
X83845913Y-80461543D01*
X84074000Y-80481498D01*
X84302087Y-80461543D01*
X84307400Y-80460119D01*
X84307402Y-80460119D01*
X84517933Y-80403707D01*
X84517935Y-80403706D01*
X84523243Y-80402284D01*
X84630982Y-80352045D01*
X84725762Y-80307849D01*
X84725767Y-80307846D01*
X84730749Y-80305523D01*
X84835611Y-80232098D01*
X84913789Y-80177357D01*
X84913792Y-80177355D01*
X84918300Y-80174198D01*
X85080198Y-80012300D01*
X85102076Y-79981056D01*
X85179345Y-79870704D01*
X85211523Y-79824749D01*
X85213846Y-79819767D01*
X85213849Y-79819762D01*
X85305961Y-79622225D01*
X85305961Y-79622224D01*
X85308284Y-79617243D01*
X85310982Y-79607176D01*
X85366119Y-79401402D01*
X85366119Y-79401400D01*
X85367543Y-79396087D01*
X85387498Y-79168000D01*
X85367543Y-78939913D01*
X85360654Y-78914204D01*
X85309707Y-78724067D01*
X85309706Y-78724065D01*
X85308284Y-78718757D01*
X85234268Y-78560028D01*
X85213849Y-78516238D01*
X85213846Y-78516233D01*
X85211523Y-78511251D01*
X85125470Y-78388355D01*
X85083357Y-78328211D01*
X85083355Y-78328208D01*
X85080198Y-78323700D01*
X84918300Y-78161802D01*
X84913792Y-78158645D01*
X84913789Y-78158643D01*
X84835611Y-78103902D01*
X84730749Y-78030477D01*
X84725767Y-78028154D01*
X84725762Y-78028151D01*
X84528225Y-77936039D01*
X84528224Y-77936039D01*
X84523243Y-77933716D01*
X84517935Y-77932294D01*
X84517933Y-77932293D01*
X84307402Y-77875881D01*
X84307400Y-77875881D01*
X84302087Y-77874457D01*
X84074000Y-77854502D01*
X83845913Y-77874457D01*
X83840600Y-77875881D01*
X83840598Y-77875881D01*
X83630067Y-77932293D01*
X83630065Y-77932294D01*
X83624757Y-77933716D01*
X83619776Y-77936039D01*
X83619775Y-77936039D01*
X83422238Y-78028151D01*
X83422233Y-78028154D01*
X83417251Y-78030477D01*
X83312389Y-78103902D01*
X83234211Y-78158643D01*
X83234208Y-78158645D01*
X83229700Y-78161802D01*
X83067802Y-78323700D01*
X83064645Y-78328208D01*
X83064643Y-78328211D01*
X83022530Y-78388355D01*
X82936477Y-78511251D01*
X82934154Y-78516233D01*
X82934151Y-78516238D01*
X82913732Y-78560028D01*
X82839716Y-78718757D01*
X82838294Y-78724065D01*
X82838293Y-78724067D01*
X82787346Y-78914204D01*
X82780457Y-78939913D01*
X82760502Y-79168000D01*
X74276790Y-79168000D01*
X73926812Y-78818022D01*
X73912868Y-78810408D01*
X73911035Y-78810539D01*
X73904420Y-78814790D01*
X73198921Y-79520289D01*
X73178888Y-79556975D01*
X73128685Y-79607176D01*
X73059310Y-79622266D01*
X73042105Y-79619834D01*
X72999944Y-79610872D01*
X72999939Y-79610872D01*
X72993487Y-79609500D01*
X72802513Y-79609500D01*
X72796061Y-79610872D01*
X72796056Y-79610872D01*
X72709113Y-79629353D01*
X72615712Y-79649206D01*
X72609682Y-79651891D01*
X72609681Y-79651891D01*
X72447278Y-79724197D01*
X72447276Y-79724198D01*
X72441248Y-79726882D01*
X72435907Y-79730762D01*
X72435906Y-79730763D01*
X72401171Y-79756000D01*
X72286747Y-79839134D01*
X72282326Y-79844044D01*
X72282325Y-79844045D01*
X72184937Y-79952206D01*
X72158960Y-79981056D01*
X72063473Y-80146444D01*
X72004458Y-80328072D01*
X72003768Y-80334633D01*
X72003768Y-80334635D01*
X71990747Y-80458524D01*
X71984496Y-80518000D01*
X72004458Y-80707928D01*
X72063473Y-80889556D01*
X72066776Y-80895278D01*
X72066777Y-80895279D01*
X72083947Y-80925018D01*
X72158960Y-81054944D01*
X72232137Y-81136215D01*
X72262853Y-81200221D01*
X72264500Y-81220524D01*
X72264500Y-87393828D01*
X72244498Y-87461949D01*
X72232142Y-87478131D01*
X72121460Y-87601056D01*
X72087649Y-87659618D01*
X72051049Y-87723012D01*
X72025973Y-87766444D01*
X71966958Y-87948072D01*
X71966268Y-87954633D01*
X71966268Y-87954635D01*
X71957640Y-88036731D01*
X71946996Y-88138000D01*
X68124500Y-88138000D01*
X68124500Y-78451475D01*
X72601483Y-78451475D01*
X72620472Y-78668519D01*
X72622375Y-78679312D01*
X72678764Y-78889761D01*
X72682510Y-78900053D01*
X72774586Y-79097511D01*
X72780069Y-79107006D01*
X72816509Y-79159048D01*
X72826988Y-79167424D01*
X72840434Y-79160356D01*
X73541978Y-78458812D01*
X73548356Y-78447132D01*
X74278408Y-78447132D01*
X74278539Y-78448965D01*
X74282790Y-78455580D01*
X74988287Y-79161077D01*
X75000062Y-79167507D01*
X75012077Y-79158211D01*
X75047931Y-79107006D01*
X75053414Y-79097511D01*
X75145490Y-78900053D01*
X75149236Y-78889761D01*
X75205625Y-78679312D01*
X75207528Y-78668519D01*
X75226517Y-78451475D01*
X75226517Y-78440525D01*
X75207528Y-78223481D01*
X75205625Y-78212688D01*
X75149236Y-78002239D01*
X75145490Y-77991947D01*
X75053414Y-77794489D01*
X75047931Y-77784994D01*
X75011491Y-77732952D01*
X75001012Y-77724576D01*
X74987566Y-77731644D01*
X74286022Y-78433188D01*
X74278408Y-78447132D01*
X73548356Y-78447132D01*
X73549592Y-78444868D01*
X73549461Y-78443035D01*
X73545210Y-78436420D01*
X72839713Y-77730923D01*
X72827938Y-77724493D01*
X72815923Y-77733789D01*
X72780069Y-77784994D01*
X72774586Y-77794489D01*
X72682510Y-77991947D01*
X72678764Y-78002239D01*
X72622375Y-78212688D01*
X72620472Y-78223481D01*
X72601483Y-78440525D01*
X72601483Y-78451475D01*
X68124500Y-78451475D01*
X68124500Y-77358988D01*
X73192576Y-77358988D01*
X73199644Y-77372434D01*
X73901188Y-78073978D01*
X73915132Y-78081592D01*
X73916965Y-78081461D01*
X73923580Y-78077210D01*
X74629077Y-77371713D01*
X74635507Y-77359938D01*
X74626211Y-77347923D01*
X74575006Y-77312069D01*
X74565511Y-77306586D01*
X74368053Y-77214510D01*
X74357761Y-77210764D01*
X74147312Y-77154375D01*
X74136519Y-77152472D01*
X73919475Y-77133483D01*
X73908525Y-77133483D01*
X73691481Y-77152472D01*
X73680688Y-77154375D01*
X73470239Y-77210764D01*
X73459947Y-77214510D01*
X73262489Y-77306586D01*
X73252994Y-77312069D01*
X73200952Y-77348509D01*
X73192576Y-77358988D01*
X68124500Y-77358988D01*
X68124500Y-76262575D01*
X78710404Y-76262575D01*
X78729218Y-76469303D01*
X78730956Y-76475209D01*
X78730957Y-76475213D01*
X78742548Y-76514594D01*
X78787827Y-76668440D01*
X78883999Y-76852400D01*
X79014071Y-77014177D01*
X79018788Y-77018135D01*
X79018790Y-77018137D01*
X79122681Y-77105312D01*
X79173089Y-77147609D01*
X79178481Y-77150573D01*
X79178485Y-77150576D01*
X79287532Y-77210525D01*
X79354995Y-77247613D01*
X79552861Y-77310379D01*
X79558978Y-77311065D01*
X79558982Y-77311066D01*
X79635598Y-77319659D01*
X79714413Y-77328500D01*
X79826237Y-77328500D01*
X79829293Y-77328200D01*
X79829300Y-77328200D01*
X79974466Y-77313966D01*
X79974469Y-77313965D01*
X79980592Y-77313365D01*
X80112546Y-77273526D01*
X80173407Y-77255152D01*
X80173410Y-77255151D01*
X80179315Y-77253368D01*
X80186635Y-77249476D01*
X80357153Y-77158809D01*
X80357155Y-77158808D01*
X80362599Y-77155913D01*
X80422471Y-77107083D01*
X80518689Y-77028610D01*
X80518692Y-77028607D01*
X80523464Y-77024715D01*
X80553910Y-76987913D01*
X80651855Y-76869518D01*
X80655783Y-76864770D01*
X80659876Y-76857201D01*
X80751584Y-76687590D01*
X80751586Y-76687585D01*
X80754514Y-76682170D01*
X80815898Y-76483871D01*
X80817429Y-76469303D01*
X80836952Y-76283554D01*
X80836952Y-76283552D01*
X80837596Y-76277425D01*
X80822567Y-76112289D01*
X80819341Y-76076836D01*
X80819340Y-76076833D01*
X80818782Y-76070697D01*
X80816298Y-76062255D01*
X80761912Y-75877469D01*
X80760173Y-75871560D01*
X80664001Y-75687600D01*
X80533929Y-75525823D01*
X80521371Y-75515285D01*
X80386701Y-75402284D01*
X80374911Y-75392391D01*
X80369519Y-75389427D01*
X80369515Y-75389424D01*
X80198402Y-75295354D01*
X80193005Y-75292387D01*
X79995139Y-75229621D01*
X79989022Y-75228935D01*
X79989018Y-75228934D01*
X79912402Y-75220341D01*
X79833587Y-75211500D01*
X79721763Y-75211500D01*
X79718707Y-75211800D01*
X79718700Y-75211800D01*
X79573534Y-75226034D01*
X79573531Y-75226035D01*
X79567408Y-75226635D01*
X79435454Y-75266474D01*
X79374593Y-75284848D01*
X79374590Y-75284849D01*
X79368685Y-75286632D01*
X79363240Y-75289527D01*
X79363238Y-75289528D01*
X79190847Y-75381191D01*
X79190845Y-75381192D01*
X79185401Y-75384087D01*
X79125529Y-75432917D01*
X79029311Y-75511390D01*
X79029308Y-75511393D01*
X79024536Y-75515285D01*
X78892217Y-75675230D01*
X78889288Y-75680647D01*
X78889286Y-75680650D01*
X78796416Y-75852410D01*
X78796414Y-75852415D01*
X78793486Y-75857830D01*
X78732102Y-76056129D01*
X78731458Y-76062254D01*
X78731458Y-76062255D01*
X78715951Y-76209802D01*
X78710404Y-76262575D01*
X68124500Y-76262575D01*
X68124500Y-64096943D01*
X72404780Y-64096943D01*
X72405526Y-64104835D01*
X72408941Y-64140961D01*
X72409500Y-64152819D01*
X72409500Y-70678233D01*
X72408973Y-70689416D01*
X72407298Y-70696909D01*
X72407547Y-70704835D01*
X72407547Y-70704836D01*
X72409438Y-70764986D01*
X72409500Y-70768945D01*
X72409500Y-70796856D01*
X72409997Y-70800790D01*
X72409997Y-70800791D01*
X72410005Y-70800856D01*
X72410938Y-70812693D01*
X72412327Y-70856889D01*
X72417978Y-70876339D01*
X72421987Y-70895700D01*
X72424526Y-70915797D01*
X72427445Y-70923168D01*
X72427445Y-70923170D01*
X72440804Y-70956912D01*
X72444649Y-70968142D01*
X72454771Y-71002983D01*
X72456982Y-71010593D01*
X72461015Y-71017412D01*
X72461017Y-71017417D01*
X72467293Y-71028028D01*
X72475988Y-71045776D01*
X72483448Y-71064617D01*
X72488110Y-71071033D01*
X72488110Y-71071034D01*
X72509436Y-71100387D01*
X72515952Y-71110307D01*
X72538458Y-71148362D01*
X72552779Y-71162683D01*
X72565619Y-71177716D01*
X72577528Y-71194107D01*
X72583636Y-71199160D01*
X72611598Y-71222292D01*
X72620378Y-71230282D01*
X72712878Y-71322782D01*
X72746904Y-71385094D01*
X72749092Y-71398703D01*
X72766458Y-71563928D01*
X72825473Y-71745556D01*
X72920960Y-71910944D01*
X72925378Y-71915851D01*
X72925379Y-71915852D01*
X73009569Y-72009354D01*
X73048747Y-72052866D01*
X73117957Y-72103150D01*
X73187322Y-72153547D01*
X73230676Y-72209769D01*
X73236751Y-72280506D01*
X73203619Y-72343297D01*
X73185531Y-72358696D01*
X73074216Y-72436639D01*
X73074210Y-72436644D01*
X73069700Y-72439802D01*
X72907802Y-72601700D01*
X72776477Y-72789251D01*
X72774154Y-72794233D01*
X72774151Y-72794238D01*
X72736968Y-72873978D01*
X72679716Y-72996757D01*
X72620457Y-73217913D01*
X72600502Y-73446000D01*
X72620457Y-73674087D01*
X72621881Y-73679400D01*
X72621881Y-73679402D01*
X72677980Y-73888763D01*
X72679716Y-73895243D01*
X72682039Y-73900224D01*
X72682039Y-73900225D01*
X72774151Y-74097762D01*
X72774154Y-74097767D01*
X72776477Y-74102749D01*
X72907802Y-74290300D01*
X73069700Y-74452198D01*
X73074208Y-74455355D01*
X73074211Y-74455357D01*
X73109111Y-74479794D01*
X73257251Y-74583523D01*
X73262233Y-74585846D01*
X73262238Y-74585849D01*
X73441491Y-74669435D01*
X73464757Y-74680284D01*
X73470065Y-74681706D01*
X73470067Y-74681707D01*
X73680598Y-74738119D01*
X73680600Y-74738119D01*
X73685913Y-74739543D01*
X73914000Y-74759498D01*
X74142087Y-74739543D01*
X74147400Y-74738119D01*
X74147402Y-74738119D01*
X74357933Y-74681707D01*
X74357935Y-74681706D01*
X74363243Y-74680284D01*
X74386509Y-74669435D01*
X74565762Y-74585849D01*
X74565767Y-74585846D01*
X74570749Y-74583523D01*
X74718889Y-74479794D01*
X74753789Y-74455357D01*
X74753792Y-74455355D01*
X74758300Y-74452198D01*
X74920198Y-74290300D01*
X75005834Y-74168000D01*
X82760502Y-74168000D01*
X82780457Y-74396087D01*
X82781881Y-74401400D01*
X82781881Y-74401402D01*
X82804569Y-74486072D01*
X82839716Y-74617243D01*
X82842039Y-74622224D01*
X82842039Y-74622225D01*
X82934151Y-74819762D01*
X82934154Y-74819767D01*
X82936477Y-74824749D01*
X82965311Y-74865928D01*
X83032444Y-74961803D01*
X83067802Y-75012300D01*
X83229700Y-75174198D01*
X83234208Y-75177355D01*
X83234211Y-75177357D01*
X83283401Y-75211800D01*
X83417251Y-75305523D01*
X83422233Y-75307846D01*
X83422238Y-75307849D01*
X83585733Y-75384087D01*
X83624757Y-75402284D01*
X83630065Y-75403706D01*
X83630067Y-75403707D01*
X83840598Y-75460119D01*
X83840600Y-75460119D01*
X83845913Y-75461543D01*
X84074000Y-75481498D01*
X84302087Y-75461543D01*
X84307400Y-75460119D01*
X84307402Y-75460119D01*
X84517933Y-75403707D01*
X84517935Y-75403706D01*
X84523243Y-75402284D01*
X84562267Y-75384087D01*
X84725762Y-75307849D01*
X84725767Y-75307846D01*
X84730749Y-75305523D01*
X84864599Y-75211800D01*
X84913789Y-75177357D01*
X84913792Y-75177355D01*
X84918300Y-75174198D01*
X85080198Y-75012300D01*
X85115557Y-74961803D01*
X85182689Y-74865928D01*
X85211523Y-74824749D01*
X85213846Y-74819767D01*
X85213849Y-74819762D01*
X85305961Y-74622225D01*
X85305961Y-74622224D01*
X85308284Y-74617243D01*
X85343432Y-74486072D01*
X85366119Y-74401402D01*
X85366119Y-74401400D01*
X85367543Y-74396087D01*
X85387498Y-74168000D01*
X85367543Y-73939913D01*
X85353837Y-73888763D01*
X85309707Y-73724067D01*
X85309706Y-73724065D01*
X85308284Y-73718757D01*
X85265100Y-73626148D01*
X85213849Y-73516238D01*
X85213846Y-73516233D01*
X85211523Y-73511251D01*
X85117191Y-73376531D01*
X85083357Y-73328211D01*
X85083355Y-73328208D01*
X85080198Y-73323700D01*
X84918300Y-73161802D01*
X84913792Y-73158645D01*
X84913789Y-73158643D01*
X84835611Y-73103902D01*
X84730749Y-73030477D01*
X84725767Y-73028154D01*
X84725762Y-73028151D01*
X84615156Y-72976575D01*
X95854404Y-72976575D01*
X95856241Y-72996757D01*
X95870974Y-73158643D01*
X95873218Y-73183303D01*
X95874956Y-73189209D01*
X95874957Y-73189213D01*
X95881840Y-73212598D01*
X95931827Y-73382440D01*
X96027999Y-73566400D01*
X96158071Y-73728177D01*
X96162788Y-73732135D01*
X96162790Y-73732137D01*
X96204934Y-73767500D01*
X96317089Y-73861609D01*
X96322481Y-73864573D01*
X96322485Y-73864576D01*
X96449855Y-73934598D01*
X96498995Y-73961613D01*
X96696861Y-74024379D01*
X96702978Y-74025065D01*
X96702982Y-74025066D01*
X96779598Y-74033659D01*
X96858413Y-74042500D01*
X96970237Y-74042500D01*
X96973293Y-74042200D01*
X96973300Y-74042200D01*
X97118466Y-74027966D01*
X97118469Y-74027965D01*
X97124592Y-74027365D01*
X97266123Y-73984635D01*
X97317407Y-73969152D01*
X97317410Y-73969151D01*
X97323315Y-73967368D01*
X97330635Y-73963476D01*
X97501153Y-73872809D01*
X97501155Y-73872808D01*
X97506599Y-73869913D01*
X97566471Y-73821083D01*
X97662689Y-73742610D01*
X97662692Y-73742607D01*
X97667464Y-73738715D01*
X97688097Y-73713775D01*
X97795855Y-73583518D01*
X97799783Y-73578770D01*
X97803876Y-73571201D01*
X97895584Y-73401590D01*
X97895586Y-73401585D01*
X97898514Y-73396170D01*
X97959898Y-73197871D01*
X97961429Y-73183303D01*
X97980952Y-72997554D01*
X97980952Y-72997552D01*
X97981596Y-72991425D01*
X97970907Y-72873978D01*
X97963341Y-72790836D01*
X97963340Y-72790833D01*
X97962782Y-72784697D01*
X97960298Y-72776255D01*
X97905912Y-72591469D01*
X97904173Y-72585560D01*
X97808001Y-72401600D01*
X97677929Y-72239823D01*
X97665371Y-72229285D01*
X97523629Y-72110350D01*
X97518911Y-72106391D01*
X97513519Y-72103427D01*
X97513515Y-72103424D01*
X97342402Y-72009354D01*
X97337005Y-72006387D01*
X97139139Y-71943621D01*
X97133022Y-71942935D01*
X97133018Y-71942934D01*
X97056402Y-71934341D01*
X96977587Y-71925500D01*
X96865763Y-71925500D01*
X96862707Y-71925800D01*
X96862700Y-71925800D01*
X96717534Y-71940034D01*
X96717531Y-71940035D01*
X96711408Y-71940635D01*
X96579454Y-71980474D01*
X96518593Y-71998848D01*
X96518590Y-71998849D01*
X96512685Y-72000632D01*
X96507240Y-72003527D01*
X96507238Y-72003528D01*
X96334847Y-72095191D01*
X96334845Y-72095192D01*
X96329401Y-72098087D01*
X96314365Y-72110350D01*
X96173311Y-72225390D01*
X96173308Y-72225393D01*
X96168536Y-72229285D01*
X96164608Y-72234033D01*
X96164607Y-72234034D01*
X96126162Y-72280506D01*
X96036217Y-72389230D01*
X96033288Y-72394647D01*
X96033286Y-72394650D01*
X95940416Y-72566410D01*
X95940414Y-72566415D01*
X95937486Y-72571830D01*
X95876102Y-72770129D01*
X95875458Y-72776254D01*
X95875458Y-72776255D01*
X95858909Y-72933716D01*
X95854404Y-72976575D01*
X84615156Y-72976575D01*
X84528225Y-72936039D01*
X84528224Y-72936039D01*
X84523243Y-72933716D01*
X84517935Y-72932294D01*
X84517933Y-72932293D01*
X84307402Y-72875881D01*
X84307400Y-72875881D01*
X84302087Y-72874457D01*
X84074000Y-72854502D01*
X83845913Y-72874457D01*
X83840600Y-72875881D01*
X83840598Y-72875881D01*
X83630067Y-72932293D01*
X83630065Y-72932294D01*
X83624757Y-72933716D01*
X83619776Y-72936039D01*
X83619775Y-72936039D01*
X83422238Y-73028151D01*
X83422233Y-73028154D01*
X83417251Y-73030477D01*
X83312389Y-73103902D01*
X83234211Y-73158643D01*
X83234208Y-73158645D01*
X83229700Y-73161802D01*
X83067802Y-73323700D01*
X83064645Y-73328208D01*
X83064643Y-73328211D01*
X83030809Y-73376531D01*
X82936477Y-73511251D01*
X82934154Y-73516233D01*
X82934151Y-73516238D01*
X82882900Y-73626148D01*
X82839716Y-73718757D01*
X82838294Y-73724065D01*
X82838293Y-73724067D01*
X82794163Y-73888763D01*
X82780457Y-73939913D01*
X82760502Y-74168000D01*
X75005834Y-74168000D01*
X75051523Y-74102749D01*
X75053846Y-74097767D01*
X75053849Y-74097762D01*
X75145961Y-73900225D01*
X75145961Y-73900224D01*
X75148284Y-73895243D01*
X75150021Y-73888763D01*
X75206119Y-73679402D01*
X75206119Y-73679400D01*
X75207543Y-73674087D01*
X75227498Y-73446000D01*
X75207543Y-73217913D01*
X75148284Y-72996757D01*
X75091032Y-72873978D01*
X75053849Y-72794238D01*
X75053846Y-72794233D01*
X75051523Y-72789251D01*
X74920198Y-72601700D01*
X74758300Y-72439802D01*
X74753792Y-72436645D01*
X74753789Y-72436643D01*
X74620477Y-72343297D01*
X74570749Y-72308477D01*
X74565767Y-72306154D01*
X74565762Y-72306151D01*
X74368229Y-72214041D01*
X74363243Y-72211716D01*
X74360709Y-72211037D01*
X74304254Y-72169471D01*
X74278915Y-72103150D01*
X74293455Y-72033658D01*
X74310882Y-72008853D01*
X74399040Y-71910944D01*
X74494527Y-71745556D01*
X74553542Y-71563928D01*
X74572227Y-71386146D01*
X74599240Y-71320490D01*
X74644287Y-71285122D01*
X74819511Y-71203414D01*
X74829006Y-71197931D01*
X74881048Y-71161491D01*
X74889424Y-71151012D01*
X74882356Y-71137566D01*
X73897885Y-70153095D01*
X73863859Y-70090783D01*
X73865694Y-70065132D01*
X74532408Y-70065132D01*
X74532539Y-70066965D01*
X74536790Y-70073580D01*
X75242287Y-70779077D01*
X75254062Y-70785507D01*
X75266077Y-70776211D01*
X75301931Y-70725006D01*
X75307414Y-70715511D01*
X75399490Y-70518053D01*
X75403236Y-70507761D01*
X75459625Y-70297312D01*
X75461528Y-70286519D01*
X75480517Y-70069475D01*
X75480517Y-70064000D01*
X83014502Y-70064000D01*
X83034457Y-70292087D01*
X83093716Y-70513243D01*
X83096039Y-70518224D01*
X83096039Y-70518225D01*
X83188151Y-70715762D01*
X83188154Y-70715767D01*
X83190477Y-70720749D01*
X83229312Y-70776211D01*
X83299423Y-70876339D01*
X83321802Y-70908300D01*
X83483700Y-71070198D01*
X83488208Y-71073355D01*
X83488211Y-71073357D01*
X83526814Y-71100387D01*
X83671251Y-71201523D01*
X83676233Y-71203846D01*
X83676238Y-71203849D01*
X83873775Y-71295961D01*
X83878757Y-71298284D01*
X83884065Y-71299706D01*
X83884067Y-71299707D01*
X84094598Y-71356119D01*
X84094600Y-71356119D01*
X84099913Y-71357543D01*
X84328000Y-71377498D01*
X84556087Y-71357543D01*
X84561400Y-71356119D01*
X84561402Y-71356119D01*
X84771933Y-71299707D01*
X84771935Y-71299706D01*
X84777243Y-71298284D01*
X84782225Y-71295961D01*
X84979762Y-71203849D01*
X84979767Y-71203846D01*
X84984749Y-71201523D01*
X85129186Y-71100387D01*
X85167789Y-71073357D01*
X85167792Y-71073355D01*
X85172300Y-71070198D01*
X85334198Y-70908300D01*
X85356578Y-70876339D01*
X85426688Y-70776211D01*
X85465523Y-70720749D01*
X85467846Y-70715767D01*
X85467849Y-70715762D01*
X85559961Y-70518225D01*
X85559961Y-70518224D01*
X85562284Y-70513243D01*
X85621543Y-70292087D01*
X85641498Y-70064000D01*
X85621543Y-69835913D01*
X85600543Y-69757540D01*
X85563707Y-69620067D01*
X85563706Y-69620065D01*
X85562284Y-69614757D01*
X85492582Y-69465279D01*
X85467849Y-69412238D01*
X85467846Y-69412233D01*
X85465523Y-69407251D01*
X85334198Y-69219700D01*
X85202498Y-69088000D01*
X93574496Y-69088000D01*
X93594458Y-69277928D01*
X93653473Y-69459556D01*
X93748960Y-69624944D01*
X93876747Y-69766866D01*
X94031248Y-69879118D01*
X94037276Y-69881802D01*
X94037278Y-69881803D01*
X94199681Y-69954109D01*
X94205712Y-69956794D01*
X94290917Y-69974905D01*
X94386056Y-69995128D01*
X94386061Y-69995128D01*
X94392513Y-69996500D01*
X94583487Y-69996500D01*
X94589939Y-69995128D01*
X94589944Y-69995128D01*
X94685083Y-69974905D01*
X94770288Y-69956794D01*
X94776319Y-69954109D01*
X94938722Y-69881803D01*
X94938724Y-69881802D01*
X94944752Y-69879118D01*
X95004219Y-69835913D01*
X95077671Y-69782546D01*
X95099253Y-69766866D01*
X95103668Y-69761963D01*
X95108580Y-69757540D01*
X95109705Y-69758789D01*
X95163014Y-69725949D01*
X95196200Y-69721500D01*
X98351800Y-69721500D01*
X98419921Y-69741502D01*
X98439147Y-69757843D01*
X98439420Y-69757540D01*
X98444332Y-69761963D01*
X98448747Y-69766866D01*
X98470329Y-69782546D01*
X98543782Y-69835913D01*
X98603248Y-69879118D01*
X98609276Y-69881802D01*
X98609278Y-69881803D01*
X98771681Y-69954109D01*
X98777712Y-69956794D01*
X98862917Y-69974905D01*
X98958056Y-69995128D01*
X98958061Y-69995128D01*
X98964513Y-69996500D01*
X99155487Y-69996500D01*
X99161939Y-69995128D01*
X99161944Y-69995128D01*
X99257083Y-69974905D01*
X99342288Y-69956794D01*
X99348319Y-69954109D01*
X99510722Y-69881803D01*
X99510724Y-69881802D01*
X99516752Y-69879118D01*
X99671253Y-69766866D01*
X99799040Y-69624944D01*
X99894527Y-69459556D01*
X99953542Y-69277928D01*
X99973504Y-69088000D01*
X99956859Y-68929634D01*
X99954232Y-68904635D01*
X99954232Y-68904633D01*
X99953542Y-68898072D01*
X99894527Y-68716444D01*
X99880592Y-68692307D01*
X99802345Y-68556781D01*
X99799040Y-68551056D01*
X99798073Y-68549982D01*
X99774859Y-68484919D01*
X99790939Y-68415767D01*
X99841852Y-68366287D01*
X99889672Y-68352204D01*
X99914606Y-68350023D01*
X99914611Y-68350022D01*
X99920087Y-68349543D01*
X99925400Y-68348119D01*
X99925402Y-68348119D01*
X100135933Y-68291707D01*
X100135935Y-68291706D01*
X100141243Y-68290284D01*
X100236237Y-68245988D01*
X100343762Y-68195849D01*
X100343767Y-68195846D01*
X100348749Y-68193523D01*
X100508087Y-68081953D01*
X100531789Y-68065357D01*
X100531792Y-68065355D01*
X100536300Y-68062198D01*
X100698198Y-67900300D01*
X100829523Y-67712749D01*
X100831846Y-67707767D01*
X100831849Y-67707762D01*
X100923961Y-67510225D01*
X100923961Y-67510224D01*
X100926284Y-67505243D01*
X100946771Y-67428787D01*
X100984119Y-67289402D01*
X100984119Y-67289400D01*
X100985543Y-67284087D01*
X101005498Y-67056000D01*
X100998086Y-66971280D01*
X101012075Y-66901675D01*
X101061475Y-66850682D01*
X101130601Y-66834492D01*
X101174855Y-66845191D01*
X101311677Y-66906108D01*
X101311685Y-66906111D01*
X101317712Y-66908794D01*
X101411112Y-66928647D01*
X101498056Y-66947128D01*
X101498061Y-66947128D01*
X101504513Y-66948500D01*
X101695487Y-66948500D01*
X101701939Y-66947128D01*
X101701944Y-66947128D01*
X101788888Y-66928647D01*
X101882288Y-66908794D01*
X101924898Y-66889823D01*
X102050722Y-66833803D01*
X102050724Y-66833802D01*
X102056752Y-66831118D01*
X102211253Y-66718866D01*
X102272691Y-66650632D01*
X102334621Y-66581852D01*
X102334622Y-66581851D01*
X102339040Y-66576944D01*
X102434527Y-66411556D01*
X102493542Y-66229928D01*
X102494338Y-66222361D01*
X102510330Y-66070198D01*
X102510907Y-66064706D01*
X102537920Y-65999050D01*
X102547122Y-65988782D01*
X103582500Y-64953405D01*
X103644812Y-64919379D01*
X103671595Y-64916500D01*
X103727487Y-64916500D01*
X103733939Y-64915128D01*
X103733944Y-64915128D01*
X103820887Y-64896647D01*
X103914288Y-64876794D01*
X103920319Y-64874109D01*
X104082722Y-64801803D01*
X104082724Y-64801802D01*
X104088752Y-64799118D01*
X104243253Y-64686866D01*
X104312666Y-64609775D01*
X104366621Y-64549852D01*
X104366622Y-64549851D01*
X104371040Y-64544944D01*
X104466527Y-64379556D01*
X104525542Y-64197928D01*
X104527138Y-64182749D01*
X104544814Y-64014565D01*
X104545504Y-64008000D01*
X104537472Y-63931580D01*
X104526232Y-63824635D01*
X104526232Y-63824633D01*
X104525542Y-63818072D01*
X104466527Y-63636444D01*
X104453193Y-63613348D01*
X104387751Y-63500000D01*
X104371040Y-63471056D01*
X104243253Y-63329134D01*
X104088752Y-63216882D01*
X104082724Y-63214198D01*
X104082722Y-63214197D01*
X103920319Y-63141891D01*
X103920318Y-63141891D01*
X103914288Y-63139206D01*
X103820887Y-63119353D01*
X103733944Y-63100872D01*
X103733939Y-63100872D01*
X103727487Y-63099500D01*
X103536513Y-63099500D01*
X103530061Y-63100872D01*
X103530056Y-63100872D01*
X103443113Y-63119353D01*
X103349712Y-63139206D01*
X103343682Y-63141891D01*
X103343681Y-63141891D01*
X103181278Y-63214197D01*
X103181276Y-63214198D01*
X103175248Y-63216882D01*
X103020747Y-63329134D01*
X102892960Y-63471056D01*
X102876249Y-63500000D01*
X102810808Y-63613348D01*
X102797473Y-63636444D01*
X102738458Y-63818072D01*
X102737768Y-63824633D01*
X102737768Y-63824635D01*
X102721093Y-63983293D01*
X102694080Y-64048950D01*
X102684878Y-64059218D01*
X101649500Y-65094595D01*
X101587188Y-65128621D01*
X101560405Y-65131500D01*
X101504513Y-65131500D01*
X101498061Y-65132872D01*
X101498056Y-65132872D01*
X101411113Y-65151353D01*
X101317712Y-65171206D01*
X101311682Y-65173891D01*
X101311681Y-65173891D01*
X101149278Y-65246197D01*
X101149276Y-65246198D01*
X101143248Y-65248882D01*
X100988747Y-65361134D01*
X100860960Y-65503056D01*
X100765473Y-65668444D01*
X100706458Y-65850072D01*
X100698937Y-65921637D01*
X100697600Y-65934354D01*
X100670587Y-66000011D01*
X100612366Y-66040641D01*
X100541421Y-66043344D01*
X100500020Y-66024397D01*
X100353263Y-65921637D01*
X100353257Y-65921633D01*
X100348749Y-65918477D01*
X100343767Y-65916154D01*
X100343762Y-65916151D01*
X100146225Y-65824039D01*
X100146224Y-65824039D01*
X100141243Y-65821716D01*
X100135935Y-65820294D01*
X100135933Y-65820293D01*
X99925402Y-65763881D01*
X99925400Y-65763881D01*
X99920087Y-65762457D01*
X99692000Y-65742502D01*
X99463913Y-65762457D01*
X99458600Y-65763881D01*
X99458598Y-65763881D01*
X99248067Y-65820293D01*
X99248065Y-65820294D01*
X99242757Y-65821716D01*
X99237776Y-65824039D01*
X99237775Y-65824039D01*
X99040238Y-65916151D01*
X99040233Y-65916154D01*
X99035251Y-65918477D01*
X98978080Y-65958509D01*
X98852211Y-66046643D01*
X98852208Y-66046645D01*
X98847700Y-66049802D01*
X98685802Y-66211700D01*
X98682645Y-66216208D01*
X98682643Y-66216211D01*
X98638973Y-66278579D01*
X98554477Y-66399251D01*
X98552154Y-66404233D01*
X98552151Y-66404238D01*
X98474284Y-66571226D01*
X98457716Y-66606757D01*
X98456294Y-66612065D01*
X98456293Y-66612067D01*
X98399881Y-66822598D01*
X98398457Y-66827913D01*
X98378502Y-67056000D01*
X98398457Y-67284087D01*
X98399881Y-67289400D01*
X98399881Y-67289402D01*
X98437230Y-67428787D01*
X98457716Y-67505243D01*
X98460039Y-67510224D01*
X98460039Y-67510225D01*
X98552151Y-67707762D01*
X98552154Y-67707767D01*
X98554477Y-67712749D01*
X98685802Y-67900300D01*
X98805143Y-68019641D01*
X98839169Y-68081953D01*
X98834104Y-68152768D01*
X98791557Y-68209604D01*
X98767297Y-68223843D01*
X98609278Y-68294197D01*
X98609276Y-68294198D01*
X98603248Y-68296882D01*
X98597907Y-68300762D01*
X98597906Y-68300763D01*
X98530767Y-68349543D01*
X98448747Y-68409134D01*
X98444332Y-68414037D01*
X98439420Y-68418460D01*
X98438295Y-68417211D01*
X98384986Y-68450051D01*
X98351800Y-68454500D01*
X95356248Y-68454500D01*
X95288127Y-68434498D01*
X95241634Y-68380842D01*
X95231530Y-68310568D01*
X95261024Y-68245988D01*
X95302998Y-68214305D01*
X95343511Y-68195414D01*
X95353006Y-68189931D01*
X95405048Y-68153491D01*
X95413424Y-68143012D01*
X95406356Y-68129566D01*
X94704812Y-67428022D01*
X94690868Y-67420408D01*
X94689035Y-67420539D01*
X94682420Y-67424790D01*
X93976923Y-68130287D01*
X93970493Y-68142062D01*
X93989572Y-68166724D01*
X94015435Y-68232842D01*
X94001445Y-68302447D01*
X93963975Y-68345759D01*
X93911388Y-68383966D01*
X93876747Y-68409134D01*
X93748960Y-68551056D01*
X93745659Y-68556774D01*
X93667409Y-68692307D01*
X93653473Y-68716444D01*
X93594458Y-68898072D01*
X93593768Y-68904633D01*
X93593768Y-68904635D01*
X93591141Y-68929634D01*
X93574496Y-69088000D01*
X85202498Y-69088000D01*
X85172300Y-69057802D01*
X85167792Y-69054645D01*
X85167789Y-69054643D01*
X85058243Y-68977938D01*
X84984749Y-68926477D01*
X84979767Y-68924154D01*
X84979762Y-68924151D01*
X84782225Y-68832039D01*
X84782224Y-68832039D01*
X84777243Y-68829716D01*
X84771935Y-68828294D01*
X84771933Y-68828293D01*
X84561402Y-68771881D01*
X84561400Y-68771881D01*
X84556087Y-68770457D01*
X84328000Y-68750502D01*
X84099913Y-68770457D01*
X84094600Y-68771881D01*
X84094598Y-68771881D01*
X83884067Y-68828293D01*
X83884065Y-68828294D01*
X83878757Y-68829716D01*
X83873776Y-68832039D01*
X83873775Y-68832039D01*
X83676238Y-68924151D01*
X83676233Y-68924154D01*
X83671251Y-68926477D01*
X83597757Y-68977938D01*
X83488211Y-69054643D01*
X83488208Y-69054645D01*
X83483700Y-69057802D01*
X83321802Y-69219700D01*
X83190477Y-69407251D01*
X83188154Y-69412233D01*
X83188151Y-69412238D01*
X83163418Y-69465279D01*
X83093716Y-69614757D01*
X83092294Y-69620065D01*
X83092293Y-69620067D01*
X83055457Y-69757540D01*
X83034457Y-69835913D01*
X83014502Y-70064000D01*
X75480517Y-70064000D01*
X75480517Y-70058525D01*
X75461528Y-69841481D01*
X75459625Y-69830688D01*
X75403236Y-69620239D01*
X75399490Y-69609947D01*
X75307414Y-69412489D01*
X75301931Y-69402994D01*
X75265491Y-69350952D01*
X75255012Y-69342576D01*
X75241566Y-69349644D01*
X74540022Y-70051188D01*
X74532408Y-70065132D01*
X73865694Y-70065132D01*
X73868924Y-70019968D01*
X73897885Y-69974905D01*
X74883077Y-68989713D01*
X74889507Y-68977938D01*
X74880211Y-68965923D01*
X74829006Y-68930069D01*
X74819511Y-68924586D01*
X74622053Y-68832510D01*
X74611761Y-68828764D01*
X74401312Y-68772375D01*
X74390519Y-68770472D01*
X74173475Y-68751483D01*
X74162525Y-68751483D01*
X73945481Y-68770472D01*
X73934688Y-68772375D01*
X73835111Y-68799056D01*
X73764134Y-68797366D01*
X73705339Y-68757572D01*
X73677391Y-68692307D01*
X73676500Y-68677349D01*
X73676500Y-67626575D01*
X78964404Y-67626575D01*
X78966313Y-67647554D01*
X78978133Y-67777424D01*
X78983218Y-67833303D01*
X78984956Y-67839209D01*
X78984957Y-67839213D01*
X79002936Y-67900300D01*
X79041827Y-68032440D01*
X79137999Y-68216400D01*
X79268071Y-68378177D01*
X79272788Y-68382135D01*
X79272790Y-68382137D01*
X79300341Y-68405255D01*
X79427089Y-68511609D01*
X79432481Y-68514573D01*
X79432485Y-68514576D01*
X79509256Y-68556781D01*
X79608995Y-68611613D01*
X79806861Y-68674379D01*
X79812978Y-68675065D01*
X79812982Y-68675066D01*
X79889598Y-68683659D01*
X79968413Y-68692500D01*
X80080237Y-68692500D01*
X80083293Y-68692200D01*
X80083300Y-68692200D01*
X80228466Y-68677966D01*
X80228469Y-68677965D01*
X80234592Y-68677365D01*
X80366546Y-68637526D01*
X80427407Y-68619152D01*
X80427410Y-68619151D01*
X80433315Y-68617368D01*
X80440635Y-68613476D01*
X80611153Y-68522809D01*
X80611155Y-68522808D01*
X80616599Y-68519913D01*
X80676471Y-68471083D01*
X80772689Y-68392610D01*
X80772692Y-68392607D01*
X80777464Y-68388715D01*
X80909783Y-68228770D01*
X80913876Y-68221201D01*
X81005584Y-68051590D01*
X81005586Y-68051585D01*
X81008514Y-68046170D01*
X81069898Y-67847871D01*
X81071429Y-67833303D01*
X81090952Y-67647554D01*
X81090952Y-67647552D01*
X81091596Y-67641425D01*
X81078719Y-67499933D01*
X81073341Y-67440836D01*
X81073340Y-67440833D01*
X81072782Y-67434697D01*
X81070818Y-67428022D01*
X81015912Y-67241469D01*
X81014173Y-67235560D01*
X80923164Y-67061475D01*
X93379483Y-67061475D01*
X93398472Y-67278519D01*
X93400375Y-67289312D01*
X93456764Y-67499761D01*
X93460510Y-67510053D01*
X93552586Y-67707511D01*
X93558069Y-67717006D01*
X93594509Y-67769048D01*
X93604988Y-67777424D01*
X93618434Y-67770356D01*
X94319978Y-67068812D01*
X94326356Y-67057132D01*
X95056408Y-67057132D01*
X95056539Y-67058965D01*
X95060790Y-67065580D01*
X95766287Y-67771077D01*
X95778062Y-67777507D01*
X95790077Y-67768211D01*
X95825931Y-67717006D01*
X95831414Y-67707511D01*
X95923490Y-67510053D01*
X95927236Y-67499761D01*
X95983625Y-67289312D01*
X95985528Y-67278519D01*
X96004517Y-67061475D01*
X96004517Y-67050525D01*
X95985528Y-66833481D01*
X95983625Y-66822688D01*
X95927236Y-66612239D01*
X95923490Y-66601947D01*
X95831414Y-66404489D01*
X95825931Y-66394994D01*
X95789491Y-66342952D01*
X95779012Y-66334576D01*
X95765566Y-66341644D01*
X95064022Y-67043188D01*
X95056408Y-67057132D01*
X94326356Y-67057132D01*
X94327592Y-67054868D01*
X94327461Y-67053035D01*
X94323210Y-67046420D01*
X93617713Y-66340923D01*
X93605938Y-66334493D01*
X93593923Y-66343789D01*
X93558069Y-66394994D01*
X93552586Y-66404489D01*
X93460510Y-66601947D01*
X93456764Y-66612239D01*
X93400375Y-66822688D01*
X93398472Y-66833481D01*
X93379483Y-67050525D01*
X93379483Y-67061475D01*
X80923164Y-67061475D01*
X80918001Y-67051600D01*
X80787929Y-66889823D01*
X80775371Y-66879285D01*
X80633629Y-66760350D01*
X80628911Y-66756391D01*
X80623519Y-66753427D01*
X80623515Y-66753424D01*
X80452402Y-66659354D01*
X80447005Y-66656387D01*
X80249139Y-66593621D01*
X80243022Y-66592935D01*
X80243018Y-66592934D01*
X80166402Y-66584341D01*
X80087587Y-66575500D01*
X79975763Y-66575500D01*
X79972707Y-66575800D01*
X79972700Y-66575800D01*
X79827534Y-66590034D01*
X79827531Y-66590035D01*
X79821408Y-66590635D01*
X79689454Y-66630474D01*
X79628593Y-66648848D01*
X79628590Y-66648849D01*
X79622685Y-66650632D01*
X79617240Y-66653527D01*
X79617238Y-66653528D01*
X79444847Y-66745191D01*
X79444845Y-66745192D01*
X79439401Y-66748087D01*
X79424365Y-66760350D01*
X79283311Y-66875390D01*
X79283308Y-66875393D01*
X79278536Y-66879285D01*
X79274608Y-66884033D01*
X79274607Y-66884034D01*
X79180728Y-66997514D01*
X79146217Y-67039230D01*
X79143288Y-67044647D01*
X79143286Y-67044650D01*
X79050416Y-67216410D01*
X79050414Y-67216415D01*
X79047486Y-67221830D01*
X78986102Y-67420129D01*
X78985458Y-67426254D01*
X78985458Y-67426255D01*
X78983926Y-67440836D01*
X78964404Y-67626575D01*
X73676500Y-67626575D01*
X73676500Y-66451168D01*
X73696502Y-66383047D01*
X73750158Y-66336554D01*
X73820432Y-66326450D01*
X73835105Y-66329460D01*
X73939913Y-66357543D01*
X74168000Y-66377498D01*
X74396087Y-66357543D01*
X74401400Y-66356119D01*
X74401402Y-66356119D01*
X74611933Y-66299707D01*
X74611935Y-66299706D01*
X74617243Y-66298284D01*
X74750371Y-66236206D01*
X74819762Y-66203849D01*
X74819767Y-66203846D01*
X74824749Y-66201523D01*
X74929611Y-66128098D01*
X75007789Y-66073357D01*
X75007792Y-66073355D01*
X75012300Y-66070198D01*
X75174198Y-65908300D01*
X75305523Y-65720749D01*
X75307846Y-65715767D01*
X75307849Y-65715762D01*
X75399961Y-65518225D01*
X75399961Y-65518224D01*
X75402284Y-65513243D01*
X75461543Y-65292087D01*
X75481498Y-65064000D01*
X83014502Y-65064000D01*
X83034457Y-65292087D01*
X83093716Y-65513243D01*
X83096039Y-65518224D01*
X83096039Y-65518225D01*
X83188151Y-65715762D01*
X83188154Y-65715767D01*
X83190477Y-65720749D01*
X83321802Y-65908300D01*
X83483700Y-66070198D01*
X83488208Y-66073355D01*
X83488211Y-66073357D01*
X83566389Y-66128098D01*
X83671251Y-66201523D01*
X83676233Y-66203846D01*
X83676238Y-66203849D01*
X83745629Y-66236206D01*
X83878757Y-66298284D01*
X83884065Y-66299706D01*
X83884067Y-66299707D01*
X84094598Y-66356119D01*
X84094600Y-66356119D01*
X84099913Y-66357543D01*
X84328000Y-66377498D01*
X84556087Y-66357543D01*
X84561400Y-66356119D01*
X84561402Y-66356119D01*
X84771933Y-66299707D01*
X84771935Y-66299706D01*
X84777243Y-66298284D01*
X84910371Y-66236206D01*
X84979762Y-66203849D01*
X84979767Y-66203846D01*
X84984749Y-66201523D01*
X85089611Y-66128098D01*
X85167789Y-66073357D01*
X85167792Y-66073355D01*
X85172300Y-66070198D01*
X85273510Y-65968988D01*
X93970576Y-65968988D01*
X93977644Y-65982434D01*
X94679188Y-66683978D01*
X94693132Y-66691592D01*
X94694965Y-66691461D01*
X94701580Y-66687210D01*
X95407077Y-65981713D01*
X95413507Y-65969938D01*
X95404211Y-65957923D01*
X95353006Y-65922069D01*
X95343511Y-65916586D01*
X95146053Y-65824510D01*
X95135761Y-65820764D01*
X94925312Y-65764375D01*
X94914519Y-65762472D01*
X94697475Y-65743483D01*
X94686525Y-65743483D01*
X94469481Y-65762472D01*
X94458688Y-65764375D01*
X94248239Y-65820764D01*
X94237947Y-65824510D01*
X94040489Y-65916586D01*
X94030994Y-65922069D01*
X93978952Y-65958509D01*
X93970576Y-65968988D01*
X85273510Y-65968988D01*
X85334198Y-65908300D01*
X85465523Y-65720749D01*
X85467846Y-65715767D01*
X85467849Y-65715762D01*
X85559961Y-65518225D01*
X85559961Y-65518224D01*
X85562284Y-65513243D01*
X85621543Y-65292087D01*
X85641498Y-65064000D01*
X85621543Y-64835913D01*
X85562284Y-64614757D01*
X85527064Y-64539226D01*
X85467849Y-64412238D01*
X85467846Y-64412233D01*
X85465523Y-64407251D01*
X85381488Y-64287237D01*
X85337357Y-64224211D01*
X85337355Y-64224208D01*
X85334198Y-64219700D01*
X85172300Y-64057802D01*
X85167792Y-64054645D01*
X85167789Y-64054643D01*
X85013613Y-63946688D01*
X84984749Y-63926477D01*
X84979767Y-63924154D01*
X84979762Y-63924151D01*
X84782225Y-63832039D01*
X84782224Y-63832039D01*
X84777243Y-63829716D01*
X84771935Y-63828294D01*
X84771933Y-63828293D01*
X84561402Y-63771881D01*
X84561400Y-63771881D01*
X84556087Y-63770457D01*
X84328000Y-63750502D01*
X84099913Y-63770457D01*
X84094600Y-63771881D01*
X84094598Y-63771881D01*
X83884067Y-63828293D01*
X83884065Y-63828294D01*
X83878757Y-63829716D01*
X83873776Y-63832039D01*
X83873775Y-63832039D01*
X83676238Y-63924151D01*
X83676233Y-63924154D01*
X83671251Y-63926477D01*
X83642387Y-63946688D01*
X83488211Y-64054643D01*
X83488208Y-64054645D01*
X83483700Y-64057802D01*
X83321802Y-64219700D01*
X83318645Y-64224208D01*
X83318643Y-64224211D01*
X83274512Y-64287237D01*
X83190477Y-64407251D01*
X83188154Y-64412233D01*
X83188151Y-64412238D01*
X83128936Y-64539226D01*
X83093716Y-64614757D01*
X83034457Y-64835913D01*
X83014502Y-65064000D01*
X75481498Y-65064000D01*
X75461543Y-64835913D01*
X75402284Y-64614757D01*
X75399959Y-64609770D01*
X75380957Y-64569019D01*
X75370296Y-64498827D01*
X75399277Y-64434015D01*
X75458697Y-64395159D01*
X75521349Y-64392524D01*
X75590047Y-64407127D01*
X75590060Y-64407128D01*
X75596513Y-64408500D01*
X75787487Y-64408500D01*
X75793939Y-64407128D01*
X75793944Y-64407128D01*
X75880887Y-64388647D01*
X75974288Y-64368794D01*
X75980319Y-64366109D01*
X76142722Y-64293803D01*
X76142724Y-64293802D01*
X76148752Y-64291118D01*
X76303253Y-64178866D01*
X76307668Y-64173963D01*
X76312580Y-64169540D01*
X76313705Y-64170789D01*
X76367014Y-64137949D01*
X76400200Y-64133500D01*
X77777800Y-64133500D01*
X77845921Y-64153502D01*
X77865147Y-64169843D01*
X77865420Y-64169540D01*
X77870332Y-64173963D01*
X77874747Y-64178866D01*
X78029248Y-64291118D01*
X78035276Y-64293802D01*
X78035278Y-64293803D01*
X78197681Y-64366109D01*
X78203712Y-64368794D01*
X78297113Y-64388647D01*
X78384056Y-64407128D01*
X78384061Y-64407128D01*
X78390513Y-64408500D01*
X78581487Y-64408500D01*
X78587939Y-64407128D01*
X78587944Y-64407128D01*
X78674887Y-64388647D01*
X78768288Y-64368794D01*
X78774319Y-64366109D01*
X78936722Y-64293803D01*
X78936724Y-64293802D01*
X78942752Y-64291118D01*
X79097253Y-64178866D01*
X79202751Y-64061699D01*
X79220621Y-64041852D01*
X79220622Y-64041851D01*
X79225040Y-64036944D01*
X79320527Y-63871556D01*
X79379542Y-63689928D01*
X79383935Y-63648137D01*
X79398814Y-63506565D01*
X79399504Y-63500000D01*
X79382062Y-63334045D01*
X79380232Y-63316635D01*
X79380232Y-63316633D01*
X79379542Y-63310072D01*
X79320527Y-63128444D01*
X79304088Y-63099970D01*
X79228341Y-62968774D01*
X79225040Y-62963056D01*
X79137100Y-62865388D01*
X79101675Y-62826045D01*
X79101674Y-62826044D01*
X79097253Y-62821134D01*
X78942752Y-62708882D01*
X78936724Y-62706198D01*
X78936722Y-62706197D01*
X78774319Y-62633891D01*
X78774318Y-62633891D01*
X78768288Y-62631206D01*
X78674887Y-62611353D01*
X78587944Y-62592872D01*
X78587939Y-62592872D01*
X78581487Y-62591500D01*
X78390513Y-62591500D01*
X78384061Y-62592872D01*
X78384056Y-62592872D01*
X78297113Y-62611353D01*
X78203712Y-62631206D01*
X78197682Y-62633891D01*
X78197681Y-62633891D01*
X78035278Y-62706197D01*
X78035276Y-62706198D01*
X78029248Y-62708882D01*
X77874747Y-62821134D01*
X77870332Y-62826037D01*
X77865420Y-62830460D01*
X77864295Y-62829211D01*
X77810986Y-62862051D01*
X77777800Y-62866500D01*
X76400200Y-62866500D01*
X76332079Y-62846498D01*
X76312853Y-62830157D01*
X76312580Y-62830460D01*
X76307668Y-62826037D01*
X76303253Y-62821134D01*
X76148752Y-62708882D01*
X76142724Y-62706198D01*
X76142722Y-62706197D01*
X75980319Y-62633891D01*
X75980318Y-62633891D01*
X75974288Y-62631206D01*
X75880887Y-62611353D01*
X75793944Y-62592872D01*
X75793939Y-62592872D01*
X75787487Y-62591500D01*
X75596513Y-62591500D01*
X75590061Y-62592872D01*
X75590056Y-62592872D01*
X75503113Y-62611353D01*
X75409712Y-62631206D01*
X75403682Y-62633891D01*
X75403681Y-62633891D01*
X75241278Y-62706197D01*
X75241276Y-62706198D01*
X75235248Y-62708882D01*
X75229907Y-62712762D01*
X75229906Y-62712763D01*
X75149691Y-62771043D01*
X75082823Y-62794901D01*
X75013672Y-62778821D01*
X74964192Y-62727907D01*
X74955797Y-62708045D01*
X74947816Y-62683482D01*
X74945774Y-62677197D01*
X74850287Y-62511809D01*
X74722500Y-62369887D01*
X74567999Y-62257635D01*
X74561971Y-62254951D01*
X74561969Y-62254950D01*
X74399566Y-62182644D01*
X74399565Y-62182644D01*
X74393535Y-62179959D01*
X74300134Y-62160106D01*
X74213191Y-62141625D01*
X74213186Y-62141625D01*
X74206734Y-62140253D01*
X74015760Y-62140253D01*
X74009308Y-62141625D01*
X74009303Y-62141625D01*
X73922360Y-62160106D01*
X73828959Y-62179959D01*
X73822929Y-62182644D01*
X73822928Y-62182644D01*
X73660525Y-62254950D01*
X73660523Y-62254951D01*
X73654495Y-62257635D01*
X73499994Y-62369887D01*
X73372207Y-62511809D01*
X73276720Y-62677197D01*
X73217705Y-62858825D01*
X73217015Y-62865386D01*
X73217015Y-62865388D01*
X73200340Y-63024045D01*
X73173327Y-63089702D01*
X73164125Y-63099970D01*
X72650747Y-63613348D01*
X72642461Y-63620888D01*
X72635982Y-63625000D01*
X72630557Y-63630777D01*
X72589357Y-63674651D01*
X72586602Y-63677493D01*
X72566865Y-63697230D01*
X72564385Y-63700427D01*
X72556682Y-63709447D01*
X72526414Y-63741679D01*
X72522595Y-63748625D01*
X72522593Y-63748628D01*
X72516652Y-63759434D01*
X72505801Y-63775953D01*
X72493386Y-63791959D01*
X72490241Y-63799228D01*
X72490238Y-63799232D01*
X72475826Y-63832537D01*
X72470609Y-63843187D01*
X72449305Y-63881940D01*
X72447334Y-63889615D01*
X72447334Y-63889616D01*
X72444267Y-63901562D01*
X72437863Y-63920266D01*
X72429819Y-63938855D01*
X72428580Y-63946678D01*
X72428577Y-63946688D01*
X72422901Y-63982524D01*
X72420495Y-63994144D01*
X72416938Y-64008000D01*
X72409500Y-64036970D01*
X72409500Y-64057224D01*
X72407949Y-64076934D01*
X72404780Y-64096943D01*
X68124500Y-64096943D01*
X68124500Y-61604134D01*
X75324500Y-61604134D01*
X75331255Y-61666316D01*
X75382385Y-61802705D01*
X75469739Y-61919261D01*
X75586295Y-62006615D01*
X75722684Y-62057745D01*
X75784866Y-62064500D01*
X77581134Y-62064500D01*
X77643316Y-62057745D01*
X77779705Y-62006615D01*
X77896261Y-61919261D01*
X77983615Y-61802705D01*
X78005799Y-61743529D01*
X78027598Y-61685382D01*
X78070240Y-61628618D01*
X78136802Y-61603918D01*
X78206150Y-61619126D01*
X78240817Y-61647114D01*
X78269250Y-61679938D01*
X78441126Y-61822632D01*
X78634000Y-61935338D01*
X78842692Y-62015030D01*
X78847760Y-62016061D01*
X78847763Y-62016062D01*
X78942862Y-62035410D01*
X79061597Y-62059567D01*
X79066772Y-62059757D01*
X79066774Y-62059757D01*
X79279673Y-62067564D01*
X79279677Y-62067564D01*
X79284837Y-62067753D01*
X79289957Y-62067097D01*
X79289959Y-62067097D01*
X79501288Y-62040025D01*
X79501289Y-62040025D01*
X79506416Y-62039368D01*
X79511366Y-62037883D01*
X79715429Y-61976661D01*
X79715434Y-61976659D01*
X79720384Y-61975174D01*
X79920994Y-61876896D01*
X80102860Y-61747173D01*
X80261096Y-61589489D01*
X80391453Y-61408077D01*
X80392776Y-61409028D01*
X80439645Y-61365857D01*
X80509580Y-61353625D01*
X80575026Y-61381144D01*
X80602875Y-61412994D01*
X80662987Y-61511088D01*
X80809250Y-61679938D01*
X80981126Y-61822632D01*
X81174000Y-61935338D01*
X81382692Y-62015030D01*
X81387760Y-62016061D01*
X81387763Y-62016062D01*
X81482862Y-62035410D01*
X81601597Y-62059567D01*
X81606772Y-62059757D01*
X81606774Y-62059757D01*
X81819673Y-62067564D01*
X81819677Y-62067564D01*
X81824837Y-62067753D01*
X81829957Y-62067097D01*
X81829959Y-62067097D01*
X82041288Y-62040025D01*
X82041289Y-62040025D01*
X82046416Y-62039368D01*
X82051366Y-62037883D01*
X82255429Y-61976661D01*
X82255434Y-61976659D01*
X82260384Y-61975174D01*
X82460994Y-61876896D01*
X82642860Y-61747173D01*
X82801096Y-61589489D01*
X82931453Y-61408077D01*
X82932776Y-61409028D01*
X82979645Y-61365857D01*
X83049580Y-61353625D01*
X83115026Y-61381144D01*
X83142875Y-61412994D01*
X83202987Y-61511088D01*
X83349250Y-61679938D01*
X83521126Y-61822632D01*
X83714000Y-61935338D01*
X83922692Y-62015030D01*
X83927760Y-62016061D01*
X83927763Y-62016062D01*
X84022862Y-62035410D01*
X84141597Y-62059567D01*
X84146772Y-62059757D01*
X84146774Y-62059757D01*
X84359673Y-62067564D01*
X84359677Y-62067564D01*
X84364837Y-62067753D01*
X84369957Y-62067097D01*
X84369959Y-62067097D01*
X84581288Y-62040025D01*
X84581289Y-62040025D01*
X84586416Y-62039368D01*
X84591366Y-62037883D01*
X84795429Y-61976661D01*
X84795434Y-61976659D01*
X84800384Y-61975174D01*
X85000994Y-61876896D01*
X85182860Y-61747173D01*
X85341096Y-61589489D01*
X85471453Y-61408077D01*
X85472776Y-61409028D01*
X85519645Y-61365857D01*
X85589580Y-61353625D01*
X85655026Y-61381144D01*
X85682875Y-61412994D01*
X85742987Y-61511088D01*
X85889250Y-61679938D01*
X86061126Y-61822632D01*
X86254000Y-61935338D01*
X86462692Y-62015030D01*
X86467760Y-62016061D01*
X86467763Y-62016062D01*
X86562862Y-62035410D01*
X86681597Y-62059567D01*
X86686772Y-62059757D01*
X86686774Y-62059757D01*
X86899673Y-62067564D01*
X86899677Y-62067564D01*
X86904837Y-62067753D01*
X86909957Y-62067097D01*
X86909959Y-62067097D01*
X87121288Y-62040025D01*
X87121289Y-62040025D01*
X87126416Y-62039368D01*
X87131366Y-62037883D01*
X87335429Y-61976661D01*
X87335434Y-61976659D01*
X87340384Y-61975174D01*
X87540994Y-61876896D01*
X87722860Y-61747173D01*
X87881096Y-61589489D01*
X88011453Y-61408077D01*
X88012776Y-61409028D01*
X88059645Y-61365857D01*
X88129580Y-61353625D01*
X88195026Y-61381144D01*
X88222875Y-61412994D01*
X88282987Y-61511088D01*
X88429250Y-61679938D01*
X88601126Y-61822632D01*
X88794000Y-61935338D01*
X89002692Y-62015030D01*
X89007760Y-62016061D01*
X89007763Y-62016062D01*
X89102862Y-62035410D01*
X89221597Y-62059567D01*
X89226772Y-62059757D01*
X89226774Y-62059757D01*
X89439673Y-62067564D01*
X89439677Y-62067564D01*
X89444837Y-62067753D01*
X89449957Y-62067097D01*
X89449959Y-62067097D01*
X89661288Y-62040025D01*
X89661289Y-62040025D01*
X89666416Y-62039368D01*
X89671366Y-62037883D01*
X89875429Y-61976661D01*
X89875434Y-61976659D01*
X89880384Y-61975174D01*
X90080994Y-61876896D01*
X90262860Y-61747173D01*
X90421096Y-61589489D01*
X90551453Y-61408077D01*
X90552776Y-61409028D01*
X90599645Y-61365857D01*
X90669580Y-61353625D01*
X90735026Y-61381144D01*
X90762875Y-61412994D01*
X90822987Y-61511088D01*
X90969250Y-61679938D01*
X91141126Y-61822632D01*
X91334000Y-61935338D01*
X91542692Y-62015030D01*
X91547760Y-62016061D01*
X91547763Y-62016062D01*
X91642862Y-62035410D01*
X91761597Y-62059567D01*
X91766772Y-62059757D01*
X91766774Y-62059757D01*
X91979673Y-62067564D01*
X91979677Y-62067564D01*
X91984837Y-62067753D01*
X91989957Y-62067097D01*
X91989959Y-62067097D01*
X92201288Y-62040025D01*
X92201289Y-62040025D01*
X92206416Y-62039368D01*
X92211366Y-62037883D01*
X92415429Y-61976661D01*
X92415434Y-61976659D01*
X92420384Y-61975174D01*
X92620994Y-61876896D01*
X92802860Y-61747173D01*
X92961096Y-61589489D01*
X93091453Y-61408077D01*
X93092640Y-61408930D01*
X93139960Y-61365362D01*
X93209897Y-61353145D01*
X93275338Y-61380678D01*
X93303166Y-61412511D01*
X93360694Y-61506388D01*
X93366777Y-61514699D01*
X93506213Y-61675667D01*
X93513580Y-61682883D01*
X93677434Y-61818916D01*
X93685881Y-61824831D01*
X93869756Y-61932279D01*
X93879042Y-61936729D01*
X94078001Y-62012703D01*
X94087899Y-62015579D01*
X94191250Y-62036606D01*
X94205299Y-62035410D01*
X94209000Y-62025065D01*
X94209000Y-62024517D01*
X94717000Y-62024517D01*
X94721064Y-62038359D01*
X94734478Y-62040393D01*
X94741184Y-62039534D01*
X94751262Y-62037392D01*
X94955255Y-61976191D01*
X94964842Y-61972433D01*
X95156095Y-61878739D01*
X95164945Y-61873464D01*
X95338328Y-61749792D01*
X95346200Y-61743139D01*
X95497052Y-61592812D01*
X95503730Y-61584965D01*
X95628003Y-61412020D01*
X95633313Y-61403183D01*
X95727670Y-61212267D01*
X95731469Y-61202672D01*
X95793377Y-60998910D01*
X95795555Y-60988837D01*
X95796986Y-60977962D01*
X95794775Y-60963778D01*
X95781617Y-60960000D01*
X94735115Y-60960000D01*
X94719876Y-60964475D01*
X94718671Y-60965865D01*
X94717000Y-60973548D01*
X94717000Y-62024517D01*
X94209000Y-62024517D01*
X94209000Y-60433885D01*
X94717000Y-60433885D01*
X94721475Y-60449124D01*
X94722865Y-60450329D01*
X94730548Y-60452000D01*
X95781344Y-60452000D01*
X95794875Y-60448027D01*
X95796180Y-60438947D01*
X95754214Y-60271875D01*
X95750894Y-60262124D01*
X95665972Y-60066814D01*
X95661105Y-60057739D01*
X95545426Y-59878926D01*
X95539136Y-59870757D01*
X95395806Y-59713240D01*
X95388273Y-59706215D01*
X95221139Y-59574222D01*
X95212552Y-59568517D01*
X95026117Y-59465599D01*
X95016705Y-59461369D01*
X94815959Y-59390280D01*
X94805988Y-59387646D01*
X94734837Y-59374972D01*
X94721540Y-59376432D01*
X94717000Y-59390989D01*
X94717000Y-60433885D01*
X94209000Y-60433885D01*
X94209000Y-59389102D01*
X94205082Y-59375758D01*
X94190806Y-59373771D01*
X94152324Y-59379660D01*
X94142288Y-59382051D01*
X93939868Y-59448212D01*
X93930359Y-59452209D01*
X93741463Y-59550542D01*
X93732738Y-59556036D01*
X93562433Y-59683905D01*
X93554726Y-59690748D01*
X93407590Y-59844717D01*
X93401109Y-59852722D01*
X93296498Y-60006074D01*
X93241587Y-60051076D01*
X93171062Y-60059247D01*
X93107315Y-60027993D01*
X93086618Y-60003509D01*
X93005822Y-59878617D01*
X93005820Y-59878614D01*
X93003014Y-59874277D01*
X92852670Y-59709051D01*
X92848619Y-59705852D01*
X92848615Y-59705848D01*
X92681414Y-59573800D01*
X92681410Y-59573798D01*
X92677359Y-59570598D01*
X92641028Y-59550542D01*
X92625136Y-59541769D01*
X92481789Y-59462638D01*
X92476920Y-59460914D01*
X92476916Y-59460912D01*
X92276087Y-59389795D01*
X92276083Y-59389794D01*
X92271212Y-59388069D01*
X92266119Y-59387162D01*
X92266116Y-59387161D01*
X92056373Y-59349800D01*
X92056367Y-59349799D01*
X92051284Y-59348894D01*
X91977452Y-59347992D01*
X91833081Y-59346228D01*
X91833079Y-59346228D01*
X91827911Y-59346165D01*
X91607091Y-59379955D01*
X91394756Y-59449357D01*
X91196607Y-59552507D01*
X91192474Y-59555610D01*
X91192471Y-59555612D01*
X91022100Y-59683530D01*
X91017965Y-59686635D01*
X91014393Y-59690373D01*
X90906729Y-59803037D01*
X90863629Y-59848138D01*
X90756201Y-60005621D01*
X90701293Y-60050621D01*
X90630768Y-60058792D01*
X90567021Y-60027538D01*
X90546324Y-60003054D01*
X90465822Y-59878617D01*
X90465820Y-59878614D01*
X90463014Y-59874277D01*
X90312670Y-59709051D01*
X90308619Y-59705852D01*
X90308615Y-59705848D01*
X90141414Y-59573800D01*
X90141410Y-59573798D01*
X90137359Y-59570598D01*
X90101028Y-59550542D01*
X90085136Y-59541769D01*
X89941789Y-59462638D01*
X89936920Y-59460914D01*
X89936916Y-59460912D01*
X89736087Y-59389795D01*
X89736083Y-59389794D01*
X89731212Y-59388069D01*
X89726119Y-59387162D01*
X89726116Y-59387161D01*
X89516373Y-59349800D01*
X89516367Y-59349799D01*
X89511284Y-59348894D01*
X89437452Y-59347992D01*
X89293081Y-59346228D01*
X89293079Y-59346228D01*
X89287911Y-59346165D01*
X89067091Y-59379955D01*
X88854756Y-59449357D01*
X88656607Y-59552507D01*
X88652474Y-59555610D01*
X88652471Y-59555612D01*
X88482100Y-59683530D01*
X88477965Y-59686635D01*
X88474393Y-59690373D01*
X88366729Y-59803037D01*
X88323629Y-59848138D01*
X88216201Y-60005621D01*
X88161293Y-60050621D01*
X88090768Y-60058792D01*
X88027021Y-60027538D01*
X88006324Y-60003054D01*
X87925822Y-59878617D01*
X87925820Y-59878614D01*
X87923014Y-59874277D01*
X87772670Y-59709051D01*
X87768619Y-59705852D01*
X87768615Y-59705848D01*
X87601414Y-59573800D01*
X87601410Y-59573798D01*
X87597359Y-59570598D01*
X87561028Y-59550542D01*
X87545136Y-59541769D01*
X87401789Y-59462638D01*
X87396920Y-59460914D01*
X87396916Y-59460912D01*
X87196087Y-59389795D01*
X87196083Y-59389794D01*
X87191212Y-59388069D01*
X87186119Y-59387162D01*
X87186116Y-59387161D01*
X86976373Y-59349800D01*
X86976367Y-59349799D01*
X86971284Y-59348894D01*
X86897452Y-59347992D01*
X86753081Y-59346228D01*
X86753079Y-59346228D01*
X86747911Y-59346165D01*
X86527091Y-59379955D01*
X86314756Y-59449357D01*
X86116607Y-59552507D01*
X86112474Y-59555610D01*
X86112471Y-59555612D01*
X85942100Y-59683530D01*
X85937965Y-59686635D01*
X85934393Y-59690373D01*
X85826729Y-59803037D01*
X85783629Y-59848138D01*
X85676201Y-60005621D01*
X85621293Y-60050621D01*
X85550768Y-60058792D01*
X85487021Y-60027538D01*
X85466324Y-60003054D01*
X85385822Y-59878617D01*
X85385820Y-59878614D01*
X85383014Y-59874277D01*
X85232670Y-59709051D01*
X85228619Y-59705852D01*
X85228615Y-59705848D01*
X85061414Y-59573800D01*
X85061410Y-59573798D01*
X85057359Y-59570598D01*
X85021028Y-59550542D01*
X85005136Y-59541769D01*
X84861789Y-59462638D01*
X84856920Y-59460914D01*
X84856916Y-59460912D01*
X84656087Y-59389795D01*
X84656083Y-59389794D01*
X84651212Y-59388069D01*
X84646119Y-59387162D01*
X84646116Y-59387161D01*
X84436373Y-59349800D01*
X84436367Y-59349799D01*
X84431284Y-59348894D01*
X84357452Y-59347992D01*
X84213081Y-59346228D01*
X84213079Y-59346228D01*
X84207911Y-59346165D01*
X83987091Y-59379955D01*
X83774756Y-59449357D01*
X83576607Y-59552507D01*
X83572474Y-59555610D01*
X83572471Y-59555612D01*
X83402100Y-59683530D01*
X83397965Y-59686635D01*
X83394393Y-59690373D01*
X83286729Y-59803037D01*
X83243629Y-59848138D01*
X83136201Y-60005621D01*
X83081293Y-60050621D01*
X83010768Y-60058792D01*
X82947021Y-60027538D01*
X82926324Y-60003054D01*
X82845822Y-59878617D01*
X82845820Y-59878614D01*
X82843014Y-59874277D01*
X82692670Y-59709051D01*
X82688619Y-59705852D01*
X82688615Y-59705848D01*
X82521414Y-59573800D01*
X82521410Y-59573798D01*
X82517359Y-59570598D01*
X82481028Y-59550542D01*
X82465136Y-59541769D01*
X82321789Y-59462638D01*
X82316920Y-59460914D01*
X82316916Y-59460912D01*
X82116087Y-59389795D01*
X82116083Y-59389794D01*
X82111212Y-59388069D01*
X82106119Y-59387162D01*
X82106116Y-59387161D01*
X81896373Y-59349800D01*
X81896367Y-59349799D01*
X81891284Y-59348894D01*
X81817452Y-59347992D01*
X81673081Y-59346228D01*
X81673079Y-59346228D01*
X81667911Y-59346165D01*
X81447091Y-59379955D01*
X81234756Y-59449357D01*
X81036607Y-59552507D01*
X81032474Y-59555610D01*
X81032471Y-59555612D01*
X80862100Y-59683530D01*
X80857965Y-59686635D01*
X80854393Y-59690373D01*
X80746729Y-59803037D01*
X80703629Y-59848138D01*
X80596201Y-60005621D01*
X80541293Y-60050621D01*
X80470768Y-60058792D01*
X80407021Y-60027538D01*
X80386324Y-60003054D01*
X80305822Y-59878617D01*
X80305820Y-59878614D01*
X80303014Y-59874277D01*
X80152670Y-59709051D01*
X80148619Y-59705852D01*
X80148615Y-59705848D01*
X79981414Y-59573800D01*
X79981410Y-59573798D01*
X79977359Y-59570598D01*
X79941028Y-59550542D01*
X79925136Y-59541769D01*
X79781789Y-59462638D01*
X79776920Y-59460914D01*
X79776916Y-59460912D01*
X79576087Y-59389795D01*
X79576083Y-59389794D01*
X79571212Y-59388069D01*
X79566119Y-59387162D01*
X79566116Y-59387161D01*
X79356373Y-59349800D01*
X79356367Y-59349799D01*
X79351284Y-59348894D01*
X79277452Y-59347992D01*
X79133081Y-59346228D01*
X79133079Y-59346228D01*
X79127911Y-59346165D01*
X78907091Y-59379955D01*
X78694756Y-59449357D01*
X78496607Y-59552507D01*
X78492474Y-59555610D01*
X78492471Y-59555612D01*
X78322100Y-59683530D01*
X78317965Y-59686635D01*
X78261537Y-59745684D01*
X78237283Y-59771064D01*
X78175759Y-59806494D01*
X78104846Y-59803037D01*
X78047060Y-59761791D01*
X78028207Y-59728243D01*
X77986767Y-59617703D01*
X77983615Y-59609295D01*
X77896261Y-59492739D01*
X77779705Y-59405385D01*
X77643316Y-59354255D01*
X77581134Y-59347500D01*
X75784866Y-59347500D01*
X75722684Y-59354255D01*
X75586295Y-59405385D01*
X75469739Y-59492739D01*
X75382385Y-59609295D01*
X75331255Y-59745684D01*
X75324500Y-59807866D01*
X75324500Y-61604134D01*
X68124500Y-61604134D01*
X68124500Y-53640703D01*
X70586743Y-53640703D01*
X70624268Y-53925734D01*
X70700129Y-54203036D01*
X70812923Y-54467476D01*
X70960561Y-54714161D01*
X71140313Y-54938528D01*
X71348851Y-55136423D01*
X71582317Y-55304186D01*
X71586112Y-55306195D01*
X71586113Y-55306196D01*
X71607869Y-55317715D01*
X71836392Y-55438712D01*
X72106373Y-55537511D01*
X72387264Y-55598755D01*
X72415841Y-55601004D01*
X72610282Y-55616307D01*
X72610291Y-55616307D01*
X72612739Y-55616500D01*
X72768271Y-55616500D01*
X72770407Y-55616354D01*
X72770418Y-55616354D01*
X72978548Y-55602165D01*
X72978554Y-55602164D01*
X72982825Y-55601873D01*
X72987020Y-55601004D01*
X72987022Y-55601004D01*
X73123583Y-55572724D01*
X73264342Y-55543574D01*
X73535343Y-55447607D01*
X73790812Y-55315750D01*
X73794313Y-55313289D01*
X73794317Y-55313287D01*
X73908418Y-55233095D01*
X74026023Y-55150441D01*
X74236622Y-54954740D01*
X74418713Y-54732268D01*
X74568927Y-54487142D01*
X74684483Y-54223898D01*
X74763244Y-53947406D01*
X74803751Y-53662784D01*
X74803845Y-53644951D01*
X74803867Y-53640703D01*
X101522743Y-53640703D01*
X101560268Y-53925734D01*
X101636129Y-54203036D01*
X101748923Y-54467476D01*
X101896561Y-54714161D01*
X102076313Y-54938528D01*
X102284851Y-55136423D01*
X102518317Y-55304186D01*
X102522112Y-55306195D01*
X102522113Y-55306196D01*
X102543869Y-55317715D01*
X102772392Y-55438712D01*
X103042373Y-55537511D01*
X103323264Y-55598755D01*
X103351841Y-55601004D01*
X103546282Y-55616307D01*
X103546291Y-55616307D01*
X103548739Y-55616500D01*
X103704271Y-55616500D01*
X103706407Y-55616354D01*
X103706418Y-55616354D01*
X103914548Y-55602165D01*
X103914554Y-55602164D01*
X103918825Y-55601873D01*
X103923020Y-55601004D01*
X103923022Y-55601004D01*
X104059583Y-55572724D01*
X104200342Y-55543574D01*
X104471343Y-55447607D01*
X104726812Y-55315750D01*
X104730313Y-55313289D01*
X104730317Y-55313287D01*
X104844418Y-55233095D01*
X104962023Y-55150441D01*
X105172622Y-54954740D01*
X105354713Y-54732268D01*
X105504927Y-54487142D01*
X105620483Y-54223898D01*
X105699244Y-53947406D01*
X105739751Y-53662784D01*
X105739845Y-53644951D01*
X105741235Y-53379583D01*
X105741235Y-53379576D01*
X105741257Y-53375297D01*
X105703732Y-53090266D01*
X105627871Y-52812964D01*
X105515077Y-52548524D01*
X105384400Y-52330178D01*
X105369643Y-52305521D01*
X105369640Y-52305517D01*
X105367439Y-52301839D01*
X105187687Y-52077472D01*
X104979149Y-51879577D01*
X104745683Y-51711814D01*
X104723843Y-51700250D01*
X104700654Y-51687972D01*
X104491608Y-51577288D01*
X104221627Y-51478489D01*
X103940736Y-51417245D01*
X103909685Y-51414801D01*
X103717718Y-51399693D01*
X103717709Y-51399693D01*
X103715261Y-51399500D01*
X103559729Y-51399500D01*
X103557593Y-51399646D01*
X103557582Y-51399646D01*
X103349452Y-51413835D01*
X103349446Y-51413836D01*
X103345175Y-51414127D01*
X103340980Y-51414996D01*
X103340978Y-51414996D01*
X103204417Y-51443276D01*
X103063658Y-51472426D01*
X102792657Y-51568393D01*
X102537188Y-51700250D01*
X102533687Y-51702711D01*
X102533683Y-51702713D01*
X102523594Y-51709804D01*
X102301977Y-51865559D01*
X102091378Y-52061260D01*
X101909287Y-52283732D01*
X101759073Y-52528858D01*
X101643517Y-52792102D01*
X101564756Y-53068594D01*
X101524249Y-53353216D01*
X101524227Y-53357505D01*
X101524226Y-53357512D01*
X101523263Y-53541421D01*
X101522743Y-53640703D01*
X74803867Y-53640703D01*
X74805235Y-53379583D01*
X74805235Y-53379576D01*
X74805257Y-53375297D01*
X74767732Y-53090266D01*
X74691871Y-52812964D01*
X74579077Y-52548524D01*
X74448400Y-52330178D01*
X74433643Y-52305521D01*
X74433640Y-52305517D01*
X74431439Y-52301839D01*
X74251687Y-52077472D01*
X74043149Y-51879577D01*
X73809683Y-51711814D01*
X73787843Y-51700250D01*
X73764654Y-51687972D01*
X73555608Y-51577288D01*
X73285627Y-51478489D01*
X73004736Y-51417245D01*
X72973685Y-51414801D01*
X72781718Y-51399693D01*
X72781709Y-51399693D01*
X72779261Y-51399500D01*
X72623729Y-51399500D01*
X72621593Y-51399646D01*
X72621582Y-51399646D01*
X72413452Y-51413835D01*
X72413446Y-51413836D01*
X72409175Y-51414127D01*
X72404980Y-51414996D01*
X72404978Y-51414996D01*
X72268417Y-51443276D01*
X72127658Y-51472426D01*
X71856657Y-51568393D01*
X71601188Y-51700250D01*
X71597687Y-51702711D01*
X71597683Y-51702713D01*
X71587594Y-51709804D01*
X71365977Y-51865559D01*
X71155378Y-52061260D01*
X70973287Y-52283732D01*
X70823073Y-52528858D01*
X70707517Y-52792102D01*
X70628756Y-53068594D01*
X70588249Y-53353216D01*
X70588227Y-53357505D01*
X70588226Y-53357512D01*
X70587263Y-53541421D01*
X70586743Y-53640703D01*
X68124500Y-53640703D01*
X68124500Y-53561250D01*
X68126246Y-53540345D01*
X68128770Y-53525344D01*
X68128770Y-53525341D01*
X68129576Y-53520552D01*
X68129729Y-53508000D01*
X68129039Y-53503184D01*
X68129039Y-53503178D01*
X68127387Y-53491644D01*
X68126234Y-53468284D01*
X68130480Y-53371049D01*
X68141656Y-53115063D01*
X68142614Y-53104114D01*
X68193233Y-52719621D01*
X68195142Y-52708795D01*
X68279080Y-52330178D01*
X68281925Y-52319561D01*
X68362320Y-52064579D01*
X68398542Y-51949698D01*
X68402298Y-51939377D01*
X68428105Y-51877074D01*
X68550715Y-51581068D01*
X68555357Y-51571115D01*
X68602808Y-51479964D01*
X68734424Y-51227132D01*
X68739919Y-51217613D01*
X68948292Y-50890532D01*
X68954597Y-50881528D01*
X69190678Y-50573862D01*
X69197743Y-50565442D01*
X69459744Y-50279517D01*
X69467517Y-50271744D01*
X69753442Y-50009743D01*
X69761862Y-50002678D01*
X70069528Y-49766597D01*
X70078532Y-49760292D01*
X70405613Y-49551919D01*
X70415133Y-49546423D01*
X70759124Y-49367353D01*
X70769068Y-49362715D01*
X71127385Y-49214295D01*
X71137698Y-49210542D01*
X71337298Y-49147608D01*
X71507561Y-49093925D01*
X71518178Y-49091080D01*
X71896795Y-49007142D01*
X71907621Y-49005233D01*
X72292114Y-48954614D01*
X72303063Y-48953656D01*
X72652554Y-48938397D01*
X72677429Y-48939777D01*
X72689724Y-48941691D01*
X72698626Y-48940527D01*
X72698628Y-48940527D01*
X72717399Y-48938072D01*
X72721286Y-48937564D01*
X72737621Y-48936500D01*
X103582633Y-48936500D01*
X103602018Y-48938000D01*
G37*
%TD.AperFunction*%
%TD*%
M02*
