%TF.GenerationSoftware,KiCad,Pcbnew,(6.0.8)*%
%TF.CreationDate,2023-02-12T14:01:58-05:00*%
%TF.ProjectId,PBoard PCB,50426f61-7264-4205-9043-422e6b696361,rev?*%
%TF.SameCoordinates,Original*%
%TF.FileFunction,Soldermask,Bot*%
%TF.FilePolarity,Negative*%
%FSLAX46Y46*%
G04 Gerber Fmt 4.6, Leading zero omitted, Abs format (unit mm)*
G04 Created by KiCad (PCBNEW (6.0.8)) date 2023-02-12 14:01:58*
%MOMM*%
%LPD*%
G01*
G04 APERTURE LIST*
%ADD10C,1.100000*%
%ADD11C,1.600000*%
%ADD12C,3.200000*%
%ADD13O,1.700000X1.700000*%
%ADD14R,1.700000X1.700000*%
G04 APERTURE END LIST*
D10*
%TO.C,REF\u002A\u002A*%
X97172000Y-87902000D03*
%TD*%
%TO.C,Kevin Lie-Atjam*%
X77032000Y-114028000D03*
%TD*%
%TO.C,REF\u002A\u002A*%
X96918000Y-102634000D03*
%TD*%
D11*
%TO.C,C6*%
X99996000Y-92202000D03*
X94996000Y-92202000D03*
%TD*%
%TO.C,C13*%
X94702000Y-121822000D03*
X99702000Y-121822000D03*
%TD*%
%TO.C,C14*%
X100330000Y-111506000D03*
X95330000Y-111506000D03*
%TD*%
D10*
%TO.C,Courtesy of*%
X79774000Y-76270000D03*
%TD*%
D12*
%TO.C,M3*%
X103632000Y-53508000D03*
%TD*%
D11*
%TO.C,C3*%
X84328000Y-70064000D03*
X84328000Y-65064000D03*
%TD*%
D12*
%TO.C,M3*%
X72696000Y-130508000D03*
%TD*%
D11*
%TO.C,C2*%
X74422000Y-82082000D03*
X74422000Y-87082000D03*
%TD*%
%TO.C,C4*%
X73914000Y-73446000D03*
X73914000Y-78446000D03*
%TD*%
%TO.C,C12*%
X99770000Y-96676000D03*
X94770000Y-96676000D03*
%TD*%
%TO.C,C15*%
X74168000Y-109474000D03*
X79168000Y-109474000D03*
%TD*%
%TO.C,C5*%
X99692000Y-77216000D03*
X94692000Y-77216000D03*
%TD*%
%TO.C,C10*%
X99742000Y-82042000D03*
X94742000Y-82042000D03*
%TD*%
D10*
%TO.C,REF\u002A\u002A*%
X96918000Y-117366000D03*
%TD*%
D11*
%TO.C,C16*%
X74512000Y-119956000D03*
X79512000Y-119956000D03*
%TD*%
%TO.C,C6*%
X74168000Y-65064000D03*
X74168000Y-70064000D03*
%TD*%
%TO.C,C8*%
X99692000Y-67056000D03*
X94692000Y-67056000D03*
%TD*%
D10*
%TO.C,REF\u002A\u002A*%
X80028000Y-67634000D03*
%TD*%
D12*
%TO.C,M3*%
X103632000Y-130508000D03*
%TD*%
D13*
%TO.C,GPIO*%
X94463000Y-60706000D03*
X91923000Y-60706000D03*
X89383000Y-60706000D03*
X86843000Y-60706000D03*
X84303000Y-60706000D03*
X81763000Y-60706000D03*
X79223000Y-60706000D03*
D14*
X76683000Y-60706000D03*
%TD*%
D11*
%TO.C,C11*%
X99742000Y-106836000D03*
X94742000Y-106836000D03*
%TD*%
D10*
%TO.C,REF\u002A\u002A*%
X96918000Y-72984000D03*
%TD*%
D12*
%TO.C,M3*%
X72696000Y-53508000D03*
%TD*%
D11*
%TO.C,C2*%
X84074000Y-79168000D03*
X84074000Y-74168000D03*
%TD*%
%TO.C,C1*%
X84582000Y-82082000D03*
X84582000Y-87082000D03*
%TD*%
D10*
%TO.C,MARKUP v1.0*%
X80282000Y-84906000D03*
%TD*%
M02*
