%TF.GenerationSoftware,KiCad,Pcbnew,(6.0.8)*%
%TF.CreationDate,2023-02-12T14:01:58-05:00*%
%TF.ProjectId,PBoard PCB,50426f61-7264-4205-9043-422e6b696361,rev?*%
%TF.SameCoordinates,Original*%
%TF.FileFunction,Copper,L1,Top*%
%TF.FilePolarity,Positive*%
%FSLAX46Y46*%
G04 Gerber Fmt 4.6, Leading zero omitted, Abs format (unit mm)*
G04 Created by KiCad (PCBNEW (6.0.8)) date 2023-02-12 14:01:58*
%MOMM*%
%LPD*%
G01*
G04 APERTURE LIST*
G04 Aperture macros list*
%AMRoundRect*
0 Rectangle with rounded corners*
0 $1 Rounding radius*
0 $2 $3 $4 $5 $6 $7 $8 $9 X,Y pos of 4 corners*
0 Add a 4 corners polygon primitive as box body*
4,1,4,$2,$3,$4,$5,$6,$7,$8,$9,$2,$3,0*
0 Add four circle primitives for the rounded corners*
1,1,$1+$1,$2,$3*
1,1,$1+$1,$4,$5*
1,1,$1+$1,$6,$7*
1,1,$1+$1,$8,$9*
0 Add four rect primitives between the rounded corners*
20,1,$1+$1,$2,$3,$4,$5,0*
20,1,$1+$1,$4,$5,$6,$7,0*
20,1,$1+$1,$6,$7,$8,$9,0*
20,1,$1+$1,$8,$9,$2,$3,0*%
G04 Aperture macros list end*
%TA.AperFunction,SMDPad,CuDef*%
%ADD10RoundRect,0.150000X-0.825000X-0.150000X0.825000X-0.150000X0.825000X0.150000X-0.825000X0.150000X0*%
%TD*%
%TA.AperFunction,SMDPad,CuDef*%
%ADD11R,0.700000X0.650000*%
%TD*%
%TA.AperFunction,SMDPad,CuDef*%
%ADD12R,0.650000X0.700000*%
%TD*%
%TA.AperFunction,ComponentPad*%
%ADD13C,1.600000*%
%TD*%
%TA.AperFunction,ComponentPad*%
%ADD14O,1.700000X1.700000*%
%TD*%
%TA.AperFunction,ComponentPad*%
%ADD15R,1.700000X1.700000*%
%TD*%
%TA.AperFunction,ViaPad*%
%ADD16C,0.800000*%
%TD*%
%TA.AperFunction,Conductor*%
%ADD17C,0.250000*%
%TD*%
G04 APERTURE END LIST*
D10*
%TO.P,REF\u002A\u002A,1*%
%TO.N,Net-(IC1-Pad1)*%
X82935000Y-110099000D03*
%TO.P,REF\u002A\u002A,2*%
%TO.N,Net-(IC1-Pad2)*%
X82935000Y-111369000D03*
%TO.P,REF\u002A\u002A,3*%
%TO.N,Net-(IC1-Pad3)*%
X82935000Y-112639000D03*
%TO.P,REF\u002A\u002A,4*%
%TO.N,GND*%
X82935000Y-113909000D03*
%TO.P,REF\u002A\u002A,5*%
X82935000Y-115179000D03*
%TO.P,REF\u002A\u002A,6*%
%TO.N,+3V3*%
X82935000Y-116449000D03*
%TO.P,REF\u002A\u002A,7*%
%TO.N,Net-(IC1-Pad7)*%
X82935000Y-117719000D03*
%TO.P,REF\u002A\u002A,8*%
%TO.N,GND*%
X82935000Y-118989000D03*
%TO.P,REF\u002A\u002A,9*%
%TO.N,Net-(IC1-Pad9)*%
X87885000Y-118989000D03*
%TO.P,REF\u002A\u002A,10*%
%TO.N,Net-(IC1-Pad10)*%
X87885000Y-117719000D03*
%TO.P,REF\u002A\u002A,11*%
%TO.N,Net-(IC1-Pad11)*%
X87885000Y-116449000D03*
%TO.P,REF\u002A\u002A,12*%
%TO.N,Net-(IC1-Pad12)*%
X87885000Y-115179000D03*
%TO.P,REF\u002A\u002A,13*%
%TO.N,Net-(IC1-Pad13)*%
X87885000Y-113909000D03*
%TO.P,REF\u002A\u002A,14*%
%TO.N,Net-(IC1-Pad14)*%
X87885000Y-112639000D03*
%TO.P,REF\u002A\u002A,15*%
%TO.N,Net-(IC1-Pad15)*%
X87885000Y-111369000D03*
%TO.P,REF\u002A\u002A,16*%
%TO.N,+3V3*%
X87885000Y-110099000D03*
%TD*%
D11*
%TO.P,S4,12,VDD*%
%TO.N,+3V3*%
X98462000Y-85022000D03*
%TO.P,S4,11,NC_2*%
%TO.N,unconnected-(U4-Pad11)*%
X97192000Y-85022000D03*
%TO.P,S4,10,VSS*%
%TO.N,GND*%
X95972000Y-85022000D03*
D12*
%TO.P,S4,9,RES*%
%TO.N,unconnected-(U4-Pad9)*%
X95142000Y-85852000D03*
%TO.P,S4,8,EOC_*%
%TO.N,unconnected-(U4-Pad8)*%
X95142000Y-87122000D03*
%TO.P,S4,7,MISO*%
%TO.N,/MISO*%
X95142000Y-88392000D03*
D11*
%TO.P,S4,6,VO-*%
%TO.N,Net-(C7-Pad2)*%
X95972000Y-89222000D03*
%TO.P,S4,5,NC_1*%
%TO.N,unconnected-(U4-Pad5)*%
X97192000Y-89222000D03*
%TO.P,S4,4,VO+*%
%TO.N,Net-(C7-Pad1)*%
X98462000Y-89222000D03*
D12*
%TO.P,S4,3,SCLK/SCL*%
%TO.N,/CLK*%
X99342000Y-88392000D03*
%TO.P,S4,2,MOSI/SDA*%
%TO.N,/MOSI*%
X99342000Y-87122000D03*
%TO.P,S4,1,SS*%
%TO.N,Net-(IC1-Pad11)*%
X99342000Y-85852000D03*
%TD*%
D11*
%TO.P,S2,1,SS*%
%TO.N,Net-(IC1-Pad13)*%
X77978000Y-65464000D03*
%TO.P,S2,2,MOSI/SDA*%
%TO.N,/MOSI*%
X79248000Y-65464000D03*
%TO.P,S2,3,SCLK/SCL*%
%TO.N,/CLK*%
X80518000Y-65464000D03*
D12*
%TO.P,S2,4,VO+*%
%TO.N,Net-(C3-Pad1)*%
X81348000Y-66344000D03*
%TO.P,S2,5,NC_1*%
%TO.N,unconnected-(U2-Pad5)*%
X81348000Y-67614000D03*
%TO.P,S2,6,VO-*%
%TO.N,Net-(C3-Pad2)*%
X81348000Y-68834000D03*
D11*
%TO.P,S2,7,MISO*%
%TO.N,/MISO*%
X80518000Y-69664000D03*
%TO.P,S2,8,EOC_*%
%TO.N,unconnected-(U2-Pad8)*%
X79248000Y-69664000D03*
%TO.P,S2,9,RES*%
%TO.N,unconnected-(U2-Pad9)*%
X77978000Y-69664000D03*
D12*
%TO.P,S2,10,VSS*%
%TO.N,GND*%
X77148000Y-68834000D03*
%TO.P,S2,11,NC_2*%
%TO.N,unconnected-(U2-Pad11)*%
X77148000Y-67614000D03*
%TO.P,S2,12,VDD*%
%TO.N,+3V3*%
X77148000Y-66344000D03*
%TD*%
D13*
%TO.P,C6,1*%
%TO.N,Net-(C7-Pad1)*%
X99996000Y-92202000D03*
%TO.P,C6,2*%
%TO.N,Net-(C7-Pad2)*%
X94996000Y-92202000D03*
%TD*%
%TO.P,C13,2*%
%TO.N,Net-(C11-Pad2)*%
X94702000Y-121822000D03*
%TO.P,C13,1*%
%TO.N,Net-(C11-Pad1)*%
X99702000Y-121822000D03*
%TD*%
%TO.P,C14,1*%
%TO.N,+3V3*%
X100330000Y-111506000D03*
%TO.P,C14,2*%
%TO.N,GND*%
X95330000Y-111506000D03*
%TD*%
D12*
%TO.P,S0,12,VDD*%
%TO.N,+3V3*%
X77402000Y-83616000D03*
%TO.P,S0,11,NC_2*%
%TO.N,unconnected-(U1-Pad11)*%
X77402000Y-84886000D03*
%TO.P,S0,10,VSS*%
%TO.N,GND*%
X77402000Y-86106000D03*
D11*
%TO.P,S0,9,RES*%
%TO.N,unconnected-(U1-Pad9)*%
X78232000Y-86936000D03*
%TO.P,S0,8,EOC_*%
%TO.N,unconnected-(U1-Pad8)*%
X79502000Y-86936000D03*
%TO.P,S0,7,MISO*%
%TO.N,/MISO*%
X80772000Y-86936000D03*
D12*
%TO.P,S0,6,VO-*%
%TO.N,Net-(C15-Pad2)*%
X81602000Y-86106000D03*
%TO.P,S0,5,NC_1*%
%TO.N,unconnected-(U1-Pad5)*%
X81602000Y-84886000D03*
%TO.P,S0,4,VO+*%
%TO.N,Net-(C15-Pad1)*%
X81602000Y-83616000D03*
D11*
%TO.P,S0,3,SCLK/SCL*%
%TO.N,/CLK*%
X80772000Y-82736000D03*
%TO.P,S0,2,MOSI/SDA*%
%TO.N,/MOSI*%
X79502000Y-82736000D03*
%TO.P,S0,1,SS*%
%TO.N,Net-(IC1-Pad15)*%
X78232000Y-82736000D03*
%TD*%
%TO.P,S7,12,VDD*%
%TO.N,+3V3*%
X75742000Y-116908000D03*
%TO.P,S7,11,NC_2*%
%TO.N,unconnected-(U7-Pad11)*%
X77012000Y-116908000D03*
%TO.P,S7,10,VSS*%
%TO.N,GND*%
X78232000Y-116908000D03*
D12*
%TO.P,S7,9,RES*%
%TO.N,unconnected-(U7-Pad9)*%
X79062000Y-116078000D03*
%TO.P,S7,8,EOC_*%
%TO.N,unconnected-(U7-Pad8)*%
X79062000Y-114808000D03*
%TO.P,S7,7,MISO*%
%TO.N,/MISO*%
X79062000Y-113538000D03*
D11*
%TO.P,S7,6,VO-*%
%TO.N,Net-(C13-Pad2)*%
X78232000Y-112708000D03*
%TO.P,S7,5,NC_1*%
%TO.N,unconnected-(U7-Pad5)*%
X77012000Y-112708000D03*
%TO.P,S7,4,VO+*%
%TO.N,Net-(C13-Pad1)*%
X75742000Y-112708000D03*
D12*
%TO.P,S7,3,SCLK/SCL*%
%TO.N,/CLK*%
X74862000Y-113538000D03*
%TO.P,S7,2,MOSI/SDA*%
%TO.N,/MOSI*%
X74862000Y-114808000D03*
%TO.P,S7,1,SS*%
%TO.N,Net-(IC1-Pad7)*%
X74862000Y-116078000D03*
%TD*%
D13*
%TO.P,C3,2*%
%TO.N,Net-(C3-Pad2)*%
X84328000Y-70064000D03*
%TO.P,C3,1*%
%TO.N,Net-(C3-Pad1)*%
X84328000Y-65064000D03*
%TD*%
%TO.P,C2,1*%
%TO.N,+3V3*%
X74422000Y-82082000D03*
%TO.P,C2,2*%
%TO.N,GND*%
X74422000Y-87082000D03*
%TD*%
%TO.P,C4,1*%
%TO.N,+3V3*%
X73914000Y-73446000D03*
%TO.P,C4,2*%
%TO.N,GND*%
X73914000Y-78446000D03*
%TD*%
%TO.P,C12,1*%
%TO.N,+3V3*%
X99770000Y-96676000D03*
%TO.P,C12,2*%
%TO.N,GND*%
X94770000Y-96676000D03*
%TD*%
%TO.P,C15,1*%
%TO.N,Net-(C13-Pad1)*%
X74168000Y-109474000D03*
%TO.P,C15,2*%
%TO.N,Net-(C13-Pad2)*%
X79168000Y-109474000D03*
%TD*%
%TO.P,C5,1*%
%TO.N,Net-(C5-Pad1)*%
X99692000Y-77216000D03*
%TO.P,C5,2*%
%TO.N,Net-(C5-Pad2)*%
X94692000Y-77216000D03*
%TD*%
%TO.P,C10,1*%
%TO.N,+3V3*%
X99742000Y-82042000D03*
%TO.P,C10,2*%
%TO.N,GND*%
X94742000Y-82042000D03*
%TD*%
%TO.P,C16,1*%
%TO.N,+3V3*%
X74512000Y-119956000D03*
%TO.P,C16,2*%
%TO.N,GND*%
X79512000Y-119956000D03*
%TD*%
%TO.P,C6,1*%
%TO.N,+3V3*%
X74168000Y-65064000D03*
%TO.P,C6,2*%
%TO.N,GND*%
X74168000Y-70064000D03*
%TD*%
%TO.P,C8,1*%
%TO.N,+3V3*%
X99692000Y-67056000D03*
%TO.P,C8,2*%
%TO.N,GND*%
X94692000Y-67056000D03*
%TD*%
D11*
%TO.P,S5,12,VDD*%
%TO.N,+3V3*%
X98208000Y-99754000D03*
%TO.P,S5,11,NC_2*%
%TO.N,unconnected-(U5-Pad11)*%
X96938000Y-99754000D03*
%TO.P,S5,10,VSS*%
%TO.N,GND*%
X95718000Y-99754000D03*
D12*
%TO.P,S5,9,RES*%
%TO.N,unconnected-(U5-Pad9)*%
X94888000Y-100584000D03*
%TO.P,S5,8,EOC_*%
%TO.N,unconnected-(U5-Pad8)*%
X94888000Y-101854000D03*
%TO.P,S5,7,MISO*%
%TO.N,/MISO*%
X94888000Y-103124000D03*
D11*
%TO.P,S5,6,VO-*%
%TO.N,Net-(C9-Pad2)*%
X95718000Y-103954000D03*
%TO.P,S5,5,NC_1*%
%TO.N,unconnected-(U5-Pad5)*%
X96938000Y-103954000D03*
%TO.P,S5,4,VO+*%
%TO.N,Net-(C9-Pad1)*%
X98208000Y-103954000D03*
D12*
%TO.P,S5,3,SCLK/SCL*%
%TO.N,/CLK*%
X99088000Y-103124000D03*
%TO.P,S5,2,MOSI/SDA*%
%TO.N,/MOSI*%
X99088000Y-101854000D03*
%TO.P,S5,1,SS*%
%TO.N,Net-(IC1-Pad10)*%
X99088000Y-100584000D03*
%TD*%
D11*
%TO.P,S3,12,VDD*%
%TO.N,+3V3*%
X98208000Y-70104000D03*
%TO.P,S3,11,NC_2*%
%TO.N,unconnected-(U3-Pad11)*%
X96938000Y-70104000D03*
%TO.P,S3,10,VSS*%
%TO.N,GND*%
X95718000Y-70104000D03*
D12*
%TO.P,S3,9,RES*%
%TO.N,unconnected-(U3-Pad9)*%
X94888000Y-70934000D03*
%TO.P,S3,8,EOC_*%
%TO.N,unconnected-(U3-Pad8)*%
X94888000Y-72204000D03*
%TO.P,S3,7,MISO*%
%TO.N,/MISO*%
X94888000Y-73474000D03*
D11*
%TO.P,S3,6,VO-*%
%TO.N,Net-(C5-Pad2)*%
X95718000Y-74304000D03*
%TO.P,S3,5,NC_1*%
%TO.N,unconnected-(U3-Pad5)*%
X96938000Y-74304000D03*
%TO.P,S3,4,VO+*%
%TO.N,Net-(C5-Pad1)*%
X98208000Y-74304000D03*
D12*
%TO.P,S3,3,SCLK/SCL*%
%TO.N,/CLK*%
X99088000Y-73474000D03*
%TO.P,S3,2,MOSI/SDA*%
%TO.N,/MOSI*%
X99088000Y-72204000D03*
%TO.P,S3,1,SS*%
%TO.N,Net-(IC1-Pad12)*%
X99088000Y-70934000D03*
%TD*%
D11*
%TO.P,S1,1,SS*%
%TO.N,Net-(IC1-Pad14)*%
X77724000Y-74100000D03*
%TO.P,S1,2,MOSI/SDA*%
%TO.N,/MOSI*%
X78994000Y-74100000D03*
%TO.P,S1,3,SCLK/SCL*%
%TO.N,/CLK*%
X80264000Y-74100000D03*
D12*
%TO.P,S1,4,VO+*%
%TO.N,Net-(C1-Pad1)*%
X81094000Y-74980000D03*
%TO.P,S1,5,NC_1*%
%TO.N,unconnected-(U1-Pad5)*%
X81094000Y-76250000D03*
%TO.P,S1,6,VO-*%
%TO.N,Net-(C1-Pad2)*%
X81094000Y-77470000D03*
D11*
%TO.P,S1,7,MISO*%
%TO.N,/MISO*%
X80264000Y-78300000D03*
%TO.P,S1,8,EOC_*%
%TO.N,unconnected-(U1-Pad8)*%
X78994000Y-78300000D03*
%TO.P,S1,9,RES*%
%TO.N,unconnected-(U1-Pad9)*%
X77724000Y-78300000D03*
D12*
%TO.P,S1,10,VSS*%
%TO.N,GND*%
X76894000Y-77470000D03*
%TO.P,S1,11,NC_2*%
%TO.N,unconnected-(U1-Pad11)*%
X76894000Y-76250000D03*
%TO.P,S1,12,VDD*%
%TO.N,+3V3*%
X76894000Y-74980000D03*
%TD*%
D14*
%TO.P,GPIO,8,Pin_8*%
%TO.N,GND*%
X94463000Y-60706000D03*
%TO.P,GPIO,7,Pin_7*%
%TO.N,+3V3*%
X91923000Y-60706000D03*
%TO.P,GPIO,6,Pin_6*%
%TO.N,Net-(IC1-Pad3)*%
X89383000Y-60706000D03*
%TO.P,GPIO,5,Pin_5*%
%TO.N,Net-(IC1-Pad2)*%
X86843000Y-60706000D03*
%TO.P,GPIO,4,Pin_4*%
%TO.N,Net-(IC1-Pad1)*%
X84303000Y-60706000D03*
%TO.P,GPIO,3,Pin_3*%
%TO.N,/CLK*%
X81763000Y-60706000D03*
%TO.P,GPIO,2,Pin_2*%
%TO.N,/MOSI*%
X79223000Y-60706000D03*
D15*
%TO.P,GPIO,1,Pin_1*%
%TO.N,/MISO*%
X76683000Y-60706000D03*
%TD*%
D13*
%TO.P,C11,1*%
%TO.N,Net-(C9-Pad1)*%
X99742000Y-106836000D03*
%TO.P,C11,2*%
%TO.N,Net-(C9-Pad2)*%
X94742000Y-106836000D03*
%TD*%
%TO.P,C2,2*%
%TO.N,Net-(C1-Pad2)*%
X84074000Y-79168000D03*
%TO.P,C2,1*%
%TO.N,Net-(C1-Pad1)*%
X84074000Y-74168000D03*
%TD*%
%TO.P,C1,1*%
%TO.N,Net-(C15-Pad1)*%
X84582000Y-82082000D03*
%TO.P,C1,2*%
%TO.N,Net-(C15-Pad2)*%
X84582000Y-87082000D03*
%TD*%
D11*
%TO.P,S6,12,VDD*%
%TO.N,+3V3*%
X98208000Y-114486000D03*
%TO.P,S6,11,NC_2*%
%TO.N,unconnected-(U6-Pad11)*%
X96938000Y-114486000D03*
%TO.P,S6,10,VSS*%
%TO.N,GND*%
X95718000Y-114486000D03*
D12*
%TO.P,S6,9,RES*%
%TO.N,unconnected-(U6-Pad9)*%
X94888000Y-115316000D03*
%TO.P,S6,8,EOC_*%
%TO.N,unconnected-(U6-Pad8)*%
X94888000Y-116586000D03*
%TO.P,S6,7,MISO*%
%TO.N,/MISO*%
X94888000Y-117856000D03*
D11*
%TO.P,S6,6,VO-*%
%TO.N,Net-(C11-Pad2)*%
X95718000Y-118686000D03*
%TO.P,S6,5,NC_1*%
%TO.N,unconnected-(U6-Pad5)*%
X96938000Y-118686000D03*
%TO.P,S6,4,VO+*%
%TO.N,Net-(C11-Pad1)*%
X98208000Y-118686000D03*
D12*
%TO.P,S6,3,SCLK/SCL*%
%TO.N,/CLK*%
X99088000Y-117856000D03*
%TO.P,S6,2,MOSI/SDA*%
%TO.N,/MOSI*%
X99088000Y-116586000D03*
%TO.P,S6,1,SS*%
%TO.N,Net-(IC1-Pad9)*%
X99088000Y-115316000D03*
%TD*%
D16*
%TO.N,GND*%
X81600000Y-113528000D03*
X81600000Y-120132000D03*
X74488000Y-67554000D03*
X73980000Y-75936000D03*
X74488000Y-84826000D03*
X77028000Y-118862000D03*
X97094000Y-68062000D03*
X97451299Y-83151299D03*
X96586000Y-98034000D03*
X96755213Y-113311385D03*
%TO.N,+3V3*%
X103632000Y-64008000D03*
X101600000Y-66040000D03*
%TO.N,/CLK*%
X88392000Y-94234000D03*
X91948000Y-74676000D03*
X93472000Y-91186000D03*
X75692000Y-63500000D03*
X92456000Y-79756000D03*
X89383500Y-86106000D03*
X93218000Y-97536000D03*
X93180500Y-112776000D03*
X78486000Y-63500000D03*
X93218000Y-108458000D03*
%TO.N,/MOSI*%
X92182500Y-109982000D03*
X92202000Y-98298000D03*
X91282500Y-80518000D03*
X87667500Y-96266000D03*
X92710000Y-95250000D03*
X90170000Y-74168000D03*
X88138000Y-77978000D03*
X92694299Y-111744299D03*
X89339299Y-78925299D03*
X91282500Y-92202000D03*
%TO.N,/MISO*%
X88138000Y-86614000D03*
X99060000Y-69088000D03*
X92456000Y-88138000D03*
X80010000Y-81026000D03*
X94488000Y-69088000D03*
X95176802Y-83893198D03*
X94488000Y-99314000D03*
X100657198Y-83893198D03*
X88138000Y-91186000D03*
X99874300Y-99112300D03*
%TO.N,Net-(IC1-Pad13)*%
X74111247Y-63048753D03*
X73660000Y-71374000D03*
%TO.N,Net-(IC1-Pad15)*%
X72898000Y-80518000D03*
X72860500Y-88138000D03*
%TD*%
D17*
%TO.N,Net-(C1-Pad2)*%
X82376000Y-77470000D02*
X84074000Y-79168000D01*
X81094000Y-77470000D02*
X82376000Y-77470000D01*
%TO.N,GND*%
X82935000Y-114863000D02*
X81600000Y-113528000D01*
X82935000Y-115179000D02*
X82935000Y-114863000D01*
X81981000Y-113909000D02*
X81600000Y-113528000D01*
X82935000Y-113909000D02*
X81981000Y-113909000D01*
X82743000Y-118989000D02*
X81600000Y-120132000D01*
X82935000Y-118989000D02*
X82743000Y-118989000D01*
%TO.N,+3V3*%
X73660000Y-116643604D02*
X73660000Y-114428396D01*
X72937000Y-117366604D02*
X73660000Y-116643604D01*
X72937000Y-121325396D02*
X72937000Y-117366604D01*
X72136000Y-112904396D02*
X72136000Y-82804000D01*
X73660000Y-114428396D02*
X72136000Y-112904396D01*
X73727604Y-122116000D02*
X72937000Y-121325396D01*
X80886000Y-122116000D02*
X73727604Y-122116000D01*
X83074000Y-119928000D02*
X80886000Y-122116000D01*
X84090000Y-119928000D02*
X83074000Y-119928000D01*
X84822000Y-117766000D02*
X84822000Y-119196000D01*
X84822000Y-119196000D02*
X84090000Y-119928000D01*
X83505000Y-116449000D02*
X84822000Y-117766000D01*
X82935000Y-116449000D02*
X83505000Y-116449000D01*
%TO.N,Net-(IC1-Pad3)*%
X92177000Y-63500000D02*
X89383000Y-60706000D01*
X101645594Y-63500000D02*
X92177000Y-63500000D01*
X104064000Y-65918406D02*
X101645594Y-63500000D01*
X104064000Y-79925980D02*
X104064000Y-65918406D01*
X101992000Y-81997980D02*
X104064000Y-79925980D01*
X101992000Y-82293507D02*
X101992000Y-81997980D01*
X105090396Y-85391903D02*
X101992000Y-82293507D01*
X105090396Y-94393584D02*
X105090396Y-85391903D01*
X101992000Y-97491980D02*
X105090396Y-94393584D01*
X101992000Y-100306020D02*
X101992000Y-97491980D01*
X105080000Y-103394020D02*
X101992000Y-100306020D01*
X105080000Y-108119980D02*
X105080000Y-103394020D01*
X103418000Y-109781980D02*
X105080000Y-108119980D01*
X103418000Y-122987188D02*
X103418000Y-109781980D01*
X87752802Y-125810000D02*
X100595188Y-125810000D01*
X100595188Y-125810000D02*
X103418000Y-122987188D01*
X85272000Y-114406000D02*
X85272000Y-123329198D01*
X83505000Y-112639000D02*
X85272000Y-114406000D01*
X85272000Y-123329198D02*
X87752802Y-125810000D01*
X82935000Y-112639000D02*
X83505000Y-112639000D01*
%TO.N,Net-(IC1-Pad2)*%
X90087000Y-63950000D02*
X86843000Y-60706000D01*
X101459198Y-63950000D02*
X90087000Y-63950000D01*
X103614000Y-66104802D02*
X101459198Y-63950000D01*
X103614000Y-79739584D02*
X103614000Y-66104802D01*
X101542000Y-81811584D02*
X103614000Y-79739584D01*
X101542000Y-82479903D02*
X101542000Y-81811584D01*
X104640396Y-85578299D02*
X101542000Y-82479903D01*
X104640396Y-94207188D02*
X104640396Y-85578299D01*
X101542000Y-97305584D02*
X104640396Y-94207188D01*
X101542000Y-100492416D02*
X101542000Y-97305584D01*
X104630000Y-103580416D02*
X101542000Y-100492416D01*
X104630000Y-107933584D02*
X104630000Y-103580416D01*
X102968000Y-109595584D02*
X104630000Y-107933584D01*
X102968000Y-122800792D02*
X102968000Y-109595584D01*
X100408792Y-125360000D02*
X102968000Y-122800792D01*
X85722000Y-123142802D02*
X87939198Y-125360000D01*
X85722000Y-113779249D02*
X85722000Y-123142802D01*
X87939198Y-125360000D02*
X100408792Y-125360000D01*
X82935000Y-111369000D02*
X83311751Y-111369000D01*
X83311751Y-111369000D02*
X85722000Y-113779249D01*
%TO.N,Net-(IC1-Pad1)*%
X101272802Y-64400000D02*
X87997000Y-64400000D01*
X103164000Y-66291198D02*
X101272802Y-64400000D01*
X87997000Y-64400000D02*
X84303000Y-60706000D01*
X103164000Y-79553188D02*
X103164000Y-66291198D01*
X100867000Y-81850188D02*
X103164000Y-79553188D01*
X100867000Y-82441299D02*
X100867000Y-81850188D01*
X101092000Y-97119188D02*
X104190396Y-94020792D01*
X104180000Y-103766812D02*
X101092000Y-100678812D01*
X104180000Y-107747188D02*
X104180000Y-103766812D01*
X102518000Y-109409188D02*
X104180000Y-107747188D01*
X88125594Y-124910000D02*
X100222396Y-124910000D01*
X86172000Y-122956406D02*
X88125594Y-124910000D01*
X104190396Y-85764695D02*
X100867000Y-82441299D01*
X100222396Y-124910000D02*
X102518000Y-122614396D01*
X86172000Y-112959249D02*
X86172000Y-122956406D01*
X104190396Y-94020792D02*
X104190396Y-85764695D01*
X83311751Y-110099000D02*
X86172000Y-112959249D01*
X102518000Y-122614396D02*
X102518000Y-109409188D01*
X101092000Y-100678812D02*
X101092000Y-97119188D01*
X82935000Y-110099000D02*
X83311751Y-110099000D01*
%TO.N,+3V3*%
X84090000Y-119928000D02*
X84314000Y-119704000D01*
X81417000Y-116449000D02*
X80645000Y-117221000D01*
X82935000Y-116449000D02*
X81417000Y-116449000D01*
%TO.N,Net-(IC1-Pad7)*%
X81981000Y-117719000D02*
X80772000Y-118928000D01*
X82935000Y-117719000D02*
X81981000Y-117719000D01*
X80772000Y-120650000D02*
X80772000Y-118928000D01*
%TO.N,Net-(IC1-Pad9)*%
X87885000Y-122723000D02*
X88146000Y-122984000D01*
X87885000Y-118989000D02*
X87885000Y-122723000D01*
X88146000Y-122984000D02*
X89622000Y-124460000D01*
%TO.N,Net-(IC1-Pad10)*%
X91908000Y-114142000D02*
X91908000Y-111506000D01*
X87885000Y-117719000D02*
X88331000Y-117719000D01*
X88331000Y-117719000D02*
X91908000Y-114142000D01*
%TO.N,Net-(IC1-Pad11)*%
X88479396Y-116449000D02*
X91458000Y-113470396D01*
X87885000Y-116449000D02*
X88479396Y-116449000D01*
X91458000Y-113322000D02*
X91458000Y-97732000D01*
X91458000Y-113470396D02*
X91458000Y-113322000D01*
%TO.N,Net-(IC1-Pad12)*%
X89113000Y-115179000D02*
X91008000Y-113284000D01*
X91008000Y-113284000D02*
X91008000Y-95063604D01*
X87885000Y-115179000D02*
X89113000Y-115179000D01*
%TO.N,Net-(IC1-Pad13)*%
X81591604Y-71374000D02*
X73660000Y-71374000D01*
X85863000Y-71639000D02*
X81856604Y-71639000D01*
X90558000Y-112952000D02*
X90558000Y-76334000D01*
X90558000Y-76334000D02*
X85863000Y-71639000D01*
X81856604Y-71639000D02*
X81591604Y-71374000D01*
X89601000Y-113909000D02*
X90558000Y-112952000D01*
X87885000Y-113909000D02*
X89601000Y-113909000D01*
%TO.N,Net-(IC1-Pad14)*%
X89093000Y-112639000D02*
X90108000Y-111624000D01*
X90108000Y-76520396D02*
X90108000Y-111368000D01*
X90108000Y-111624000D02*
X90108000Y-111368000D01*
X87885000Y-112639000D02*
X89093000Y-112639000D01*
%TO.N,Net-(IC1-Pad15)*%
X87885000Y-111369000D02*
X89093000Y-111369000D01*
X89658000Y-91436000D02*
X89658000Y-110804000D01*
X89093000Y-111369000D02*
X89658000Y-110804000D01*
%TO.N,+3V3*%
X87511000Y-110099000D02*
X86182000Y-108770000D01*
X87885000Y-110099000D02*
X87511000Y-110099000D01*
%TO.N,GND*%
X75768000Y-68834000D02*
X74488000Y-67554000D01*
X77148000Y-68834000D02*
X75768000Y-68834000D01*
X75514000Y-77470000D02*
X73980000Y-75936000D01*
X76894000Y-77470000D02*
X75514000Y-77470000D01*
X75768000Y-86106000D02*
X74488000Y-84826000D01*
X77402000Y-86106000D02*
X75768000Y-86106000D01*
X78232000Y-117658000D02*
X77028000Y-118862000D01*
X78232000Y-116908000D02*
X78232000Y-117658000D01*
X95718000Y-69438000D02*
X97094000Y-68062000D01*
X95718000Y-70104000D02*
X95718000Y-69438000D01*
X97348000Y-83254598D02*
X97451299Y-83151299D01*
X97348000Y-83302000D02*
X97348000Y-83254598D01*
X95972000Y-84678000D02*
X97348000Y-83302000D01*
X95972000Y-85022000D02*
X95972000Y-84678000D01*
X95718000Y-98902000D02*
X96586000Y-98034000D01*
X95718000Y-99754000D02*
X95718000Y-98902000D01*
X95718000Y-114348598D02*
X96755213Y-113311385D01*
X95718000Y-114486000D02*
X95718000Y-114348598D01*
%TO.N,+3V3*%
X86182000Y-108770000D02*
X81855604Y-108770000D01*
X100038792Y-82042000D02*
X99742000Y-82042000D01*
X72604000Y-73446000D02*
X72136000Y-73914000D01*
X101382198Y-83592893D02*
X99831305Y-82042000D01*
X100599300Y-100822508D02*
X100599300Y-97505300D01*
X102714000Y-72105604D02*
X99785000Y-69176604D01*
X75319208Y-58536000D02*
X89753000Y-58536000D01*
X103740396Y-93834396D02*
X103730000Y-93824000D01*
X100614802Y-96676000D02*
X100898792Y-96676000D01*
X74168000Y-65064000D02*
X72350000Y-65064000D01*
X98208000Y-68540000D02*
X98208000Y-70104000D01*
X103730000Y-86329604D02*
X101382198Y-83981802D01*
X72136000Y-73914000D02*
X72136000Y-65278000D01*
X100330000Y-110960792D02*
X103730000Y-107560792D01*
X74512000Y-119956000D02*
X74512000Y-118138000D01*
X99742000Y-82042000D02*
X99742000Y-83742000D01*
X102714000Y-75536000D02*
X102714000Y-72105604D01*
X99692000Y-67056000D02*
X100708000Y-66040000D01*
X75868000Y-82082000D02*
X77402000Y-83616000D01*
X100330000Y-111506000D02*
X100330000Y-112364000D01*
X99692000Y-67056000D02*
X98208000Y-68540000D01*
X94267000Y-63050000D02*
X91923000Y-60706000D01*
X102714000Y-75536000D02*
X102714000Y-79366792D01*
X102789990Y-64008000D02*
X101831990Y-63050000D01*
X72136000Y-82804000D02*
X72136000Y-73914000D01*
X89753000Y-58536000D02*
X91923000Y-60706000D01*
X103632000Y-64008000D02*
X102789990Y-64008000D01*
X103730000Y-103953208D02*
X100599300Y-100822508D01*
X80772000Y-109853604D02*
X80772000Y-117094000D01*
X100330000Y-112364000D02*
X98208000Y-114486000D01*
X75360000Y-73446000D02*
X76894000Y-74980000D01*
X101831990Y-63050000D02*
X94267000Y-63050000D01*
X81855604Y-108770000D02*
X80772000Y-109853604D01*
X99770000Y-98192000D02*
X98208000Y-99754000D01*
X103730000Y-93824000D02*
X103730000Y-86329604D01*
X72136000Y-65278000D02*
X72136000Y-61719208D01*
X74512000Y-119956000D02*
X77910000Y-119956000D01*
X100599300Y-97505300D02*
X99770000Y-96676000D01*
X75868000Y-65064000D02*
X77148000Y-66344000D01*
X100898792Y-96676000D02*
X103740396Y-93834396D01*
X74422000Y-82082000D02*
X72858000Y-82082000D01*
X99742000Y-83742000D02*
X98462000Y-85022000D01*
X99785000Y-69176604D02*
X99785000Y-67149000D01*
X103730000Y-107560792D02*
X103730000Y-103953208D01*
X74168000Y-65064000D02*
X75868000Y-65064000D01*
X101382198Y-83981802D02*
X101382198Y-83592893D01*
X102714000Y-79366792D02*
X100038792Y-82042000D01*
X77910000Y-119956000D02*
X80645000Y-117221000D01*
X74512000Y-118138000D02*
X75742000Y-116908000D01*
X74422000Y-82082000D02*
X75868000Y-82082000D01*
X80772000Y-117094000D02*
X80645000Y-117221000D01*
X73914000Y-73446000D02*
X75360000Y-73446000D01*
X72858000Y-82082000D02*
X72136000Y-82804000D01*
X99831305Y-82042000D02*
X99742000Y-82042000D01*
X72350000Y-65064000D02*
X72136000Y-65278000D01*
X99770000Y-96676000D02*
X99770000Y-98192000D01*
X99785000Y-67149000D02*
X99692000Y-67056000D01*
X100708000Y-66040000D02*
X101600000Y-66040000D01*
X73914000Y-73446000D02*
X72604000Y-73446000D01*
X72136000Y-61719208D02*
X75319208Y-58536000D01*
X100330000Y-111506000D02*
X100330000Y-110960792D01*
%TO.N,/CLK*%
X74988000Y-62796000D02*
X74988000Y-59503604D01*
X93472000Y-98552000D02*
X93472000Y-97790000D01*
X86468000Y-80772000D02*
X89208000Y-78032000D01*
X101930000Y-89154000D02*
X101168000Y-88392000D01*
X82326000Y-63681000D02*
X80543000Y-65464000D01*
X100933208Y-94096000D02*
X101930000Y-93099208D01*
X75692000Y-63500000D02*
X74988000Y-62796000D01*
X101930000Y-93099208D02*
X101930000Y-89154000D01*
X99917208Y-108828000D02*
X93588000Y-108828000D01*
X80264000Y-74100000D02*
X80289000Y-74100000D01*
X75505604Y-58986000D02*
X80043000Y-58986000D01*
X100914000Y-78621208D02*
X100171208Y-79364000D01*
X80289000Y-74100000D02*
X81400000Y-72989000D01*
X93180500Y-112776000D02*
X93180500Y-117259896D01*
X88392000Y-106551604D02*
X87501604Y-107442000D01*
X93472000Y-97790000D02*
X93218000Y-97536000D01*
X101930000Y-106815208D02*
X99917208Y-108828000D01*
X92632500Y-99391500D02*
X93472000Y-98552000D01*
X99088000Y-103124000D02*
X100355208Y-103124000D01*
X91948000Y-74676000D02*
X92514000Y-74110000D01*
X100863000Y-117881000D02*
X99113000Y-117881000D01*
X89208000Y-76893188D02*
X89208000Y-78032000D01*
X80043000Y-58986000D02*
X81763000Y-60706000D01*
X101930000Y-104698792D02*
X101930000Y-106815208D01*
X92632500Y-107872500D02*
X92632500Y-99391500D01*
X73036000Y-111687000D02*
X74862000Y-113513000D01*
X99890000Y-73474000D02*
X100914000Y-74498000D01*
X91948000Y-122936000D02*
X92572000Y-123560000D01*
X99088000Y-73474000D02*
X99890000Y-73474000D01*
X86468000Y-83190500D02*
X89383500Y-86106000D01*
X88392000Y-94234000D02*
X88392000Y-106551604D01*
X87501604Y-107442000D02*
X73406000Y-107442000D01*
X93218000Y-108458000D02*
X92632500Y-107872500D01*
X92514000Y-74110000D02*
X92514000Y-70826188D01*
X93180500Y-117259896D02*
X91948000Y-118492396D01*
X95299009Y-94096000D02*
X100933208Y-94096000D01*
X100171208Y-79364000D02*
X92848000Y-79364000D01*
X80543000Y-65464000D02*
X80518000Y-65464000D01*
X92572000Y-123560000D02*
X99663208Y-123560000D01*
X100914000Y-74498000D02*
X100914000Y-78621208D01*
X93472000Y-92268991D02*
X95299009Y-94096000D01*
X101168000Y-122055208D02*
X101168000Y-118186000D01*
X91948000Y-118492396D02*
X91948000Y-122936000D01*
X81400000Y-72989000D02*
X85303812Y-72989000D01*
X74862000Y-113513000D02*
X74862000Y-113538000D01*
X85303812Y-72989000D02*
X89208000Y-76893188D01*
X73406000Y-107442000D02*
X73036000Y-107812000D01*
X101168000Y-88392000D02*
X99342000Y-88392000D01*
X93472000Y-91186000D02*
X93472000Y-92268991D01*
X85368812Y-63681000D02*
X82326000Y-63681000D01*
X93588000Y-108828000D02*
X93218000Y-108458000D01*
X86468000Y-80772000D02*
X86468000Y-83190500D01*
X101168000Y-118186000D02*
X100863000Y-117881000D01*
X74988000Y-59503604D02*
X75505604Y-58986000D01*
X92514000Y-70826188D02*
X85368812Y-63681000D01*
X82736000Y-80772000D02*
X86468000Y-80772000D01*
X100355208Y-103124000D02*
X101930000Y-104698792D01*
X99663208Y-123560000D02*
X101168000Y-122055208D01*
X73036000Y-107812000D02*
X73036000Y-111687000D01*
X80450000Y-65464000D02*
X78486000Y-63500000D01*
X92848000Y-79364000D02*
X92456000Y-79756000D01*
X80518000Y-65464000D02*
X80450000Y-65464000D01*
X99113000Y-117881000D02*
X99088000Y-117856000D01*
X80772000Y-82736000D02*
X82736000Y-80772000D01*
%TO.N,/MOSI*%
X89368000Y-122428000D02*
X90950000Y-124010000D01*
X76708000Y-62992000D02*
X76962000Y-63246000D01*
X89368000Y-120436000D02*
X89368000Y-122428000D01*
X92694299Y-111744299D02*
X92456000Y-111982598D01*
X92710000Y-76200000D02*
X92202000Y-76200000D01*
X87884000Y-96482500D02*
X87884000Y-106299000D01*
X92964000Y-75946000D02*
X92710000Y-76200000D01*
X80019208Y-62775000D02*
X80475208Y-63231000D01*
X101618000Y-117094000D02*
X101110000Y-116586000D01*
X72586000Y-112718000D02*
X74676000Y-114808000D01*
X79180000Y-65464000D02*
X76962000Y-63246000D01*
X76708000Y-62992000D02*
X76925000Y-62775000D01*
X89658000Y-78606598D02*
X89658000Y-76706792D01*
X92964000Y-70639792D02*
X92964000Y-75946000D01*
X93753604Y-79814000D02*
X100357604Y-79814000D01*
X80555000Y-72539000D02*
X78994000Y-74100000D01*
X91186000Y-92105500D02*
X91186000Y-80614500D01*
X92182500Y-109982000D02*
X92182500Y-98317500D01*
X102380000Y-104512396D02*
X99721604Y-101854000D01*
X79223000Y-60706000D02*
X77953000Y-59436000D01*
X99721604Y-101854000D02*
X99088000Y-101854000D01*
X85555208Y-63231000D02*
X92964000Y-70639792D01*
X101431604Y-87122000D02*
X99342000Y-87122000D01*
X87667500Y-96266000D02*
X87884000Y-96482500D01*
X101364000Y-78807604D02*
X101364000Y-73152000D01*
X93414000Y-94546000D02*
X101119604Y-94546000D01*
X93049604Y-80518000D02*
X93753604Y-79814000D01*
X101110000Y-116586000D02*
X99088000Y-116586000D01*
X75438000Y-59690000D02*
X75438000Y-61722000D01*
X101364000Y-73152000D02*
X100416000Y-72204000D01*
X91282500Y-92202000D02*
X91186000Y-92105500D01*
X92456000Y-111982598D02*
X92456000Y-117348000D01*
X92182500Y-109982000D02*
X92886500Y-109278000D01*
X101618000Y-122241604D02*
X101618000Y-117094000D01*
X77953000Y-59436000D02*
X75692000Y-59436000D01*
X102380000Y-93285604D02*
X102380000Y-88070396D01*
X100416000Y-72204000D02*
X99088000Y-72204000D01*
X73219604Y-106992000D02*
X72586000Y-107625604D01*
X100357604Y-79814000D02*
X101364000Y-78807604D01*
X75692000Y-59436000D02*
X75438000Y-59690000D01*
X92886500Y-109278000D02*
X100103604Y-109278000D01*
X85490208Y-72539000D02*
X80555000Y-72539000D01*
X89658000Y-76706792D02*
X85490208Y-72539000D01*
X89339299Y-78925299D02*
X89658000Y-78606598D01*
X92710000Y-95250000D02*
X93414000Y-94546000D01*
X76925000Y-62775000D02*
X80019208Y-62775000D01*
X87191000Y-106992000D02*
X73219604Y-106992000D01*
X85794000Y-80322000D02*
X88138000Y-77978000D01*
X92202000Y-76200000D02*
X90170000Y-74168000D01*
X81916000Y-80322000D02*
X85794000Y-80322000D01*
X79248000Y-65464000D02*
X79180000Y-65464000D01*
X90950000Y-124010000D02*
X99849604Y-124010000D01*
X72586000Y-107625604D02*
X72586000Y-112718000D01*
X80475208Y-63231000D02*
X85555208Y-63231000D01*
X74676000Y-114808000D02*
X74862000Y-114808000D01*
X101119604Y-94546000D02*
X102380000Y-93285604D01*
X92456000Y-117348000D02*
X89368000Y-120436000D01*
X91186000Y-80614500D02*
X91282500Y-80518000D01*
X91282500Y-80518000D02*
X93049604Y-80518000D01*
X87884000Y-106299000D02*
X87191000Y-106992000D01*
X102380000Y-88070396D02*
X101431604Y-87122000D01*
X75438000Y-61722000D02*
X76708000Y-62992000D01*
X92182500Y-98317500D02*
X92202000Y-98298000D01*
X99849604Y-124010000D02*
X101618000Y-122241604D01*
X79502000Y-82736000D02*
X81916000Y-80322000D01*
X100103604Y-109278000D02*
X102380000Y-107001604D01*
X102380000Y-107001604D02*
X102380000Y-104512396D01*
%TO.N,/MISO*%
X93472000Y-72644000D02*
X94302000Y-73474000D01*
X95504000Y-113538000D02*
X94234000Y-113538000D01*
X93980000Y-113792000D02*
X93980000Y-117602000D01*
X80322000Y-112278000D02*
X80322000Y-109667208D01*
X93178000Y-102362000D02*
X93178000Y-99608000D01*
X93472000Y-71784187D02*
X93472000Y-72644000D01*
X93980000Y-72566000D02*
X94888000Y-73474000D01*
X102264000Y-72292000D02*
X99060000Y-69088000D01*
X92456000Y-88138000D02*
X92456000Y-86868000D01*
X93940000Y-103124000D02*
X93178000Y-102362000D01*
X94234000Y-99568000D02*
X94234000Y-102525000D01*
X86049396Y-71189000D02*
X92076396Y-77216000D01*
X88138000Y-86614000D02*
X85344000Y-89408000D01*
X96266000Y-83312000D02*
X98864000Y-80714000D01*
X92964000Y-86360000D02*
X92964000Y-85090000D01*
X96774000Y-96266000D02*
X97594000Y-95446000D01*
X85344000Y-89408000D02*
X83244000Y-89408000D01*
X98864000Y-110178000D02*
X95504000Y-113538000D01*
X92456000Y-86868000D02*
X92964000Y-86360000D01*
X89208000Y-106372000D02*
X89208000Y-92256000D01*
X94833000Y-103124000D02*
X94888000Y-103124000D01*
X98864000Y-80714000D02*
X100730396Y-80714000D01*
X80264000Y-80772000D02*
X80264000Y-78300000D01*
X92964000Y-85090000D02*
X94742000Y-83312000D01*
X94738991Y-98298000D02*
X96770991Y-96266000D01*
X95176802Y-83893198D02*
X93980000Y-85090000D01*
X94302000Y-73474000D02*
X94888000Y-73474000D01*
X83244000Y-89408000D02*
X80772000Y-86936000D01*
X93980000Y-85090000D02*
X93980000Y-87230000D01*
X92710000Y-88392000D02*
X95142000Y-88392000D01*
X94488000Y-98298000D02*
X94738991Y-98298000D01*
X100476396Y-110178000D02*
X98864000Y-110178000D01*
X94488000Y-69088000D02*
X93980000Y-69596000D01*
X93980000Y-69596000D02*
X93980000Y-72566000D01*
X94234000Y-113538000D02*
X93980000Y-113792000D01*
X97594000Y-95446000D02*
X101492396Y-95446000D01*
X85741604Y-62781000D02*
X80661604Y-62781000D01*
X103280000Y-86516000D02*
X100657198Y-83893198D01*
X80010000Y-81026000D02*
X80264000Y-80772000D01*
X94488000Y-99314000D02*
X94234000Y-99568000D01*
X94234000Y-117856000D02*
X94888000Y-117856000D01*
X87260000Y-108320000D02*
X89208000Y-106372000D01*
X93472000Y-70511396D02*
X85741604Y-62781000D01*
X93472000Y-76708000D02*
X93472000Y-70511396D01*
X89208000Y-92256000D02*
X88138000Y-91186000D01*
X96770991Y-96266000D02*
X96774000Y-96266000D01*
X94742000Y-83312000D02*
X96266000Y-83312000D01*
X92456000Y-88138000D02*
X92710000Y-88392000D01*
X94234000Y-102525000D02*
X94833000Y-103124000D01*
X99874300Y-99112300D02*
X99874300Y-100733904D01*
X79761604Y-61881000D02*
X77858000Y-61881000D01*
X103280000Y-107374396D02*
X100476396Y-110178000D01*
X92964000Y-77216000D02*
X93472000Y-76708000D01*
X79062000Y-113538000D02*
X80322000Y-112278000D01*
X102264000Y-79180396D02*
X102264000Y-72292000D01*
X80661604Y-62781000D02*
X79761604Y-61881000D01*
X93178000Y-99608000D02*
X94488000Y-98298000D01*
X99874300Y-100733904D02*
X103280000Y-104139604D01*
X77858000Y-61881000D02*
X76683000Y-60706000D01*
X92076396Y-77216000D02*
X92964000Y-77216000D01*
X81669208Y-108320000D02*
X87260000Y-108320000D01*
X101492396Y-95446000D02*
X103280000Y-93658396D01*
X82043000Y-71189000D02*
X86049396Y-71189000D01*
X103280000Y-93658396D02*
X103280000Y-86516000D01*
X80322000Y-109667208D02*
X81669208Y-108320000D01*
X100730396Y-80714000D02*
X102264000Y-79180396D01*
X94888000Y-103124000D02*
X93940000Y-103124000D01*
X80518000Y-69664000D02*
X82043000Y-71189000D01*
X103280000Y-104139604D02*
X103280000Y-107374396D01*
X93980000Y-117602000D02*
X94234000Y-117856000D01*
X93980000Y-87230000D02*
X95142000Y-88392000D01*
%TO.N,Net-(C3-Pad1)*%
X82628000Y-65064000D02*
X81348000Y-66344000D01*
X84328000Y-65064000D02*
X82628000Y-65064000D01*
%TO.N,Net-(C3-Pad2)*%
X84328000Y-70064000D02*
X82578000Y-70064000D01*
X82578000Y-70064000D02*
X81348000Y-68834000D01*
%TO.N,Net-(C5-Pad1)*%
X99692000Y-77216000D02*
X99692000Y-75788000D01*
X99692000Y-75788000D02*
X98208000Y-74304000D01*
%TO.N,Net-(C5-Pad2)*%
X94692000Y-75330000D02*
X95718000Y-74304000D01*
X94692000Y-77216000D02*
X94692000Y-75330000D01*
%TO.N,Net-(C7-Pad1)*%
X99996000Y-90756000D02*
X98462000Y-89222000D01*
X99996000Y-92202000D02*
X99996000Y-90756000D01*
%TO.N,Net-(C7-Pad2)*%
X94996000Y-92202000D02*
X94996000Y-90198000D01*
X94996000Y-90198000D02*
X95972000Y-89222000D01*
%TO.N,Net-(C9-Pad1)*%
X99742000Y-106836000D02*
X99742000Y-105488000D01*
X99742000Y-105488000D02*
X98208000Y-103954000D01*
%TO.N,Net-(C9-Pad2)*%
X94742000Y-104862000D02*
X95650000Y-103954000D01*
X95650000Y-103954000D02*
X95718000Y-103954000D01*
X94742000Y-106836000D02*
X94742000Y-104862000D01*
%TO.N,Net-(C1-Pad1)*%
X81906000Y-74168000D02*
X81094000Y-74980000D01*
%TO.N,Net-(C15-Pad1)*%
X84582000Y-82082000D02*
X83136000Y-82082000D01*
X83136000Y-82082000D02*
X81602000Y-83616000D01*
%TO.N,Net-(C1-Pad1)*%
X84074000Y-74168000D02*
X81906000Y-74168000D01*
%TO.N,Net-(C15-Pad2)*%
X84582000Y-87082000D02*
X82578000Y-87082000D01*
X82578000Y-87082000D02*
X81602000Y-86106000D01*
%TO.N,Net-(C13-Pad1)*%
X74168000Y-111134000D02*
X75742000Y-112708000D01*
X74168000Y-109474000D02*
X74168000Y-111134000D01*
%TO.N,Net-(C13-Pad2)*%
X78232000Y-112708000D02*
X78232000Y-110410000D01*
X78232000Y-110410000D02*
X79168000Y-109474000D01*
%TO.N,Net-(IC1-Pad7)*%
X79756000Y-121666000D02*
X80772000Y-120650000D01*
X74862000Y-116078000D02*
X73387000Y-117553000D01*
X73387000Y-121139000D02*
X73914000Y-121666000D01*
X73387000Y-117553000D02*
X73387000Y-121139000D01*
X73914000Y-121666000D02*
X79756000Y-121666000D01*
%TO.N,Net-(IC1-Pad9)*%
X89622000Y-124460000D02*
X100036000Y-124460000D01*
X100036000Y-124460000D02*
X102068000Y-122428000D01*
X102068000Y-122428000D02*
X102068000Y-116332000D01*
X102068000Y-116332000D02*
X101052000Y-115316000D01*
X101052000Y-115316000D02*
X99088000Y-115316000D01*
%TO.N,Net-(IC1-Pad10)*%
X93686000Y-109728000D02*
X100290000Y-109728000D01*
X102830000Y-107188000D02*
X102830000Y-104326000D01*
X102830000Y-104326000D02*
X99088000Y-100584000D01*
X100290000Y-109728000D02*
X102830000Y-107188000D01*
X91908000Y-111506000D02*
X93686000Y-109728000D01*
%TO.N,Net-(IC1-Pad11)*%
X100798000Y-85852000D02*
X99342000Y-85852000D01*
X91458000Y-97732000D02*
X94194000Y-94996000D01*
X101306000Y-94996000D02*
X102830000Y-93472000D01*
X94194000Y-94996000D02*
X101306000Y-94996000D01*
X102830000Y-93472000D02*
X102830000Y-87884000D01*
X102830000Y-87884000D02*
X100798000Y-85852000D01*
%TO.N,Net-(IC1-Pad12)*%
X91008000Y-95063604D02*
X92202000Y-93869604D01*
X101814000Y-72898000D02*
X99850000Y-70934000D01*
X100544000Y-80264000D02*
X101814000Y-78994000D01*
X92202000Y-93869604D02*
X92202000Y-88909305D01*
X91731000Y-88438305D02*
X91731000Y-82473000D01*
X91731000Y-82473000D02*
X93940000Y-80264000D01*
X101814000Y-78994000D02*
X101814000Y-72898000D01*
X92202000Y-88909305D02*
X91731000Y-88438305D01*
X93940000Y-80264000D02*
X100544000Y-80264000D01*
X99850000Y-70934000D02*
X99088000Y-70934000D01*
%TO.N,Net-(C11-Pad1)*%
X99702000Y-120180000D02*
X98208000Y-118686000D01*
X99702000Y-121822000D02*
X99702000Y-120180000D01*
%TO.N,Net-(C11-Pad2)*%
X94702000Y-121822000D02*
X94702000Y-119702000D01*
X94702000Y-119702000D02*
X95718000Y-118686000D01*
%TO.N,Net-(IC1-Pad13)*%
X74111247Y-63048753D02*
X75660504Y-64598009D01*
X77978000Y-65464000D02*
X77112009Y-64598009D01*
X77112009Y-64598009D02*
X75660504Y-64598009D01*
%TO.N,Net-(IC1-Pad14)*%
X85676604Y-72089000D02*
X90108000Y-76520396D01*
X78232000Y-71824000D02*
X81405208Y-71824000D01*
X81405208Y-71824000D02*
X81670208Y-72089000D01*
X77724000Y-74100000D02*
X77724000Y-72332000D01*
X81670208Y-72089000D02*
X85676604Y-72089000D01*
X77724000Y-72332000D02*
X78232000Y-71824000D01*
%TO.N,Net-(IC1-Pad15)*%
X78232000Y-82736000D02*
X75760000Y-80264000D01*
X74168000Y-89916000D02*
X88138000Y-89916000D01*
X72860500Y-88608500D02*
X74168000Y-89916000D01*
X73152000Y-80264000D02*
X72898000Y-80518000D01*
X75760000Y-80264000D02*
X73152000Y-80264000D01*
X88138000Y-89916000D02*
X89658000Y-91436000D01*
X72860500Y-88138000D02*
X72860500Y-88608500D01*
%TD*%
%TA.AperFunction,Conductor*%
%TO.N,GND*%
G36*
X103602018Y-48938000D02*
G01*
X103616851Y-48940310D01*
X103616855Y-48940310D01*
X103625724Y-48941691D01*
X103646183Y-48939016D01*
X103668008Y-48938072D01*
X104024937Y-48953656D01*
X104035886Y-48954614D01*
X104420379Y-49005233D01*
X104431205Y-49007142D01*
X104809822Y-49091080D01*
X104820439Y-49093925D01*
X104990702Y-49147608D01*
X105190302Y-49210542D01*
X105200615Y-49214295D01*
X105558932Y-49362715D01*
X105568876Y-49367353D01*
X105912867Y-49546423D01*
X105922387Y-49551919D01*
X106249468Y-49760292D01*
X106258472Y-49766597D01*
X106566138Y-50002678D01*
X106574558Y-50009743D01*
X106860483Y-50271744D01*
X106868256Y-50279517D01*
X107130257Y-50565442D01*
X107137322Y-50573862D01*
X107373403Y-50881528D01*
X107379708Y-50890532D01*
X107588081Y-51217613D01*
X107593576Y-51227132D01*
X107725193Y-51479964D01*
X107772643Y-51571115D01*
X107777285Y-51581068D01*
X107899895Y-51877074D01*
X107925702Y-51939377D01*
X107929458Y-51949698D01*
X107965680Y-52064579D01*
X108046075Y-52319561D01*
X108048920Y-52330178D01*
X108132858Y-52708795D01*
X108134767Y-52719621D01*
X108185386Y-53104114D01*
X108186344Y-53115063D01*
X108197521Y-53371049D01*
X108201603Y-53464552D01*
X108200223Y-53489429D01*
X108198309Y-53501724D01*
X108199473Y-53510626D01*
X108199473Y-53510628D01*
X108202436Y-53533283D01*
X108203500Y-53549621D01*
X108203500Y-130458633D01*
X108202000Y-130478018D01*
X108199690Y-130492851D01*
X108199690Y-130492855D01*
X108198309Y-130501724D01*
X108200984Y-130522183D01*
X108201928Y-130544008D01*
X108186344Y-130900936D01*
X108185386Y-130911886D01*
X108134767Y-131296379D01*
X108132858Y-131307205D01*
X108048920Y-131685822D01*
X108046075Y-131696439D01*
X107992392Y-131866702D01*
X107963713Y-131957661D01*
X107929461Y-132066294D01*
X107925705Y-132076615D01*
X107830610Y-132306196D01*
X107777289Y-132434923D01*
X107772647Y-132444876D01*
X107666764Y-132648276D01*
X107593577Y-132788867D01*
X107588081Y-132798387D01*
X107379708Y-133125468D01*
X107373403Y-133134472D01*
X107137322Y-133442138D01*
X107130257Y-133450558D01*
X106868256Y-133736483D01*
X106860483Y-133744256D01*
X106574558Y-134006257D01*
X106566138Y-134013322D01*
X106258472Y-134249403D01*
X106249468Y-134255708D01*
X105922387Y-134464081D01*
X105912868Y-134469576D01*
X105568876Y-134648647D01*
X105558932Y-134653285D01*
X105200615Y-134801705D01*
X105190302Y-134805458D01*
X104990702Y-134868392D01*
X104820439Y-134922075D01*
X104809822Y-134924920D01*
X104431205Y-135008858D01*
X104420379Y-135010767D01*
X104035886Y-135061386D01*
X104024937Y-135062344D01*
X103675446Y-135077603D01*
X103650571Y-135076223D01*
X103638276Y-135074309D01*
X103629374Y-135075473D01*
X103629372Y-135075473D01*
X103614323Y-135077441D01*
X103606714Y-135078436D01*
X103590379Y-135079500D01*
X72745367Y-135079500D01*
X72725982Y-135078000D01*
X72711149Y-135075690D01*
X72711145Y-135075690D01*
X72702276Y-135074309D01*
X72681817Y-135076984D01*
X72659992Y-135077928D01*
X72303063Y-135062344D01*
X72292114Y-135061386D01*
X71907621Y-135010767D01*
X71896795Y-135008858D01*
X71518178Y-134924920D01*
X71507561Y-134922075D01*
X71337298Y-134868392D01*
X71137698Y-134805458D01*
X71127385Y-134801705D01*
X70769068Y-134653285D01*
X70759124Y-134648647D01*
X70415132Y-134469576D01*
X70405613Y-134464081D01*
X70078532Y-134255708D01*
X70069528Y-134249403D01*
X69761862Y-134013322D01*
X69753442Y-134006257D01*
X69467517Y-133744256D01*
X69459744Y-133736483D01*
X69197743Y-133450558D01*
X69190678Y-133442138D01*
X68954597Y-133134472D01*
X68948292Y-133125468D01*
X68739919Y-132798387D01*
X68734423Y-132788867D01*
X68661236Y-132648276D01*
X68555353Y-132444876D01*
X68550711Y-132434923D01*
X68497391Y-132306196D01*
X68402295Y-132076615D01*
X68398539Y-132066294D01*
X68364288Y-131957661D01*
X68335608Y-131866702D01*
X68281925Y-131696439D01*
X68279080Y-131685822D01*
X68195142Y-131307205D01*
X68193233Y-131296379D01*
X68142614Y-130911886D01*
X68141656Y-130900936D01*
X68130294Y-130640703D01*
X70586743Y-130640703D01*
X70624268Y-130925734D01*
X70700129Y-131203036D01*
X70812923Y-131467476D01*
X70824693Y-131487142D01*
X70949955Y-131696439D01*
X70960561Y-131714161D01*
X71140313Y-131938528D01*
X71348851Y-132136423D01*
X71582317Y-132304186D01*
X71586112Y-132306195D01*
X71586113Y-132306196D01*
X71607869Y-132317715D01*
X71836392Y-132438712D01*
X72106373Y-132537511D01*
X72387264Y-132598755D01*
X72415841Y-132601004D01*
X72610282Y-132616307D01*
X72610291Y-132616307D01*
X72612739Y-132616500D01*
X72768271Y-132616500D01*
X72770407Y-132616354D01*
X72770418Y-132616354D01*
X72978548Y-132602165D01*
X72978554Y-132602164D01*
X72982825Y-132601873D01*
X72987020Y-132601004D01*
X72987022Y-132601004D01*
X73123584Y-132572723D01*
X73264342Y-132543574D01*
X73535343Y-132447607D01*
X73790812Y-132315750D01*
X73794313Y-132313289D01*
X73794317Y-132313287D01*
X73908417Y-132233096D01*
X74026023Y-132150441D01*
X74236622Y-131954740D01*
X74418713Y-131732268D01*
X74568927Y-131487142D01*
X74684483Y-131223898D01*
X74763244Y-130947406D01*
X74803751Y-130662784D01*
X74803845Y-130644951D01*
X74803867Y-130640703D01*
X101522743Y-130640703D01*
X101560268Y-130925734D01*
X101636129Y-131203036D01*
X101748923Y-131467476D01*
X101760693Y-131487142D01*
X101885955Y-131696439D01*
X101896561Y-131714161D01*
X102076313Y-131938528D01*
X102284851Y-132136423D01*
X102518317Y-132304186D01*
X102522112Y-132306195D01*
X102522113Y-132306196D01*
X102543869Y-132317715D01*
X102772392Y-132438712D01*
X103042373Y-132537511D01*
X103323264Y-132598755D01*
X103351841Y-132601004D01*
X103546282Y-132616307D01*
X103546291Y-132616307D01*
X103548739Y-132616500D01*
X103704271Y-132616500D01*
X103706407Y-132616354D01*
X103706418Y-132616354D01*
X103914548Y-132602165D01*
X103914554Y-132602164D01*
X103918825Y-132601873D01*
X103923020Y-132601004D01*
X103923022Y-132601004D01*
X104059584Y-132572723D01*
X104200342Y-132543574D01*
X104471343Y-132447607D01*
X104726812Y-132315750D01*
X104730313Y-132313289D01*
X104730317Y-132313287D01*
X104844417Y-132233096D01*
X104962023Y-132150441D01*
X105172622Y-131954740D01*
X105354713Y-131732268D01*
X105504927Y-131487142D01*
X105620483Y-131223898D01*
X105699244Y-130947406D01*
X105739751Y-130662784D01*
X105739845Y-130644951D01*
X105741235Y-130379583D01*
X105741235Y-130379576D01*
X105741257Y-130375297D01*
X105703732Y-130090266D01*
X105627871Y-129812964D01*
X105515077Y-129548524D01*
X105367439Y-129301839D01*
X105187687Y-129077472D01*
X104979149Y-128879577D01*
X104745683Y-128711814D01*
X104723843Y-128700250D01*
X104700654Y-128687972D01*
X104491608Y-128577288D01*
X104221627Y-128478489D01*
X103940736Y-128417245D01*
X103909685Y-128414801D01*
X103717718Y-128399693D01*
X103717709Y-128399693D01*
X103715261Y-128399500D01*
X103559729Y-128399500D01*
X103557593Y-128399646D01*
X103557582Y-128399646D01*
X103349452Y-128413835D01*
X103349446Y-128413836D01*
X103345175Y-128414127D01*
X103340980Y-128414996D01*
X103340978Y-128414996D01*
X103204417Y-128443276D01*
X103063658Y-128472426D01*
X102792657Y-128568393D01*
X102537188Y-128700250D01*
X102533687Y-128702711D01*
X102533683Y-128702713D01*
X102523594Y-128709804D01*
X102301977Y-128865559D01*
X102091378Y-129061260D01*
X101909287Y-129283732D01*
X101759073Y-129528858D01*
X101643517Y-129792102D01*
X101564756Y-130068594D01*
X101524249Y-130353216D01*
X101524227Y-130357505D01*
X101524226Y-130357512D01*
X101522765Y-130636417D01*
X101522743Y-130640703D01*
X74803867Y-130640703D01*
X74805235Y-130379583D01*
X74805235Y-130379576D01*
X74805257Y-130375297D01*
X74767732Y-130090266D01*
X74691871Y-129812964D01*
X74579077Y-129548524D01*
X74431439Y-129301839D01*
X74251687Y-129077472D01*
X74043149Y-128879577D01*
X73809683Y-128711814D01*
X73787843Y-128700250D01*
X73764654Y-128687972D01*
X73555608Y-128577288D01*
X73285627Y-128478489D01*
X73004736Y-128417245D01*
X72973685Y-128414801D01*
X72781718Y-128399693D01*
X72781709Y-128399693D01*
X72779261Y-128399500D01*
X72623729Y-128399500D01*
X72621593Y-128399646D01*
X72621582Y-128399646D01*
X72413452Y-128413835D01*
X72413446Y-128413836D01*
X72409175Y-128414127D01*
X72404980Y-128414996D01*
X72404978Y-128414996D01*
X72268417Y-128443276D01*
X72127658Y-128472426D01*
X71856657Y-128568393D01*
X71601188Y-128700250D01*
X71597687Y-128702711D01*
X71597683Y-128702713D01*
X71587594Y-128709804D01*
X71365977Y-128865559D01*
X71155378Y-129061260D01*
X70973287Y-129283732D01*
X70823073Y-129528858D01*
X70707517Y-129792102D01*
X70628756Y-130068594D01*
X70588249Y-130353216D01*
X70588227Y-130357505D01*
X70588226Y-130357512D01*
X70586765Y-130636417D01*
X70586743Y-130640703D01*
X68130294Y-130640703D01*
X68126561Y-130555208D01*
X68128188Y-130528805D01*
X68128769Y-130525352D01*
X68128770Y-130525345D01*
X68129576Y-130520552D01*
X68129729Y-130508000D01*
X68125773Y-130480376D01*
X68124500Y-130462514D01*
X68124500Y-82783943D01*
X71497780Y-82783943D01*
X71498526Y-82791835D01*
X71501941Y-82827961D01*
X71502500Y-82839819D01*
X71502500Y-112825629D01*
X71501973Y-112836812D01*
X71500298Y-112844305D01*
X71500547Y-112852231D01*
X71500547Y-112852232D01*
X71502438Y-112912382D01*
X71502500Y-112916341D01*
X71502500Y-112944252D01*
X71502997Y-112948186D01*
X71502997Y-112948187D01*
X71503005Y-112948252D01*
X71503938Y-112960089D01*
X71505327Y-113004285D01*
X71510978Y-113023735D01*
X71514987Y-113043096D01*
X71517526Y-113063193D01*
X71520445Y-113070564D01*
X71520445Y-113070566D01*
X71533804Y-113104308D01*
X71537649Y-113115538D01*
X71549982Y-113157989D01*
X71554015Y-113164808D01*
X71554017Y-113164813D01*
X71560293Y-113175424D01*
X71568988Y-113193172D01*
X71576448Y-113212013D01*
X71581110Y-113218429D01*
X71581110Y-113218430D01*
X71602436Y-113247783D01*
X71608952Y-113257703D01*
X71631458Y-113295758D01*
X71645779Y-113310079D01*
X71658619Y-113325112D01*
X71670528Y-113341503D01*
X71676634Y-113346554D01*
X71704605Y-113369694D01*
X71713384Y-113377684D01*
X72989595Y-114653895D01*
X73023621Y-114716207D01*
X73026500Y-114742990D01*
X73026500Y-116329009D01*
X73006498Y-116397130D01*
X72989595Y-116418104D01*
X72544747Y-116862952D01*
X72536461Y-116870492D01*
X72529982Y-116874604D01*
X72524557Y-116880381D01*
X72483357Y-116924255D01*
X72480602Y-116927097D01*
X72460865Y-116946834D01*
X72458385Y-116950031D01*
X72450682Y-116959051D01*
X72420414Y-116991283D01*
X72416595Y-116998229D01*
X72416593Y-116998232D01*
X72410652Y-117009038D01*
X72399801Y-117025557D01*
X72387386Y-117041563D01*
X72384241Y-117048832D01*
X72384238Y-117048836D01*
X72369826Y-117082141D01*
X72364609Y-117092791D01*
X72343305Y-117131544D01*
X72341334Y-117139219D01*
X72341334Y-117139220D01*
X72338267Y-117151166D01*
X72331863Y-117169870D01*
X72330580Y-117172836D01*
X72323819Y-117188459D01*
X72322580Y-117196282D01*
X72322577Y-117196292D01*
X72316901Y-117232128D01*
X72314495Y-117243748D01*
X72305472Y-117278893D01*
X72303500Y-117286574D01*
X72303500Y-117306828D01*
X72301949Y-117326538D01*
X72298780Y-117346547D01*
X72299526Y-117354439D01*
X72302941Y-117390565D01*
X72303500Y-117402423D01*
X72303500Y-121246629D01*
X72302973Y-121257812D01*
X72301298Y-121265305D01*
X72301547Y-121273231D01*
X72301547Y-121273232D01*
X72303438Y-121333382D01*
X72303500Y-121337341D01*
X72303500Y-121365252D01*
X72303997Y-121369186D01*
X72303997Y-121369187D01*
X72304005Y-121369252D01*
X72304938Y-121381089D01*
X72306327Y-121425285D01*
X72311978Y-121444735D01*
X72315987Y-121464096D01*
X72318526Y-121484193D01*
X72321445Y-121491564D01*
X72321445Y-121491566D01*
X72334804Y-121525308D01*
X72338649Y-121536538D01*
X72350982Y-121578989D01*
X72355015Y-121585808D01*
X72355017Y-121585813D01*
X72361293Y-121596424D01*
X72369988Y-121614172D01*
X72377448Y-121633013D01*
X72382110Y-121639429D01*
X72382110Y-121639430D01*
X72403436Y-121668783D01*
X72409952Y-121678703D01*
X72432458Y-121716758D01*
X72446779Y-121731079D01*
X72459619Y-121746112D01*
X72471528Y-121762503D01*
X72477633Y-121767554D01*
X72477638Y-121767559D01*
X72505604Y-121790695D01*
X72514382Y-121798683D01*
X73223952Y-122508253D01*
X73231492Y-122516539D01*
X73235604Y-122523018D01*
X73241381Y-122528443D01*
X73285255Y-122569643D01*
X73288097Y-122572398D01*
X73307834Y-122592135D01*
X73311031Y-122594615D01*
X73320051Y-122602318D01*
X73352283Y-122632586D01*
X73359229Y-122636405D01*
X73359232Y-122636407D01*
X73370038Y-122642348D01*
X73386557Y-122653199D01*
X73402563Y-122665614D01*
X73409832Y-122668759D01*
X73409836Y-122668762D01*
X73443141Y-122683174D01*
X73453791Y-122688391D01*
X73492544Y-122709695D01*
X73500219Y-122711666D01*
X73500220Y-122711666D01*
X73512166Y-122714733D01*
X73530871Y-122721137D01*
X73549459Y-122729181D01*
X73557282Y-122730420D01*
X73557292Y-122730423D01*
X73593128Y-122736099D01*
X73604748Y-122738505D01*
X73636563Y-122746673D01*
X73647574Y-122749500D01*
X73667828Y-122749500D01*
X73687538Y-122751051D01*
X73707547Y-122754220D01*
X73715439Y-122753474D01*
X73734184Y-122751702D01*
X73751566Y-122750059D01*
X73763423Y-122749500D01*
X80807233Y-122749500D01*
X80818416Y-122750027D01*
X80825909Y-122751702D01*
X80833835Y-122751453D01*
X80833836Y-122751453D01*
X80893986Y-122749562D01*
X80897945Y-122749500D01*
X80925856Y-122749500D01*
X80929791Y-122749003D01*
X80929856Y-122748995D01*
X80941693Y-122748062D01*
X80973951Y-122747048D01*
X80977970Y-122746922D01*
X80985889Y-122746673D01*
X81005343Y-122741021D01*
X81024700Y-122737013D01*
X81036930Y-122735468D01*
X81036931Y-122735468D01*
X81044797Y-122734474D01*
X81052168Y-122731555D01*
X81052170Y-122731555D01*
X81085912Y-122718196D01*
X81097142Y-122714351D01*
X81131983Y-122704229D01*
X81131984Y-122704229D01*
X81139593Y-122702018D01*
X81146412Y-122697985D01*
X81146417Y-122697983D01*
X81157028Y-122691707D01*
X81174776Y-122683012D01*
X81193617Y-122675552D01*
X81206352Y-122666300D01*
X81229387Y-122649564D01*
X81239307Y-122643048D01*
X81270535Y-122624580D01*
X81270538Y-122624578D01*
X81277362Y-122620542D01*
X81291683Y-122606221D01*
X81306717Y-122593380D01*
X81312290Y-122589331D01*
X81323107Y-122581472D01*
X81351298Y-122547395D01*
X81359288Y-122538616D01*
X83299499Y-120598405D01*
X83361811Y-120564379D01*
X83388594Y-120561500D01*
X84011233Y-120561500D01*
X84022416Y-120562027D01*
X84029909Y-120563702D01*
X84037835Y-120563453D01*
X84037836Y-120563453D01*
X84097986Y-120561562D01*
X84101945Y-120561500D01*
X84129856Y-120561500D01*
X84133791Y-120561003D01*
X84133856Y-120560995D01*
X84145693Y-120560062D01*
X84177951Y-120559048D01*
X84181970Y-120558922D01*
X84189889Y-120558673D01*
X84209343Y-120553021D01*
X84228700Y-120549013D01*
X84240930Y-120547468D01*
X84240931Y-120547468D01*
X84248797Y-120546474D01*
X84256168Y-120543555D01*
X84256170Y-120543555D01*
X84289912Y-120530196D01*
X84301142Y-120526351D01*
X84335983Y-120516229D01*
X84335984Y-120516229D01*
X84343593Y-120514018D01*
X84350412Y-120509985D01*
X84350417Y-120509983D01*
X84361028Y-120503707D01*
X84378776Y-120495012D01*
X84397617Y-120487552D01*
X84433387Y-120461564D01*
X84443307Y-120455048D01*
X84448366Y-120452056D01*
X84517183Y-120434600D01*
X84584513Y-120457120D01*
X84628980Y-120512467D01*
X84638500Y-120560513D01*
X84638500Y-123250431D01*
X84637973Y-123261614D01*
X84636298Y-123269107D01*
X84636547Y-123277033D01*
X84636547Y-123277034D01*
X84638438Y-123337184D01*
X84638500Y-123341143D01*
X84638500Y-123369054D01*
X84638997Y-123372988D01*
X84638997Y-123372989D01*
X84639005Y-123373054D01*
X84639938Y-123384891D01*
X84641327Y-123429087D01*
X84646978Y-123448537D01*
X84650987Y-123467898D01*
X84651684Y-123473411D01*
X84653526Y-123487995D01*
X84656445Y-123495366D01*
X84656445Y-123495368D01*
X84669804Y-123529110D01*
X84673649Y-123540340D01*
X84685982Y-123582791D01*
X84690015Y-123589610D01*
X84690017Y-123589615D01*
X84696293Y-123600226D01*
X84704988Y-123617974D01*
X84712448Y-123636815D01*
X84717110Y-123643231D01*
X84717110Y-123643232D01*
X84738436Y-123672585D01*
X84744952Y-123682505D01*
X84767458Y-123720560D01*
X84781779Y-123734881D01*
X84794619Y-123749914D01*
X84806528Y-123766305D01*
X84812634Y-123771356D01*
X84840605Y-123794496D01*
X84849384Y-123802486D01*
X87249150Y-126202253D01*
X87256690Y-126210539D01*
X87260802Y-126217018D01*
X87266579Y-126222443D01*
X87310453Y-126263643D01*
X87313295Y-126266398D01*
X87333032Y-126286135D01*
X87336229Y-126288615D01*
X87345249Y-126296318D01*
X87377481Y-126326586D01*
X87384427Y-126330405D01*
X87384430Y-126330407D01*
X87395236Y-126336348D01*
X87411755Y-126347199D01*
X87427761Y-126359614D01*
X87435030Y-126362759D01*
X87435034Y-126362762D01*
X87468339Y-126377174D01*
X87478989Y-126382391D01*
X87517742Y-126403695D01*
X87525417Y-126405666D01*
X87525418Y-126405666D01*
X87537364Y-126408733D01*
X87556069Y-126415137D01*
X87574657Y-126423181D01*
X87582480Y-126424420D01*
X87582490Y-126424423D01*
X87618326Y-126430099D01*
X87629946Y-126432505D01*
X87661761Y-126440673D01*
X87672772Y-126443500D01*
X87693026Y-126443500D01*
X87712736Y-126445051D01*
X87732745Y-126448220D01*
X87740637Y-126447474D01*
X87759382Y-126445702D01*
X87776764Y-126444059D01*
X87788621Y-126443500D01*
X100516421Y-126443500D01*
X100527604Y-126444027D01*
X100535097Y-126445702D01*
X100543023Y-126445453D01*
X100543024Y-126445453D01*
X100603174Y-126443562D01*
X100607133Y-126443500D01*
X100635044Y-126443500D01*
X100638979Y-126443003D01*
X100639044Y-126442995D01*
X100650881Y-126442062D01*
X100683139Y-126441048D01*
X100687158Y-126440922D01*
X100695077Y-126440673D01*
X100714531Y-126435021D01*
X100733888Y-126431013D01*
X100746118Y-126429468D01*
X100746119Y-126429468D01*
X100753985Y-126428474D01*
X100761356Y-126425555D01*
X100761358Y-126425555D01*
X100795100Y-126412196D01*
X100806330Y-126408351D01*
X100841171Y-126398229D01*
X100841172Y-126398229D01*
X100848781Y-126396018D01*
X100855600Y-126391985D01*
X100855605Y-126391983D01*
X100866216Y-126385707D01*
X100883964Y-126377012D01*
X100902805Y-126369552D01*
X100938575Y-126343564D01*
X100948495Y-126337048D01*
X100979723Y-126318580D01*
X100979726Y-126318578D01*
X100986550Y-126314542D01*
X101000871Y-126300221D01*
X101015905Y-126287380D01*
X101025882Y-126280131D01*
X101032295Y-126275472D01*
X101060486Y-126241395D01*
X101068476Y-126232616D01*
X103810253Y-123490840D01*
X103818539Y-123483300D01*
X103825018Y-123479188D01*
X103871644Y-123429536D01*
X103874398Y-123426695D01*
X103894135Y-123406958D01*
X103896615Y-123403761D01*
X103904320Y-123394739D01*
X103919139Y-123378958D01*
X103934586Y-123362509D01*
X103938405Y-123355563D01*
X103938407Y-123355560D01*
X103944348Y-123344754D01*
X103955199Y-123328235D01*
X103962758Y-123318489D01*
X103967614Y-123312229D01*
X103970759Y-123304960D01*
X103970762Y-123304956D01*
X103985174Y-123271651D01*
X103990391Y-123261001D01*
X104011695Y-123222248D01*
X104016733Y-123202625D01*
X104023137Y-123183922D01*
X104028033Y-123172608D01*
X104028033Y-123172607D01*
X104031181Y-123165333D01*
X104032420Y-123157510D01*
X104032423Y-123157500D01*
X104038099Y-123121664D01*
X104040505Y-123110044D01*
X104049528Y-123074899D01*
X104049528Y-123074898D01*
X104051500Y-123067218D01*
X104051500Y-123046964D01*
X104053051Y-123027253D01*
X104054980Y-123015074D01*
X104056220Y-123007245D01*
X104052059Y-122963226D01*
X104051500Y-122951369D01*
X104051500Y-110096574D01*
X104071502Y-110028453D01*
X104088405Y-110007479D01*
X105472253Y-108623632D01*
X105480539Y-108616092D01*
X105487018Y-108611980D01*
X105533644Y-108562328D01*
X105536398Y-108559487D01*
X105556135Y-108539750D01*
X105558615Y-108536553D01*
X105566320Y-108527531D01*
X105591159Y-108501080D01*
X105596586Y-108495301D01*
X105600405Y-108488355D01*
X105600407Y-108488352D01*
X105606348Y-108477546D01*
X105617199Y-108461027D01*
X105624758Y-108451281D01*
X105629614Y-108445021D01*
X105632759Y-108437752D01*
X105632762Y-108437748D01*
X105647174Y-108404443D01*
X105652391Y-108393793D01*
X105673695Y-108355040D01*
X105678733Y-108335417D01*
X105685137Y-108316714D01*
X105690033Y-108305400D01*
X105690033Y-108305399D01*
X105693181Y-108298125D01*
X105694420Y-108290302D01*
X105694423Y-108290292D01*
X105700099Y-108254456D01*
X105702505Y-108242836D01*
X105711528Y-108207691D01*
X105711528Y-108207690D01*
X105713500Y-108200010D01*
X105713500Y-108179756D01*
X105715051Y-108160045D01*
X105716980Y-108147866D01*
X105718220Y-108140037D01*
X105714059Y-108096018D01*
X105713500Y-108084161D01*
X105713500Y-103472783D01*
X105714027Y-103461599D01*
X105715701Y-103454111D01*
X105713562Y-103386052D01*
X105713500Y-103382095D01*
X105713500Y-103354164D01*
X105712994Y-103350158D01*
X105712061Y-103338312D01*
X105710922Y-103302057D01*
X105710673Y-103294130D01*
X105705022Y-103274678D01*
X105701014Y-103255326D01*
X105699468Y-103243088D01*
X105699467Y-103243086D01*
X105698474Y-103235223D01*
X105682194Y-103194106D01*
X105678359Y-103182905D01*
X105666018Y-103140426D01*
X105661985Y-103133607D01*
X105661983Y-103133602D01*
X105655707Y-103122991D01*
X105647010Y-103105241D01*
X105639552Y-103086403D01*
X105613571Y-103050643D01*
X105607053Y-103040721D01*
X105588578Y-103009480D01*
X105588574Y-103009475D01*
X105584542Y-103002657D01*
X105570218Y-102988333D01*
X105557376Y-102973298D01*
X105545472Y-102956913D01*
X105511406Y-102928731D01*
X105502627Y-102920742D01*
X102662405Y-100080520D01*
X102628379Y-100018208D01*
X102625500Y-99991425D01*
X102625500Y-97806574D01*
X102645502Y-97738453D01*
X102662405Y-97717479D01*
X105482643Y-94897241D01*
X105490933Y-94889697D01*
X105497414Y-94885584D01*
X105544055Y-94835916D01*
X105546809Y-94833075D01*
X105566531Y-94813353D01*
X105569008Y-94810160D01*
X105576713Y-94801139D01*
X105601555Y-94774684D01*
X105606982Y-94768905D01*
X105610803Y-94761955D01*
X105616742Y-94751152D01*
X105627598Y-94734625D01*
X105635153Y-94724886D01*
X105635154Y-94724884D01*
X105640010Y-94718624D01*
X105657570Y-94678044D01*
X105662787Y-94667396D01*
X105680271Y-94635593D01*
X105680272Y-94635591D01*
X105684091Y-94628644D01*
X105689129Y-94609021D01*
X105695533Y-94590318D01*
X105700429Y-94579004D01*
X105700429Y-94579003D01*
X105703577Y-94571729D01*
X105704816Y-94563906D01*
X105704819Y-94563896D01*
X105710495Y-94528060D01*
X105712901Y-94516440D01*
X105721924Y-94481295D01*
X105721924Y-94481294D01*
X105723896Y-94473614D01*
X105723896Y-94453360D01*
X105725447Y-94433649D01*
X105727376Y-94421470D01*
X105728616Y-94413641D01*
X105724455Y-94369622D01*
X105723896Y-94357765D01*
X105723896Y-85470671D01*
X105724423Y-85459488D01*
X105726098Y-85451995D01*
X105724203Y-85391684D01*
X105723958Y-85383905D01*
X105723896Y-85379947D01*
X105723896Y-85352047D01*
X105723392Y-85348056D01*
X105722459Y-85336214D01*
X105721461Y-85304440D01*
X105721070Y-85292014D01*
X105718781Y-85284134D01*
X105715417Y-85272555D01*
X105711408Y-85253196D01*
X105711105Y-85250801D01*
X105708870Y-85233106D01*
X105705954Y-85225740D01*
X105705952Y-85225734D01*
X105692596Y-85192001D01*
X105688751Y-85180771D01*
X105678626Y-85145920D01*
X105678625Y-85145917D01*
X105676415Y-85138310D01*
X105666101Y-85120869D01*
X105657404Y-85103116D01*
X105652868Y-85091661D01*
X105649948Y-85084286D01*
X105623959Y-85048515D01*
X105617443Y-85038595D01*
X105598974Y-85007366D01*
X105594938Y-85000541D01*
X105580617Y-84986220D01*
X105567776Y-84971186D01*
X105560527Y-84961209D01*
X105555868Y-84954796D01*
X105521791Y-84926605D01*
X105513012Y-84918615D01*
X102829236Y-82234838D01*
X102795210Y-82172526D01*
X102800275Y-82101710D01*
X102829236Y-82056648D01*
X104456247Y-80429637D01*
X104464537Y-80422093D01*
X104471018Y-80417980D01*
X104517659Y-80368312D01*
X104520413Y-80365471D01*
X104540135Y-80345749D01*
X104542612Y-80342556D01*
X104550317Y-80333535D01*
X104575159Y-80307080D01*
X104580586Y-80301301D01*
X104584407Y-80294351D01*
X104590346Y-80283548D01*
X104601202Y-80267021D01*
X104608757Y-80257282D01*
X104608758Y-80257280D01*
X104613614Y-80251020D01*
X104631174Y-80210440D01*
X104636391Y-80199792D01*
X104653875Y-80167989D01*
X104653876Y-80167987D01*
X104657695Y-80161040D01*
X104662733Y-80141417D01*
X104669137Y-80122714D01*
X104674033Y-80111400D01*
X104674033Y-80111399D01*
X104677181Y-80104125D01*
X104678420Y-80096302D01*
X104678423Y-80096292D01*
X104684099Y-80060456D01*
X104686505Y-80048836D01*
X104695528Y-80013691D01*
X104695528Y-80013690D01*
X104697500Y-80006010D01*
X104697500Y-79985756D01*
X104699051Y-79966045D01*
X104700980Y-79953866D01*
X104702220Y-79946037D01*
X104698059Y-79902018D01*
X104697500Y-79890161D01*
X104697500Y-65997174D01*
X104698027Y-65985991D01*
X104699702Y-65978498D01*
X104697562Y-65910407D01*
X104697500Y-65906450D01*
X104697500Y-65878550D01*
X104696996Y-65874559D01*
X104696063Y-65862717D01*
X104694923Y-65826442D01*
X104694674Y-65818517D01*
X104689021Y-65799058D01*
X104685012Y-65779699D01*
X104684846Y-65778389D01*
X104682474Y-65759609D01*
X104679558Y-65752243D01*
X104679556Y-65752237D01*
X104666200Y-65718504D01*
X104662355Y-65707274D01*
X104652230Y-65672423D01*
X104652230Y-65672422D01*
X104650019Y-65664813D01*
X104639705Y-65647372D01*
X104631008Y-65629619D01*
X104626472Y-65618164D01*
X104623552Y-65610789D01*
X104597563Y-65575018D01*
X104591047Y-65565098D01*
X104568542Y-65527044D01*
X104554221Y-65512723D01*
X104541380Y-65497689D01*
X104534131Y-65487712D01*
X104529472Y-65481299D01*
X104523368Y-65476249D01*
X104523363Y-65476244D01*
X104495402Y-65453113D01*
X104486622Y-65445123D01*
X104046694Y-65005195D01*
X104012668Y-64942883D01*
X104017733Y-64872068D01*
X104060280Y-64815232D01*
X104077135Y-64805340D01*
X104077000Y-64805106D01*
X104082720Y-64801803D01*
X104088752Y-64799118D01*
X104243253Y-64686866D01*
X104371040Y-64544944D01*
X104466527Y-64379556D01*
X104525542Y-64197928D01*
X104545504Y-64008000D01*
X104530839Y-63868473D01*
X104526232Y-63824635D01*
X104526232Y-63824633D01*
X104525542Y-63818072D01*
X104466527Y-63636444D01*
X104371040Y-63471056D01*
X104315004Y-63408821D01*
X104247675Y-63334045D01*
X104247674Y-63334044D01*
X104243253Y-63329134D01*
X104113045Y-63234532D01*
X104094094Y-63220763D01*
X104094093Y-63220762D01*
X104088752Y-63216882D01*
X104082724Y-63214198D01*
X104082722Y-63214197D01*
X103920319Y-63141891D01*
X103920318Y-63141891D01*
X103914288Y-63139206D01*
X103820887Y-63119353D01*
X103733944Y-63100872D01*
X103733939Y-63100872D01*
X103727487Y-63099500D01*
X103536513Y-63099500D01*
X103530061Y-63100872D01*
X103530056Y-63100872D01*
X103443113Y-63119353D01*
X103349712Y-63139206D01*
X103343682Y-63141891D01*
X103343681Y-63141891D01*
X103181278Y-63214197D01*
X103181276Y-63214198D01*
X103175248Y-63216882D01*
X103169907Y-63220762D01*
X103169906Y-63220763D01*
X103150955Y-63234532D01*
X103099862Y-63271653D01*
X103032996Y-63295511D01*
X102963844Y-63279431D01*
X102936706Y-63258812D01*
X102335637Y-62657742D01*
X102328103Y-62649463D01*
X102323990Y-62642982D01*
X102274338Y-62596356D01*
X102271497Y-62593602D01*
X102251760Y-62573865D01*
X102248563Y-62571385D01*
X102239541Y-62563680D01*
X102213090Y-62538841D01*
X102207311Y-62533414D01*
X102200365Y-62529595D01*
X102200362Y-62529593D01*
X102189556Y-62523652D01*
X102173037Y-62512801D01*
X102165430Y-62506901D01*
X102157031Y-62500386D01*
X102149762Y-62497241D01*
X102149758Y-62497238D01*
X102116453Y-62482826D01*
X102105803Y-62477609D01*
X102067050Y-62456305D01*
X102047427Y-62451267D01*
X102028724Y-62444863D01*
X102017410Y-62439967D01*
X102017409Y-62439967D01*
X102010135Y-62436819D01*
X102002312Y-62435580D01*
X102002302Y-62435577D01*
X101966466Y-62429901D01*
X101954846Y-62427495D01*
X101919701Y-62418472D01*
X101919700Y-62418472D01*
X101912020Y-62416500D01*
X101891766Y-62416500D01*
X101872055Y-62414949D01*
X101859876Y-62413020D01*
X101852047Y-62411780D01*
X101844155Y-62412526D01*
X101808029Y-62415941D01*
X101796171Y-62416500D01*
X94581594Y-62416500D01*
X94513473Y-62396498D01*
X94492499Y-62379595D01*
X94245801Y-62132897D01*
X94211775Y-62070585D01*
X94208949Y-62040148D01*
X94209000Y-62038390D01*
X94209000Y-62024517D01*
X94717000Y-62024517D01*
X94721064Y-62038359D01*
X94734478Y-62040393D01*
X94741184Y-62039534D01*
X94751262Y-62037392D01*
X94955255Y-61976191D01*
X94964842Y-61972433D01*
X95156095Y-61878739D01*
X95164945Y-61873464D01*
X95338328Y-61749792D01*
X95346200Y-61743139D01*
X95497052Y-61592812D01*
X95503730Y-61584965D01*
X95628003Y-61412020D01*
X95633313Y-61403183D01*
X95727670Y-61212267D01*
X95731469Y-61202672D01*
X95793377Y-60998910D01*
X95795555Y-60988837D01*
X95796986Y-60977962D01*
X95794775Y-60963778D01*
X95781617Y-60960000D01*
X94735115Y-60960000D01*
X94719876Y-60964475D01*
X94718671Y-60965865D01*
X94717000Y-60973548D01*
X94717000Y-62024517D01*
X94209000Y-62024517D01*
X94209000Y-60433885D01*
X94717000Y-60433885D01*
X94721475Y-60449124D01*
X94722865Y-60450329D01*
X94730548Y-60452000D01*
X95781344Y-60452000D01*
X95794875Y-60448027D01*
X95796180Y-60438947D01*
X95754214Y-60271875D01*
X95750894Y-60262124D01*
X95665972Y-60066814D01*
X95661105Y-60057739D01*
X95545426Y-59878926D01*
X95539136Y-59870757D01*
X95395806Y-59713240D01*
X95388273Y-59706215D01*
X95221139Y-59574222D01*
X95212552Y-59568517D01*
X95026117Y-59465599D01*
X95016705Y-59461369D01*
X94815959Y-59390280D01*
X94805988Y-59387646D01*
X94734837Y-59374972D01*
X94721540Y-59376432D01*
X94717000Y-59390989D01*
X94717000Y-60433885D01*
X94209000Y-60433885D01*
X94209000Y-59389102D01*
X94205082Y-59375758D01*
X94190806Y-59373771D01*
X94152324Y-59379660D01*
X94142288Y-59382051D01*
X93939868Y-59448212D01*
X93930359Y-59452209D01*
X93741463Y-59550542D01*
X93732738Y-59556036D01*
X93562433Y-59683905D01*
X93554726Y-59690748D01*
X93407590Y-59844717D01*
X93401109Y-59852722D01*
X93296498Y-60006074D01*
X93241587Y-60051076D01*
X93171062Y-60059247D01*
X93107315Y-60027993D01*
X93086618Y-60003509D01*
X93005822Y-59878617D01*
X93005820Y-59878614D01*
X93003014Y-59874277D01*
X92852670Y-59709051D01*
X92848619Y-59705852D01*
X92848615Y-59705848D01*
X92681414Y-59573800D01*
X92681410Y-59573798D01*
X92677359Y-59570598D01*
X92641028Y-59550542D01*
X92625136Y-59541769D01*
X92481789Y-59462638D01*
X92476920Y-59460914D01*
X92476916Y-59460912D01*
X92276087Y-59389795D01*
X92276083Y-59389794D01*
X92271212Y-59388069D01*
X92266119Y-59387162D01*
X92266116Y-59387161D01*
X92056373Y-59349800D01*
X92056367Y-59349799D01*
X92051284Y-59348894D01*
X91977452Y-59347992D01*
X91833081Y-59346228D01*
X91833079Y-59346228D01*
X91827911Y-59346165D01*
X91607091Y-59379955D01*
X91594532Y-59384060D01*
X91523568Y-59386210D01*
X91466294Y-59353389D01*
X90256652Y-58143747D01*
X90249112Y-58135461D01*
X90245000Y-58128982D01*
X90195348Y-58082356D01*
X90192507Y-58079602D01*
X90172770Y-58059865D01*
X90169573Y-58057385D01*
X90160551Y-58049680D01*
X90147122Y-58037069D01*
X90128321Y-58019414D01*
X90121375Y-58015595D01*
X90121372Y-58015593D01*
X90110566Y-58009652D01*
X90094047Y-57998801D01*
X90093583Y-57998441D01*
X90078041Y-57986386D01*
X90070772Y-57983241D01*
X90070768Y-57983238D01*
X90037463Y-57968826D01*
X90026813Y-57963609D01*
X89988060Y-57942305D01*
X89968437Y-57937267D01*
X89949734Y-57930863D01*
X89938420Y-57925967D01*
X89938419Y-57925967D01*
X89931145Y-57922819D01*
X89923322Y-57921580D01*
X89923312Y-57921577D01*
X89887476Y-57915901D01*
X89875856Y-57913495D01*
X89840711Y-57904472D01*
X89840710Y-57904472D01*
X89833030Y-57902500D01*
X89812776Y-57902500D01*
X89793065Y-57900949D01*
X89780886Y-57899020D01*
X89773057Y-57897780D01*
X89743786Y-57900547D01*
X89729039Y-57901941D01*
X89717181Y-57902500D01*
X75397975Y-57902500D01*
X75386792Y-57901973D01*
X75379299Y-57900298D01*
X75371373Y-57900547D01*
X75371372Y-57900547D01*
X75311209Y-57902438D01*
X75307251Y-57902500D01*
X75279352Y-57902500D01*
X75275362Y-57903004D01*
X75263528Y-57903936D01*
X75219319Y-57905326D01*
X75211705Y-57907538D01*
X75211700Y-57907539D01*
X75199867Y-57910977D01*
X75180504Y-57914988D01*
X75160411Y-57917526D01*
X75153044Y-57920443D01*
X75153039Y-57920444D01*
X75119300Y-57933802D01*
X75108073Y-57937646D01*
X75065615Y-57949982D01*
X75058789Y-57954019D01*
X75048180Y-57960293D01*
X75030432Y-57968988D01*
X75011591Y-57976448D01*
X75005175Y-57981110D01*
X75005174Y-57981110D01*
X74975821Y-58002436D01*
X74965901Y-58008952D01*
X74934673Y-58027420D01*
X74934670Y-58027422D01*
X74927846Y-58031458D01*
X74913525Y-58045779D01*
X74898492Y-58058619D01*
X74882101Y-58070528D01*
X74873425Y-58081016D01*
X74853910Y-58104605D01*
X74845920Y-58113384D01*
X71743747Y-61215556D01*
X71735461Y-61223096D01*
X71728982Y-61227208D01*
X71723557Y-61232985D01*
X71682357Y-61276859D01*
X71679602Y-61279701D01*
X71659865Y-61299438D01*
X71657385Y-61302635D01*
X71649682Y-61311655D01*
X71619414Y-61343887D01*
X71615595Y-61350833D01*
X71615593Y-61350836D01*
X71609652Y-61361642D01*
X71598801Y-61378161D01*
X71586386Y-61394167D01*
X71583241Y-61401436D01*
X71583238Y-61401440D01*
X71568826Y-61434745D01*
X71563609Y-61445395D01*
X71542305Y-61484148D01*
X71540334Y-61491823D01*
X71540334Y-61491824D01*
X71537267Y-61503770D01*
X71530863Y-61522474D01*
X71528278Y-61528449D01*
X71522819Y-61541063D01*
X71521580Y-61548886D01*
X71521577Y-61548896D01*
X71515901Y-61584732D01*
X71513495Y-61596352D01*
X71504472Y-61631497D01*
X71502500Y-61639178D01*
X71502500Y-61659432D01*
X71500949Y-61679142D01*
X71497780Y-61699151D01*
X71498526Y-61707043D01*
X71501941Y-61743169D01*
X71502500Y-61755027D01*
X71502500Y-65218224D01*
X71500949Y-65237934D01*
X71497780Y-65257943D01*
X71498526Y-65265835D01*
X71501941Y-65301961D01*
X71502500Y-65313819D01*
X71502500Y-73854224D01*
X71500949Y-73873934D01*
X71497780Y-73893943D01*
X71498526Y-73901835D01*
X71501941Y-73937961D01*
X71502500Y-73949819D01*
X71502500Y-82744224D01*
X71500949Y-82763934D01*
X71497780Y-82783943D01*
X68124500Y-82783943D01*
X68124500Y-53640703D01*
X70586743Y-53640703D01*
X70624268Y-53925734D01*
X70700129Y-54203036D01*
X70812923Y-54467476D01*
X70960561Y-54714161D01*
X71140313Y-54938528D01*
X71348851Y-55136423D01*
X71582317Y-55304186D01*
X71586112Y-55306195D01*
X71586113Y-55306196D01*
X71607869Y-55317715D01*
X71836392Y-55438712D01*
X72106373Y-55537511D01*
X72387264Y-55598755D01*
X72415841Y-55601004D01*
X72610282Y-55616307D01*
X72610291Y-55616307D01*
X72612739Y-55616500D01*
X72768271Y-55616500D01*
X72770407Y-55616354D01*
X72770418Y-55616354D01*
X72978548Y-55602165D01*
X72978554Y-55602164D01*
X72982825Y-55601873D01*
X72987020Y-55601004D01*
X72987022Y-55601004D01*
X73123583Y-55572724D01*
X73264342Y-55543574D01*
X73535343Y-55447607D01*
X73790812Y-55315750D01*
X73794313Y-55313289D01*
X73794317Y-55313287D01*
X73908418Y-55233095D01*
X74026023Y-55150441D01*
X74236622Y-54954740D01*
X74418713Y-54732268D01*
X74568927Y-54487142D01*
X74684483Y-54223898D01*
X74763244Y-53947406D01*
X74803751Y-53662784D01*
X74803845Y-53644951D01*
X74803867Y-53640703D01*
X101522743Y-53640703D01*
X101560268Y-53925734D01*
X101636129Y-54203036D01*
X101748923Y-54467476D01*
X101896561Y-54714161D01*
X102076313Y-54938528D01*
X102284851Y-55136423D01*
X102518317Y-55304186D01*
X102522112Y-55306195D01*
X102522113Y-55306196D01*
X102543869Y-55317715D01*
X102772392Y-55438712D01*
X103042373Y-55537511D01*
X103323264Y-55598755D01*
X103351841Y-55601004D01*
X103546282Y-55616307D01*
X103546291Y-55616307D01*
X103548739Y-55616500D01*
X103704271Y-55616500D01*
X103706407Y-55616354D01*
X103706418Y-55616354D01*
X103914548Y-55602165D01*
X103914554Y-55602164D01*
X103918825Y-55601873D01*
X103923020Y-55601004D01*
X103923022Y-55601004D01*
X104059583Y-55572724D01*
X104200342Y-55543574D01*
X104471343Y-55447607D01*
X104726812Y-55315750D01*
X104730313Y-55313289D01*
X104730317Y-55313287D01*
X104844418Y-55233095D01*
X104962023Y-55150441D01*
X105172622Y-54954740D01*
X105354713Y-54732268D01*
X105504927Y-54487142D01*
X105620483Y-54223898D01*
X105699244Y-53947406D01*
X105739751Y-53662784D01*
X105739845Y-53644951D01*
X105741235Y-53379583D01*
X105741235Y-53379576D01*
X105741257Y-53375297D01*
X105703732Y-53090266D01*
X105627871Y-52812964D01*
X105515077Y-52548524D01*
X105384400Y-52330178D01*
X105369643Y-52305521D01*
X105369640Y-52305517D01*
X105367439Y-52301839D01*
X105187687Y-52077472D01*
X104979149Y-51879577D01*
X104745683Y-51711814D01*
X104723843Y-51700250D01*
X104700654Y-51687972D01*
X104491608Y-51577288D01*
X104221627Y-51478489D01*
X103940736Y-51417245D01*
X103909685Y-51414801D01*
X103717718Y-51399693D01*
X103717709Y-51399693D01*
X103715261Y-51399500D01*
X103559729Y-51399500D01*
X103557593Y-51399646D01*
X103557582Y-51399646D01*
X103349452Y-51413835D01*
X103349446Y-51413836D01*
X103345175Y-51414127D01*
X103340980Y-51414996D01*
X103340978Y-51414996D01*
X103204417Y-51443276D01*
X103063658Y-51472426D01*
X102792657Y-51568393D01*
X102537188Y-51700250D01*
X102533687Y-51702711D01*
X102533683Y-51702713D01*
X102523594Y-51709804D01*
X102301977Y-51865559D01*
X102091378Y-52061260D01*
X101909287Y-52283732D01*
X101759073Y-52528858D01*
X101643517Y-52792102D01*
X101564756Y-53068594D01*
X101524249Y-53353216D01*
X101524227Y-53357505D01*
X101524226Y-53357512D01*
X101523263Y-53541421D01*
X101522743Y-53640703D01*
X74803867Y-53640703D01*
X74805235Y-53379583D01*
X74805235Y-53379576D01*
X74805257Y-53375297D01*
X74767732Y-53090266D01*
X74691871Y-52812964D01*
X74579077Y-52548524D01*
X74448400Y-52330178D01*
X74433643Y-52305521D01*
X74433640Y-52305517D01*
X74431439Y-52301839D01*
X74251687Y-52077472D01*
X74043149Y-51879577D01*
X73809683Y-51711814D01*
X73787843Y-51700250D01*
X73764654Y-51687972D01*
X73555608Y-51577288D01*
X73285627Y-51478489D01*
X73004736Y-51417245D01*
X72973685Y-51414801D01*
X72781718Y-51399693D01*
X72781709Y-51399693D01*
X72779261Y-51399500D01*
X72623729Y-51399500D01*
X72621593Y-51399646D01*
X72621582Y-51399646D01*
X72413452Y-51413835D01*
X72413446Y-51413836D01*
X72409175Y-51414127D01*
X72404980Y-51414996D01*
X72404978Y-51414996D01*
X72268417Y-51443276D01*
X72127658Y-51472426D01*
X71856657Y-51568393D01*
X71601188Y-51700250D01*
X71597687Y-51702711D01*
X71597683Y-51702713D01*
X71587594Y-51709804D01*
X71365977Y-51865559D01*
X71155378Y-52061260D01*
X70973287Y-52283732D01*
X70823073Y-52528858D01*
X70707517Y-52792102D01*
X70628756Y-53068594D01*
X70588249Y-53353216D01*
X70588227Y-53357505D01*
X70588226Y-53357512D01*
X70587263Y-53541421D01*
X70586743Y-53640703D01*
X68124500Y-53640703D01*
X68124500Y-53561250D01*
X68126246Y-53540345D01*
X68128770Y-53525344D01*
X68128770Y-53525341D01*
X68129576Y-53520552D01*
X68129729Y-53508000D01*
X68129039Y-53503184D01*
X68129039Y-53503178D01*
X68127387Y-53491644D01*
X68126234Y-53468284D01*
X68130480Y-53371049D01*
X68141656Y-53115063D01*
X68142614Y-53104114D01*
X68193233Y-52719621D01*
X68195142Y-52708795D01*
X68279080Y-52330178D01*
X68281925Y-52319561D01*
X68362320Y-52064579D01*
X68398542Y-51949698D01*
X68402298Y-51939377D01*
X68428105Y-51877074D01*
X68550715Y-51581068D01*
X68555357Y-51571115D01*
X68602808Y-51479964D01*
X68734424Y-51227132D01*
X68739919Y-51217613D01*
X68948292Y-50890532D01*
X68954597Y-50881528D01*
X69190678Y-50573862D01*
X69197743Y-50565442D01*
X69459744Y-50279517D01*
X69467517Y-50271744D01*
X69753442Y-50009743D01*
X69761862Y-50002678D01*
X70069528Y-49766597D01*
X70078532Y-49760292D01*
X70405613Y-49551919D01*
X70415133Y-49546423D01*
X70759124Y-49367353D01*
X70769068Y-49362715D01*
X71127385Y-49214295D01*
X71137698Y-49210542D01*
X71337298Y-49147608D01*
X71507561Y-49093925D01*
X71518178Y-49091080D01*
X71896795Y-49007142D01*
X71907621Y-49005233D01*
X72292114Y-48954614D01*
X72303063Y-48953656D01*
X72652554Y-48938397D01*
X72677429Y-48939777D01*
X72689724Y-48941691D01*
X72698626Y-48940527D01*
X72698628Y-48940527D01*
X72717399Y-48938072D01*
X72721286Y-48937564D01*
X72737621Y-48936500D01*
X103582633Y-48936500D01*
X103602018Y-48938000D01*
G37*
%TD.AperFunction*%
%TA.AperFunction,Conductor*%
G36*
X79556032Y-119656924D02*
G01*
X79601095Y-119685885D01*
X79782115Y-119866905D01*
X79816141Y-119929217D01*
X79811076Y-120000032D01*
X79782115Y-120045095D01*
X78831615Y-120995595D01*
X78769303Y-121029621D01*
X78742520Y-121032500D01*
X75590188Y-121032500D01*
X75522067Y-121012498D01*
X75475574Y-120958842D01*
X75465470Y-120888568D01*
X75494964Y-120823988D01*
X75501093Y-120817405D01*
X75518198Y-120800300D01*
X75553003Y-120750594D01*
X75628181Y-120643229D01*
X75683638Y-120598901D01*
X75731394Y-120589500D01*
X77831233Y-120589500D01*
X77842416Y-120590027D01*
X77849909Y-120591702D01*
X77857835Y-120591453D01*
X77857836Y-120591453D01*
X77917986Y-120589562D01*
X77921945Y-120589500D01*
X77949856Y-120589500D01*
X77953791Y-120589003D01*
X77953856Y-120588995D01*
X77965693Y-120588062D01*
X77997951Y-120587048D01*
X78001970Y-120586922D01*
X78009889Y-120586673D01*
X78029343Y-120581021D01*
X78048700Y-120577013D01*
X78060930Y-120575468D01*
X78060931Y-120575468D01*
X78068797Y-120574474D01*
X78076168Y-120571555D01*
X78076170Y-120571555D01*
X78109912Y-120558196D01*
X78121142Y-120554351D01*
X78155983Y-120544229D01*
X78155984Y-120544229D01*
X78163593Y-120542018D01*
X78170412Y-120537985D01*
X78170417Y-120537983D01*
X78181028Y-120531707D01*
X78198790Y-120523006D01*
X78201851Y-120521794D01*
X78272551Y-120515322D01*
X78335527Y-120548101D01*
X78362415Y-120585700D01*
X78372583Y-120607505D01*
X78378069Y-120617006D01*
X78414509Y-120669048D01*
X78424988Y-120677424D01*
X78438434Y-120670356D01*
X79422905Y-119685885D01*
X79485217Y-119651859D01*
X79556032Y-119656924D01*
G37*
%TD.AperFunction*%
%TA.AperFunction,Conductor*%
G36*
X81614012Y-119574019D02*
G01*
X81620595Y-119580148D01*
X81697896Y-119657449D01*
X81710322Y-119667089D01*
X81839779Y-119743648D01*
X81854210Y-119749893D01*
X82000065Y-119792269D01*
X82012675Y-119794572D01*
X82017252Y-119794932D01*
X82083593Y-119820219D01*
X82125730Y-119877358D01*
X82130287Y-119948209D01*
X82096457Y-120009638D01*
X81620595Y-120485500D01*
X81558283Y-120519526D01*
X81487468Y-120514461D01*
X81430632Y-120471914D01*
X81405821Y-120405394D01*
X81405500Y-120396405D01*
X81405500Y-119669243D01*
X81425502Y-119601122D01*
X81479158Y-119554629D01*
X81549432Y-119544525D01*
X81614012Y-119574019D01*
G37*
%TD.AperFunction*%
%TA.AperFunction,Conductor*%
G36*
X80058795Y-116441079D02*
G01*
X80114802Y-116484711D01*
X80138500Y-116558266D01*
X80138500Y-116779406D01*
X80118498Y-116847527D01*
X80101595Y-116868501D01*
X77684500Y-119285595D01*
X77622188Y-119319621D01*
X77595405Y-119322500D01*
X75731394Y-119322500D01*
X75663273Y-119302498D01*
X75628181Y-119268771D01*
X75521357Y-119116211D01*
X75521355Y-119116208D01*
X75518198Y-119111700D01*
X75356300Y-118949802D01*
X75351792Y-118946645D01*
X75351789Y-118946643D01*
X75199229Y-118839819D01*
X75154901Y-118784362D01*
X75145500Y-118736606D01*
X75145500Y-118452594D01*
X75165502Y-118384473D01*
X75182405Y-118363499D01*
X75767499Y-117778405D01*
X75829811Y-117744379D01*
X75856594Y-117741500D01*
X76140134Y-117741500D01*
X76202316Y-117734745D01*
X76209712Y-117731973D01*
X76209718Y-117731971D01*
X76332771Y-117685840D01*
X76403578Y-117680657D01*
X76421229Y-117685840D01*
X76544282Y-117731971D01*
X76544288Y-117731973D01*
X76551684Y-117734745D01*
X76613866Y-117741500D01*
X77410134Y-117741500D01*
X77472316Y-117734745D01*
X77578482Y-117694945D01*
X77649290Y-117689762D01*
X77666942Y-117694945D01*
X77764394Y-117731478D01*
X77779649Y-117735105D01*
X77830514Y-117740631D01*
X77837328Y-117741000D01*
X77959885Y-117741000D01*
X77975124Y-117736525D01*
X77976329Y-117735135D01*
X77978000Y-117727452D01*
X77978000Y-116780000D01*
X77998002Y-116711879D01*
X78051658Y-116665386D01*
X78104000Y-116654000D01*
X78207840Y-116654000D01*
X78275961Y-116674002D01*
X78308666Y-116704435D01*
X78364399Y-116778799D01*
X78373739Y-116791261D01*
X78380919Y-116796642D01*
X78435565Y-116837597D01*
X78478080Y-116894456D01*
X78486000Y-116938423D01*
X78486000Y-117722884D01*
X78490475Y-117738123D01*
X78491865Y-117739328D01*
X78499548Y-117740999D01*
X78626669Y-117740999D01*
X78633490Y-117740629D01*
X78684352Y-117735105D01*
X78699604Y-117731479D01*
X78820054Y-117686324D01*
X78835649Y-117677786D01*
X78937724Y-117601285D01*
X78950285Y-117588724D01*
X79026786Y-117486649D01*
X79035324Y-117471054D01*
X79080478Y-117350606D01*
X79084105Y-117335351D01*
X79089631Y-117284486D01*
X79090000Y-117277672D01*
X79090000Y-117062500D01*
X79110002Y-116994379D01*
X79163658Y-116947886D01*
X79216000Y-116936500D01*
X79435134Y-116936500D01*
X79497316Y-116929745D01*
X79633705Y-116878615D01*
X79750261Y-116791261D01*
X79837615Y-116674705D01*
X79888745Y-116538316D01*
X79889598Y-116530460D01*
X79889917Y-116529120D01*
X79925135Y-116467473D01*
X79988090Y-116434653D01*
X80058795Y-116441079D01*
G37*
%TD.AperFunction*%
%TA.AperFunction,Conductor*%
G36*
X83131121Y-113675002D02*
G01*
X83177614Y-113728658D01*
X83189000Y-113781000D01*
X83189000Y-115307000D01*
X83168998Y-115375121D01*
X83115342Y-115421614D01*
X83063000Y-115433000D01*
X82807000Y-115433000D01*
X82738879Y-115412998D01*
X82692386Y-115359342D01*
X82681000Y-115307000D01*
X82681000Y-113781000D01*
X82701002Y-113712879D01*
X82754658Y-113666386D01*
X82807000Y-113655000D01*
X83063000Y-113655000D01*
X83131121Y-113675002D01*
G37*
%TD.AperFunction*%
%TA.AperFunction,Conductor*%
G36*
X98974872Y-111067198D02*
G01*
X99031708Y-111109745D01*
X99056519Y-111176265D01*
X99052547Y-111217864D01*
X99036457Y-111277913D01*
X99016502Y-111506000D01*
X99036457Y-111734087D01*
X99037881Y-111739400D01*
X99037881Y-111739402D01*
X99087829Y-111925807D01*
X99095716Y-111955243D01*
X99098039Y-111960224D01*
X99098039Y-111960225D01*
X99190151Y-112157762D01*
X99190154Y-112157767D01*
X99192477Y-112162749D01*
X99195633Y-112167256D01*
X99195634Y-112167258D01*
X99314225Y-112336623D01*
X99336913Y-112403897D01*
X99319628Y-112472758D01*
X99300107Y-112497989D01*
X98734902Y-113063193D01*
X98182500Y-113615595D01*
X98120188Y-113649621D01*
X98093405Y-113652500D01*
X97809866Y-113652500D01*
X97747684Y-113659255D01*
X97740288Y-113662027D01*
X97740282Y-113662029D01*
X97617229Y-113708160D01*
X97546422Y-113713343D01*
X97528771Y-113708160D01*
X97405718Y-113662029D01*
X97405712Y-113662027D01*
X97398316Y-113659255D01*
X97336134Y-113652500D01*
X96589594Y-113652500D01*
X96521473Y-113632498D01*
X96474980Y-113578842D01*
X96464876Y-113508568D01*
X96494370Y-113443988D01*
X96500499Y-113437405D01*
X98841745Y-111096159D01*
X98904057Y-111062133D01*
X98974872Y-111067198D01*
G37*
%TD.AperFunction*%
%TA.AperFunction,Conductor*%
G36*
X94570364Y-110381502D02*
G01*
X94613775Y-110428877D01*
X94615645Y-110432435D01*
X95317188Y-111133978D01*
X95331132Y-111141592D01*
X95332965Y-111141461D01*
X95339580Y-111137210D01*
X96045077Y-110431713D01*
X96047589Y-110427113D01*
X96097792Y-110376912D01*
X96158176Y-110361500D01*
X97480406Y-110361500D01*
X97548527Y-110381502D01*
X97595020Y-110435158D01*
X97605124Y-110505432D01*
X97575630Y-110570012D01*
X97569501Y-110576595D01*
X96829151Y-111316945D01*
X96766839Y-111350971D01*
X96696024Y-111345906D01*
X96639188Y-111303359D01*
X96618349Y-111260461D01*
X96565236Y-111062239D01*
X96561490Y-111051947D01*
X96469414Y-110854489D01*
X96463931Y-110844994D01*
X96427491Y-110792952D01*
X96417012Y-110784576D01*
X96403566Y-110791644D01*
X94614923Y-112580287D01*
X94608493Y-112592062D01*
X94617789Y-112604077D01*
X94668994Y-112639931D01*
X94678489Y-112645414D01*
X94719002Y-112664305D01*
X94772287Y-112711222D01*
X94791748Y-112779500D01*
X94771206Y-112847460D01*
X94717183Y-112893525D01*
X94665752Y-112904500D01*
X94312767Y-112904500D01*
X94301584Y-112903973D01*
X94294091Y-112902298D01*
X94286165Y-112902547D01*
X94286164Y-112902547D01*
X94226014Y-112904438D01*
X94222055Y-112904500D01*
X94219314Y-112904500D01*
X94151193Y-112884498D01*
X94104700Y-112830842D01*
X94093602Y-112779824D01*
X94094004Y-112776000D01*
X94087196Y-112711222D01*
X94074732Y-112592635D01*
X94074732Y-112592633D01*
X94074042Y-112586072D01*
X94015027Y-112404444D01*
X93919540Y-112239056D01*
X93902703Y-112220356D01*
X93796175Y-112102045D01*
X93796174Y-112102044D01*
X93791753Y-112097134D01*
X93645253Y-111990695D01*
X93601899Y-111934472D01*
X93594004Y-111875589D01*
X93607113Y-111750864D01*
X93607803Y-111744299D01*
X93591113Y-111585502D01*
X93588531Y-111560934D01*
X93588531Y-111560932D01*
X93587841Y-111554371D01*
X93573903Y-111511475D01*
X94017483Y-111511475D01*
X94036472Y-111728519D01*
X94038375Y-111739312D01*
X94094764Y-111949761D01*
X94098510Y-111960053D01*
X94190586Y-112157511D01*
X94196069Y-112167006D01*
X94232509Y-112219048D01*
X94242988Y-112227424D01*
X94256434Y-112220356D01*
X94957978Y-111518812D01*
X94965592Y-111504868D01*
X94965461Y-111503035D01*
X94961210Y-111496420D01*
X94255713Y-110790923D01*
X94243938Y-110784493D01*
X94231923Y-110793789D01*
X94196069Y-110844994D01*
X94190586Y-110854489D01*
X94098510Y-111051947D01*
X94094764Y-111062239D01*
X94038375Y-111272688D01*
X94036472Y-111283481D01*
X94017483Y-111500525D01*
X94017483Y-111511475D01*
X93573903Y-111511475D01*
X93528826Y-111372743D01*
X93433339Y-111207355D01*
X93356618Y-111122147D01*
X93325902Y-111058142D01*
X93334666Y-110987688D01*
X93361160Y-110948744D01*
X93911499Y-110398405D01*
X93973811Y-110364379D01*
X94000594Y-110361500D01*
X94502243Y-110361500D01*
X94570364Y-110381502D01*
G37*
%TD.AperFunction*%
%TA.AperFunction,Conductor*%
G36*
X98479088Y-96099502D02*
G01*
X98525581Y-96153158D01*
X98535685Y-96223432D01*
X98532676Y-96238103D01*
X98476457Y-96447913D01*
X98456502Y-96676000D01*
X98476457Y-96904087D01*
X98535716Y-97125243D01*
X98538039Y-97130224D01*
X98538039Y-97130225D01*
X98630151Y-97327762D01*
X98630154Y-97327767D01*
X98632477Y-97332749D01*
X98763802Y-97520300D01*
X98925700Y-97682198D01*
X98930208Y-97685355D01*
X98930211Y-97685357D01*
X99072191Y-97784773D01*
X99116519Y-97840230D01*
X99123828Y-97910850D01*
X99089016Y-97977080D01*
X98182498Y-98883597D01*
X98120188Y-98917621D01*
X98093405Y-98920500D01*
X97809866Y-98920500D01*
X97747684Y-98927255D01*
X97740288Y-98930027D01*
X97740282Y-98930029D01*
X97617229Y-98976160D01*
X97546422Y-98981343D01*
X97528771Y-98976160D01*
X97405718Y-98930029D01*
X97405712Y-98930027D01*
X97398316Y-98927255D01*
X97336134Y-98920500D01*
X96539866Y-98920500D01*
X96477684Y-98927255D01*
X96371518Y-98967055D01*
X96300710Y-98972238D01*
X96283058Y-98967055D01*
X96185606Y-98930522D01*
X96170351Y-98926895D01*
X96119486Y-98921369D01*
X96112672Y-98921000D01*
X95990115Y-98921000D01*
X95974876Y-98925475D01*
X95973671Y-98926865D01*
X95972000Y-98934548D01*
X95972000Y-99882000D01*
X95951998Y-99950121D01*
X95898342Y-99996614D01*
X95846000Y-100008000D01*
X95742160Y-100008000D01*
X95674039Y-99987998D01*
X95641334Y-99957565D01*
X95581643Y-99877920D01*
X95581642Y-99877919D01*
X95576261Y-99870739D01*
X95514435Y-99824403D01*
X95471920Y-99767544D01*
X95464000Y-99723577D01*
X95464000Y-98939116D01*
X95459525Y-98923877D01*
X95458135Y-98922672D01*
X95450452Y-98921001D01*
X95382893Y-98921001D01*
X95314772Y-98900999D01*
X95273774Y-98858002D01*
X95249320Y-98815645D01*
X95232582Y-98746651D01*
X95255802Y-98679559D01*
X95269344Y-98663551D01*
X96186799Y-97746097D01*
X97151949Y-96780947D01*
X97160464Y-96773439D01*
X97165362Y-96770542D01*
X97179683Y-96756221D01*
X97194717Y-96743380D01*
X97204694Y-96736131D01*
X97211107Y-96731472D01*
X97216158Y-96725367D01*
X97216163Y-96725362D01*
X97239299Y-96697396D01*
X97247287Y-96688618D01*
X97819500Y-96116405D01*
X97881812Y-96082379D01*
X97908595Y-96079500D01*
X98410967Y-96079500D01*
X98479088Y-96099502D01*
G37*
%TD.AperFunction*%
%TA.AperFunction,Conductor*%
G36*
X73270727Y-82735502D02*
G01*
X73305819Y-82769229D01*
X73412643Y-82921789D01*
X73415802Y-82926300D01*
X73577700Y-83088198D01*
X73582208Y-83091355D01*
X73582211Y-83091357D01*
X73611311Y-83111733D01*
X73765251Y-83219523D01*
X73770233Y-83221846D01*
X73770238Y-83221849D01*
X73967775Y-83313961D01*
X73972757Y-83316284D01*
X73978065Y-83317706D01*
X73978067Y-83317707D01*
X74188598Y-83374119D01*
X74188600Y-83374119D01*
X74193913Y-83375543D01*
X74422000Y-83395498D01*
X74650087Y-83375543D01*
X74655400Y-83374119D01*
X74655402Y-83374119D01*
X74865933Y-83317707D01*
X74865935Y-83317706D01*
X74871243Y-83316284D01*
X74876225Y-83313961D01*
X75073762Y-83221849D01*
X75073767Y-83221846D01*
X75078749Y-83219523D01*
X75232689Y-83111733D01*
X75261789Y-83091357D01*
X75261792Y-83091355D01*
X75266300Y-83088198D01*
X75428198Y-82926300D01*
X75444732Y-82902688D01*
X75501944Y-82820980D01*
X75557401Y-82776652D01*
X75628020Y-82769343D01*
X75694252Y-82804156D01*
X76531595Y-83641499D01*
X76565621Y-83703811D01*
X76568500Y-83730594D01*
X76568500Y-84014134D01*
X76575255Y-84076316D01*
X76578027Y-84083712D01*
X76578029Y-84083718D01*
X76624160Y-84206771D01*
X76629343Y-84277578D01*
X76624160Y-84295229D01*
X76578029Y-84418282D01*
X76578027Y-84418288D01*
X76575255Y-84425684D01*
X76568500Y-84487866D01*
X76568500Y-85284134D01*
X76575255Y-85346316D01*
X76592263Y-85391684D01*
X76615055Y-85452482D01*
X76620238Y-85523290D01*
X76615055Y-85540942D01*
X76578522Y-85638394D01*
X76574895Y-85653649D01*
X76569369Y-85704514D01*
X76569000Y-85711328D01*
X76569000Y-85833885D01*
X76573475Y-85849124D01*
X76574865Y-85850329D01*
X76582548Y-85852000D01*
X77530000Y-85852000D01*
X77598121Y-85872002D01*
X77644614Y-85925658D01*
X77656000Y-85978000D01*
X77656000Y-86081840D01*
X77635998Y-86149961D01*
X77605565Y-86182666D01*
X77596999Y-86189086D01*
X77518739Y-86247739D01*
X77513358Y-86254919D01*
X77472403Y-86309565D01*
X77415544Y-86352080D01*
X77371577Y-86360000D01*
X76587116Y-86360000D01*
X76571877Y-86364475D01*
X76570672Y-86365865D01*
X76569001Y-86373548D01*
X76569001Y-86500669D01*
X76569371Y-86507490D01*
X76574895Y-86558352D01*
X76578521Y-86573604D01*
X76623676Y-86694054D01*
X76632214Y-86709649D01*
X76708715Y-86811724D01*
X76721276Y-86824285D01*
X76823351Y-86900786D01*
X76838946Y-86909324D01*
X76959394Y-86954478D01*
X76974649Y-86958105D01*
X77025514Y-86963631D01*
X77032328Y-86964000D01*
X77247500Y-86964000D01*
X77315621Y-86984002D01*
X77362114Y-87037658D01*
X77373500Y-87090000D01*
X77373500Y-87309134D01*
X77380255Y-87371316D01*
X77431385Y-87507705D01*
X77518739Y-87624261D01*
X77635295Y-87711615D01*
X77771684Y-87762745D01*
X77833866Y-87769500D01*
X78630134Y-87769500D01*
X78692316Y-87762745D01*
X78699712Y-87759973D01*
X78699718Y-87759971D01*
X78822771Y-87713840D01*
X78893578Y-87708657D01*
X78911229Y-87713840D01*
X79034282Y-87759971D01*
X79034288Y-87759973D01*
X79041684Y-87762745D01*
X79103866Y-87769500D01*
X79900134Y-87769500D01*
X79962316Y-87762745D01*
X79969712Y-87759973D01*
X79969718Y-87759971D01*
X80092771Y-87713840D01*
X80163578Y-87708657D01*
X80181229Y-87713840D01*
X80304282Y-87759971D01*
X80304288Y-87759973D01*
X80311684Y-87762745D01*
X80373866Y-87769500D01*
X80657406Y-87769500D01*
X80725527Y-87789502D01*
X80746501Y-87806405D01*
X82007500Y-89067405D01*
X82041526Y-89129717D01*
X82036461Y-89200533D01*
X81993914Y-89257368D01*
X81927394Y-89282179D01*
X81918405Y-89282500D01*
X74482595Y-89282500D01*
X74414474Y-89262498D01*
X74393500Y-89245595D01*
X73740412Y-88592507D01*
X73706386Y-88530195D01*
X73709674Y-88464478D01*
X73742252Y-88364213D01*
X73782325Y-88305609D01*
X73847721Y-88277972D01*
X73915334Y-88288956D01*
X73967947Y-88313490D01*
X73978239Y-88317236D01*
X74188688Y-88373625D01*
X74199481Y-88375528D01*
X74416525Y-88394517D01*
X74427475Y-88394517D01*
X74644519Y-88375528D01*
X74655312Y-88373625D01*
X74865761Y-88317236D01*
X74876053Y-88313490D01*
X75073511Y-88221414D01*
X75083006Y-88215931D01*
X75135048Y-88179491D01*
X75143424Y-88169012D01*
X75136356Y-88155566D01*
X74063922Y-87083132D01*
X74786408Y-87083132D01*
X74786539Y-87084965D01*
X74790790Y-87091580D01*
X75496287Y-87797077D01*
X75508062Y-87803507D01*
X75520077Y-87794211D01*
X75555931Y-87743006D01*
X75561414Y-87733511D01*
X75653490Y-87536053D01*
X75657236Y-87525761D01*
X75713625Y-87315312D01*
X75715528Y-87304519D01*
X75734517Y-87087475D01*
X75734517Y-87076525D01*
X75715528Y-86859481D01*
X75713625Y-86848688D01*
X75657236Y-86638239D01*
X75653490Y-86627947D01*
X75561414Y-86430489D01*
X75555931Y-86420994D01*
X75519491Y-86368952D01*
X75509012Y-86360576D01*
X75495566Y-86367644D01*
X74794022Y-87069188D01*
X74786408Y-87083132D01*
X74063922Y-87083132D01*
X73347713Y-86366923D01*
X73335938Y-86360493D01*
X73323923Y-86369789D01*
X73288069Y-86420994D01*
X73282586Y-86430489D01*
X73190510Y-86627947D01*
X73186764Y-86638239D01*
X73130375Y-86848688D01*
X73128472Y-86859481D01*
X73109483Y-87076525D01*
X73109483Y-87087482D01*
X73110211Y-87095802D01*
X73096224Y-87165407D01*
X73046825Y-87216401D01*
X72977699Y-87232592D01*
X72969028Y-87231436D01*
X72969015Y-87231563D01*
X72962444Y-87230872D01*
X72955987Y-87229500D01*
X72895500Y-87229500D01*
X72827379Y-87209498D01*
X72780886Y-87155842D01*
X72769500Y-87103500D01*
X72769500Y-85994988D01*
X73700576Y-85994988D01*
X73707644Y-86008434D01*
X74409188Y-86709978D01*
X74423132Y-86717592D01*
X74424965Y-86717461D01*
X74431580Y-86713210D01*
X75137077Y-86007713D01*
X75143507Y-85995938D01*
X75134211Y-85983923D01*
X75083006Y-85948069D01*
X75073511Y-85942586D01*
X74876053Y-85850510D01*
X74865761Y-85846764D01*
X74655312Y-85790375D01*
X74644519Y-85788472D01*
X74427475Y-85769483D01*
X74416525Y-85769483D01*
X74199481Y-85788472D01*
X74188688Y-85790375D01*
X73978239Y-85846764D01*
X73967947Y-85850510D01*
X73770489Y-85942586D01*
X73760994Y-85948069D01*
X73708952Y-85984509D01*
X73700576Y-85994988D01*
X72769500Y-85994988D01*
X72769500Y-83118594D01*
X72789502Y-83050473D01*
X72806405Y-83029499D01*
X73083499Y-82752405D01*
X73145811Y-82718379D01*
X73172594Y-82715500D01*
X73202606Y-82715500D01*
X73270727Y-82735502D01*
G37*
%TD.AperFunction*%
%TA.AperFunction,Conductor*%
G36*
X97548527Y-80917502D02*
G01*
X97595020Y-80971158D01*
X97605124Y-81041432D01*
X97575630Y-81106012D01*
X97569503Y-81112593D01*
X96229547Y-82452548D01*
X96167237Y-82486573D01*
X96096422Y-82481508D01*
X96039586Y-82438961D01*
X96014775Y-82372441D01*
X96018747Y-82330842D01*
X96033625Y-82275316D01*
X96035528Y-82264519D01*
X96054517Y-82047475D01*
X96054517Y-82036525D01*
X96035528Y-81819481D01*
X96033625Y-81808688D01*
X95977236Y-81598239D01*
X95973490Y-81587947D01*
X95881414Y-81390489D01*
X95875931Y-81380994D01*
X95839491Y-81328952D01*
X95829012Y-81320576D01*
X95815566Y-81327644D01*
X94026923Y-83116287D01*
X94017696Y-83133184D01*
X93996204Y-83161891D01*
X92579595Y-84578500D01*
X92517283Y-84612526D01*
X92446467Y-84607461D01*
X92389632Y-84564914D01*
X92364821Y-84498394D01*
X92364500Y-84489405D01*
X92364500Y-82787594D01*
X92384502Y-82719473D01*
X92401405Y-82698499D01*
X93219796Y-81880108D01*
X93282108Y-81846082D01*
X93352923Y-81851147D01*
X93409759Y-81893694D01*
X93434570Y-81960214D01*
X93434412Y-81980184D01*
X93429483Y-82036525D01*
X93429483Y-82047475D01*
X93448472Y-82264519D01*
X93450375Y-82275312D01*
X93506764Y-82485761D01*
X93510510Y-82496053D01*
X93602586Y-82693511D01*
X93608069Y-82703006D01*
X93644509Y-82755048D01*
X93654988Y-82763424D01*
X93668434Y-82756356D01*
X95457077Y-80967713D01*
X95459589Y-80963113D01*
X95509792Y-80912912D01*
X95570176Y-80897500D01*
X97480406Y-80897500D01*
X97548527Y-80917502D01*
G37*
%TD.AperFunction*%
%TA.AperFunction,Conductor*%
G36*
X98375569Y-82202503D02*
G01*
X98432404Y-82245050D01*
X98453243Y-82287947D01*
X98507716Y-82491243D01*
X98510039Y-82496224D01*
X98510039Y-82496225D01*
X98602151Y-82693762D01*
X98602154Y-82693767D01*
X98604477Y-82698749D01*
X98662719Y-82781927D01*
X98703256Y-82839819D01*
X98735802Y-82886300D01*
X98897700Y-83048198D01*
X98902208Y-83051355D01*
X98902211Y-83051357D01*
X99054771Y-83158181D01*
X99099099Y-83213638D01*
X99108500Y-83261394D01*
X99108500Y-83427405D01*
X99088498Y-83495526D01*
X99071595Y-83516500D01*
X98436500Y-84151595D01*
X98374188Y-84185621D01*
X98347405Y-84188500D01*
X98063866Y-84188500D01*
X98001684Y-84195255D01*
X97994288Y-84198027D01*
X97994282Y-84198029D01*
X97871229Y-84244160D01*
X97800422Y-84249343D01*
X97782771Y-84244160D01*
X97659718Y-84198029D01*
X97659712Y-84198027D01*
X97652316Y-84195255D01*
X97590134Y-84188500D01*
X96793866Y-84188500D01*
X96731684Y-84195255D01*
X96625518Y-84235055D01*
X96554710Y-84240238D01*
X96537058Y-84235055D01*
X96439606Y-84198522D01*
X96424351Y-84194895D01*
X96380126Y-84190090D01*
X96314564Y-84162848D01*
X96274138Y-84104485D01*
X96271683Y-84033530D01*
X96307978Y-83972513D01*
X96366312Y-83944131D01*
X96365888Y-83942673D01*
X96365889Y-83942673D01*
X96385343Y-83937021D01*
X96404700Y-83933013D01*
X96416930Y-83931468D01*
X96416931Y-83931468D01*
X96424797Y-83930474D01*
X96432168Y-83927555D01*
X96432170Y-83927555D01*
X96465912Y-83914196D01*
X96477142Y-83910351D01*
X96511983Y-83900229D01*
X96511984Y-83900229D01*
X96519593Y-83898018D01*
X96526412Y-83893985D01*
X96526417Y-83893983D01*
X96537028Y-83887707D01*
X96554776Y-83879012D01*
X96573617Y-83871552D01*
X96581781Y-83865621D01*
X96609387Y-83845564D01*
X96619307Y-83839048D01*
X96650535Y-83820580D01*
X96650538Y-83820578D01*
X96657362Y-83816542D01*
X96671683Y-83802221D01*
X96686717Y-83789380D01*
X96696694Y-83782131D01*
X96703107Y-83777472D01*
X96731298Y-83743395D01*
X96739288Y-83734616D01*
X98242441Y-82231464D01*
X98304753Y-82197438D01*
X98375569Y-82202503D01*
G37*
%TD.AperFunction*%
%TA.AperFunction,Conductor*%
G36*
X75186252Y-74168156D02*
G01*
X76023595Y-75005499D01*
X76057621Y-75067811D01*
X76060500Y-75094594D01*
X76060500Y-75378134D01*
X76067255Y-75440316D01*
X76070027Y-75447712D01*
X76070029Y-75447718D01*
X76116160Y-75570771D01*
X76121343Y-75641578D01*
X76116160Y-75659229D01*
X76070029Y-75782282D01*
X76070027Y-75782288D01*
X76067255Y-75789684D01*
X76060500Y-75851866D01*
X76060500Y-76648134D01*
X76067255Y-76710316D01*
X76107055Y-76816482D01*
X76112238Y-76887290D01*
X76107055Y-76904942D01*
X76070522Y-77002394D01*
X76066895Y-77017649D01*
X76061369Y-77068514D01*
X76061000Y-77075328D01*
X76061000Y-77197885D01*
X76065475Y-77213124D01*
X76066865Y-77214329D01*
X76074548Y-77216000D01*
X77022000Y-77216000D01*
X77090121Y-77236002D01*
X77136614Y-77289658D01*
X77148000Y-77342000D01*
X77148000Y-77445840D01*
X77127998Y-77513961D01*
X77097565Y-77546666D01*
X77088999Y-77553086D01*
X77010739Y-77611739D01*
X77005358Y-77618919D01*
X76964403Y-77673565D01*
X76907544Y-77716080D01*
X76863577Y-77724000D01*
X76079116Y-77724000D01*
X76063877Y-77728475D01*
X76062672Y-77729865D01*
X76061001Y-77737548D01*
X76061001Y-77864669D01*
X76061371Y-77871490D01*
X76066895Y-77922352D01*
X76070521Y-77937604D01*
X76115676Y-78058054D01*
X76124214Y-78073649D01*
X76200715Y-78175724D01*
X76213276Y-78188285D01*
X76315351Y-78264786D01*
X76330946Y-78273324D01*
X76451394Y-78318478D01*
X76466649Y-78322105D01*
X76517514Y-78327631D01*
X76524328Y-78328000D01*
X76739500Y-78328000D01*
X76807621Y-78348002D01*
X76854114Y-78401658D01*
X76865500Y-78454000D01*
X76865500Y-78673134D01*
X76872255Y-78735316D01*
X76923385Y-78871705D01*
X77010739Y-78988261D01*
X77127295Y-79075615D01*
X77263684Y-79126745D01*
X77325866Y-79133500D01*
X78122134Y-79133500D01*
X78184316Y-79126745D01*
X78191712Y-79123973D01*
X78191718Y-79123971D01*
X78314771Y-79077840D01*
X78385578Y-79072657D01*
X78403229Y-79077840D01*
X78526282Y-79123971D01*
X78526288Y-79123973D01*
X78533684Y-79126745D01*
X78595866Y-79133500D01*
X79392134Y-79133500D01*
X79454316Y-79126745D01*
X79461716Y-79123971D01*
X79469400Y-79122144D01*
X79469797Y-79123816D01*
X79531079Y-79119330D01*
X79593447Y-79153252D01*
X79627576Y-79215507D01*
X79630500Y-79242495D01*
X79630500Y-80118661D01*
X79610498Y-80186782D01*
X79563820Y-80226847D01*
X79565001Y-80228893D01*
X79559278Y-80232197D01*
X79553248Y-80234882D01*
X79398747Y-80347134D01*
X79270960Y-80489056D01*
X79175473Y-80654444D01*
X79116458Y-80836072D01*
X79096496Y-81026000D01*
X79097186Y-81032565D01*
X79114455Y-81196866D01*
X79116458Y-81215928D01*
X79175473Y-81397556D01*
X79178776Y-81403278D01*
X79178777Y-81403279D01*
X79191463Y-81425251D01*
X79270960Y-81562944D01*
X79275378Y-81567851D01*
X79275379Y-81567852D01*
X79387333Y-81692190D01*
X79418051Y-81756197D01*
X79409286Y-81826651D01*
X79363823Y-81881182D01*
X79293697Y-81902500D01*
X79103866Y-81902500D01*
X79041684Y-81909255D01*
X79034288Y-81912027D01*
X79034282Y-81912029D01*
X78911229Y-81958160D01*
X78840422Y-81963343D01*
X78822771Y-81958160D01*
X78699718Y-81912029D01*
X78699712Y-81912027D01*
X78692316Y-81909255D01*
X78630134Y-81902500D01*
X78346594Y-81902500D01*
X78278473Y-81882498D01*
X78257499Y-81865595D01*
X76263652Y-79871747D01*
X76256112Y-79863461D01*
X76252000Y-79856982D01*
X76202348Y-79810356D01*
X76199507Y-79807602D01*
X76179770Y-79787865D01*
X76176573Y-79785385D01*
X76167551Y-79777680D01*
X76156294Y-79767109D01*
X76135321Y-79747414D01*
X76128375Y-79743595D01*
X76128372Y-79743593D01*
X76117566Y-79737652D01*
X76101047Y-79726801D01*
X76094839Y-79721986D01*
X76085041Y-79714386D01*
X76077772Y-79711241D01*
X76077768Y-79711238D01*
X76044463Y-79696826D01*
X76033813Y-79691609D01*
X75995060Y-79670305D01*
X75975437Y-79665267D01*
X75956734Y-79658863D01*
X75945420Y-79653967D01*
X75945419Y-79653967D01*
X75938145Y-79650819D01*
X75930322Y-79649580D01*
X75930312Y-79649577D01*
X75894476Y-79643901D01*
X75882856Y-79641495D01*
X75847711Y-79632472D01*
X75847710Y-79632472D01*
X75840030Y-79630500D01*
X75819776Y-79630500D01*
X75800065Y-79628949D01*
X75787886Y-79627020D01*
X75780057Y-79625780D01*
X75772165Y-79626526D01*
X75736039Y-79629941D01*
X75724181Y-79630500D01*
X74762783Y-79630500D01*
X74694662Y-79610498D01*
X74651252Y-79563125D01*
X74628355Y-79519565D01*
X73926812Y-78818022D01*
X73912868Y-78810408D01*
X73911035Y-78810539D01*
X73904420Y-78814790D01*
X73198923Y-79520287D01*
X73178889Y-79556975D01*
X73128686Y-79607176D01*
X73059311Y-79622267D01*
X73042114Y-79619836D01*
X72993487Y-79609500D01*
X72895500Y-79609500D01*
X72827379Y-79589498D01*
X72780886Y-79535842D01*
X72769500Y-79483500D01*
X72769500Y-79273757D01*
X72789502Y-79205636D01*
X72836877Y-79162225D01*
X72840435Y-79160355D01*
X73541978Y-78458812D01*
X73548356Y-78447132D01*
X74278408Y-78447132D01*
X74278539Y-78448965D01*
X74282790Y-78455580D01*
X74988287Y-79161077D01*
X75000062Y-79167507D01*
X75012077Y-79158211D01*
X75047931Y-79107006D01*
X75053414Y-79097511D01*
X75145490Y-78900053D01*
X75149236Y-78889761D01*
X75205625Y-78679312D01*
X75207528Y-78668519D01*
X75226517Y-78451475D01*
X75226517Y-78440525D01*
X75207528Y-78223481D01*
X75205625Y-78212688D01*
X75149236Y-78002239D01*
X75145490Y-77991947D01*
X75053414Y-77794489D01*
X75047931Y-77784994D01*
X75011491Y-77732952D01*
X75001012Y-77724576D01*
X74987566Y-77731644D01*
X74286022Y-78433188D01*
X74278408Y-78447132D01*
X73548356Y-78447132D01*
X73549592Y-78444868D01*
X73549461Y-78443035D01*
X73545210Y-78436420D01*
X72839713Y-77730923D01*
X72835113Y-77728411D01*
X72784912Y-77678208D01*
X72769500Y-77617824D01*
X72769500Y-77358988D01*
X73192576Y-77358988D01*
X73199644Y-77372434D01*
X73901188Y-78073978D01*
X73915132Y-78081592D01*
X73916965Y-78081461D01*
X73923580Y-78077210D01*
X74629077Y-77371713D01*
X74635507Y-77359938D01*
X74626211Y-77347923D01*
X74575006Y-77312069D01*
X74565511Y-77306586D01*
X74368053Y-77214510D01*
X74357761Y-77210764D01*
X74147312Y-77154375D01*
X74136519Y-77152472D01*
X73919475Y-77133483D01*
X73908525Y-77133483D01*
X73691481Y-77152472D01*
X73680688Y-77154375D01*
X73470239Y-77210764D01*
X73459947Y-77214510D01*
X73262489Y-77306586D01*
X73252994Y-77312069D01*
X73200952Y-77348509D01*
X73192576Y-77358988D01*
X72769500Y-77358988D01*
X72769500Y-74456188D01*
X72789502Y-74388067D01*
X72843158Y-74341574D01*
X72913432Y-74331470D01*
X72978012Y-74360964D01*
X72984595Y-74367093D01*
X73069700Y-74452198D01*
X73074208Y-74455355D01*
X73074211Y-74455357D01*
X73075398Y-74456188D01*
X73257251Y-74583523D01*
X73262233Y-74585846D01*
X73262238Y-74585849D01*
X73459775Y-74677961D01*
X73464757Y-74680284D01*
X73470065Y-74681706D01*
X73470067Y-74681707D01*
X73680598Y-74738119D01*
X73680600Y-74738119D01*
X73685913Y-74739543D01*
X73914000Y-74759498D01*
X74142087Y-74739543D01*
X74147400Y-74738119D01*
X74147402Y-74738119D01*
X74357933Y-74681707D01*
X74357935Y-74681706D01*
X74363243Y-74680284D01*
X74368225Y-74677961D01*
X74565762Y-74585849D01*
X74565767Y-74585846D01*
X74570749Y-74583523D01*
X74752602Y-74456188D01*
X74753789Y-74455357D01*
X74753792Y-74455355D01*
X74758300Y-74452198D01*
X74920198Y-74290300D01*
X74926831Y-74280828D01*
X74993944Y-74184980D01*
X75049401Y-74140652D01*
X75120020Y-74133343D01*
X75186252Y-74168156D01*
G37*
%TD.AperFunction*%
%TA.AperFunction,Conductor*%
G36*
X73016727Y-65717502D02*
G01*
X73051819Y-65751229D01*
X73158643Y-65903789D01*
X73161802Y-65908300D01*
X73323700Y-66070198D01*
X73328208Y-66073355D01*
X73328211Y-66073357D01*
X73406389Y-66128098D01*
X73511251Y-66201523D01*
X73516233Y-66203846D01*
X73516238Y-66203849D01*
X73713775Y-66295961D01*
X73718757Y-66298284D01*
X73724065Y-66299706D01*
X73724067Y-66299707D01*
X73934598Y-66356119D01*
X73934600Y-66356119D01*
X73939913Y-66357543D01*
X74168000Y-66377498D01*
X74396087Y-66357543D01*
X74401400Y-66356119D01*
X74401402Y-66356119D01*
X74611933Y-66299707D01*
X74611935Y-66299706D01*
X74617243Y-66298284D01*
X74622225Y-66295961D01*
X74819762Y-66203849D01*
X74819767Y-66203846D01*
X74824749Y-66201523D01*
X74929611Y-66128098D01*
X75007789Y-66073357D01*
X75007792Y-66073355D01*
X75012300Y-66070198D01*
X75174198Y-65908300D01*
X75177357Y-65903789D01*
X75284181Y-65751229D01*
X75339638Y-65706901D01*
X75387394Y-65697500D01*
X75553406Y-65697500D01*
X75621527Y-65717502D01*
X75642501Y-65734405D01*
X76277595Y-66369499D01*
X76311621Y-66431811D01*
X76314500Y-66458594D01*
X76314500Y-66742134D01*
X76321255Y-66804316D01*
X76324027Y-66811712D01*
X76324029Y-66811718D01*
X76370160Y-66934771D01*
X76375343Y-67005578D01*
X76370160Y-67023229D01*
X76324029Y-67146282D01*
X76324027Y-67146288D01*
X76321255Y-67153684D01*
X76314500Y-67215866D01*
X76314500Y-68012134D01*
X76321255Y-68074316D01*
X76352964Y-68158900D01*
X76361055Y-68180482D01*
X76366238Y-68251290D01*
X76361055Y-68268942D01*
X76324522Y-68366394D01*
X76320895Y-68381649D01*
X76315369Y-68432514D01*
X76315000Y-68439328D01*
X76315000Y-68561885D01*
X76319475Y-68577124D01*
X76320865Y-68578329D01*
X76328548Y-68580000D01*
X77276000Y-68580000D01*
X77344121Y-68600002D01*
X77390614Y-68653658D01*
X77402000Y-68706000D01*
X77402000Y-68809840D01*
X77381998Y-68877961D01*
X77351565Y-68910666D01*
X77271920Y-68970357D01*
X77264739Y-68975739D01*
X77259358Y-68982919D01*
X77218403Y-69037565D01*
X77161544Y-69080080D01*
X77117577Y-69088000D01*
X76333116Y-69088000D01*
X76317877Y-69092475D01*
X76316672Y-69093865D01*
X76315001Y-69101548D01*
X76315001Y-69228669D01*
X76315371Y-69235490D01*
X76320895Y-69286352D01*
X76324521Y-69301604D01*
X76369676Y-69422054D01*
X76378214Y-69437649D01*
X76454715Y-69539724D01*
X76467276Y-69552285D01*
X76569351Y-69628786D01*
X76584946Y-69637324D01*
X76705394Y-69682478D01*
X76720649Y-69686105D01*
X76771514Y-69691631D01*
X76778328Y-69692000D01*
X76993500Y-69692000D01*
X77061621Y-69712002D01*
X77108114Y-69765658D01*
X77119500Y-69818000D01*
X77119500Y-70037134D01*
X77126255Y-70099316D01*
X77177385Y-70235705D01*
X77264739Y-70352261D01*
X77381295Y-70439615D01*
X77517684Y-70490745D01*
X77525540Y-70491598D01*
X77526880Y-70491917D01*
X77588527Y-70527135D01*
X77621347Y-70590090D01*
X77614921Y-70660795D01*
X77571289Y-70716802D01*
X77497734Y-70740500D01*
X75493542Y-70740500D01*
X75425421Y-70720498D01*
X75378928Y-70666842D01*
X75368824Y-70596568D01*
X75379347Y-70561251D01*
X75399488Y-70518058D01*
X75403236Y-70507761D01*
X75459625Y-70297312D01*
X75461528Y-70286519D01*
X75480517Y-70069475D01*
X75480517Y-70058525D01*
X75461528Y-69841481D01*
X75459625Y-69830688D01*
X75403236Y-69620239D01*
X75399490Y-69609947D01*
X75307414Y-69412489D01*
X75301931Y-69402994D01*
X75265491Y-69350952D01*
X75255012Y-69342576D01*
X75241566Y-69349644D01*
X74257095Y-70334115D01*
X74194783Y-70368141D01*
X74123968Y-70363076D01*
X74078905Y-70334115D01*
X73093713Y-69348923D01*
X73081938Y-69342493D01*
X73069923Y-69351789D01*
X73034069Y-69402994D01*
X73028586Y-69412489D01*
X73009695Y-69453002D01*
X72962778Y-69506287D01*
X72894500Y-69525748D01*
X72826540Y-69505206D01*
X72780475Y-69451183D01*
X72769500Y-69399752D01*
X72769500Y-68976988D01*
X73446576Y-68976988D01*
X73453644Y-68990434D01*
X74155188Y-69691978D01*
X74169132Y-69699592D01*
X74170965Y-69699461D01*
X74177580Y-69695210D01*
X74883077Y-68989713D01*
X74889507Y-68977938D01*
X74880211Y-68965923D01*
X74829006Y-68930069D01*
X74819511Y-68924586D01*
X74622053Y-68832510D01*
X74611761Y-68828764D01*
X74401312Y-68772375D01*
X74390519Y-68770472D01*
X74173475Y-68751483D01*
X74162525Y-68751483D01*
X73945481Y-68770472D01*
X73934688Y-68772375D01*
X73724239Y-68828764D01*
X73713947Y-68832510D01*
X73516489Y-68924586D01*
X73506994Y-68930069D01*
X73454952Y-68966509D01*
X73446576Y-68976988D01*
X72769500Y-68976988D01*
X72769500Y-65823500D01*
X72789502Y-65755379D01*
X72843158Y-65708886D01*
X72895500Y-65697500D01*
X72948606Y-65697500D01*
X73016727Y-65717502D01*
G37*
%TD.AperFunction*%
%TA.AperFunction,Conductor*%
G36*
X101026328Y-65053502D02*
G01*
X101047302Y-65070405D01*
X101086732Y-65109835D01*
X101120758Y-65172147D01*
X101115693Y-65242962D01*
X101071698Y-65300866D01*
X100988747Y-65361134D01*
X100984332Y-65366037D01*
X100979420Y-65370460D01*
X100978295Y-65369211D01*
X100924986Y-65402051D01*
X100891800Y-65406500D01*
X100786767Y-65406500D01*
X100775584Y-65405973D01*
X100768091Y-65404298D01*
X100760165Y-65404547D01*
X100760164Y-65404547D01*
X100700001Y-65406438D01*
X100696043Y-65406500D01*
X100668144Y-65406500D01*
X100664154Y-65407004D01*
X100652320Y-65407936D01*
X100608111Y-65409326D01*
X100600497Y-65411538D01*
X100600492Y-65411539D01*
X100588659Y-65414977D01*
X100569296Y-65418988D01*
X100549203Y-65421526D01*
X100541836Y-65424443D01*
X100541831Y-65424444D01*
X100508092Y-65437802D01*
X100496865Y-65441646D01*
X100454407Y-65453982D01*
X100447581Y-65458019D01*
X100436972Y-65464293D01*
X100419224Y-65472988D01*
X100400383Y-65480448D01*
X100393967Y-65485110D01*
X100393966Y-65485110D01*
X100364613Y-65506436D01*
X100354693Y-65512952D01*
X100323465Y-65531420D01*
X100323462Y-65531422D01*
X100316638Y-65535458D01*
X100302317Y-65549779D01*
X100287284Y-65562619D01*
X100270893Y-65574528D01*
X100265842Y-65580634D01*
X100242702Y-65608605D01*
X100234712Y-65617384D01*
X100105248Y-65746848D01*
X100042936Y-65780874D01*
X99983541Y-65779459D01*
X99925409Y-65763882D01*
X99925398Y-65763880D01*
X99920087Y-65762457D01*
X99692000Y-65742502D01*
X99463913Y-65762457D01*
X99458600Y-65763881D01*
X99458598Y-65763881D01*
X99248067Y-65820293D01*
X99248065Y-65820294D01*
X99242757Y-65821716D01*
X99237776Y-65824039D01*
X99237775Y-65824039D01*
X99040238Y-65916151D01*
X99040233Y-65916154D01*
X99035251Y-65918477D01*
X98978080Y-65958509D01*
X98852211Y-66046643D01*
X98852208Y-66046645D01*
X98847700Y-66049802D01*
X98685802Y-66211700D01*
X98682645Y-66216208D01*
X98682643Y-66216211D01*
X98632396Y-66287971D01*
X98554477Y-66399251D01*
X98552154Y-66404233D01*
X98552151Y-66404238D01*
X98473102Y-66573762D01*
X98457716Y-66606757D01*
X98456294Y-66612065D01*
X98456293Y-66612067D01*
X98420622Y-66745191D01*
X98398457Y-66827913D01*
X98378502Y-67056000D01*
X98398457Y-67284087D01*
X98399879Y-67289392D01*
X98399881Y-67289406D01*
X98415459Y-67347539D01*
X98413771Y-67418516D01*
X98382848Y-67469248D01*
X97815742Y-68036353D01*
X97807463Y-68043887D01*
X97800982Y-68048000D01*
X97776270Y-68074316D01*
X97754357Y-68097651D01*
X97751602Y-68100493D01*
X97731865Y-68120230D01*
X97729385Y-68123427D01*
X97721682Y-68132447D01*
X97691414Y-68164679D01*
X97687595Y-68171625D01*
X97687593Y-68171628D01*
X97681652Y-68182434D01*
X97670801Y-68198953D01*
X97658386Y-68214959D01*
X97655241Y-68222228D01*
X97655238Y-68222232D01*
X97640826Y-68255537D01*
X97635609Y-68266187D01*
X97614305Y-68304940D01*
X97612334Y-68312615D01*
X97612334Y-68312616D01*
X97609267Y-68324562D01*
X97602863Y-68343266D01*
X97594819Y-68361855D01*
X97593580Y-68369678D01*
X97593577Y-68369688D01*
X97587901Y-68405524D01*
X97585495Y-68417144D01*
X97579811Y-68439283D01*
X97574500Y-68459970D01*
X97574500Y-68480224D01*
X97572949Y-68499934D01*
X97569780Y-68519943D01*
X97570526Y-68527835D01*
X97573941Y-68563961D01*
X97574500Y-68575819D01*
X97574500Y-69161505D01*
X97554498Y-69229626D01*
X97500842Y-69276119D01*
X97430568Y-69286223D01*
X97413407Y-69281827D01*
X97413400Y-69281856D01*
X97405716Y-69280029D01*
X97398316Y-69277255D01*
X97336134Y-69270500D01*
X96539866Y-69270500D01*
X96477684Y-69277255D01*
X96386237Y-69311537D01*
X96371518Y-69317055D01*
X96300710Y-69322238D01*
X96283058Y-69317055D01*
X96185606Y-69280522D01*
X96170351Y-69276895D01*
X96119486Y-69271369D01*
X96112672Y-69271000D01*
X95990115Y-69271000D01*
X95974876Y-69275475D01*
X95973671Y-69276865D01*
X95972000Y-69284548D01*
X95972000Y-70232000D01*
X95951998Y-70300121D01*
X95898342Y-70346614D01*
X95846000Y-70358000D01*
X95742160Y-70358000D01*
X95674039Y-70337998D01*
X95641334Y-70307565D01*
X95581643Y-70227920D01*
X95581642Y-70227919D01*
X95576261Y-70220739D01*
X95514435Y-70174403D01*
X95471920Y-70117544D01*
X95464000Y-70073577D01*
X95464000Y-69289116D01*
X95459525Y-69273877D01*
X95438109Y-69255320D01*
X95399725Y-69195594D01*
X95395311Y-69146925D01*
X95400814Y-69094565D01*
X95401504Y-69088000D01*
X95389705Y-68975739D01*
X95382232Y-68904635D01*
X95382232Y-68904633D01*
X95381542Y-68898072D01*
X95322527Y-68716444D01*
X95227040Y-68551056D01*
X95187957Y-68507650D01*
X95149891Y-68465373D01*
X95119173Y-68401366D01*
X95127938Y-68330912D01*
X95173401Y-68276381D01*
X95190277Y-68266868D01*
X95343511Y-68195414D01*
X95353006Y-68189931D01*
X95405048Y-68153491D01*
X95413424Y-68143012D01*
X95406356Y-68129566D01*
X94704812Y-67428022D01*
X94690868Y-67420408D01*
X94689035Y-67420539D01*
X94682420Y-67424790D01*
X93976923Y-68130287D01*
X93970493Y-68142062D01*
X93989572Y-68166724D01*
X94015435Y-68232842D01*
X94001445Y-68302447D01*
X93963975Y-68345759D01*
X93887439Y-68401366D01*
X93876747Y-68409134D01*
X93872326Y-68414044D01*
X93872325Y-68414045D01*
X93794990Y-68499935D01*
X93748960Y-68551056D01*
X93653473Y-68716444D01*
X93594458Y-68898072D01*
X93593768Y-68904633D01*
X93593768Y-68904635D01*
X93591141Y-68929634D01*
X93577261Y-69061699D01*
X93577226Y-69062030D01*
X93550213Y-69127687D01*
X93543773Y-69135105D01*
X93532673Y-69146925D01*
X93526355Y-69153653D01*
X93523602Y-69156493D01*
X93503865Y-69176230D01*
X93501385Y-69179427D01*
X93493682Y-69188447D01*
X93463414Y-69220679D01*
X93459595Y-69227625D01*
X93459593Y-69227628D01*
X93453652Y-69238434D01*
X93442801Y-69254953D01*
X93430386Y-69270959D01*
X93427241Y-69278228D01*
X93427238Y-69278232D01*
X93412826Y-69311537D01*
X93407559Y-69322278D01*
X93407206Y-69322919D01*
X93356825Y-69372941D01*
X93287397Y-69387784D01*
X93220966Y-69362735D01*
X93207741Y-69351233D01*
X90917984Y-67061475D01*
X93379483Y-67061475D01*
X93398472Y-67278519D01*
X93400375Y-67289312D01*
X93456764Y-67499761D01*
X93460510Y-67510053D01*
X93552586Y-67707511D01*
X93558069Y-67717006D01*
X93594509Y-67769048D01*
X93604988Y-67777424D01*
X93618434Y-67770356D01*
X94319978Y-67068812D01*
X94326356Y-67057132D01*
X95056408Y-67057132D01*
X95056539Y-67058965D01*
X95060790Y-67065580D01*
X95766287Y-67771077D01*
X95778062Y-67777507D01*
X95790077Y-67768211D01*
X95825931Y-67717006D01*
X95831414Y-67707511D01*
X95923490Y-67510053D01*
X95927236Y-67499761D01*
X95983625Y-67289312D01*
X95985528Y-67278519D01*
X96004517Y-67061475D01*
X96004517Y-67050525D01*
X95985528Y-66833481D01*
X95983625Y-66822688D01*
X95927236Y-66612239D01*
X95923490Y-66601947D01*
X95831414Y-66404489D01*
X95825931Y-66394994D01*
X95789491Y-66342952D01*
X95779012Y-66334576D01*
X95765566Y-66341644D01*
X95064022Y-67043188D01*
X95056408Y-67057132D01*
X94326356Y-67057132D01*
X94327592Y-67054868D01*
X94327461Y-67053035D01*
X94323210Y-67046420D01*
X93617713Y-66340923D01*
X93605938Y-66334493D01*
X93593923Y-66343789D01*
X93558069Y-66394994D01*
X93552586Y-66404489D01*
X93460510Y-66601947D01*
X93456764Y-66612239D01*
X93400375Y-66822688D01*
X93398472Y-66833481D01*
X93379483Y-67050525D01*
X93379483Y-67061475D01*
X90917984Y-67061475D01*
X89825497Y-65968988D01*
X93970576Y-65968988D01*
X93977644Y-65982434D01*
X94679188Y-66683978D01*
X94693132Y-66691592D01*
X94694965Y-66691461D01*
X94701580Y-66687210D01*
X95407077Y-65981713D01*
X95413507Y-65969938D01*
X95404211Y-65957923D01*
X95353006Y-65922069D01*
X95343511Y-65916586D01*
X95146053Y-65824510D01*
X95135761Y-65820764D01*
X94925312Y-65764375D01*
X94914519Y-65762472D01*
X94697475Y-65743483D01*
X94686525Y-65743483D01*
X94469481Y-65762472D01*
X94458688Y-65764375D01*
X94248239Y-65820764D01*
X94237947Y-65824510D01*
X94040489Y-65916586D01*
X94030994Y-65922069D01*
X93978952Y-65958509D01*
X93970576Y-65968988D01*
X89825497Y-65968988D01*
X89105104Y-65248595D01*
X89071078Y-65186283D01*
X89076143Y-65115467D01*
X89118690Y-65058632D01*
X89185210Y-65033821D01*
X89194199Y-65033500D01*
X100958207Y-65033500D01*
X101026328Y-65053502D01*
G37*
%TD.AperFunction*%
%TD*%
M02*
